<svg xmlns="http://www.w3.org/2000/svg" width="96" height="96" viewBox="0 0 96 96" fill="none">
    <path d="M44.2426 77.968L17.1222 50.8476C16.7113 50.4367 16.4195 49.9915 16.247 49.5121C16.0771 49.0327 15.9922 48.5191 15.9922 47.9712C15.9922 47.4233 16.0771 46.9097 16.247 46.4303C16.4195 45.9508 16.7113 45.5057 17.1222 45.0948L44.2426 17.9744C44.9959 17.221 45.9369 16.8266 47.0656 16.791C48.197 16.7581 49.1736 17.1526 49.9954 17.9744C50.8172 18.7277 51.2459 19.6687 51.2816 20.7974C51.3144 21.9288 50.92 22.9054 50.0981 23.7272L29.9633 43.862H75.883C77.0473 43.862 78.0239 44.2551 78.8129 45.0414C79.5991 45.8303 79.9922 46.8069 79.9922 47.9712C79.9922 49.1354 79.5991 50.1107 78.8129 50.8969C78.0239 51.6858 77.0473 52.0803 75.883 52.0803H29.9633L50.0981 72.2152C50.8515 72.9685 51.2459 73.9273 51.2816 75.0916C51.3144 76.2558 50.92 77.2146 50.0981 77.968C49.3448 78.7898 48.386 79.2007 47.2217 79.2007C46.0575 79.2007 45.0644 78.7898 44.2426 77.968Z" fill="white"/>
</svg>