<svg width="600" height="611" viewBox="0 0 600 611" fill="none" xmlns="http://www.w3.org/2000/svg">
<g clip-path="url(#clip0_2047_2454)">
<path fill-rule="evenodd" clip-rule="evenodd" d="M567.909 376.951C556.733 507.974 441.97 610.975 302.044 610.975C189.819 610.975 93.7793 544.718 54.3868 450.888C30.6639 454.439 9.17604 437.265 2.18928 407.22C-5.12831 375.752 6.23205 342.08 31.2712 336.287C32.8882 335.913 34.5101 335.65 36.1316 335.494C47.0243 204.201 161.917 100.902 302.044 100.902C415.386 100.902 512.218 168.484 550.86 263.798C573.995 265.986 592.131 293.005 594.284 322.955C596.147 348.86 585.485 369.07 567.909 376.951Z" fill="url(#paint0_linear_2047_2454)"/>
<path fill-rule="evenodd" clip-rule="evenodd" d="M237.773 187.818C152.435 201.559 94.4501 281.87 108.26 367.197C121.495 448.967 195.861 505.67 277.142 498.162C278.786 500.754 280.212 503.393 281.184 505.916C283.383 511.626 284.184 519.149 284.383 525.856C284.549 531.44 291.585 534.687 295.577 530.767C309.978 516.629 319.875 506.917 351.725 486.519L389.72 480.401C475.058 466.66 533.043 386.35 519.233 301.022C505.422 215.695 425.047 157.663 339.708 171.405L237.773 187.818Z" fill="#0C152D"/>
<ellipse cx="231.013" cy="337.688" rx="28.9306" ry="28.8562" fill="#00E707"/>
<ellipse cx="419.821" cy="311.36" rx="28.9306" ry="28.8562" fill="#00E707"/>
<path fill-rule="evenodd" clip-rule="evenodd" d="M296.742 330.198C298.3 344.67 310.584 355.939 325.506 355.939C341.484 355.939 354.437 343.019 354.437 327.082C354.437 325.403 354.293 323.757 354.017 322.156L296.742 330.198Z" fill="#00E707"/>
<path d="M302.034 34.5216C302.034 53.143 286.899 68.2385 268.23 68.2385C249.56 68.2385 234.426 53.143 234.426 34.5216C234.426 15.9003 249.56 0.804688 268.23 0.804688C286.899 0.804688 302.034 15.9003 302.034 34.5216Z" fill="white"/>
</g>
<defs>
<linearGradient id="paint0_linear_2047_2454" x1="302.061" y1="100.902" x2="302.061" y2="806.874" gradientUnits="userSpaceOnUse">
<stop stop-color="white"/>
<stop offset="1" stop-color="#41D1FF"/>
</linearGradient>
<clipPath id="clip0_2047_2454">
<rect width="600" height="610.169" fill="white" transform="translate(-0.0078125 0.804688)"/>
</clipPath>
</defs>
</svg>
