<svg width="177" height="180" viewBox="0 0 177 180" fill="none" xmlns="http://www.w3.org/2000/svg">
<g clip-path="url(#clip0_2047_2295)">
<path fill-rule="evenodd" clip-rule="evenodd" d="M167.531 110.962C164.232 149.612 130.378 179.995 89.1011 179.995C55.9916 179.995 27.658 160.446 16.0391 132.762C9.04128 133.809 2.70292 128.743 0.641932 119.88C-1.51676 110.597 1.83455 100.663 9.22111 98.9546C9.69897 98.844 10.1783 98.7663 10.6575 98.7202C13.8747 59.9924 47.7662 29.5234 89.1011 29.5234C122.54 29.5234 151.108 49.4639 162.505 77.5859C169.325 78.2383 174.67 86.2055 175.305 95.0362C175.854 102.675 172.712 108.635 167.531 110.962Z" fill="url(#paint0_linear_2047_2295)"/>
<path fill-rule="evenodd" clip-rule="evenodd" d="M70.1305 55.1509C44.9557 59.2045 27.8502 82.8962 31.9242 108.068C35.8289 132.193 57.7722 148.922 81.7541 146.702C82.2409 147.468 82.663 148.249 82.9505 148.995C83.5993 150.68 83.8354 152.899 83.8943 154.878C83.9433 156.525 86.0188 157.483 87.1965 156.326C91.4473 152.153 94.3676 149.287 103.776 143.263L114.955 141.463C140.13 137.409 157.235 113.718 153.161 88.5462C149.087 63.3747 125.376 46.2553 100.201 50.309L70.1305 55.1509Z" fill="#0C152D"/>
<ellipse cx="68.14" cy="99.3641" rx="8.53454" ry="8.51257" fill="#00E707"/>
<ellipse cx="123.843" cy="91.6102" rx="8.53454" ry="8.51257" fill="#00E707"/>
<path fill-rule="evenodd" clip-rule="evenodd" d="M87.4883 97.1694C87.9531 101.433 91.5742 104.751 95.9724 104.751C100.686 104.751 104.507 100.94 104.507 96.2387C104.507 95.7472 104.465 95.2655 104.385 94.7969L87.4883 97.1694Z" fill="#00E707"/>
<path d="M89.1006 9.93868C89.1006 15.432 84.6359 19.8852 79.1284 19.8852C73.6209 19.8852 69.1562 15.432 69.1562 9.93868C69.1562 4.44539 73.6209 -0.0078125 79.1284 -0.0078125C84.6359 -0.0078125 89.1006 4.44539 89.1006 9.93868Z" fill="white"/>
</g>
<defs>
<linearGradient id="paint0_linear_2047_2295" x1="89.1015" y1="29.5234" x2="89.1015" y2="237.785" gradientUnits="userSpaceOnUse">
<stop stop-color="white"/>
<stop offset="1" stop-color="#41D1FF"/>
</linearGradient>
<clipPath id="clip0_2047_2295">
<rect width="177" height="180" fill="white" transform="translate(-0.00390625 -0.0078125)"/>
</clipPath>
</defs>
</svg>
