<svg xmlns="http://www.w3.org/2000/svg" width="144" height="144" viewBox="0 0 144 144" fill="none">
    <g clip-path="url(#clip0_2047_2492)">
        <path d="M72.0078 84.1373C80.0707 84.1373 86.5307 77.6287 86.5307 69.5659L86.5792 40.423C86.5792 32.3601 80.0707 25.8516 72.0078 25.8516C63.945 25.8516 57.4364 32.3601 57.4364 40.423V69.5659C57.4364 77.6287 63.945 84.1373 72.0078 84.1373ZM97.7507 69.5659C97.7507 84.1373 85.4135 94.3373 72.0078 94.3373C58.6021 94.3373 46.265 84.1373 46.265 69.5659H38.0078C38.0078 86.1773 51.2192 99.8259 67.1507 102.206V118.137H76.865V102.206C92.7964 99.8744 106.008 86.1773 106.008 69.5659H97.7507Z" fill="white"/>
    </g>
    <defs>
        <clipPath id="clip0_2047_2492">
            <rect width="144" height="144" fill="white" transform="translate(0 -0.0078125)"/>
        </clipPath>
    </defs>
</svg>