<svg xmlns="http://www.w3.org/2000/svg" width="84" height="85" viewBox="0 0 84 85" fill="none">
    <path d="M68.2533 34.1267C68.2533 41.6575 65.8087 48.6141 61.6905 54.2581L82.4618 75.0459C84.5127 77.0967 84.5127 80.4274 82.4618 82.4782C80.411 84.5291 77.0803 84.5291 75.0294 82.4782L54.2581 61.6905C48.6141 65.8251 41.6575 68.2533 34.1267 68.2533C15.275 68.2533 0 52.9784 0 34.1267C0 15.275 15.275 0 34.1267 0C52.9784 0 68.2533 15.275 68.2533 34.1267ZM34.1267 57.7528C37.2293 57.7528 40.3015 57.1417 43.168 55.9544C46.0345 54.7671 48.639 53.0268 50.8329 50.8329C53.0268 48.639 54.7671 46.0345 55.9544 43.168C57.1417 40.3015 57.7528 37.2293 57.7528 34.1267C57.7528 31.024 57.1417 27.9518 55.9544 25.0853C54.7671 22.2189 53.0268 19.6143 50.8329 17.4205C48.639 15.2266 46.0345 13.4863 43.168 12.2989C40.3015 11.1116 37.2293 10.5005 34.1267 10.5005C31.024 10.5005 27.9518 11.1116 25.0853 12.2989C22.2189 13.4863 19.6143 15.2266 17.4205 17.4205C15.2266 19.6143 13.4863 22.2189 12.2989 25.0853C11.1116 27.9518 10.5005 31.024 10.5005 34.1267C10.5005 37.2293 11.1116 40.3015 12.2989 43.168C13.4863 46.0345 15.2266 48.639 17.4205 50.8329C19.6143 53.0268 22.2189 54.7671 25.0853 55.9544C27.9518 57.1417 31.024 57.7528 34.1267 57.7528Z" fill="#20B625"/>
</svg>