<svg width="149" height="147" viewBox="0 0 149 147" fill="none" xmlns="http://www.w3.org/2000/svg">
<path d="M132.421 49.2641C132.835 49.2641 133.249 49.0877 133.541 48.7503C134.07 48.1329 133.997 47.2012 133.38 46.6721C133.134 46.465 132.969 46.1353 132.877 45.6675C132.789 45.1729 132.816 44.6744 132.962 44.1874C133.038 43.9459 133.146 43.6851 133.284 43.4167C133.848 44.0264 134.511 44.6361 135.266 45.2419C137.249 46.7679 138.775 46.5608 139.737 46.0969C140.615 45.7518 141.244 45.0348 141.512 44.0762C141.731 43.2863 141.727 42.5195 141.493 41.7871C141.274 40.633 140.531 39.5901 139.281 38.6929C138.475 37.9682 137.586 37.5541 136.631 37.4621C135.734 37.2819 134.779 37.5311 133.836 38.1983C133.801 37.5503 133.943 36.9061 134.262 36.2389C134.614 35.5066 134.304 34.6247 133.568 34.2758C132.835 33.923 131.957 34.2374 131.604 34.9698C130.692 36.8793 130.646 38.8271 131.466 40.7558C130.838 41.653 130.404 42.5004 130.144 43.3286C129.864 44.268 129.81 45.2342 129.983 46.2158C130.216 47.3776 130.715 48.271 131.466 48.9152C131.739 49.1452 132.08 49.2641 132.421 49.2641ZM136.129 40.3608C136.156 40.3608 136.183 40.3608 136.209 40.3685C136.673 40.4183 137.003 40.5908 137.344 40.9091C137.394 40.9551 137.448 40.9973 137.502 41.0356C137.962 41.3577 138.521 41.8485 138.598 42.3546C138.614 42.4505 138.637 42.5463 138.671 42.6384C138.713 42.7572 138.763 42.9566 138.671 43.271C138.606 43.294 138.518 43.3976 138.456 43.4321C138.092 43.6238 137.436 43.1905 137.08 42.9183C136.267 42.2664 135.592 41.6185 135.067 40.9896C135.496 40.5755 135.864 40.3608 136.129 40.3608Z" fill="black"/>
<path d="M41.9263 86.6666L36.0879 93.998C42.3017 96.225 47.1892 100.117 50.7523 105.676L56.5907 98.3449C53.0622 92.7426 48.1746 88.8503 41.9263 86.6666Z" fill="#FFF64F"/>
<path d="M50.7069 107.137C51.1555 107.137 51.5773 106.934 51.8572 106.581L57.6968 99.25C58.0878 98.7592 58.1224 98.0767 57.7888 97.5476C54.0964 91.685 48.9048 87.5516 42.3636 85.2625C41.7692 85.0593 41.1136 85.2472 40.7263 85.7341L34.8867 93.0653C34.5915 93.4372 34.4918 93.928 34.6222 94.3843C34.7525 94.8405 35.0938 95.2086 35.5424 95.3697C41.4126 97.4709 46.0943 101.202 49.4607 106.455C49.7176 106.853 50.1509 107.106 50.6225 107.129C50.657 107.137 50.68 107.137 50.7069 107.137ZM54.729 98.2492L50.7912 103.192C47.5743 98.8014 43.4295 95.5039 38.4334 93.349L42.3674 88.4066C47.4861 90.4005 51.6386 93.7056 54.729 98.2492Z" fill="black"/>
<path d="M55.3081 11.1189L46.5326 14.5689C46.8232 21.1967 49.0986 27.0138 53.3561 32.022L62.1316 28.5721C57.8722 23.5613 55.5968 17.7442 55.3081 11.1189Z" fill="#FF8888"/>
<path d="M53.3264 33.5099C53.5066 33.51 53.6907 33.4754 53.8632 33.4064L62.6399 29.9594C63.0846 29.7869 63.4144 29.4073 63.5294 28.9472C63.6444 28.4871 63.5294 27.9963 63.2227 27.6359C59.2006 22.9044 57.0189 17.3331 56.7467 11.0718C56.7275 10.5963 56.4745 10.163 56.0795 9.9023C55.6808 9.64157 55.1785 9.59171 54.7375 9.76808L45.9609 13.2189C45.3743 13.449 45.0023 14.0241 45.0292 14.6529C45.332 21.5815 47.7438 27.7547 52.203 32.9961C52.4906 33.3297 52.9047 33.5099 53.3264 33.5099ZM59.7066 27.9503L53.7865 30.2776C50.4009 25.9947 48.4685 21.0562 48.0391 15.5693L53.9592 13.2419C54.5343 18.6713 56.4629 23.6022 59.7066 27.9503Z" fill="black"/>
<path d="M104.372 51.7637L116.93 58.3631L115.53 42.9029L102.998 37.8795L104.372 51.7637Z" fill="#7ED3FF"/>
<path d="M116.902 59.8544C117.19 59.8544 117.474 59.7701 117.719 59.6052C118.168 59.3061 118.417 58.7847 118.371 58.2479L116.972 42.7881C116.922 42.2359 116.565 41.7605 116.051 41.5534L103.521 36.5305C103.046 36.3387 102.501 36.4078 102.087 36.7183C101.677 37.0289 101.454 37.5312 101.504 38.0412L102.877 51.9251C102.927 52.4197 103.218 52.853 103.659 53.0831L116.216 59.6819C116.435 59.7969 116.669 59.8544 116.902 59.8544ZM114.119 43.9537L115.192 55.8169L105.733 50.8477L104.675 40.1692L114.119 43.9537Z" fill="black"/>
<path d="M95.2995 93.3586L88.1045 99.9734L92.6113 106.068L101.952 102.354L95.2995 93.3586Z" fill="#AAEF72"/>
<path d="M92.5744 107.557C92.7585 107.557 92.9425 107.523 93.1189 107.454L102.459 103.738C102.885 103.57 103.207 103.213 103.333 102.772C103.46 102.331 103.372 101.86 103.099 101.492L96.4509 92.5001C96.2017 92.1665 95.8221 91.948 95.408 91.9096C94.9824 91.8675 94.5798 92.0093 94.2692 92.2892L87.0723 98.9033C86.5201 99.4133 86.4358 100.257 86.8844 100.863L91.3896 106.955C91.6772 107.343 92.122 107.557 92.5744 107.557ZM99.595 101.71L93.0882 104.298L90.0438 100.18L95.0591 95.5714L99.595 101.71Z" fill="black"/>
<path d="M10.6812 54.166L17.0401 62.7652L26.0819 56.0788L18.2006 48.6054L10.6812 54.166Z" fill="#FFB1D9"/>
<path d="M16.9997 64.2506C17.3141 64.2506 17.6208 64.1509 17.8739 63.963L26.9151 57.2761C27.264 57.0154 27.4825 56.6166 27.5094 56.1833C27.5362 55.7501 27.3675 55.3245 27.0531 55.0254L19.1699 47.5523C18.6523 47.0615 17.8586 47.0117 17.2796 47.4373L9.76063 52.997C9.10497 53.4801 8.96694 54.4042 9.45388 55.056L15.811 63.6563C16.0411 63.9707 16.39 64.1778 16.7773 64.2391C16.854 64.2429 16.9306 64.2506 16.9997 64.2506ZM23.7557 55.9494L17.3103 60.7154L12.7015 54.4847L18.0426 50.5354L23.7557 55.9494Z" fill="black"/>
<path d="M96.8529 4.36788L87.0985 3.78774L85.8458 11.2617L95.0038 15.4L96.8529 4.36788Z" fill="#AAEF72"/>
<path d="M94.9602 16.8274C95.1979 16.8274 95.4395 16.7699 95.6542 16.6549C96.0568 16.4401 96.3367 16.0491 96.4134 15.6004L98.2616 4.57297C98.3307 4.1627 98.2195 3.7371 97.9626 3.41118C97.7019 3.08526 97.3146 2.88204 96.8967 2.85903L87.1422 2.27611C86.3869 2.23009 85.7274 2.75922 85.6008 3.50307L84.3469 10.9761C84.2357 11.6356 84.5846 12.2875 85.1943 12.5597L94.3505 16.697C94.5461 16.7814 94.7531 16.8274 94.9602 16.8274ZM95.0868 5.69639L93.8253 13.2231L87.445 10.3397L88.2925 5.28988L95.0868 5.69639Z" fill="black"/>
<path d="M58.3963 74.3803C58.7606 74.3803 59.121 74.2461 59.4086 73.9777C59.9991 73.4179 60.0259 72.4862 59.4699 71.8957C59.3856 71.8075 58.9983 71.2669 59.4546 69.2731C59.5198 69.1044 59.5965 68.905 59.6809 68.6749C60.5666 69.7869 61.3679 70.5307 62.1194 70.9333C64.1554 72.1756 65.7926 71.7577 66.7972 71.1749C68.2044 70.3965 68.2581 69.3268 68.1584 68.744C68.1469 68.1458 68.0165 67.5132 67.7711 66.8537C67.5603 66.0715 66.8509 65.2509 65.5703 64.3997C64.5811 63.5869 63.5803 63.0999 62.5911 62.9504C62.4722 62.9312 62.3533 62.9312 62.2306 62.9427C61.3833 63.0232 60.6279 63.2456 59.9646 63.606C59.9301 63.5178 59.9071 63.445 59.8879 63.3798C59.6962 62.4366 59.9301 61.4741 60.6088 60.4427C61.0536 59.7641 60.8657 58.8477 60.187 58.4029C59.5045 57.9543 58.592 58.146 58.1472 58.8247C57.0237 60.5386 56.6441 62.2908 57.0161 64.0316C57.0199 64.0508 57.0237 64.0661 57.0276 64.0853C57.0314 64.1045 57.0352 64.1236 57.0429 64.139C57.1733 64.6106 57.3995 65.1474 57.7331 65.757C57.5567 66.0484 57.3995 66.3667 57.2653 66.7079C57.0045 67.4288 56.8128 67.9387 56.6786 68.2876C56.6518 68.3528 56.6326 68.418 56.6134 68.487C56.0153 70.9947 56.2492 72.7699 57.3266 73.9125C57.6142 74.227 58.0052 74.3803 58.3963 74.3803ZM65.206 68.6903C64.9645 68.8091 64.4813 68.928 63.5841 68.3797C63.2429 68.1957 62.6409 67.7432 61.6095 66.3475C61.5596 66.2823 61.5098 66.2172 61.4638 66.152C61.713 66.0293 61.9968 65.9488 62.3188 65.9027C62.7444 66.0063 63.2199 66.2823 63.7413 66.7195C63.7873 66.754 63.8333 66.7885 63.8794 66.823C64.8226 67.4441 64.9683 67.7777 64.9683 67.7816C65.114 68.165 65.1868 68.4526 65.206 68.6903Z" fill="black"/>
<path d="M84.883 146.08C85.5501 146.08 86.3668 145.877 87.3407 145.455C88.56 145.068 89.5148 144.496 90.1781 143.749C90.2586 143.66 90.3276 143.561 90.3813 143.453C90.7724 142.698 90.9986 141.943 91.06 141.191C91.152 141.21 91.2287 141.23 91.29 141.249C92.1872 141.605 92.8659 142.326 93.3605 143.453C93.6864 144.197 94.553 144.531 95.3007 144.209C96.0445 143.879 96.3819 143.012 96.056 142.269C95.2316 140.397 93.9702 139.125 92.3061 138.488C92.2831 138.48 92.2639 138.473 92.2447 138.465C92.2294 138.457 92.2141 138.454 92.1987 138.45C91.7271 138.3 91.1558 138.2 90.4657 138.147C90.3161 137.84 90.1359 137.537 89.925 137.238C89.4649 136.628 89.139 136.191 88.9243 135.885C88.8821 135.827 88.8361 135.773 88.79 135.724C87.0148 133.856 85.4044 133.074 83.8515 133.369C83.0502 133.515 82.521 134.282 82.6667 135.083C82.8124 135.885 83.5831 136.421 84.3807 136.268C84.5072 136.245 85.1628 136.214 86.5854 137.687C86.6927 137.832 86.8154 138.005 86.965 138.204C85.5501 138.342 84.4957 138.607 83.7442 139.017C81.5893 140.049 81.0525 141.651 80.9912 142.805C80.88 144.412 81.7504 145.041 82.291 145.275C82.7972 145.589 83.3953 145.823 84.0816 145.976C84.3232 146.042 84.5877 146.08 84.883 146.08ZM87.8545 141.92C87.5363 142.219 87.0455 142.468 86.3975 142.667C86.34 142.687 86.2863 142.706 86.2326 142.729C85.2012 143.185 84.8446 143.12 84.837 143.12C84.4382 143.028 84.1621 142.932 83.9512 142.821C83.9857 142.549 84.1468 142.085 85.0939 141.628C85.4313 141.448 86.1406 141.184 87.8737 141.08C87.9542 141.076 88.0347 141.069 88.1153 141.069C88.0769 141.341 87.9925 141.621 87.8545 141.92Z" fill="black"/>
</svg>
