<svg width="440" height="440" viewBox="0 0 440 440" fill="none" xmlns="http://www.w3.org/2000/svg">
<g clip-path="url(#clip0_3083_1932)">
<path d="M237.18 148.881C239.051 148.144 241.131 148.104 243.423 148.758C245.725 149.333 247.285 150.909 248.108 153.488C248.936 156.025 248.719 158.478 247.457 160.847C246.149 163.195 242.696 166.719 237.102 171.417C231.445 176.061 225.609 180.379 219.588 184.37C218.102 185.326 216.74 186.174 215.499 186.918C211.823 189.166 209.404 190.333 208.242 190.422C206.7 190.523 205.421 190.326 204.406 189.83C203.389 189.335 202.4 188.527 201.434 187.406C200.474 186.244 199.68 185.017 199.056 183.726C198.483 182.354 198.328 180.808 198.597 179.084C198.82 177.514 199.195 176.159 199.72 175.018C200.233 173.9 200.974 172.957 201.943 172.185C202.898 171.381 204.77 170.155 207.557 168.511C210.35 166.826 216.613 162.537 226.349 155.64C226.07 154.621 226.003 153.527 226.154 152.356C226.254 151.594 226.51 150.95 226.918 150.419C227.46 149.758 228.052 149.389 228.69 149.311C229.183 149.273 229.635 149.376 230.051 149.622C230.443 149.916 230.768 150.266 231.021 150.672C231.206 150.949 231.364 151.316 231.493 151.771C231.533 151.718 231.584 151.667 231.649 151.622C233.393 150.502 235.237 149.589 237.18 148.881Z" fill="#00D373"/>
<path d="M215.822 187.507C215.919 187.505 216.015 187.478 216.106 187.424C217.316 186.691 218.669 185.836 220.127 184.888C226.016 180.93 231.798 176.589 237.316 171.983C242.895 167.217 246.245 163.722 247.564 161.294C248.86 158.795 249.07 156.174 248.198 153.494C247.32 150.739 245.634 149.017 243.19 148.383C240.842 147.684 238.655 147.719 236.709 148.49C234.938 149.138 233.219 149.977 231.603 150.985C231.516 150.782 231.421 150.604 231.314 150.444C231.037 149.996 230.672 149.591 230.232 149.257C230.218 149.245 230.201 149.236 230.185 149.225C229.677 148.92 229.118 148.787 228.522 148.83C227.719 148.923 227.006 149.364 226.382 150.142C225.914 150.764 225.629 151.506 225.524 152.364C225.393 153.459 225.438 154.506 225.659 155.487C216.367 162.163 210.301 166.375 207.621 168.014C207.357 168.175 207.269 168.515 207.422 168.774C207.575 169.032 207.914 169.11 208.178 168.949C210.913 167.278 217.112 162.971 226.603 156.149C226.796 156.011 226.885 155.768 226.821 155.544C226.559 154.595 226.494 153.557 226.624 152.464C226.705 151.809 226.916 151.248 227.253 150.802C227.677 150.273 228.12 149.984 228.596 149.929C228.93 149.904 229.26 149.979 229.569 150.159C229.893 150.41 230.165 150.712 230.376 151.054C230.539 151.301 230.675 151.623 230.79 152.025C230.847 152.225 231.016 152.374 231.225 152.404C231.434 152.434 231.645 152.343 231.769 152.17C233.434 151.09 235.22 150.198 237.079 149.518C238.8 148.836 240.742 148.814 242.865 149.446C244.98 149.995 246.374 151.437 247.148 153.862C247.938 156.289 247.757 158.559 246.593 160.805C245.365 163.065 242.008 166.551 236.619 171.153C231.138 175.73 225.389 180.046 219.538 183.978C218.099 184.916 216.759 185.763 215.558 186.489C215.294 186.65 215.203 186.988 215.357 187.249C215.452 187.418 215.634 187.51 215.822 187.507Z" fill="black"/>
<path d="M155.775 224.092C157.453 223.865 159.281 224.173 161.253 225.019C163.233 225.901 164.503 227.827 165.06 230.796C165.623 233.785 165.457 236.477 164.563 238.872C163.717 241.293 162.98 242.941 162.354 243.82C161.778 244.742 160.843 246.152 159.549 248.056C159.246 248.501 158.925 248.942 158.583 249.382C156.164 252.531 152.697 255.826 148.176 259.263C152.694 255.824 156.161 252.53 158.583 249.382C156.375 252.357 153.851 254.968 151.004 257.213C152.77 258.875 154.106 260.762 155.019 262.874C156.68 266.614 156.591 269.957 154.751 272.905C152.905 275.817 149.848 277.467 145.582 277.858C141.31 278.214 137.063 277.204 132.847 274.831C128.662 272.429 125.731 269.362 124.054 265.628C122.403 261.846 122.502 258.501 124.348 255.589C126.19 252.659 129.239 251.011 133.489 250.644C134.165 250.586 134.848 250.554 135.537 250.548C140.452 248.362 144.33 245.008 147.171 240.489C149.575 236.66 151.23 232.022 152.138 226.57C152.703 225.139 153.914 224.315 155.775 224.092Z" fill="#00D373"/>
<path d="M144.672 278.459C145.061 278.453 145.454 278.435 145.844 278.406C150.155 278.043 153.282 276.311 155.137 273.261C156.986 270.17 157.049 266.619 155.332 262.7C154.46 260.655 153.198 258.785 151.579 257.135C154.488 254.608 156.839 252.142 158.589 249.775C158.922 249.331 159.241 248.879 159.534 248.426C160.764 246.546 161.666 245.126 162.217 244.207C162.848 243.278 163.555 241.62 164.372 239.142C164.469 238.85 164.313 238.54 164.025 238.451C163.736 238.36 163.423 238.527 163.326 238.819C162.551 241.169 161.871 242.782 161.307 243.608C161.302 243.613 161.3 243.62 161.295 243.625C161.29 243.632 161.285 243.639 161.283 243.646C160.742 244.551 159.845 245.961 158.62 247.836C158.62 247.836 158.62 247.839 158.617 247.839C158.337 248.269 158.034 248.701 157.715 249.125C157.715 249.127 157.713 249.127 157.711 249.13C155.437 252.203 152.108 255.463 147.817 258.816C147.574 259.006 147.525 259.355 147.707 259.595C147.892 259.833 148.236 259.874 148.481 259.684C149.258 259.074 150.007 258.47 150.724 257.865C152.278 259.433 153.486 261.216 154.319 263.166C155.911 266.793 155.87 269.914 154.198 272.707C152.523 275.462 149.769 276.966 145.788 277.303C141.775 277.607 137.716 276.567 133.716 274.217C129.75 271.843 126.918 268.792 125.303 265.154C123.726 261.495 123.772 258.374 125.452 255.617C127.126 252.841 129.869 251.339 133.836 251.024C134.473 250.974 135.127 250.948 135.78 250.95C135.868 250.946 135.937 250.933 136.011 250.899C140.846 248.718 144.697 245.29 147.458 240.708C149.781 236.852 151.382 232.105 152.213 226.602C152.26 226.299 152.052 226.023 151.751 225.984C151.449 225.943 151.166 226.162 151.122 226.466C150.312 231.821 148.763 236.426 146.517 240.154C143.899 244.496 140.257 247.756 135.689 249.84C135.045 249.842 134.406 249.868 133.778 249.918C129.481 250.26 126.364 251.989 124.514 255.058C122.658 258.106 122.583 261.662 124.292 265.621C126 269.469 128.974 272.682 133.136 275.175C136.943 277.413 140.818 278.515 144.672 278.459Z" fill="black"/>
<path d="M182.307 247.916C181.913 243.097 181.363 238.101 180.653 232.925C185.42 228.144 190.185 227.621 194.952 231.355C195.756 235.706 196.241 240.499 196.41 245.728C196.615 250.977 196.391 255.562 195.737 259.484C199.082 260.119 201.708 261.12 203.615 262.483C207.055 264.873 208.858 267.601 209.027 270.664C209.177 273.708 207.738 275.913 204.709 277.276C201.663 278.602 197.849 279.312 193.27 279.406C188.691 279.5 184.708 278.996 181.327 277.893C177.962 276.772 176.159 274.521 175.915 271.142C175.635 267.743 177.028 264.856 180.093 262.485C180.578 262.111 181.083 261.766 181.607 261.448C182.483 257.248 182.717 252.735 182.307 247.916Z" fill="#00D373"/>
<path d="M192.218 279.983C192.568 279.983 192.918 279.981 193.275 279.974C197.907 279.88 201.827 279.146 204.927 277.798C208.178 276.334 209.742 273.927 209.58 270.644C209.402 267.412 207.502 264.515 203.93 262.03C202.074 260.704 199.532 259.7 196.37 259.047C196.961 255.219 197.162 250.737 196.964 245.713C196.795 240.481 196.302 235.618 195.496 231.259C195.441 230.955 195.146 230.753 194.842 230.811C194.538 230.866 194.335 231.158 194.393 231.464C195.187 235.767 195.675 240.575 195.841 245.754C196.037 250.715 195.839 255.129 195.257 258.887L193.312 258.711C192.993 258.687 192.73 258.911 192.701 259.218C192.672 259.526 192.901 259.799 193.208 259.826L195.648 260.048C198.885 260.665 201.451 261.639 203.278 262.944C206.558 265.226 208.299 267.834 208.456 270.702C208.593 273.514 207.29 275.502 204.468 276.773C201.509 278.061 197.731 278.76 193.246 278.852C188.75 278.946 184.796 278.444 181.487 277.366C178.334 276.317 176.688 274.267 176.461 271.107C176.196 267.875 177.492 265.202 180.422 262.932C180.89 262.573 181.383 262.235 181.885 261.931C182.018 261.852 182.112 261.719 182.143 261.567C183.029 257.329 183.268 252.722 182.853 247.871C182.462 243.066 181.904 238.013 181.194 232.854C181.153 232.547 180.871 232.333 180.562 232.374C180.256 232.415 180.041 232.699 180.082 233.006C180.787 238.146 181.342 243.18 181.733 247.965C182.131 252.618 181.914 257.037 181.091 261.104C180.627 261.396 180.171 261.712 179.734 262.047C176.521 264.534 175.044 267.609 175.339 271.194C175.599 274.8 177.547 277.238 181.132 278.432C184.311 279.462 188.03 279.983 192.218 279.983Z" fill="black"/>
<path d="M183.995 145.734L173.172 133.715C172.443 132.892 171.545 132.342 170.481 132.063C169.416 131.783 168.359 131.819 167.311 132.174C166.247 132.509 165.376 133.107 164.705 133.966L154.639 146.547L138.798 143.24C137.733 142.997 136.695 143.071 135.686 143.464C134.658 143.858 133.825 144.502 133.19 145.399C132.536 146.296 132.181 147.295 132.126 148.397L131.341 164.507L116.622 171.064C115.594 171.512 114.8 172.195 114.24 173.109C113.622 174.023 113.315 175.034 113.315 176.136C113.315 177.258 113.624 178.276 114.24 179.19L123.072 192.666L114.998 206.676C114.455 207.609 114.213 208.627 114.269 209.729C114.324 210.832 114.679 211.821 115.333 212.699C115.987 213.577 116.83 214.221 117.856 214.633L132.968 220.35L134.651 236.376C134.762 237.478 135.165 238.45 135.855 239.289C136.565 240.148 137.443 240.746 138.491 241.081C139.519 241.417 140.574 241.446 141.66 241.166L157.222 236.906L168.016 248.87C168.765 249.71 169.66 250.262 170.708 250.522C171.791 250.802 172.858 250.776 173.903 250.438C174.932 250.103 175.791 249.514 176.484 248.672L186.605 236.035L202.391 239.398C203.475 239.641 204.532 239.567 205.56 239.174C206.569 238.763 207.402 238.11 208.056 237.213C208.691 236.298 209.038 235.297 209.094 234.214L209.852 218.131L224.629 211.546C225.602 211.097 226.396 210.414 227.011 209.5C227.591 208.567 227.89 207.558 227.909 206.473C227.89 205.371 227.581 204.362 226.985 203.446L218.124 189.941L226.198 175.96C226.741 175.027 226.982 174.009 226.927 172.906C226.871 171.804 226.516 170.805 225.862 169.908C225.228 169.03 224.395 168.386 223.366 167.974L208.283 162.257L206.545 146.231C206.434 145.129 206.031 144.166 205.34 143.346C204.648 142.468 203.779 141.86 202.734 141.525C201.669 141.207 200.612 141.19 199.564 141.47L183.995 145.734Z" fill="#00D373"/>
<path d="M172.159 251.272C172.801 251.272 173.436 251.17 174.063 250.97C175.193 250.601 176.146 249.947 176.904 249.026C176.907 249.024 176.907 249.021 176.909 249.021L186.815 236.654L202.263 239.944C203.444 240.21 204.619 240.125 205.749 239.696C206.864 239.243 207.784 238.519 208.498 237.542C209.198 236.534 209.582 235.427 209.642 234.242L210.383 218.501L224.844 212.056C225.911 211.564 226.792 210.809 227.463 209.813C228.105 208.778 228.436 207.664 228.455 206.484C228.436 205.261 228.093 204.142 227.439 203.141L218.769 189.923L226.671 176.239C227.265 175.216 227.535 174.085 227.475 172.876C227.415 171.67 227.019 170.558 226.302 169.577C225.609 168.617 224.685 167.903 223.562 167.454L208.79 161.856L207.088 146.17C206.965 144.964 206.516 143.89 205.754 142.984C205.005 142.036 204.037 141.358 202.888 140.989C201.715 140.639 200.547 140.62 199.403 140.926L184.172 145.094L173.58 133.33C172.781 132.431 171.785 131.818 170.614 131.509C169.446 131.203 168.27 131.244 167.124 131.632C165.965 131.999 164.995 132.665 164.254 133.61L154.405 145.917L138.902 142.68C137.741 142.414 136.582 142.499 135.472 142.93C134.347 143.36 133.42 144.079 132.723 145.063C132.01 146.04 131.617 147.149 131.554 148.355L130.787 164.123L116.381 170.539C115.254 171.031 114.368 171.793 113.748 172.804C113.084 173.788 112.741 174.912 112.741 176.123C112.741 177.351 113.084 178.485 113.762 179.49L122.401 192.672L114.499 206.383C113.905 207.405 113.634 208.537 113.695 209.745C113.758 210.956 114.153 212.058 114.87 213.021C115.585 213.978 116.514 214.692 117.636 215.139L132.435 220.737L134.082 236.42C134.205 237.626 134.651 238.709 135.411 239.631C136.189 240.572 137.164 241.233 138.308 241.602C139.433 241.968 140.604 242.002 141.789 241.696L157.024 237.525L167.587 249.233C168.405 250.152 169.405 250.767 170.558 251.055C171.092 251.202 171.628 251.272 172.159 251.272ZM176.035 248.317C175.415 249.069 174.635 249.602 173.716 249.904C172.767 250.208 171.821 250.232 170.834 249.979C169.885 249.742 169.098 249.258 168.42 248.495L157.623 236.529C157.481 236.372 157.261 236.307 157.058 236.363L141.497 240.622C140.514 240.876 139.582 240.851 138.651 240.545C137.709 240.244 136.91 239.698 136.273 238.927C135.648 238.167 135.296 237.313 135.194 236.312L133.512 220.284C133.49 220.074 133.35 219.893 133.152 219.818L118.04 214.101C117.125 213.735 116.357 213.146 115.768 212.357C115.177 211.564 114.863 210.693 114.812 209.695C114.762 208.708 114.981 207.784 115.467 206.95L123.543 192.938C123.649 192.754 123.642 192.528 123.526 192.352L114.694 178.875C114.132 178.041 113.861 177.143 113.861 176.128C113.861 175.132 114.132 174.244 114.689 173.414C115.206 172.57 115.903 171.974 116.833 171.569L131.557 165.011C131.75 164.924 131.878 164.738 131.887 164.526L132.672 148.416C132.723 147.417 133.036 146.534 133.63 145.721C134.209 144.904 134.941 144.337 135.873 143.982C136.787 143.628 137.697 143.562 138.66 143.782L154.512 147.091C154.717 147.135 154.932 147.058 155.064 146.894L165.13 134.312C165.741 133.533 166.503 133.007 167.469 132.703C168.415 132.382 169.373 132.349 170.324 132.6C171.29 132.853 172.079 133.338 172.74 134.083L183.566 146.107C183.709 146.264 183.928 146.329 184.131 146.274L199.693 142.014C200.629 141.763 201.592 141.78 202.553 142.067C203.489 142.368 204.255 142.902 204.88 143.698C205.515 144.453 205.867 145.297 205.968 146.293L207.706 162.324C207.728 162.533 207.868 162.712 208.066 162.787L223.152 168.503C224.067 168.87 224.822 169.454 225.392 170.24C225.988 171.055 226.302 171.938 226.353 172.939C226.403 173.94 226.189 174.838 225.699 175.684L217.622 189.667C217.516 189.85 217.523 190.077 217.639 190.256L226.5 203.761C227.036 204.581 227.318 205.5 227.333 206.489C227.316 207.446 227.043 208.368 226.519 209.21C225.974 210.018 225.25 210.64 224.378 211.04L209.608 217.623C209.415 217.71 209.287 217.898 209.278 218.108L208.52 234.192C208.469 235.161 208.153 236.073 207.581 236.896C206.999 237.692 206.241 238.287 205.336 238.656C204.416 239.009 203.485 239.074 202.502 238.852L186.711 235.489C186.504 235.446 186.289 235.521 186.156 235.687L176.035 248.317Z" fill="black"/>
<path d="M162.743 172.155C161.702 173.787 161.293 175.638 161.521 177.712C161.748 179.784 162.543 181.465 163.905 182.754C165.284 184.056 166.835 184.59 168.557 184.355C170.22 184.128 171.582 183.198 172.639 181.564C173.698 179.945 174.114 178.098 173.887 176.026C173.66 173.954 172.856 172.267 171.478 170.965C170.099 169.663 168.578 169.125 166.913 169.352C165.189 169.587 163.8 170.521 162.743 172.155Z" fill="white"/>
<path d="M166.221 171.93C165.379 173.347 165.057 174.965 165.257 176.781C165.456 178.598 166.118 180.073 167.24 181.209C168.381 182.371 169.614 182.862 170.939 182.681C171.238 182.641 171.525 182.573 171.801 182.477C172.198 182.087 172.564 181.634 172.9 181.12C173.962 179.497 174.379 177.647 174.151 175.571C173.923 173.494 173.117 171.803 171.734 170.498C171.296 170.089 170.844 169.755 170.376 169.497C170.087 169.478 169.794 169.49 169.496 169.53C168.17 169.711 167.079 170.511 166.221 171.93Z" fill="black"/>
<path d="M167.795 184.973C168.037 184.971 168.281 184.954 168.528 184.921C170.304 184.689 171.766 183.673 172.872 181.898C173.956 180.181 174.376 178.191 174.12 175.986C173.864 173.784 173.005 171.953 171.561 170.548C170.084 169.11 168.431 168.498 166.658 168.73C164.81 168.97 163.312 169.993 162.203 171.766C161.122 173.5 160.701 175.497 160.957 177.699C161.213 179.904 162.073 181.726 163.517 183.118C164.794 184.361 166.231 184.985 167.795 184.973ZM173.015 176.129C173.24 178.073 172.876 179.818 171.932 181.316C171.001 182.812 169.844 183.629 168.399 183.815C166.882 184.014 165.54 183.522 164.295 182.312C163.037 181.1 162.286 179.5 162.06 177.556C161.836 175.61 162.199 173.858 163.143 172.345C164.075 170.852 165.265 170.03 166.782 169.834C168.227 169.645 169.533 170.142 170.777 171.352C172.038 172.576 172.789 174.183 173.015 176.129Z" fill="black"/>
<path d="M178.816 167.896C177.093 168.13 175.703 169.065 174.646 170.699C173.589 172.333 173.173 174.185 173.4 176.259C173.627 178.331 174.428 180.011 175.807 181.298C177.186 182.6 178.738 183.134 180.46 182.899C182.109 182.674 183.462 181.745 184.519 180.111C185.577 178.492 185.994 176.645 185.767 174.573C185.54 172.501 184.736 170.813 183.357 169.511C181.978 168.209 180.465 167.671 178.816 167.896Z" fill="white"/>
<path d="M178.151 170.46C177.309 171.877 176.987 173.495 177.186 175.311C177.386 177.128 178.048 178.611 179.172 179.76C180.296 180.91 181.52 181.395 182.846 181.215C183.144 181.174 183.431 181.107 183.708 181.011C184.104 180.62 184.47 180.168 184.806 179.653C185.868 178.031 186.284 176.181 186.056 174.104C185.828 172.028 185.023 170.336 183.64 169.031C183.203 168.622 182.751 168.296 182.285 168.051C181.996 168.032 181.702 168.044 181.404 168.084C180.079 168.264 178.994 169.056 178.151 170.46Z" fill="black"/>
<path d="M179.654 183.498C179.896 183.496 180.143 183.48 180.392 183.446C182.167 183.217 183.63 182.208 184.738 180.448C185.822 178.728 186.242 176.731 185.986 174.512C185.733 172.307 184.871 170.485 183.427 169.092C181.95 167.657 180.302 167.045 178.524 167.277C176.674 167.517 175.183 168.54 174.091 170.312C173.01 172.027 172.589 174.017 172.843 176.222C173.099 178.441 173.961 180.27 175.405 181.663C176.668 182.894 178.095 183.51 179.654 183.498ZM179.201 168.343C180.43 168.333 181.561 168.846 182.646 169.899C183.904 171.111 184.655 172.713 184.879 174.655C185.106 176.613 184.742 178.365 183.799 179.863C182.865 181.342 181.71 182.154 180.263 182.34C178.743 182.537 177.411 182.052 176.183 180.856C174.925 179.644 174.172 178.035 173.945 176.077C173.721 174.133 174.085 172.388 175.028 170.89C175.948 169.394 177.131 168.575 178.648 168.378C178.837 168.357 179.02 168.344 179.201 168.343Z" fill="black"/>
<path d="M175.765 196.098C175.873 196.097 175.984 196.091 176.092 196.081C177.266 195.971 178.238 195.344 178.98 194.211C179.676 193.139 179.973 191.889 179.857 190.492C179.741 189.098 179.248 187.915 178.386 186.974C177.463 186.007 176.404 185.577 175.233 185.687C174.057 185.797 173.094 186.417 172.369 187.533C171.656 188.62 171.352 189.879 171.468 191.276C171.583 192.675 172.088 193.853 172.972 194.777C173.781 195.658 174.722 196.104 175.765 196.098ZM175.559 186.784C176.295 186.78 176.956 187.093 177.572 187.74C178.266 188.497 178.653 189.436 178.748 190.595C178.843 191.754 178.615 192.739 178.052 193.607C177.501 194.445 176.829 194.891 176.004 194.97C175.178 195.045 174.457 194.732 173.794 194.009C173.073 193.252 172.679 192.327 172.584 191.171C172.489 190.012 172.724 189.019 173.304 188.135C173.84 187.311 174.502 186.872 175.328 186.795C175.405 186.788 175.482 186.785 175.559 186.784Z" fill="black"/>
<path d="M198.474 178.035L233.584 168.141V213.124L198.474 203.231V178.035Z" fill="#72EFE2"/>
<path d="M233.624 213.649C233.868 213.649 234.092 213.487 234.162 213.241C234.247 212.942 234.073 212.634 233.774 212.549L199.071 202.768V178.426L233.774 168.645C234.071 168.56 234.244 168.252 234.162 167.953C234.078 167.654 233.766 167.48 233.47 167.564L198.359 177.459C198.118 177.526 197.951 177.748 197.951 177.999V203.195C197.951 203.446 198.118 203.666 198.359 203.736L233.47 213.63C233.523 213.642 233.573 213.649 233.624 213.649Z" fill="black"/>
<path d="M232.628 166.739C233.202 166.164 233.883 165.875 234.673 165.875C235.459 165.875 236.143 166.164 236.718 166.739C237.293 167.313 237.582 167.993 237.582 168.782V212.492C237.582 213.278 237.293 213.961 236.718 214.536C236.143 215.11 235.463 215.399 234.673 215.399C233.887 215.399 233.202 215.11 232.628 214.536C232.053 213.961 231.764 213.282 231.764 212.492V168.782C231.764 167.993 232.053 167.313 232.628 166.739Z" fill="white"/>
<path d="M234.71 215.919C235.647 215.919 236.47 215.574 237.15 214.891C237.831 214.209 238.179 213.389 238.179 212.453V168.742C238.179 167.806 237.834 166.983 237.15 166.303C236.47 165.623 235.647 165.275 234.71 165.275C233.774 165.275 232.951 165.62 232.27 166.303C231.589 166.983 231.242 167.803 231.242 168.742V212.453C231.242 213.391 231.587 214.211 232.27 214.891C232.953 215.574 233.774 215.919 234.71 215.919ZM234.71 166.399C235.35 166.399 235.888 166.629 236.359 167.096C236.829 167.567 237.059 168.105 237.059 168.744V212.453C237.059 213.09 236.829 213.63 236.359 214.1C235.888 214.571 235.35 214.797 234.71 214.797C234.073 214.797 233.532 214.568 233.064 214.1C232.593 213.63 232.366 213.092 232.366 212.453V168.742C232.366 168.102 232.596 167.564 233.064 167.094C233.535 166.626 234.073 166.399 234.71 166.399Z" fill="black"/>
<path d="M191.701 194.693H191.748C192.897 194.693 193.898 195.104 194.747 195.92C195.564 196.768 195.975 197.78 195.975 198.96V221.429C195.975 222.609 195.564 223.621 194.747 224.469C193.898 225.286 192.901 225.696 191.748 225.696H191.701C190.52 225.696 189.507 225.286 188.658 224.469C187.841 223.621 187.431 222.609 187.431 221.429V198.96C187.431 197.78 187.841 196.768 188.658 195.92C189.507 195.1 190.52 194.693 191.701 194.693Z" fill="#C3C3C3"/>
<path d="M191.735 226.223C193.075 226.223 194.214 225.757 195.167 224.841C196.099 223.876 196.565 222.721 196.565 221.396V198.928C196.565 197.604 196.099 196.448 195.182 195.498C194.214 194.567 193.075 194.102 191.781 194.102H191.735C190.41 194.102 189.254 194.567 188.303 195.484C187.371 196.448 186.905 197.604 186.905 198.928V221.396C186.905 222.721 187.371 223.876 188.288 224.826C189.254 225.757 190.41 226.223 191.735 226.223ZM191.778 195.221C192.787 195.221 193.642 195.571 194.388 196.289C195.093 197.02 195.443 197.888 195.443 198.926V221.394C195.443 222.434 195.093 223.302 194.373 224.047C193.642 224.752 192.787 225.101 191.778 225.101C190.695 225.101 189.826 224.752 189.08 224.033C188.375 223.302 188.025 222.434 188.025 221.394V198.928C188.025 197.888 188.375 197.023 189.094 196.277C189.826 195.573 190.695 195.223 191.735 195.223H191.778V195.221Z" fill="black"/>
<path d="M193.97 175.574C196.999 175.574 198.513 177.087 198.513 180.114V201.099C198.513 204.126 196.999 205.638 193.97 205.638H189.203C186.174 205.638 184.66 204.126 184.66 201.099V180.114C184.66 177.087 186.174 175.574 189.203 175.574H193.97Z" fill="white"/>
<path d="M189.202 206.197H193.97C197.308 206.197 199.072 204.434 199.072 201.098V180.113C199.072 176.777 197.308 175.014 193.97 175.014H189.202C185.864 175.014 184.1 176.777 184.1 180.113V201.098C184.1 204.434 185.864 206.197 189.202 206.197ZM193.97 176.133C196.685 176.133 197.95 177.397 197.95 180.113V201.098C197.95 203.812 196.685 205.078 193.97 205.078H189.202C186.487 205.078 185.222 203.814 185.222 201.098V180.113C185.222 177.399 186.487 176.133 189.202 176.133H193.97Z" fill="black"/>
<path d="M169.554 209.783C168.021 209.447 166.443 209.083 164.816 208.69C164.355 208.577 163.896 208.475 163.443 208.381C161.007 207.855 158.801 207.585 156.826 207.568L151.304 228.107C152.177 228.307 153.157 228.503 154.248 228.696C155.612 228.901 157.164 229.125 158.902 229.369C159.373 229.434 159.841 229.499 160.305 229.564C160.43 229.576 160.553 229.586 160.669 229.593C167.109 230.411 173.641 230.896 180.269 231.05C181.148 231.069 181.997 231.079 182.82 231.079C185.251 232.591 187.923 233.134 190.839 232.705C194.09 232.201 196.699 230.63 198.662 227.996C200.605 225.343 201.344 222.383 200.878 219.115C200.373 215.866 198.802 213.258 196.168 211.297C193.513 209.356 190.561 208.618 187.308 209.083C185.157 209.418 183.298 210.205 181.727 211.437C177.797 211.136 173.742 210.586 169.554 209.783Z" fill="#00D373"/>
<path d="M188.949 233.401C189.596 233.401 190.253 233.353 190.919 233.254C194.31 232.728 197.065 231.071 199.109 228.326C201.137 225.56 201.916 222.434 201.431 219.03C200.905 215.639 199.247 212.887 196.5 210.844C193.731 208.817 190.617 208.038 187.224 208.526C185.061 208.863 183.156 209.647 181.554 210.858C177.733 210.559 173.733 210.011 169.661 209.23C168.155 208.899 166.564 208.533 164.947 208.142C164.481 208.029 164.022 207.925 163.571 207.831C163.269 207.766 162.97 207.961 162.907 208.265C162.845 208.569 163.038 208.866 163.342 208.928C163.781 209.02 164.228 209.121 164.684 209.232C166.311 209.625 167.909 209.992 169.434 210.327C173.637 211.133 177.752 211.693 181.682 211.992C181.822 212.001 181.959 211.96 182.07 211.874C183.557 210.706 185.346 209.954 187.39 209.633C190.475 209.189 193.314 209.9 195.834 211.746C198.332 213.605 199.843 216.112 200.321 219.197C200.765 222.294 200.053 225.142 198.206 227.661C196.348 230.157 193.837 231.667 190.75 232.145C187.989 232.552 185.416 232.031 183.113 230.599C183.024 230.543 182.922 230.514 182.816 230.514C181.998 230.514 181.151 230.504 180.277 230.485C173.702 230.333 167.127 229.848 160.735 229.048C160.617 229.033 160.496 229.016 160.373 229.004C160.071 228.975 159.789 229.195 159.757 229.503C159.724 229.812 159.948 230.087 160.257 230.119C160.368 230.131 160.481 230.143 160.593 230.16C167.025 230.968 173.639 231.452 180.253 231.607C181.081 231.624 181.882 231.633 182.659 231.636C184.6 232.81 186.707 233.401 188.949 233.401Z" fill="black"/>
<path d="M267.548 211.323C267.729 211.323 267.906 211.236 268.014 211.077C268.188 210.821 268.12 210.471 267.864 210.298L256.761 202.789C256.503 202.615 256.155 202.683 255.981 202.938C255.808 203.194 255.875 203.544 256.131 203.717L267.234 211.226C267.331 211.291 267.44 211.323 267.548 211.323ZM256.194 192.241H270.522C270.831 192.241 271.082 191.99 271.082 191.681C271.082 191.372 270.831 191.121 270.522 191.121H256.194C255.885 191.121 255.634 191.372 255.634 191.681C255.634 191.99 255.885 192.241 256.194 192.241ZM256.167 179.831C256.245 179.831 256.324 179.814 256.401 179.78L268.736 174.119C269.018 173.988 269.141 173.658 269.011 173.376C268.881 173.094 268.548 172.971 268.268 173.101L255.931 178.76C255.648 178.89 255.525 179.22 255.656 179.502C255.75 179.707 255.955 179.831 256.167 179.831Z" fill="black"/>
<path d="M200.158 360.89C205.64 350.082 211.662 339.008 218.215 327.677C211.718 312.018 201.171 306.263 186.574 310.413C180.562 319.792 174.859 330.463 169.463 342.421C164.05 354.423 160.241 365.284 158.036 375.006C149.675 373.306 142.637 373.135 136.922 374.492C126.696 376.735 119.933 381.331 116.637 388.28C113.341 395.23 114.587 401.709 120.376 407.719C126.164 413.729 134.333 418.989 144.88 423.508C155.367 428.048 165.057 430.643 173.948 431.296C182.858 431.905 189.174 428.391 192.904 420.758C196.823 413.154 196.323 405.158 191.405 396.77C190.694 395.417 189.883 394.125 188.969 392.89C190.918 382.308 194.648 371.64 200.158 360.89Z" fill="#42EAB8"/>
<path d="M175.834 432.728C184.282 432.728 190.426 428.903 194.124 421.336C198.245 413.338 197.73 404.813 192.573 396.025C191.959 394.848 191.227 393.659 190.419 392.522C192.369 382.304 196.048 371.87 201.365 361.495C206.815 350.754 212.878 339.599 219.392 328.343C219.783 327.67 219.553 326.81 218.88 326.423C218.207 326.031 217.347 326.262 216.96 326.935C210.421 338.235 204.331 349.433 198.864 360.218C193.323 371.032 189.516 381.927 187.548 392.602C187.479 392.986 187.57 393.381 187.801 393.692C188.667 394.862 189.446 396.106 190.119 397.389C194.855 405.464 195.334 412.866 191.615 420.078C188.115 427.239 182.344 430.439 174.006 429.857C165.32 429.221 155.694 426.639 145.403 422.181C135.072 417.759 126.982 412.555 121.354 406.707C115.963 401.112 114.826 395.271 117.872 388.846C120.959 382.343 127.458 377.962 137.186 375.826C142.682 374.521 149.565 374.696 157.658 376.331L163.561 378.068C164.304 378.295 165.086 377.86 165.306 377.118C165.525 376.375 165.101 375.593 164.355 375.373L159.666 373.994C161.883 364.724 165.595 354.29 170.704 342.956C176.047 331.115 181.774 320.407 187.717 311.128C188.134 310.474 187.948 309.607 187.293 309.19C186.642 308.77 185.771 308.96 185.355 309.614C179.338 319.006 173.545 329.835 168.147 341.801C162.965 353.288 159.198 363.886 156.938 373.325C148.987 371.84 142.138 371.76 136.56 373.084C125.958 375.406 118.808 380.306 115.334 387.635C111.776 395.132 113.121 402.205 119.331 408.649C125.223 414.768 133.62 420.187 144.295 424.755C154.871 429.338 164.804 431.996 173.812 432.655C174.496 432.706 175.172 432.728 175.834 432.728Z" fill="black"/>
<path d="M292.242 346.305C290.066 334.382 288.159 321.922 286.52 308.936C271.871 300.4 259.992 302.201 250.882 314.338C251.771 325.443 253.688 337.389 256.629 350.175C259.582 363.006 263.122 373.957 267.25 383.032C259.565 386.738 253.858 390.861 250.129 395.4C243.345 403.373 240.742 411.124 242.323 418.651C243.905 426.179 248.818 430.583 257.063 431.865C265.308 433.147 274.995 432.391 286.126 429.606C297.223 426.876 306.507 423.078 313.981 418.217C321.443 413.31 324.345 406.691 322.695 398.357C321.214 389.932 315.978 383.868 306.986 380.167C305.601 379.519 304.173 378.982 302.699 378.551C297.847 368.948 294.361 358.197 292.242 346.305Z" fill="#42EAB8"/>
<path d="M265.176 433.815C271.587 433.815 278.689 432.846 286.402 430.912C297.597 428.158 307.113 424.263 314.683 419.337C322.637 414.104 325.775 406.936 324.009 398.027C322.451 389.166 316.877 382.689 307.456 378.813C306.253 378.249 304.951 377.745 303.62 377.328C298.99 368.02 295.607 357.484 293.559 346.005C291.398 334.156 289.478 321.608 287.85 308.706C287.755 307.938 287.057 307.4 286.282 307.488C285.514 307.587 284.965 308.289 285.064 309.057C286.698 322.01 288.626 334.609 290.798 346.506C292.93 358.472 296.492 369.45 301.382 379.134C301.557 379.482 301.868 379.741 302.241 379.847C303.638 380.253 305.013 380.773 306.326 381.387C314.979 384.949 319.84 390.555 321.248 398.546C322.794 406.362 320.143 412.385 313.143 416.989C305.847 421.74 296.62 425.506 285.726 428.187C274.827 430.919 265.238 431.669 257.215 430.422C249.538 429.229 245.095 425.265 243.636 418.309C242.158 411.266 244.678 403.845 251.136 396.253C254.724 391.887 260.305 387.86 267.743 384.265L273.496 382.078C274.22 381.804 274.586 380.992 274.308 380.264C274.03 379.54 273.222 379.175 272.494 379.453L267.926 381.19C264.083 372.467 260.722 361.917 257.935 349.801C255.024 337.147 253.1 325.159 252.219 314.166C252.157 313.394 251.495 312.813 250.705 312.878C249.93 312.941 249.355 313.617 249.418 314.393C250.314 325.521 252.255 337.644 255.196 350.433C258.023 362.718 261.435 373.433 265.352 382.312C258.125 385.944 252.621 390.022 248.982 394.45C241.95 402.719 239.221 410.944 240.889 418.883C242.593 427.006 247.944 431.822 256.787 433.197C259.431 433.607 262.232 433.815 265.176 433.815Z" fill="black"/>
<path d="M343.629 137.036C345.512 106.22 336.231 79.26 315.788 56.1558C295.3 32.95 269.647 20.4056 238.831 18.5229C208.015 16.6401 181.051 25.9699 157.941 46.5121C134.787 66.9527 122.267 92.5808 120.384 123.397C119.796 133.02 120.327 142.299 121.976 151.228C122.079 151.916 122.037 152.6 121.851 153.27C121.616 153.938 121.262 154.553 120.786 155.107C100.969 175.263 90.1947 199.44 88.4724 227.629C86.3998 261.554 97.9478 291.312 123.12 316.903C148.432 342.598 180.043 356.604 217.957 358.921C255.868 361.237 288.953 351.184 317.204 328.761C345.305 306.424 360.39 278.297 362.463 244.368C364.182 216.225 356.506 190.948 339.433 168.537C338.98 167.972 338.702 167.346 338.596 166.657C338.444 165.966 338.485 165.283 338.721 164.615C341.406 155.901 343.038 146.708 343.629 137.036Z" fill="#42EAB8"/>
<path d="M228.316 360.64C262.137 360.641 292.28 350.309 318.052 329.855C346.348 307.367 361.752 278.633 363.84 244.45C365.574 216.092 357.729 190.265 340.529 167.682C340.208 167.28 340.028 166.885 339.963 166.443C339.849 165.916 339.875 165.499 340.025 165.079C342.742 156.243 344.413 146.851 345.006 137.116C346.904 106.06 337.421 78.5066 316.813 55.2179C296.165 31.834 269.95 19.012 238.889 17.1138C207.836 15.212 180.272 24.7498 156.983 45.4565C133.65 66.0535 120.857 92.2459 118.959 123.306C118.367 132.997 118.912 142.477 120.572 151.481C120.638 151.931 120.612 152.406 120.477 152.889C120.323 153.313 120.06 153.766 119.698 154.194C99.7955 174.429 88.7873 199.133 87.0537 227.542C84.9654 261.725 96.756 292.12 122.104 317.884C147.55 343.715 179.763 357.993 217.856 360.319C221.371 360.531 224.863 360.64 228.316 360.64ZM231.242 19.6885C233.711 19.6885 236.201 19.7653 238.718 19.9189C269.003 21.7695 294.57 34.2733 314.703 57.0794C334.799 79.7866 344.048 106.659 342.197 136.944C341.616 146.456 339.988 155.629 337.351 164.197C337.048 165.06 336.989 166.004 337.198 166.955C337.322 167.8 337.702 168.659 338.313 169.416C355.07 191.414 362.725 216.611 361.031 244.278C358.994 277.631 343.941 305.681 316.3 327.653C288.462 349.746 255.393 359.788 218.013 357.51C180.637 355.228 149.035 341.228 124.093 315.906C99.3344 290.737 87.8107 261.063 89.8515 227.71C91.5448 200 102.282 175.903 121.764 156.089C122.415 155.328 122.858 154.56 123.15 153.733C123.421 152.786 123.472 151.901 123.341 151.016C121.713 142.195 121.183 132.943 121.761 123.478C123.611 93.1931 136.09 67.6516 158.845 47.563C179.669 29.0433 203.996 19.6884 231.242 19.6885Z" fill="black"/>
<path d="M250.062 122.639C250.727 122.639 251.382 122.324 251.792 121.739C252.457 120.785 252.227 119.472 251.269 118.806L235.375 107.707L254.271 109.411C255.434 109.503 256.455 108.661 256.561 107.502C256.667 106.343 255.811 105.319 254.652 105.213L236.362 103.567L253.138 96.5855C254.213 96.1393 254.721 94.9069 254.275 93.8317C253.829 92.7601 252.6 92.2481 251.521 92.6943L226.894 102.934C226.565 103.066 226.265 103.281 226.031 103.57C225.987 103.625 225.95 103.676 225.914 103.735C225.61 104.196 225.511 104.737 225.599 105.245C225.621 105.37 225.65 105.49 225.694 105.604C225.826 105.973 226.064 106.31 226.4 106.566C226.429 106.587 226.455 106.609 226.484 106.628L248.862 122.255C249.224 122.515 249.645 122.639 250.062 122.639ZM179.402 116.385C179.698 116.385 180.001 116.322 180.29 116.187L204.958 104.682C205.287 104.536 205.58 104.302 205.803 103.994C205.836 103.947 205.869 103.899 205.898 103.852C206.183 103.384 206.264 102.846 206.161 102.345C206.136 102.217 206.099 102.093 206.052 101.972C205.905 101.61 205.657 101.281 205.317 101.039C205.284 101.017 205.251 100.996 205.218 100.974L182.799 86.6118C181.819 85.9828 180.514 86.2717 179.888 87.2481C179.259 88.2282 179.545 89.5338 180.525 90.1592L195.786 99.9385L177.537 98.3914C176.392 98.2926 175.357 99.1521 175.258 100.311C175.16 101.471 176.019 102.491 177.178 102.59L196.035 104.192L178.502 112.369C177.449 112.859 176.992 114.113 177.482 115.17C177.847 115.935 178.608 116.385 179.402 116.385Z" fill="black"/>
<path d="M213.333 143.056C218.932 143.056 223.972 141.161 228.335 137.416C232.954 133.394 235.583 128.27 236.157 122.177C236.194 121.801 236.073 121.424 235.828 121.135C235.583 120.846 235.232 120.667 234.855 120.641L191.664 117.687C191.288 117.676 190.918 117.789 190.637 118.038C190.355 118.286 190.183 118.637 190.165 119.014C189.836 125.103 191.756 130.552 195.874 135.208C199.999 139.962 205.302 142.584 211.632 143.001C212.207 143.038 212.773 143.056 213.333 143.056ZM233.18 123.344C232.431 128.113 230.233 132.033 226.495 135.292C222.22 138.96 217.418 140.569 211.823 140.196C206.187 139.827 201.663 137.592 197.995 133.361C197.991 133.357 197.988 133.354 197.984 133.35C194.645 129.576 192.988 125.392 192.941 120.59L233.18 123.344Z" fill="black"/>
<path d="M164.979 170.659L164.746 172.401C164.499 174.102 163.715 175.531 162.403 176.685C161.137 177.825 159.628 178.404 157.879 178.421C156.176 178.425 154.637 177.884 153.271 176.806L138.367 164.245L164.979 170.659ZM92.3005 125.578C91.0189 124.464 90.2382 123.083 89.9584 121.435C89.9086 121.305 89.8871 121.188 89.8974 121.083L169.216 140.143L166.577 159.136L118.5 147.572L92.3005 125.578ZM99.6973 111.528L131.566 99.2953L173.504 109.38L170.807 128.623L99.6973 111.528ZM175.102 97.8576L150.648 91.971L166.254 85.9807C167.828 85.3765 169.397 85.3503 170.965 85.9041C172.572 86.4387 173.832 87.4357 174.744 88.8917C175.638 90.3033 175.958 91.861 175.71 93.5623L175.102 97.8576Z" fill="#50D1EE"/>
<path d="M166.569 159.141L164.971 170.663L138.36 164.249L118.491 147.573L166.569 159.141ZM94.316 113.595L99.6934 111.531L170.807 128.625L169.213 140.146L89.8936 121.086C89.6888 119.511 89.9591 118.052 90.6991 116.714C91.5361 115.241 92.742 114.199 94.316 113.595ZM150.644 91.9741L175.098 97.8607L173.501 109.383L131.562 99.2985L150.644 91.9741Z" fill="white"/>
<path d="M157.867 179.802C157.871 179.802 157.878 179.802 157.882 179.802C157.886 179.802 157.893 179.802 157.897 179.802C159.985 179.78 161.817 179.074 163.335 177.71C164.896 176.335 165.836 174.609 166.133 172.579C166.133 172.572 166.136 172.561 166.136 172.554L167.961 159.304C167.961 159.304 167.961 159.304 167.961 159.3L170.602 140.305L170.602 140.301L174.891 109.549C174.891 109.545 174.891 109.545 174.891 109.541L176.49 98.0249L177.097 93.7278C177.393 91.7017 177.002 89.8073 175.93 88.1104C174.847 86.3842 173.326 85.181 171.406 84.5411C169.545 83.8864 167.635 83.9157 165.748 84.6398L99.1916 110.185C99.1916 110.185 99.1916 110.185 99.1879 110.185L93.8119 112.248C91.9321 112.968 90.4766 114.226 89.4782 115.985C88.6041 117.565 88.275 119.284 88.4871 121.113C88.4871 121.325 88.5237 121.54 88.5932 121.756C88.9442 123.673 89.8805 125.3 91.3726 126.602C91.3726 126.602 91.3763 126.606 91.3799 126.606C91.3799 126.606 91.3799 126.606 91.3836 126.609C91.3872 126.613 91.3945 126.617 91.3982 126.62L117.591 148.611L117.595 148.614L137.464 165.287L152.36 177.846C152.367 177.853 152.374 177.857 152.382 177.864C152.382 177.864 152.382 177.864 152.385 177.868C152.393 177.875 152.4 177.879 152.407 177.886C154.016 179.159 155.852 179.802 157.867 179.802ZM157.871 176.993C157.871 176.993 157.867 176.993 157.864 176.993C156.485 176.993 155.271 176.569 154.155 175.692L139.274 163.144C139.271 163.144 139.271 163.144 139.267 163.14L119.405 146.471C119.405 146.471 119.405 146.471 119.401 146.471L93.2158 124.484C92.1882 123.588 91.5774 122.517 91.3506 121.2C91.3433 121.146 91.3287 121.091 91.3141 121.032C91.3104 121.021 91.3068 121.01 91.3031 120.999C91.3031 120.948 91.2958 120.9 91.2885 120.849C91.1276 119.577 91.3397 118.439 91.9321 117.368C92.6014 116.186 93.5522 115.367 94.8249 114.881L100.201 112.818C100.201 112.818 100.201 112.818 100.205 112.818L132.07 100.585L132.073 100.585L166.758 87.2729C168.019 86.7902 169.245 86.7682 170.495 87.2071C171.823 87.6496 172.814 88.4322 173.553 89.6135C174.27 90.7472 174.518 91.965 174.317 93.3328L173.706 97.6373C173.706 97.6409 173.706 97.6446 173.706 97.6446L172.112 109.157L169.417 128.401C169.417 128.405 169.417 128.405 169.417 128.408L167.822 139.925L167.822 139.928L165.182 158.92L165.182 158.924L163.587 170.444C163.587 170.447 163.587 170.451 163.587 170.451L163.357 172.184C163.152 173.552 162.538 174.671 161.477 175.611C161.473 175.615 161.47 175.618 161.466 175.622C160.449 176.525 159.275 176.975 157.871 176.993Z" fill="black"/>
<path d="M209.069 167.555C207.537 161.232 204.107 156.008 198.783 151.887C192.513 146.992 185.448 145.062 177.59 146.098C169.759 146.967 163.383 150.585 158.455 156.954C153.56 163.224 151.615 170.305 152.617 178.197C153.554 186.027 157.189 192.353 163.522 197.181C168.208 200.885 173.386 202.958 179.06 203.396C185.488 207.925 194.588 212.971 206.372 218.539C213.499 221.86 217.615 223.753 218.72 224.227C223.769 226.466 228.499 228.299 232.9 229.725C237.635 231.208 242.542 231.464 247.621 230.492C249.337 230.19 251.099 229.735 252.906 229.131C255.599 228.21 258.16 227.061 260.579 225.681C259.964 218.938 260.059 206.65 260.855 188.814C258.077 187.38 240.814 180.296 209.069 167.555Z" fill="#42EAB8"/>
<path d="M232.861 231.074C233.453 231.074 234.005 230.697 234.195 230.101C234.433 229.362 234.031 228.573 233.292 228.331C228.958 226.927 224.233 225.095 219.249 222.886C218.144 222.414 214.004 220.509 206.924 217.21C195.279 211.706 186.158 206.652 179.828 202.194C179.619 202.047 179.378 201.959 179.126 201.941C173.76 201.528 168.79 199.538 164.35 196.028C158.342 191.449 154.856 185.382 153.971 177.98C153.02 170.497 154.889 163.702 159.519 157.767C164.186 151.736 170.301 148.265 177.703 147.442C185.16 146.462 191.944 148.309 197.876 152.943C202.923 156.849 206.211 161.859 207.659 167.835C207.765 168.277 208.079 168.639 208.5 168.807C240.069 181.476 257.455 188.611 260.176 190.008C260.871 190.363 261.716 190.088 262.067 189.401C262.422 188.71 262.151 187.865 261.46 187.51C258.644 186.062 241.875 179.175 210.212 166.467C208.529 160.166 204.96 154.874 199.602 150.723C193.059 145.614 185.588 143.566 177.366 144.652C169.211 145.559 162.449 149.392 157.307 156.04C152.201 162.583 150.139 170.08 151.188 178.32C152.165 186.493 156.016 193.201 162.635 198.244C167.393 202.007 172.747 204.187 178.529 204.71C184.977 209.208 194.127 214.266 205.735 219.755C212.947 223.116 217.003 224.981 218.129 225.464C223.184 227.706 228 229.571 232.429 231.005C232.572 231.052 232.718 231.074 232.861 231.074Z" fill="black"/>
<path d="M93.8914 139.884C98.9493 134.826 105.061 132.299 112.225 132.299C119.389 132.299 125.522 134.826 130.628 139.884C135.686 144.989 138.213 151.122 138.213 158.287C138.213 165.451 135.686 171.562 130.628 176.62C125.522 181.725 119.389 184.274 112.225 184.274C105.061 184.274 98.9493 181.722 93.8914 176.62C88.786 171.562 86.2369 165.451 86.2369 158.287C86.2369 151.122 88.786 144.989 93.8914 139.884Z" fill="#42EAB8"/>
<path d="M112.23 185.682C119.75 185.682 126.274 182.969 131.628 177.615C136.935 172.308 139.626 165.806 139.626 158.287C139.626 150.771 136.938 144.247 131.632 138.896C126.27 133.583 119.746 130.895 112.23 130.895C104.715 130.895 98.2124 133.586 92.9022 138.893C87.5481 144.247 84.8344 150.771 84.8344 158.29C84.8344 165.809 87.5481 172.315 92.9058 177.622C98.2051 182.965 104.711 185.682 112.23 185.682ZM112.23 133.703C118.978 133.703 124.837 136.121 129.642 140.882C134.397 145.68 136.814 151.539 136.814 158.287C136.814 165.126 134.466 170.801 129.639 175.629C124.833 180.434 118.974 182.874 112.23 182.874C105.392 182.874 99.7228 180.508 94.8953 175.633C90.0166 170.794 87.6468 165.126 87.6468 158.287C87.6468 151.543 90.0861 145.684 94.8917 140.879C99.6497 136.117 105.483 133.703 112.23 133.703Z" fill="black"/>
<g clip-path="url(#clip1_3083_1932)">
<path d="M334.86 60.2344L339.708 47.9215L304.398 30.7799L290.401 37.1605L334.86 60.2344ZM348.704 25.3002L332.701 17.8816L318.416 24.3685L344.251 36.6144L348.704 25.3002Z" fill="#FF5192"/>
<path d="M329.32 75.0947L334.858 60.2331L290.399 37.1592C294.868 53.3849 307.841 66.0288 329.32 75.0947ZM339.707 47.9212L344.249 36.613L318.414 24.3671L304.397 30.7814L339.707 47.9212ZM332.699 17.8803L348.702 25.2989L355.773 7.37315L332.699 17.8803Z" fill="white"/>
<path d="M356.533 6.59382L356.646 6.71916C356.884 7.02587 356.947 7.43991 356.801 7.80685L349.729 25.732L345.278 37.0429L345.272 37.0568L345.264 37.0691L340.734 48.3524L340.728 48.3663L340.726 48.3696L335.892 60.656L335.886 60.6699L335.885 60.6715L330.354 75.5071L330.31 75.6113C330.195 75.8477 329.996 76.0351 329.754 76.1403L329.753 76.1406C329.473 76.2593 329.16 76.2592 328.881 76.1442L328.88 76.1445C323.2 73.7446 318.092 71.082 313.566 68.1624C300.814 59.9358 292.677 49.6611 289.323 37.4817L289.323 37.4809C289.251 37.2209 289.272 36.9319 289.408 36.6721L289.541 36.7416L289.496 36.7125L289.411 36.668C289.412 36.6655 289.414 36.6631 289.416 36.6606L289.415 36.6601L289.416 36.6576C289.507 36.4899 289.635 36.3556 289.784 36.2577L289.941 36.17L303.922 29.7976L303.937 29.7909L303.939 29.7903C303.941 29.7898 303.942 29.7893 303.944 29.7886L317.906 23.3998L317.907 23.399L317.948 23.381L332.23 16.8955L355.306 6.38804L355.465 6.33038C355.841 6.22585 356.251 6.32728 356.533 6.59382ZM292.237 39.3927C297.123 53.7448 309.356 65.2571 328.679 73.6371L333.467 60.7898L292.237 39.3927ZM304.375 32.0318L292.93 37.2496L334.269 58.7017L338.286 48.4947L304.375 32.0318ZM303.933 29.7931L303.931 29.7942C303.932 29.7938 303.935 29.7926 303.938 29.7914C303.936 29.7921 303.934 29.7927 303.933 29.7931ZM318.4 25.6146L306.997 30.8318L339.11 46.4217L342.82 37.191L318.4 25.6146ZM332.685 19.125L321.046 24.4094L343.642 35.1197L347.276 25.8882L332.685 19.125ZM335.353 17.9143L348.09 23.8194L353.721 9.54929L335.353 17.9143Z" fill="black" stroke="black" stroke-width="0.3"/>
<path d="M361.509 5.67764C361.497 5.27902 361.376 4.93554 361.146 4.65277C360.903 4.39308 360.596 4.21679 360.225 4.1239C359.865 4.06836 359.521 4.11186 359.196 4.25822L358.571 4.7155C358.336 4.91383 357.957 5.17992 357.433 5.51376C357.1 5.77613 356.83 5.98429 356.622 6.13647C356.641 5.99636 356.662 5.85728 356.681 5.71717C356.922 4.98012 357.079 4.41884 357.148 4.03586C357.341 3.32994 357.274 2.76315 356.947 2.33446C356.739 2.06392 356.461 1.89023 356.114 1.81161C355.731 1.74281 355.4 1.79345 355.12 1.96528C354.778 2.19133 354.505 2.56349 354.298 3.07974C354.122 3.49322 353.951 4.105 353.786 4.9171C353.712 4.78443 353.648 4.65609 353.597 4.53666C353.415 4.01001 353.248 3.64282 353.097 3.43333C352.773 2.94524 352.303 2.73664 351.689 2.80678C351.158 2.83493 350.737 3.1215 350.424 3.66648L350.272 4.16938C350.245 4.42549 350.275 4.71421 350.363 5.03834C350.499 5.5385 350.713 6.00835 351.004 6.44966C351.153 6.71679 351.359 7.01651 351.622 7.34708L351.047 7.24338C350.618 7.14809 350.249 7.13239 349.94 7.19805C349.644 7.24063 349.384 7.37696 349.16 7.61161C348.926 7.80994 348.782 8.06024 348.729 8.36251C348.584 9.03451 348.778 9.5683 349.306 9.96361C349.657 10.1956 350.053 10.3477 350.496 10.4199C351.277 10.5354 351.706 10.6005 351.786 10.6179C351.846 10.6213 351.896 10.6362 351.942 10.6626C351.785 10.936 351.61 11.2414 351.413 11.584C351.087 12.152 350.911 12.5655 350.885 12.8216C350.841 13.1602 350.899 13.4789 351.058 13.7824C351.216 14.0858 351.455 14.2986 351.778 14.4226C352.086 14.5687 352.42 14.5952 352.778 14.4984C353.122 14.4247 353.396 14.2635 353.597 14.0174L353.943 13.4918L354.516 12.4162C354.613 12.7738 354.733 13.1447 354.876 13.5289C355.101 14.081 355.314 14.4747 355.512 14.7107C355.828 15.1048 356.209 15.3376 356.652 15.4098C357.233 15.5029 357.733 15.2896 358.15 14.7735C358.495 14.2781 358.538 13.7267 358.279 13.125L357.813 12.3592L357.682 11.8758L358.612 11.9119C359.574 11.9214 360.205 11.8751 360.504 11.7732C361.22 11.5796 361.694 11.2025 361.927 10.6401C362.133 10.1238 362.079 9.63932 361.763 9.18654C361.449 8.73478 361.015 8.51634 360.462 8.52948C360.023 8.61062 359.692 8.66126 359.467 8.68316C359.302 8.70848 358.985 8.70861 358.518 8.68079C358.616 8.61675 358.719 8.53926 358.831 8.45215L360.521 7.24647C360.84 7.00718 361.058 6.81339 361.17 6.66762C361.384 6.39208 361.497 6.06478 361.509 5.67764Z" fill="#FF5192"/>
<path d="M350.984 15.1173C350.668 14.9138 350.392 14.6132 350.197 14.2461C349.945 13.7681 349.852 13.2523 349.921 12.716C349.955 12.3864 350.109 11.9675 350.415 11.3999C350.391 11.3961 350.369 11.3937 350.344 11.3899C349.755 11.2925 349.221 11.1 348.767 10.7833C347.891 10.1321 347.557 9.21938 347.779 8.17745C347.863 7.69231 348.127 7.23707 348.528 6.8971C348.833 6.57592 349.276 6.34293 349.779 6.26868C349.638 5.96605 349.516 5.64299 349.427 5.30901C349.31 4.87272 349.27 4.46302 349.309 4.08894C349.314 4.02985 349.327 3.96926 349.346 3.91065L349.497 3.40922C349.518 3.33948 349.547 3.2717 349.582 3.208C350.186 2.15614 351.029 1.89837 351.63 1.86639C352.351 1.78332 353.011 1.9976 353.515 2.47179C353.784 1.90679 354.14 1.47516 354.577 1.18532C355.095 0.867182 355.656 0.773331 356.276 0.884088C356.881 1.02144 357.361 1.32175 357.701 1.76787C358.011 2.17348 358.317 2.84436 358.17 3.83378L358.622 3.50275C358.679 3.46164 358.736 3.42744 358.799 3.39942C359.296 3.1781 359.823 3.10975 360.368 3.19318C361.002 3.34606 361.472 3.61944 361.844 4.01718C362.251 4.51228 362.447 5.0529 362.464 5.66843C362.45 6.32331 362.264 6.84679 361.918 7.28174C361.809 7.42293 361.654 7.57592 361.445 7.75123C361.879 7.9238 362.257 8.22426 362.55 8.65165C363.051 9.37096 363.144 10.1874 362.818 11.0073C362.57 11.6039 362.017 12.3732 360.752 12.713C360.564 12.779 360.176 12.8626 359.21 12.8827C359.542 13.749 359.449 14.5946 358.937 15.3333C358.087 16.3875 357.146 16.4746 356.499 16.3698C355.816 16.26 355.233 15.9078 354.761 15.3234C354.62 15.1548 354.474 14.9327 354.327 14.6531C353.985 15.0637 353.532 15.3315 352.979 15.451C352.45 15.5957 351.873 15.5482 351.361 15.3039C351.226 15.2587 351.104 15.1946 350.984 15.1173ZM352.453 9.8703C352.653 9.99919 352.797 10.1963 352.861 10.4251C352.929 10.6712 352.895 10.9355 352.769 11.1547L352.24 12.0763C351.871 12.7171 351.834 12.9315 351.832 12.9392C351.811 13.1012 351.833 13.2231 351.901 13.3498C351.953 13.449 352.013 13.4995 352.116 13.5423C352.254 13.6048 352.349 13.6332 352.52 13.5855C352.7 13.5467 352.779 13.4935 352.825 13.449L353.136 12.9764L353.663 11.9792C353.847 11.63 354.228 11.4319 354.619 11.476C355.01 11.5166 355.337 11.7991 355.44 12.1808C355.529 12.5127 355.639 12.8547 355.772 13.2081C356.015 13.8001 356.181 14.0322 356.24 14.1029C356.475 14.3978 356.672 14.4532 356.8 14.4762C356.96 14.5016 357.142 14.5002 357.396 14.1847C357.477 14.0641 357.531 13.8841 357.412 13.5784L356.986 12.8774C356.938 12.799 356.902 12.7162 356.877 12.6256L356.748 12.143C356.67 11.8484 356.734 11.5323 356.923 11.2941C357.114 11.0538 357.405 10.9203 357.71 10.9323L358.641 10.9669C359.858 10.9777 360.16 10.8891 360.19 10.879C360.797 10.7136 360.957 10.4654 361.029 10.2887C361.11 10.0847 361.094 9.9399 360.964 9.75233C360.849 9.58537 360.732 9.51632 360.541 9.50879C360.107 9.58616 359.779 9.63692 359.55 9.65911C359.44 9.67743 359.165 9.70241 358.451 9.65903C358.036 9.63266 357.686 9.34984 357.578 8.94951C357.47 8.54918 357.63 8.12536 357.973 7.89732C358.051 7.84617 358.132 7.78524 358.222 7.71516L359.947 6.48116C360.296 6.21765 360.389 6.10516 360.4 6.0939C360.458 6.02151 360.528 5.90869 360.534 5.67741C360.527 5.48521 360.448 5.35937 360.387 5.28739C360.312 5.20938 360.17 5.1296 359.981 5.08524C359.903 5.0767 359.783 5.08824 359.653 5.13254L359.126 5.51954C358.912 5.70327 358.521 5.97784 357.98 6.32617C357.652 6.5852 357.387 6.78915 357.177 6.94296C356.864 7.16984 356.447 7.18933 356.114 6.98955C355.789 6.82783 355.602 6.41203 355.657 6.03076L355.717 5.61054C355.726 5.55416 355.738 5.49914 355.754 5.44684C356.035 4.59147 356.145 4.12953 356.186 3.89425C356.315 3.41399 356.303 3.12328 356.167 2.94622C356.117 2.88449 356.046 2.81475 355.884 2.77554C355.712 2.7455 355.634 2.7932 355.604 2.8124C355.461 2.90826 355.303 3.13975 355.174 3.46452C355.172 3.47218 355.168 3.47849 355.165 3.48826C355.015 3.83555 354.863 4.38976 354.711 5.13766C354.633 5.53108 354.316 5.83299 353.917 5.89733C353.52 5.95956 353.128 5.769 352.931 5.41861C352.839 5.25199 352.76 5.09698 352.696 4.9459C352.462 4.27047 352.336 4.07312 352.302 4.02991C352.171 3.83541 352.066 3.75855 351.779 3.79133C351.64 3.79969 351.476 3.8098 351.29 4.09237L351.206 4.37134C351.203 4.49495 351.227 4.64732 351.274 4.81462C351.382 5.21495 351.555 5.59418 351.788 5.94749C351.952 6.23453 352.13 6.49286 352.357 6.77894C352.607 7.09243 352.634 7.52661 352.427 7.86991C352.223 8.21455 351.825 8.39273 351.432 8.32368L350.855 8.21991C350.452 8.12949 350.234 8.14389 350.117 8.16927C349.994 8.18847 349.923 8.21107 349.829 8.31107C349.696 8.42831 349.667 8.47804 349.654 8.55877C349.574 8.93625 349.66 9.07518 349.858 9.22076C349.86 9.22212 349.863 9.22348 349.865 9.22483C350.058 9.34965 350.324 9.44978 350.63 9.50139C351.3 9.59959 351.725 9.66538 351.892 9.69271C352.073 9.7115 352.243 9.76726 352.4 9.85653C352.423 9.85341 352.439 9.8608 352.453 9.8703Z" fill="black"/>
</g>
</g>
<defs>
<clipPath id="clip0_3083_1932">
<rect width="440" height="440" fill="white" transform="matrix(-1 0 0 1 440 0)"/>
</clipPath>
<clipPath id="clip1_3083_1932">
<rect width="55.1921" height="80" fill="white" transform="translate(325.73 -19.3691) rotate(32.8262)"/>
</clipPath>
</defs>
</svg>
