<svg width="132" height="250" viewBox="0 0 132 250" fill="none" xmlns="http://www.w3.org/2000/svg">
<g clip-path="url(#clip0_3229_827)">
<path d="M71.8616 15.9706C71.8616 14.6271 71.3791 13.4715 70.4139 12.5063C70.2417 12.3341 70.0512 12.1619 69.8451 11.9898C69.0182 11.3689 68.053 11.0584 66.9496 11.0584H63.7461C62.4705 11.0584 61.3696 11.4732 60.4384 12.3002C60.3705 12.368 60.3183 12.4384 60.2844 12.5063C59.3192 13.4715 58.8366 14.6245 58.8366 15.9706V19.174C58.8366 20.3453 59.1992 21.3783 59.9218 22.2757C60.0261 22.4139 60.1462 22.534 60.2844 22.6383C61.2157 23.6035 62.3687 24.0861 63.7487 24.0861H66.9522C68.2956 24.0861 69.4513 23.6035 70.4165 22.6383C70.4843 22.5705 70.5547 22.5 70.6225 22.4322C71.4495 21.5374 71.8642 20.4496 71.8642 19.1766V15.9706M89.4857 1.18732C87.0049 1.04906 84.4902 1.47948 81.9389 2.47859C79.1137 3.58206 76.5468 5.11592 74.2381 7.07763C72.5164 8.55935 71.0503 10.1976 69.8451 11.9871C70.0512 12.1593 70.2417 12.3315 70.4139 12.5036C71.3791 13.4689 71.8616 14.6219 71.8616 15.968V19.1714C71.8616 20.447 71.4494 21.5322 70.6199 22.427C73.3772 23.5305 76.2181 24.3209 79.1476 24.8035C83.178 25.4922 87.1927 25.5965 91.1918 25.1139C93.6387 24.8035 95.4309 24.2166 96.5683 23.3557C97.8439 22.4609 98.8091 21.1514 99.4638 19.427C100.014 17.9114 100.291 16.2054 100.291 14.3089C100.291 12.2063 99.9986 10.2941 99.4117 8.57238C98.723 6.57415 97.69 4.9542 96.31 3.71248C94.5179 2.17077 92.2431 1.32558 89.4857 1.18732ZM48.1359 2.4812C45.5872 1.48209 43.0699 1.05167 40.5891 1.18993C37.8317 1.32819 35.557 2.17078 33.7674 3.72293C32.3901 4.96465 31.3544 6.58199 30.6657 8.58283C30.0788 10.3045 29.7866 12.2193 29.7866 14.3193C29.7866 16.2132 30.0631 17.9192 30.6135 19.4375C31.2683 21.1592 32.2335 22.4688 33.5091 23.3661C34.6465 24.227 36.4387 24.8139 38.8856 25.1244C42.8821 25.607 46.8968 25.5026 50.9297 24.8139C54.0314 24.2974 57.0288 23.4522 59.9244 22.2809C59.2018 21.3861 58.8392 20.3505 58.8392 19.1792V15.9758C58.8392 14.6323 59.3218 13.4767 60.287 12.5115C60.3209 12.4437 60.3731 12.3732 60.441 12.3054C59.1992 10.375 57.6679 8.635 55.8393 7.08546C53.528 5.11592 50.9611 3.58206 48.1359 2.4812Z" fill="#FF5192"/>
<path d="M43.8072 26.5251C42.1098 26.5251 40.4182 26.4248 38.7351 26.2212C36.0571 25.88 34.1189 25.2349 32.8085 24.24C31.3835 23.2393 30.271 21.7397 29.537 19.8101C28.9378 18.1614 28.6367 16.3092 28.6367 14.2878C28.6367 12.0714 28.9521 10.0156 29.5772 8.18633C30.3284 6.00724 31.4781 4.21235 32.9949 2.85041C34.9905 1.12147 37.5165 0.178154 40.5214 0.0261909C43.1621 -0.111436 45.8487 0.341586 48.5382 1.39673C51.4656 2.53789 54.1666 4.15214 56.5607 6.18787C58.1491 7.53547 59.5397 9.04077 60.7124 10.6722C61.6156 10.1561 62.6278 9.8952 63.7345 9.8952H66.9401C67.8719 9.8952 68.7321 10.0816 69.512 10.4486C70.6474 8.91461 71.9807 7.48673 73.486 6.19074C75.8858 4.14927 78.5868 2.53789 81.5171 1.39386C84.2037 0.338719 86.9046 -0.125772 89.5396 0.0261909C92.5359 0.175287 95.0619 1.12147 97.0431 2.83321C98.5771 4.21235 99.7269 6.00724 100.475 8.1806C101.1 10.0156 101.416 12.0714 101.416 14.2878C101.416 16.3035 101.115 18.1557 100.521 19.7929C99.7813 21.7397 98.6689 23.2364 97.2123 24.2629C95.9335 25.232 93.9981 25.8772 91.3259 26.2184C87.2315 26.7115 83.0683 26.6054 78.948 25.9001C76.1984 25.4471 73.486 24.7159 70.8768 23.7239C69.7614 24.6987 68.4396 25.1919 66.9429 25.1919H63.7374C62.1317 25.1919 60.7526 24.65 59.6372 23.5776C56.8933 24.6328 54.0261 25.4127 51.1072 25.9001C48.6787 26.3187 46.2387 26.5251 43.8072 26.5251ZM41.4676 2.2741C41.1895 2.2741 40.9142 2.2827 40.639 2.29704C38.1473 2.4232 36.0829 3.18301 34.4973 4.55642C33.2874 5.64596 32.3498 7.11972 31.7276 8.92608C31.1857 10.5174 30.9104 12.3237 30.9104 14.2907C30.9104 16.0454 31.1656 17.6367 31.6674 19.0187C32.2322 20.5011 33.0666 21.6451 34.1475 22.4049C35.1511 23.1648 36.7768 23.6809 39.0132 23.9647C42.8725 24.4292 46.8178 24.3288 50.723 23.6608C53.2863 23.2336 55.8037 22.5684 58.2237 21.6795C57.8653 20.8996 57.6846 20.0538 57.6846 19.1449V15.9451C57.6846 14.5258 58.1262 13.2671 59.0007 12.1919C57.9112 10.6349 56.598 9.20133 55.0869 7.91968C52.8849 6.04451 50.4019 4.56215 47.7067 3.50988C45.6079 2.68985 43.5119 2.2741 41.4676 2.2741ZM72.3649 21.8573C74.6214 22.6659 76.9553 23.2708 79.3208 23.6637C83.2288 24.3317 87.1713 24.4349 91.0449 23.9676C93.2727 23.6837 94.8984 23.1676 95.8704 22.4336C96.9829 21.6509 97.8202 20.504 98.3879 19.0073C98.8839 17.6367 99.1391 16.0454 99.1391 14.2935C99.1391 12.3266 98.8638 10.5174 98.3219 8.92321C97.7026 7.12259 96.7622 5.64883 95.535 4.54208C93.9408 3.16294 91.9337 2.42606 89.4163 2.29991C87.1024 2.16801 84.7284 2.58089 82.3428 3.51561C79.6476 4.56789 77.1646 6.05024 74.9626 7.92541C73.5863 9.10958 72.3677 10.4142 71.3327 11.8134C72.428 12.9689 72.9842 14.3595 72.9842 15.9479V19.1535C72.9842 20.1398 72.7749 21.0459 72.3649 21.8573ZM60.8185 21.5706C60.8558 21.6222 60.9017 21.6652 60.9504 21.7053C60.9992 21.7426 61.045 21.7827 61.0881 21.8258C61.802 22.5655 62.6679 22.9268 63.7345 22.9268H66.9401C67.978 22.9268 68.8497 22.5626 69.6009 21.8114L69.7901 21.6222C70.4123 20.9398 70.7162 20.1341 70.7162 19.1535V15.9451C70.7162 14.9043 70.3521 14.0355 69.6009 13.2843C69.4575 13.1409 69.3027 13.0004 69.1306 12.8571C68.5056 12.3954 67.7888 12.1689 66.9401 12.1689H63.7345C62.7596 12.1689 61.9396 12.4671 61.2314 13.0778C61.1798 13.1811 61.1597 13.1983 61.0737 13.2843C60.3225 14.0326 59.9584 14.9043 59.9584 15.9451V19.1506C59.9584 20.0595 60.2307 20.8394 60.787 21.5333C60.7927 21.5419 60.8013 21.5505 60.8071 21.5591C60.8128 21.5648 60.8157 21.5677 60.8185 21.5706Z" fill="black"/>
<path d="M110.396 108.897V41.4121H22.7241V108.897H110.396Z" fill="#FF9FC3"/>
<path d="M110.396 41.4114H112.961V21.1602H20.1626V41.4114H22.7275H110.396Z" fill="#FF5192"/>
<path d="M110.372 109.997H22.6993C22.0713 109.997 21.5638 109.489 21.5638 108.861V42.5126H20.1359C19.508 42.5126 19.0005 42.0051 19.0005 41.3772V21.1257C19.0005 20.4977 19.508 19.9902 20.1359 19.9902H112.935C113.563 19.9902 114.071 20.4977 114.071 21.1257V41.3772C114.071 42.0051 113.563 42.5126 112.935 42.5126H111.507V108.861C111.507 109.489 111 109.997 110.372 109.997ZM23.8347 107.726H109.233V42.5126H23.8347V107.726ZM110.372 40.2418H111.8V22.2611H21.2714V40.2418H110.372Z" fill="black"/>
<path d="M32.0469 97.5205C32.0469 98.7171 32.4739 99.7422 33.3276 100.596C34.1814 101.45 35.2065 101.877 36.4031 101.877C37.5997 101.877 38.6248 101.45 39.4786 100.596C40.3324 99.7422 40.7592 98.7171 40.7592 97.5205C40.7592 96.324 40.3324 95.2988 39.4786 94.445C38.6248 93.5913 37.5997 93.1644 36.4031 93.1644C35.2065 93.1644 34.1814 93.5913 33.3276 94.445C32.4739 95.2988 32.0469 96.3272 32.0469 97.5205ZM46.8487 73.4276C46.037 72.5738 45.0345 72.147 43.838 72.147C42.6414 72.147 41.6162 72.5738 40.7625 73.4276C39.9087 74.2814 39.4818 75.3065 39.4818 76.5031C39.4818 77.6996 39.9087 78.7248 40.7625 79.5786C41.6162 80.4323 42.6414 80.8592 43.838 80.8592C45.0345 80.8592 46.037 80.4323 46.8487 79.5786C47.7025 78.7248 48.1294 77.6996 48.1294 76.5031C48.1294 75.3098 47.7025 74.2846 46.8487 73.4276ZM25.7666 63.0498C25.7666 64.2464 26.1935 65.2716 27.0472 66.1253C27.901 66.9791 28.9262 67.4059 30.1227 67.4059C31.3193 67.4059 32.3444 66.9791 33.1982 66.1253C34.052 65.2716 34.4788 64.2464 34.4788 63.0498C34.4788 61.8533 34.052 60.8281 33.1982 59.9743C32.3444 59.1206 31.3193 58.6937 30.1227 58.6937C28.9262 58.6937 27.901 59.1206 27.0472 59.9743C26.1967 60.8281 25.7666 61.8533 25.7666 63.0498ZM42.1724 50.4245C42.1724 51.621 42.5993 52.6462 43.4531 53.5C44.3068 54.3537 45.332 54.7806 46.5285 54.7806C47.7251 54.7806 48.7276 54.3537 49.5394 53.5C50.3931 52.6462 50.82 51.621 50.82 50.4245C50.82 49.2279 50.3931 48.2028 49.5394 47.349C48.7276 46.4952 47.7251 46.0684 46.5285 46.0684C45.332 46.0684 44.3068 46.4952 43.4531 47.349C42.5993 48.2028 42.1724 49.2279 42.1724 50.4245ZM82.7327 103.16C83.9292 103.16 84.9544 102.734 85.8082 101.88C86.6619 101.026 87.0888 100.001 87.0888 98.8044C87.0888 97.6078 86.6619 96.5827 85.8082 95.7289C84.9544 94.8751 83.9292 94.4483 82.7327 94.4483C81.5361 94.4483 80.5109 94.8751 79.6572 95.7289C78.8034 96.5827 78.3765 97.6078 78.3765 98.8044C78.3765 100.001 78.8034 101.026 79.6572 101.88C80.5109 102.734 81.5361 103.16 82.7327 103.16ZM91.5742 82.3986C90.7205 83.2523 90.2936 84.2775 90.2936 85.4741C90.2936 86.6706 90.7205 87.6958 91.5742 88.5495C92.428 89.4033 93.4532 89.8302 94.6497 89.8302C95.8463 89.8302 96.8488 89.4033 97.6606 88.5495C98.5143 87.6958 98.9412 86.6706 98.9412 85.4741C98.9412 84.2775 98.5143 83.2523 97.6606 82.3986C96.8488 81.5448 95.8463 81.1179 94.6497 81.1179C93.4532 81.1179 92.428 81.5448 91.5742 82.3986ZM80.1034 71.3126C80.9572 72.1663 81.9824 72.5932 83.1789 72.5932C84.3755 72.5932 85.378 72.1663 86.1898 71.3126C87.0435 70.4588 87.4704 69.4337 87.4704 68.2371C87.4704 67.0405 87.0435 66.0154 86.1898 65.1616C85.378 64.3078 84.3755 63.881 83.1789 63.881C81.9824 63.881 80.9572 64.3078 80.1034 65.1616C79.2497 66.0154 78.8228 67.0405 78.8228 68.2371C78.8228 69.4337 79.2497 70.4588 80.1034 71.3126ZM66.841 87.5891C66.841 86.3925 66.4141 85.3673 65.5604 84.5136C64.7486 83.6598 63.7461 83.233 62.5495 83.233C61.353 83.233 60.3278 83.6598 59.4741 84.5136C58.6203 85.3673 58.1934 86.3925 58.1934 87.5891C58.1934 88.7856 58.6203 89.8108 59.4741 90.6646C60.3278 91.5183 61.353 91.9452 62.5495 91.9452C63.7461 91.9452 64.7486 91.5183 65.5604 90.6646C66.4141 89.8108 66.841 88.7856 66.841 87.5891ZM65.5604 64.075C65.5604 62.8785 65.1335 61.8533 64.2797 60.9996C63.468 60.1458 62.4655 59.7188 61.2689 59.7188C60.0723 59.7188 59.0472 60.1458 58.1934 60.9996C57.3397 61.8533 56.9128 62.8785 56.9128 64.075C56.9128 65.2716 57.3397 66.2967 58.1934 67.1505C59.0472 68.0042 60.0723 68.4312 61.2689 68.4312C62.4655 68.4312 63.468 68.0042 64.2797 67.1505C65.1335 66.2935 65.5604 65.2684 65.5604 64.075ZM101.186 49.8488C100.332 48.9951 99.3066 48.5682 98.11 48.5682C96.9135 48.5682 95.8883 48.9951 95.0346 49.8488C94.1808 50.7026 93.7539 51.7278 93.7539 52.9243C93.7539 54.1209 94.1808 55.146 95.0346 55.9998C95.8883 56.8536 96.9135 57.2805 98.11 57.2805C99.3066 57.2805 100.332 56.8536 101.186 55.9998C102.039 55.146 102.466 54.1209 102.466 52.9243C102.466 51.7278 102.039 50.7026 101.186 49.8488ZM80.042 53.5C80.8958 52.6462 81.3226 51.621 81.3226 50.4245C81.3226 49.2279 80.8958 48.2028 80.042 47.349C79.2303 46.4952 78.2277 46.0684 77.0312 46.0684C75.8346 46.0684 74.8095 46.4952 73.9557 47.349C73.1019 48.2028 72.6751 49.2279 72.6751 50.4245C72.6751 51.621 73.1019 52.6462 73.9557 53.5C74.8095 54.3537 75.8346 54.7806 77.0312 54.7806C78.2245 54.7838 79.2303 54.3537 80.042 53.5Z" fill="white"/>
</g>
<g clip-path="url(#clip1_3229_827)">
<path d="M65.9769 105.622C55.8488 99.2988 50.1889 95.8403 48.9972 95.2437C46.0189 93.764 43.2791 92.6786 40.7809 91.986C36.803 90.8904 33.6791 91.0344 31.4108 92.4181C29.3549 93.668 27.769 96.1182 26.6545 99.7702C25.425 103.652 24.6742 107.419 24.4065 111.071C24.2144 112.397 24.4065 113.31 24.9827 113.809C25.4628 114.233 26.2602 114.404 27.3761 114.329C37.7545 113.849 50.6224 112.599 65.9784 110.581C63.8454 110.293 61.6629 109.994 59.4338 109.687C61.7778 108.208 63.9589 106.853 65.9769 105.622ZM105.27 99.7702C104.156 96.1182 102.57 93.668 100.514 92.4181C98.2456 91.0344 95.1232 90.8904 91.1438 91.986C88.6456 92.6786 85.9059 93.764 82.9275 95.2437C81.7359 95.8388 76.0862 99.2988 65.9755 105.622C63.9574 106.852 61.7764 108.208 59.4309 109.687C61.66 109.994 63.8425 110.293 65.9755 110.581C81.3125 112.599 94.1702 113.849 104.549 114.329C105.663 114.406 106.46 114.233 106.942 113.809C107.518 113.31 107.71 112.397 107.518 111.071C107.251 107.419 106.501 103.652 105.27 99.7702Z" fill="#FFF06D"/>
<path d="M26.8635 115.587C25.6962 115.587 24.7977 115.305 24.1492 114.736C23.2381 113.948 22.9028 112.645 23.1622 110.877C23.4279 107.232 24.203 103.332 25.4557 99.3773C26.6515 95.4546 28.4389 92.7403 30.7546 91.3325C33.3202 89.7698 36.8063 89.5768 41.1087 90.7631C43.6711 91.4717 46.5119 92.5979 49.5489 94.1069C50.7637 94.7143 56.1353 97.9917 65.9706 104.129C75.79 97.9885 81.1553 94.7111 82.3606 94.1069C85.4007 92.5948 88.2415 91.4717 90.804 90.7631C95.1095 89.5768 98.5925 89.7666 101.161 91.3325C103.477 92.7371 105.261 95.4482 106.463 99.3868C107.713 103.328 108.488 107.229 108.763 110.962C109.01 112.645 108.675 113.945 107.757 114.739C107.014 115.391 105.941 115.66 104.458 115.562C94.1509 115.084 81.1933 113.828 65.9706 111.826C50.7289 113.825 37.7649 115.081 27.4266 115.562C27.2336 115.581 27.047 115.587 26.8635 115.587ZM36.0091 92.503C34.4432 92.503 33.1209 92.8289 32.0579 93.4742C30.2801 94.5561 28.8628 96.7896 27.8473 100.121C26.6484 103.901 25.9113 107.609 25.6487 111.149C25.5 112.202 25.6297 112.702 25.7942 112.847C25.9619 112.993 26.4333 113.126 27.2811 113.063C35.8763 112.664 46.2873 111.724 58.3212 110.269C58.2643 110.165 58.2232 110.054 58.1979 109.937C58.0871 109.421 58.3086 108.893 58.7546 108.612C60.4503 107.542 62.0605 106.536 63.5853 105.597C54.6073 100 49.5141 96.8908 48.429 96.3498C45.5376 94.9136 42.8486 93.8475 40.4412 93.18C38.7993 92.7276 37.3188 92.503 36.0091 92.503ZM66.1351 109.323C81.3578 111.326 94.2996 112.585 104.603 113.063C105.483 113.126 105.951 112.996 106.109 112.854C106.283 112.702 106.413 112.202 106.273 111.237C106.001 107.609 105.264 103.904 104.068 100.133C103.047 96.7896 101.633 94.553 99.8579 93.4742C97.9028 92.2847 95.0842 92.1867 91.4715 93.18C89.064 93.8475 86.3751 94.9136 83.4805 96.353C82.3385 96.9224 76.6695 100.396 66.6349 106.672C66.6286 106.675 66.6254 106.679 66.6191 106.682C65.4707 107.381 64.2686 108.121 63.0159 108.903C64.0693 109.045 65.1069 109.187 66.1351 109.323Z" fill="black"/>
<path d="M78.4319 108.275C78.4319 104.836 77.2214 101.895 74.7988 99.4537C72.3574 97.0123 69.4081 95.793 65.9482 95.793C62.5086 95.793 59.568 97.0137 57.1266 99.4537C54.6851 101.895 53.4658 104.836 53.4658 108.275V115.972H78.4319V108.275Z" fill="#FFF06D"/>
<path d="M78.4253 117.213C77.7325 117.213 77.1726 116.653 77.1726 115.96V108.261C77.1726 105.135 76.1033 102.538 73.9047 100.32C71.6902 98.1057 69.0867 97.0301 65.9422 97.0301C62.8198 97.0301 60.2226 98.1089 58.0082 100.323C55.7937 102.541 54.715 105.135 54.715 108.257V115.954C54.715 116.647 54.155 117.207 53.4622 117.207C52.7694 117.207 52.2095 116.647 52.2095 115.954V108.261C52.2095 104.493 53.5635 101.225 56.2366 98.5518C58.9097 95.8786 62.1776 94.5215 65.9454 94.5215C69.7321 94.5215 73.0094 95.8755 75.6826 98.5518C78.3367 101.228 79.6812 104.493 79.6812 108.261V115.957C79.6812 116.65 79.1181 117.213 78.4253 117.213Z" fill="black"/>
<path d="M123.231 134.193H8.69434V248.73H123.231V134.193Z" fill="#99ECFF"/>
<path d="M123.227 249.969H8.68927C7.99646 249.969 7.43652 249.409 7.43652 248.716V134.179C7.43652 133.486 7.99646 132.926 8.68927 132.926H123.227C123.919 132.926 124.479 133.486 124.479 134.179V248.716C124.479 249.409 123.919 249.969 123.227 249.969ZM9.94201 247.463H121.971V135.431H9.94201V247.463Z" fill="black"/>
<path d="M130.669 142.091V109.486H1.25635V142.091H130.669Z" fill="#50D1EE"/>
<path d="M130.664 143.33H1.25177C0.558961 143.33 -0.000976562 142.77 -0.000976562 142.078V109.471C-0.000976562 108.779 0.558961 108.219 1.25177 108.219H130.664C131.357 108.219 131.917 108.779 131.917 109.471V142.078C131.92 142.77 131.357 143.33 130.664 143.33ZM2.50451 140.822H129.411V110.724H2.50451V140.822Z" fill="black"/>
<path d="M15.4965 169.002C14.7488 169.002 14.1088 169.264 13.576 169.789C13.0511 170.322 12.7886 170.962 12.7886 171.71C12.7886 172.458 13.0511 173.093 13.576 173.618C14.1088 174.151 14.7488 174.418 15.4965 174.418C16.2443 174.418 16.88 174.151 17.405 173.618C17.9378 173.093 18.2045 172.457 18.2045 171.71C18.2045 170.963 17.9384 170.322 17.405 169.789C16.88 169.264 16.2443 169.002 15.4965 169.002Z" fill="#D6F7FF"/>
<path d="M35.5546 169.002C34.8069 169.002 34.1669 169.264 33.6341 169.789C33.1092 170.322 32.8467 170.962 32.8467 171.71C32.8467 172.458 33.1092 173.093 33.6341 173.618C34.1669 174.151 34.8069 174.418 35.5546 174.418C36.3024 174.418 36.9381 174.151 37.4631 173.618C37.9959 173.093 38.2626 172.457 38.2626 171.71C38.2626 170.963 37.9965 170.322 37.4631 169.789C36.9387 169.264 36.3024 169.002 35.5546 169.002Z" fill="#D6F7FF"/>
<path d="M55.7377 169.002C54.99 169.002 54.3501 169.264 53.8173 169.789C53.2923 170.322 53.0298 170.962 53.0298 171.71C53.0298 172.458 53.2923 173.093 53.8173 173.618C54.3501 174.151 54.99 174.418 55.7377 174.418C56.4855 174.418 57.1212 174.151 57.6462 173.618C58.179 173.093 58.4457 172.457 58.4457 171.71C58.4457 170.963 58.1796 170.322 57.6462 169.789C57.1212 169.264 56.4855 169.002 55.7377 169.002Z" fill="#D6F7FF"/>
<path d="M75.8584 169.002C75.1106 169.002 74.4707 169.264 73.9379 169.789C73.4129 170.322 73.1504 170.962 73.1504 171.71C73.1504 172.458 73.4129 173.093 73.9379 173.618C74.4707 174.151 75.1106 174.418 75.8584 174.418C76.6061 174.418 77.2418 174.151 77.7668 173.618C78.2996 173.093 78.5663 172.457 78.5663 171.71C78.5663 170.963 78.3002 170.322 77.7668 169.789C77.2424 169.264 76.6061 169.002 75.8584 169.002Z" fill="#D6F7FF"/>
<path d="M95.979 169.002C95.2312 169.002 94.5913 169.264 94.0585 169.789C93.5335 170.322 93.271 170.962 93.271 171.71C93.271 172.458 93.5335 173.093 94.0585 173.618C94.5913 174.151 95.2312 174.418 95.979 174.418C96.7267 174.418 97.3624 174.151 97.8874 173.618C98.4202 173.093 98.6869 172.457 98.6869 171.71C98.6869 170.963 98.4202 170.322 97.8874 169.789C97.363 169.264 96.7267 169.002 95.979 169.002Z" fill="#D6F7FF"/>
<path d="M116.225 169.002C115.477 169.002 114.837 169.264 114.304 169.789C113.779 170.322 113.517 170.962 113.517 171.71C113.517 172.458 113.779 173.093 114.304 173.618C114.837 174.151 115.477 174.418 116.225 174.418C116.972 174.418 117.608 174.151 118.133 173.618C118.666 173.093 118.933 172.457 118.933 171.71C118.933 170.963 118.666 170.322 118.133 169.789C117.608 169.264 116.972 169.002 116.225 169.002Z" fill="#D6F7FF"/>
<path d="M25.7138 154.336C24.9661 154.336 24.3261 154.598 23.7933 155.123C23.2683 155.656 23.0059 156.296 23.0059 157.044C23.0059 157.792 23.2683 158.427 23.7933 158.952C24.3261 159.485 24.9661 159.752 25.7138 159.752C26.4615 159.752 27.0973 159.485 27.6223 158.952C28.1551 158.427 28.4218 157.791 28.4218 157.044C28.4218 156.297 28.1557 155.656 27.6223 155.123C27.0973 154.598 26.4615 154.336 25.7138 154.336Z" fill="#D6F7FF"/>
<path d="M45.6464 154.336C44.8987 154.336 44.2587 154.598 43.7259 155.123C43.201 155.656 42.9385 156.296 42.9385 157.044C42.9385 157.792 43.201 158.427 43.7259 158.952C44.2587 159.485 44.8987 159.752 45.6464 159.752C46.3942 159.752 47.0299 159.485 47.5549 158.952C48.0877 158.427 48.3544 157.791 48.3544 157.044C48.3544 156.297 48.0883 155.656 47.5549 155.123C47.0299 154.598 46.3936 154.336 45.6464 154.336Z" fill="#D6F7FF"/>
<path d="M65.767 154.336C65.0193 154.336 64.3793 154.598 63.8465 155.123C63.3216 155.656 63.0591 156.296 63.0591 157.044C63.0591 157.792 63.3216 158.427 63.8465 158.952C64.3793 159.485 65.0193 159.752 65.767 159.752C66.5148 159.752 67.1505 159.485 67.6755 158.952C68.2083 158.427 68.475 157.791 68.475 157.044C68.475 156.297 68.2089 155.656 67.6755 155.123C67.1505 154.598 66.5142 154.336 65.767 154.336Z" fill="#D6F7FF"/>
<path d="M85.9501 154.336C85.2024 154.336 84.5625 154.598 84.0296 155.123C83.5047 155.656 83.2422 156.296 83.2422 157.044C83.2422 157.792 83.5047 158.427 84.0296 158.952C84.5625 159.485 85.2024 159.752 85.9501 159.752C86.6979 159.752 87.3336 159.485 87.8586 158.952C88.3914 158.427 88.6581 157.791 88.6581 157.044C88.6581 156.297 88.392 155.656 87.8586 155.123C87.3336 154.598 86.6973 154.336 85.9501 154.336Z" fill="#D6F7FF"/>
<path d="M106.133 154.336C105.385 154.336 104.745 154.598 104.212 155.123C103.687 155.656 103.425 156.296 103.425 157.044C103.425 157.792 103.687 158.427 104.212 158.952C104.745 159.485 105.385 159.752 106.133 159.752C106.88 159.752 107.516 159.485 108.041 158.952C108.574 158.427 108.841 157.791 108.841 157.044C108.841 156.297 108.575 155.656 108.041 155.123C107.517 154.598 106.88 154.336 106.133 154.336Z" fill="#D6F7FF"/>
<path d="M15.4965 198.525C14.7488 198.525 14.1088 198.788 13.576 199.313C13.0511 199.846 12.7886 200.486 12.7886 201.233C12.7886 201.981 13.0511 202.617 13.576 203.142C14.1088 203.675 14.7488 203.941 15.4965 203.941C16.2443 203.941 16.88 203.675 17.405 203.142C17.9378 202.617 18.2045 201.98 18.2045 201.233C18.2045 200.486 17.9384 199.846 17.405 199.313C16.88 198.788 16.2443 198.525 15.4965 198.525Z" fill="#D6F7FF"/>
<path d="M35.5546 198.525C34.8069 198.525 34.1669 198.788 33.6341 199.313C33.1092 199.846 32.8467 200.486 32.8467 201.233C32.8467 201.981 33.1092 202.617 33.6341 203.142C34.1669 203.675 34.8069 203.941 35.5546 203.941C36.3024 203.941 36.9381 203.675 37.4631 203.142C37.9959 202.617 38.2626 201.98 38.2626 201.233C38.2626 200.486 37.9965 199.846 37.4631 199.313C36.9387 198.788 36.3024 198.525 35.5546 198.525Z" fill="#D6F7FF"/>
<path d="M55.7377 198.525C54.99 198.525 54.3501 198.788 53.8173 199.313C53.2923 199.846 53.0298 200.486 53.0298 201.233C53.0298 201.981 53.2923 202.617 53.8173 203.142C54.3501 203.675 54.99 203.941 55.7377 203.941C56.4855 203.941 57.1212 203.675 57.6462 203.142C58.179 202.617 58.4457 201.98 58.4457 201.233C58.4457 200.486 58.1796 199.846 57.6462 199.313C57.1212 198.788 56.4855 198.525 55.7377 198.525Z" fill="#D6F7FF"/>
<path d="M75.8584 198.525C75.1106 198.525 74.4707 198.788 73.9379 199.313C73.4129 199.846 73.1504 200.486 73.1504 201.233C73.1504 201.981 73.4129 202.617 73.9379 203.142C74.4707 203.675 75.1106 203.941 75.8584 203.941C76.6061 203.941 77.2418 203.675 77.7668 203.142C78.2996 202.617 78.5663 201.98 78.5663 201.233C78.5663 200.486 78.3002 199.846 77.7668 199.313C77.2424 198.788 76.6061 198.525 75.8584 198.525Z" fill="#D6F7FF"/>
<path d="M95.979 198.525C95.2312 198.525 94.5913 198.788 94.0585 199.313C93.5335 199.846 93.271 200.486 93.271 201.233C93.271 201.981 93.5335 202.617 94.0585 203.142C94.5913 203.675 95.2312 203.941 95.979 203.941C96.7267 203.941 97.3624 203.675 97.8874 203.142C98.4202 202.617 98.6869 201.98 98.6869 201.233C98.6869 200.486 98.4202 199.846 97.8874 199.313C97.363 198.788 96.7267 198.525 95.979 198.525Z" fill="#D6F7FF"/>
<path d="M116.225 198.525C115.477 198.525 114.837 198.788 114.304 199.313C113.779 199.846 113.517 200.486 113.517 201.233C113.517 201.981 113.779 202.617 114.304 203.142C114.837 203.675 115.477 203.941 116.225 203.941C116.972 203.941 117.608 203.675 118.133 203.142C118.666 202.617 118.933 201.98 118.933 201.233C118.933 200.486 118.666 199.846 118.133 199.313C117.608 198.788 116.972 198.525 116.225 198.525Z" fill="#D6F7FF"/>
<path d="M25.7138 183.795C24.9661 183.795 24.3261 184.057 23.7933 184.582C23.2683 185.115 23.0059 185.755 23.0059 186.503C23.0059 187.251 23.2683 187.886 23.7933 188.411C24.3261 188.944 24.9661 189.211 25.7138 189.211C26.4615 189.211 27.0973 188.944 27.6223 188.411C28.1551 187.886 28.4218 187.25 28.4218 186.503C28.4218 185.756 28.1557 185.115 27.6223 184.582C27.0973 184.057 26.4615 183.795 25.7138 183.795Z" fill="#D6F7FF"/>
<path d="M45.6464 183.795C44.8987 183.795 44.2587 184.057 43.7259 184.582C43.201 185.115 42.9385 185.755 42.9385 186.503C42.9385 187.251 43.201 187.886 43.7259 188.411C44.2587 188.944 44.8987 189.211 45.6464 189.211C46.3942 189.211 47.0299 188.944 47.5549 188.411C48.0877 187.886 48.3544 187.25 48.3544 186.503C48.3544 185.756 48.0883 185.115 47.5549 184.582C47.0299 184.057 46.3936 183.795 45.6464 183.795Z" fill="#D6F7FF"/>
<path d="M65.767 183.795C65.0193 183.795 64.3793 184.057 63.8465 184.582C63.3216 185.115 63.0591 185.755 63.0591 186.503C63.0591 187.251 63.3216 187.886 63.8465 188.411C64.3793 188.944 65.0193 189.211 65.767 189.211C66.5148 189.211 67.1505 188.944 67.6755 188.411C68.2083 187.886 68.475 187.25 68.475 186.503C68.475 185.756 68.2089 185.115 67.6755 184.582C67.1505 184.057 66.5142 183.795 65.767 183.795Z" fill="#D6F7FF"/>
<path d="M85.9501 183.795C85.2024 183.795 84.5625 184.057 84.0296 184.582C83.5047 185.115 83.2422 185.755 83.2422 186.503C83.2422 187.251 83.5047 187.886 84.0296 188.411C84.5625 188.944 85.2024 189.211 85.9501 189.211C86.6979 189.211 87.3336 188.944 87.8586 188.411C88.3914 187.886 88.6581 187.25 88.6581 186.503C88.6581 185.756 88.392 185.115 87.8586 184.582C87.3336 184.057 86.6973 183.795 85.9501 183.795Z" fill="#D6F7FF"/>
<path d="M106.133 183.795C105.385 183.795 104.745 184.057 104.212 184.582C103.687 185.115 103.425 185.755 103.425 186.503C103.425 187.251 103.687 187.886 104.212 188.411C104.745 188.944 105.385 189.211 106.133 189.211C106.88 189.211 107.516 188.944 108.041 188.411C108.574 187.886 108.841 187.25 108.841 186.503C108.841 185.756 108.575 185.115 108.041 184.582C107.517 184.057 106.88 183.795 106.133 183.795Z" fill="#D6F7FF"/>
<path d="M15.4965 228.047C14.7488 228.047 14.1088 228.309 13.576 228.834C13.0511 229.367 12.7886 230.007 12.7886 230.755C12.7886 231.503 13.0511 232.138 13.576 232.663C14.1088 233.196 14.7488 233.463 15.4965 233.463C16.2443 233.463 16.88 233.196 17.405 232.663C17.9378 232.138 18.2045 231.502 18.2045 230.755C18.2045 230.008 17.9384 229.367 17.405 228.834C16.88 228.309 16.2443 228.047 15.4965 228.047Z" fill="#D6F7FF"/>
<path d="M35.5546 228.047C34.8069 228.047 34.1669 228.309 33.6341 228.834C33.1092 229.367 32.8467 230.007 32.8467 230.755C32.8467 231.503 33.1092 232.138 33.6341 232.663C34.1669 233.196 34.8069 233.463 35.5546 233.463C36.3024 233.463 36.9381 233.196 37.4631 232.663C37.9959 232.138 38.2626 231.502 38.2626 230.755C38.2626 230.008 37.9965 229.367 37.4631 228.834C36.9387 228.309 36.3024 228.047 35.5546 228.047Z" fill="#D6F7FF"/>
<path d="M55.7377 228.047C54.99 228.047 54.3501 228.309 53.8173 228.834C53.2923 229.367 53.0298 230.007 53.0298 230.755C53.0298 231.503 53.2923 232.138 53.8173 232.663C54.3501 233.196 54.99 233.463 55.7377 233.463C56.4855 233.463 57.1212 233.196 57.6462 232.663C58.179 232.138 58.4457 231.502 58.4457 230.755C58.4457 230.008 58.1796 229.367 57.6462 228.834C57.1212 228.309 56.4855 228.047 55.7377 228.047Z" fill="#D6F7FF"/>
<path d="M75.8584 228.047C75.1106 228.047 74.4707 228.309 73.9379 228.834C73.4129 229.367 73.1504 230.007 73.1504 230.755C73.1504 231.503 73.4129 232.138 73.9379 232.663C74.4707 233.196 75.1106 233.463 75.8584 233.463C76.6061 233.463 77.2418 233.196 77.7668 232.663C78.2996 232.138 78.5663 231.502 78.5663 230.755C78.5663 230.008 78.3002 229.367 77.7668 228.834C77.2424 228.309 76.6061 228.047 75.8584 228.047Z" fill="#D6F7FF"/>
<path d="M95.979 228.047C95.2312 228.047 94.5913 228.309 94.0585 228.834C93.5335 229.367 93.271 230.007 93.271 230.755C93.271 231.503 93.5335 232.138 94.0585 232.663C94.5913 233.196 95.2312 233.463 95.979 233.463C96.7267 233.463 97.3624 233.196 97.8874 232.663C98.4202 232.138 98.6869 231.502 98.6869 230.755C98.6869 230.008 98.4202 229.367 97.8874 228.834C97.363 228.309 96.7267 228.047 95.979 228.047Z" fill="#D6F7FF"/>
<path d="M116.225 228.047C115.477 228.047 114.837 228.309 114.304 228.834C113.779 229.367 113.517 230.007 113.517 230.755C113.517 231.503 113.779 232.138 114.304 232.663C114.837 233.196 115.477 233.463 116.225 233.463C116.972 233.463 117.608 233.196 118.133 232.663C118.666 232.138 118.933 231.502 118.933 230.755C118.933 230.008 118.666 229.367 118.133 228.834C117.608 228.309 116.972 228.047 116.225 228.047Z" fill="#D6F7FF"/>
<path d="M25.7138 213.318C24.9661 213.318 24.3261 213.581 23.7933 214.106C23.2683 214.639 23.0059 215.279 23.0059 216.026C23.0059 216.774 23.2683 217.41 23.7933 217.935C24.3261 218.468 24.9661 218.734 25.7138 218.734C26.4615 218.734 27.0973 218.468 27.6223 217.935C28.1551 217.41 28.4218 216.773 28.4218 216.026C28.4218 215.279 28.1557 214.639 27.6223 214.106C27.0973 213.581 26.4615 213.318 25.7138 213.318Z" fill="#D6F7FF"/>
<path d="M45.6464 213.318C44.8987 213.318 44.2587 213.581 43.7259 214.106C43.201 214.639 42.9385 215.279 42.9385 216.026C42.9385 216.774 43.201 217.41 43.7259 217.935C44.2587 218.468 44.8987 218.734 45.6464 218.734C46.3942 218.734 47.0299 218.468 47.5549 217.935C48.0877 217.41 48.3544 216.773 48.3544 216.026C48.3544 215.279 48.0883 214.639 47.5549 214.106C47.0299 213.581 46.3936 213.318 45.6464 213.318Z" fill="#D6F7FF"/>
<path d="M65.767 213.318C65.0193 213.318 64.3793 213.581 63.8465 214.106C63.3216 214.639 63.0591 215.279 63.0591 216.026C63.0591 216.774 63.3216 217.41 63.8465 217.935C64.3793 218.468 65.0193 218.734 65.767 218.734C66.5148 218.734 67.1505 218.468 67.6755 217.935C68.2083 217.41 68.475 216.773 68.475 216.026C68.475 215.279 68.2089 214.639 67.6755 214.106C67.1505 213.581 66.5142 213.318 65.767 213.318Z" fill="#D6F7FF"/>
<path d="M85.9501 213.318C85.2024 213.318 84.5625 213.581 84.0296 214.106C83.5047 214.639 83.2422 215.279 83.2422 216.026C83.2422 216.774 83.5047 217.41 84.0296 217.935C84.5625 218.468 85.2024 218.734 85.9501 218.734C86.6979 218.734 87.3336 218.468 87.8586 217.935C88.3914 217.41 88.6581 216.773 88.6581 216.026C88.6581 215.279 88.392 214.639 87.8586 214.106C87.3336 213.581 86.6973 213.318 85.9501 213.318Z" fill="#D6F7FF"/>
<path d="M106.133 213.318C105.385 213.318 104.745 213.581 104.212 214.106C103.687 214.639 103.425 215.279 103.425 216.026C103.425 216.774 103.687 217.41 104.212 217.935C104.745 218.468 105.385 218.734 106.133 218.734C106.88 218.734 107.516 218.468 108.041 217.935C108.574 217.41 108.841 216.773 108.841 216.026C108.841 215.279 108.575 214.639 108.041 214.106C107.517 213.581 106.88 213.318 106.133 213.318Z" fill="#D6F7FF"/>
<path d="M77.0189 109.484H54.8784V248.757H77.0189V109.484Z" fill="#FFF06D"/>
<path d="M77.0146 249.997H54.8733C54.1805 249.997 53.6206 249.437 53.6206 248.744V109.471C53.6206 108.779 54.1805 108.219 54.8733 108.219H77.0146C77.7074 108.219 78.2674 108.779 78.2674 109.471V248.744C78.2674 249.437 77.7074 249.997 77.0146 249.997ZM56.1261 247.488H75.7587V110.724H56.1261V247.488Z" fill="#331D0D"/>
</g>
<defs>
<clipPath id="clip0_3229_827">
<rect width="95.073" height="110" fill="white" transform="translate(19)"/>
</clipPath>
<clipPath id="clip1_3229_827">
<rect width="131.921" height="160" fill="white" transform="translate(0 90)"/>
</clipPath>
</defs>
</svg>
