<svg width="80" height="80" viewBox="0 0 80 80" fill="none" xmlns="http://www.w3.org/2000/svg">
<g clip-path="url(#clip0_2628_2948)">
<path d="M20.929 29.3163C18.1293 29.2607 15.6498 29.9682 13.4906 31.4387C12.2393 32.2954 11.2103 33.3245 10.4003 34.529C9.49353 35.7801 8.88058 37.0818 8.56456 38.431C8.22379 39.9051 8.20166 41.3548 8.4982 42.7802C8.79494 44.3056 9.41312 45.6347 10.3496 46.7646C11.3613 48.0195 12.6255 48.9656 14.1484 49.6092C15.6495 50.2746 17.2092 50.562 18.8307 50.4684C20.3772 50.3996 21.9262 50.0089 23.4714 49.2965C23.9366 49.0756 24.9664 48.4652 26.5642 47.4623C25.2654 49.55 24.2717 51.0572 23.5893 51.9901C22.9287 52.9449 22.4157 54.2218 22.0502 55.8208C21.6598 57.4886 21.4908 58.9161 21.54 60.0942C21.5425 61.3252 22.0108 62.6978 22.9512 64.2245C23.8885 65.798 25.0218 66.9063 26.3479 67.5464C27.652 68.1645 29.1991 68.3894 30.9923 68.218C32.7136 68.0746 34.3684 67.4529 35.9628 66.3469C37.4326 65.4156 38.7081 64.1902 39.7893 62.6707C41.0637 60.9016 41.9316 58.9755 42.3962 56.8892C42.8079 54.9497 42.8667 53.0688 42.5693 51.2498C43.0137 53.166 44.0893 55.121 45.7868 57.1178C47.29 58.8643 48.9988 60.255 50.9162 61.293C52.9305 62.3781 54.972 62.9477 57.0374 62.9986C59.2995 62.9531 61.3478 62.2573 63.1886 60.9112C65.0792 59.4651 66.1943 57.7114 66.5308 55.6467C66.846 53.9038 66.5488 52.1348 65.636 50.3364C64.8702 48.6413 63.7269 47.1986 62.2029 46.0177C60.9729 44.981 59.4088 44.0593 57.5168 43.2463C56.3628 42.7285 54.79 42.1348 52.7953 41.4684C53.7044 41.3984 54.5883 41.2533 55.4471 41.0331C57.6552 40.547 59.5845 39.7009 61.2287 38.5012C63.0197 37.205 64.4037 35.5705 65.384 33.6071C66.3643 31.5937 66.7538 29.5323 66.5497 27.4197C66.3266 25.2321 65.426 23.3025 63.848 21.6308C62.273 19.9561 60.4277 19.0213 58.3151 18.8171C55.2682 18.5642 51.9807 19.9106 48.4464 22.85C47.342 23.7102 46.4844 24.5178 45.8704 25.2758C45.6739 25.4723 45.5025 25.6938 45.3561 25.9403C45.5012 25.0564 45.5963 24.1473 45.6476 23.2132C45.7894 20.6607 45.2188 18.1506 43.9391 15.6922C42.6314 13.2555 41.1062 11.4621 39.3604 10.3026C37.6146 9.14305 35.8573 8.51467 34.0855 8.41429C32.2917 8.23575 30.4019 8.52883 28.41 9.28726C26.7897 9.97456 25.3889 11.0747 24.214 12.5941C23.0859 14.0666 22.3424 15.6992 21.9772 17.492C21.3676 20.4622 21.8046 23.4002 23.2851 26.3027C24.3202 28.3169 25.6732 29.9194 27.3472 31.1007C25.4546 29.9877 23.3163 29.396 20.929 29.3163Z" fill="#FBF471"/>
<mask id="path-2-inside-1_2628_2948" fill="white">
<path d="M64.983 60.7259C64.6306 61.0783 64.2407 61.418 63.8196 61.739C61.7947 63.2254 59.5247 63.9927 57.0595 64.0409C54.7941 63.9833 52.5744 63.3665 50.4256 62.2093C48.4018 61.1148 46.5742 59.6301 44.9957 57.796C44.4821 57.1951 44.0248 56.5942 43.6174 55.9935C43.565 56.3652 43.4939 56.7369 43.4134 57.1117C42.921 59.3385 41.9878 61.4114 40.6355 63.2834C39.4888 64.8996 38.1042 66.2279 36.5251 67.2309C34.8215 68.4086 32.9794 69.0986 31.0862 69.2573C29.1244 69.4409 27.3773 69.1843 25.9073 68.4877C24.3905 67.7567 23.0976 66.5012 22.0599 64.7525C21.0348 63.0789 20.5068 61.5093 20.504 60.0908C20.4515 58.8658 20.6266 57.332 21.0387 55.58C21.4321 53.8654 22.0011 52.4574 22.7364 51.3965C22.9264 51.1375 23.1446 50.8317 23.3813 50.4823C21.8859 51.1011 20.3837 51.4449 18.8872 51.5138C17.1189 51.6165 15.381 51.3006 13.7329 50.5693C12.0724 49.8693 10.658 48.8104 9.5398 47.424C8.50622 46.1721 7.80649 44.6741 7.47819 42.9862C7.15327 41.4326 7.17818 39.8173 7.55304 38.2027C7.90005 36.7223 8.57522 35.2832 9.55675 33.926C10.4135 32.6498 11.5454 31.5178 12.8996 30.5894C15.2336 29.0005 17.9379 28.2248 20.9469 28.2839C21.7969 28.3106 22.6188 28.4028 23.4096 28.5512C23.0305 27.9974 22.6762 27.4062 22.3563 26.7806C22.3563 26.7806 22.3563 26.7806 22.3531 26.7775C20.7691 23.6717 20.3003 20.4775 20.9532 17.2824C21.3462 15.3428 22.1644 13.5541 23.3861 11.963C24.6701 10.3033 26.2237 9.08158 28 8.33209C30.1637 7.50839 32.2346 7.19066 34.1785 7.38199C36.0847 7.49201 38.0326 8.18643 39.9286 9.44C41.812 10.6873 43.4688 12.6309 44.8518 15.2052C46.166 17.723 46.7867 20.3207 46.6982 22.9389C47.0381 22.6365 47.4062 22.3373 47.8024 22.0288C51.5082 18.9428 55.0798 17.5064 58.3955 17.7786C60.7737 18.0051 62.8568 19.0591 64.604 20.9186C66.3324 22.753 67.3365 24.9109 67.585 27.3173C67.8052 29.6205 67.3754 31.8912 66.3205 34.0669C65.2686 36.1832 63.7598 37.955 61.841 39.3478C60.359 40.4291 58.6421 41.2506 56.7279 41.7873C57.1719 41.9632 57.5753 42.1358 57.9381 42.299C59.9051 43.1434 61.5662 44.1309 62.8681 45.2271C64.4923 46.4833 65.7546 48.07 66.5831 49.9151C67.5744 51.8667 67.9096 53.8734 67.5541 55.838C67.2516 57.6809 66.3894 59.3195 64.983 60.7259ZM41.8287 50.5126C41.969 50.3723 42.1531 50.2696 42.3624 50.2294C42.9152 50.1211 43.4533 50.4721 43.5825 51.0192C43.9859 52.7635 44.9925 54.5871 46.5741 56.4431C47.9834 58.0831 49.6108 59.4049 51.4062 60.3771C53.2673 61.3775 55.168 61.9125 57.0554 61.96C59.0675 61.9202 60.8879 61.3021 62.5633 60.0712C64.2293 58.7934 65.198 57.2862 65.4944 55.4746C65.7725 53.9316 65.5133 52.4126 64.7008 50.8081C63.9884 49.235 62.9391 47.9112 61.5591 46.843C60.3823 45.8533 58.8932 44.9755 57.1013 44.2064C55.9661 43.6949 54.4089 43.1106 52.4611 42.46C51.9921 42.3028 51.6943 41.8367 51.7527 41.3462C51.8111 40.8558 52.2072 40.4723 52.7008 40.4358C53.5443 40.3687 54.3814 40.2329 55.1808 40.0282C57.2702 39.5668 59.0871 38.7768 60.6066 37.6644C62.254 36.4678 63.5476 34.9487 64.4439 33.1445C65.3308 31.3247 65.6863 29.4288 65.5044 27.5194C65.3006 25.5568 64.5098 23.8617 63.082 22.3466C61.673 20.8502 60.081 20.0378 58.2122 19.8592C55.4746 19.635 52.4058 20.9131 49.1086 23.6592C48.0448 24.4851 47.2401 25.2459 46.676 25.9416C46.5357 26.1194 46.3673 26.2815 46.2428 26.4875C45.9905 26.9151 45.4597 27.1015 44.9907 26.9256C44.5186 26.7528 44.2395 26.2679 44.3197 25.7744C44.4587 24.9342 44.5507 24.0533 44.5958 23.1629C44.7254 20.8041 44.1927 18.4565 43.004 16.1764C41.7934 13.918 40.3684 12.2311 38.7759 11.175C37.196 10.1251 35.5951 9.54701 34.0201 9.45639C32.3544 9.29373 30.6052 9.5652 28.7756 10.2615C27.3645 10.8586 26.0917 11.8621 25.0321 13.2348C24.0099 14.5701 23.3192 16.0748 22.9881 17.702C22.4311 20.4255 22.8396 23.1603 24.201 25.8313C25.1545 27.6829 26.4104 29.1696 27.9342 30.2506C28.391 30.5764 28.5141 31.1984 28.2151 31.6665C27.9161 32.1346 27.2977 32.2834 26.8129 31.9981C25.0798 30.9823 23.0884 30.4315 20.8917 30.3616C18.3358 30.3127 16.0374 30.9643 14.0716 32.304C12.9358 33.0829 11.9909 34.0277 11.2588 35.1167C10.4144 36.2805 9.85749 37.4698 9.57242 38.6753C9.2657 39.9902 9.24958 41.3024 9.51456 42.5715C9.77971 43.9281 10.3288 45.1134 11.1494 46.1024C12.0547 47.2259 13.1937 48.078 14.5509 48.6494C15.9081 49.252 17.3209 49.511 18.7643 49.4264C20.1827 49.3605 21.6161 48.9977 23.0334 48.3506C23.3175 48.2169 24.0696 47.7965 26.0076 46.5787C26.4164 46.3202 26.9508 46.3806 27.2983 46.7219C27.6426 47.0663 27.7093 47.6007 27.4477 48.0126C26.1427 50.1128 25.124 51.6574 24.426 52.6059C23.859 53.4234 23.3957 54.5942 23.0612 56.0496C22.6956 57.6236 22.5327 58.9637 22.5786 60.0449C22.5807 61.1135 23.0018 62.3204 23.8325 63.6749C24.6664 65.0764 25.6588 66.0564 26.791 66.6023C27.9075 67.1325 29.2858 67.3259 30.8821 67.1759C32.4191 67.0478 33.9209 66.479 35.3593 65.4851C36.7449 64.6067 37.9331 63.4624 38.927 62.0614C40.1173 60.414 40.9354 58.5941 41.3659 56.6546C41.7466 54.8587 41.8025 53.0935 41.5273 51.4088C41.4829 51.0713 41.601 50.7403 41.8287 50.5126Z"/>
</mask>
<path d="M64.983 60.7259C64.6306 61.0783 64.2407 61.418 63.8196 61.739C61.7947 63.2254 59.5247 63.9927 57.0595 64.0409C54.7941 63.9833 52.5744 63.3665 50.4256 62.2093C48.4018 61.1148 46.5742 59.6301 44.9957 57.796C44.4821 57.1951 44.0248 56.5942 43.6174 55.9935C43.565 56.3652 43.4939 56.7369 43.4134 57.1117C42.921 59.3385 41.9878 61.4114 40.6355 63.2834C39.4888 64.8996 38.1042 66.2279 36.5251 67.2309C34.8215 68.4086 32.9794 69.0986 31.0862 69.2573C29.1244 69.4409 27.3773 69.1843 25.9073 68.4877C24.3905 67.7567 23.0976 66.5012 22.0599 64.7525C21.0348 63.0789 20.5068 61.5093 20.504 60.0908C20.4515 58.8658 20.6266 57.332 21.0387 55.58C21.4321 53.8654 22.0011 52.4574 22.7364 51.3965C22.9264 51.1375 23.1446 50.8317 23.3813 50.4823C21.8859 51.1011 20.3837 51.4449 18.8872 51.5138C17.1189 51.6165 15.381 51.3006 13.7329 50.5693C12.0724 49.8693 10.658 48.8104 9.5398 47.424C8.50622 46.1721 7.80649 44.6741 7.47819 42.9862C7.15327 41.4326 7.17818 39.8173 7.55304 38.2027C7.90005 36.7223 8.57522 35.2832 9.55675 33.926C10.4135 32.6498 11.5454 31.5178 12.8996 30.5894C15.2336 29.0005 17.9379 28.2248 20.9469 28.2839C21.7969 28.3106 22.6188 28.4028 23.4096 28.5512C23.0305 27.9974 22.6762 27.4062 22.3563 26.7806C22.3563 26.7806 22.3563 26.7806 22.3531 26.7775C20.7691 23.6717 20.3003 20.4775 20.9532 17.2824C21.3462 15.3428 22.1644 13.5541 23.3861 11.963C24.6701 10.3033 26.2237 9.08158 28 8.33209C30.1637 7.50839 32.2346 7.19066 34.1785 7.38199C36.0847 7.49201 38.0326 8.18643 39.9286 9.44C41.812 10.6873 43.4688 12.6309 44.8518 15.2052C46.166 17.723 46.7867 20.3207 46.6982 22.9389C47.0381 22.6365 47.4062 22.3373 47.8024 22.0288C51.5082 18.9428 55.0798 17.5064 58.3955 17.7786C60.7737 18.0051 62.8568 19.0591 64.604 20.9186C66.3324 22.753 67.3365 24.9109 67.585 27.3173C67.8052 29.6205 67.3754 31.8912 66.3205 34.0669C65.2686 36.1832 63.7598 37.955 61.841 39.3478C60.359 40.4291 58.6421 41.2506 56.7279 41.7873C57.1719 41.9632 57.5753 42.1358 57.9381 42.299C59.9051 43.1434 61.5662 44.1309 62.8681 45.2271C64.4923 46.4833 65.7546 48.07 66.5831 49.9151C67.5744 51.8667 67.9096 53.8734 67.5541 55.838C67.2516 57.6809 66.3894 59.3195 64.983 60.7259ZM41.8287 50.5126C41.969 50.3723 42.1531 50.2696 42.3624 50.2294C42.9152 50.1211 43.4533 50.4721 43.5825 51.0192C43.9859 52.7635 44.9925 54.5871 46.5741 56.4431C47.9834 58.0831 49.6108 59.4049 51.4062 60.3771C53.2673 61.3775 55.168 61.9125 57.0554 61.96C59.0675 61.9202 60.8879 61.3021 62.5633 60.0712C64.2293 58.7934 65.198 57.2862 65.4944 55.4746C65.7725 53.9316 65.5133 52.4126 64.7008 50.8081C63.9884 49.235 62.9391 47.9112 61.5591 46.843C60.3823 45.8533 58.8932 44.9755 57.1013 44.2064C55.9661 43.6949 54.4089 43.1106 52.4611 42.46C51.9921 42.3028 51.6943 41.8367 51.7527 41.3462C51.8111 40.8558 52.2072 40.4723 52.7008 40.4358C53.5443 40.3687 54.3814 40.2329 55.1808 40.0282C57.2702 39.5668 59.0871 38.7768 60.6066 37.6644C62.254 36.4678 63.5476 34.9487 64.4439 33.1445C65.3308 31.3247 65.6863 29.4288 65.5044 27.5194C65.3006 25.5568 64.5098 23.8617 63.082 22.3466C61.673 20.8502 60.081 20.0378 58.2122 19.8592C55.4746 19.635 52.4058 20.9131 49.1086 23.6592C48.0448 24.4851 47.2401 25.2459 46.676 25.9416C46.5357 26.1194 46.3673 26.2815 46.2428 26.4875C45.9905 26.9151 45.4597 27.1015 44.9907 26.9256C44.5186 26.7528 44.2395 26.2679 44.3197 25.7744C44.4587 24.9342 44.5507 24.0533 44.5958 23.1629C44.7254 20.8041 44.1927 18.4565 43.004 16.1764C41.7934 13.918 40.3684 12.2311 38.7759 11.175C37.196 10.1251 35.5951 9.54701 34.0201 9.45639C32.3544 9.29373 30.6052 9.5652 28.7756 10.2615C27.3645 10.8586 26.0917 11.8621 25.0321 13.2348C24.0099 14.5701 23.3192 16.0748 22.9881 17.702C22.4311 20.4255 22.8396 23.1603 24.201 25.8313C25.1545 27.6829 26.4104 29.1696 27.9342 30.2506C28.391 30.5764 28.5141 31.1984 28.2151 31.6665C27.9161 32.1346 27.2977 32.2834 26.8129 31.9981C25.0798 30.9823 23.0884 30.4315 20.8917 30.3616C18.3358 30.3127 16.0374 30.9643 14.0716 32.304C12.9358 33.0829 11.9909 34.0277 11.2588 35.1167C10.4144 36.2805 9.85749 37.4698 9.57242 38.6753C9.2657 39.9902 9.24958 41.3024 9.51456 42.5715C9.77971 43.9281 10.3288 45.1134 11.1494 46.1024C12.0547 47.2259 13.1937 48.078 14.5509 48.6494C15.9081 49.252 17.3209 49.511 18.7643 49.4264C20.1827 49.3605 21.6161 48.9977 23.0334 48.3506C23.3175 48.2169 24.0696 47.7965 26.0076 46.5787C26.4164 46.3202 26.9508 46.3806 27.2983 46.7219C27.6426 47.0663 27.7093 47.6007 27.4477 48.0126C26.1427 50.1128 25.124 51.6574 24.426 52.6059C23.859 53.4234 23.3957 54.5942 23.0612 56.0496C22.6956 57.6236 22.5327 58.9637 22.5786 60.0449C22.5807 61.1135 23.0018 62.3204 23.8325 63.6749C24.6664 65.0764 25.6588 66.0564 26.791 66.6023C27.9075 67.1325 29.2858 67.3259 30.8821 67.1759C32.4191 67.0478 33.9209 66.479 35.3593 65.4851C36.7449 64.6067 37.9331 63.4624 38.927 62.0614C40.1173 60.414 40.9354 58.5941 41.3659 56.6546C41.7466 54.8587 41.8025 53.0935 41.5273 51.4088C41.4829 51.0713 41.601 50.7403 41.8287 50.5126Z" fill="#121212" stroke="#121212" stroke-width="2" mask="url(#path-2-inside-1_2628_2948)"/>
<path d="M38.3667 28.1807C35.4442 28.1749 32.9528 29.2035 30.8899 31.2663C28.8271 33.3292 27.7972 35.8219 27.8044 38.7431C27.8115 41.6643 28.8486 44.1611 30.9197 46.2322C32.9907 48.3032 35.4875 49.343 38.4088 49.3475C41.33 49.3546 43.8227 48.3248 45.8855 46.2619C47.9484 44.199 48.9782 41.7063 48.9711 38.7851C48.9653 35.8626 47.9269 33.3671 45.8558 31.296C43.7847 29.225 41.2866 28.1865 38.3667 28.1807Z" fill="white"/>
<path d="M46.6046 47.0099C44.3501 49.2644 41.5871 50.4056 38.3939 50.3993C35.2006 50.3929 32.4331 49.2407 30.1665 46.9741C27.8998 44.7074 26.7476 41.9399 26.7444 38.7498C26.7381 35.5565 27.8793 32.7936 30.1338 30.539C32.3884 28.2845 35.1513 27.1433 38.3477 27.1465C41.5409 27.1529 44.3084 28.305 46.572 30.5686C48.8355 32.8321 49.9877 35.5996 49.9971 38.796C50.0004 41.9924 48.8592 44.7553 46.6046 47.0099ZM31.6084 32.0136C29.7312 33.8909 28.82 36.0981 28.8253 38.7539C28.8306 41.4098 29.7505 43.6207 31.6352 45.5054C33.5199 47.3901 35.7307 48.3099 38.3866 48.3152C41.0424 48.3205 43.2497 47.4094 45.1269 45.5321C47.0041 43.6549 47.9152 41.4477 47.91 38.7918C47.9047 36.136 46.9848 33.9251 45.1001 32.0404C43.2154 30.1557 41.0045 29.2358 38.3487 29.2306C35.6897 29.2284 33.4856 30.1364 31.6084 32.0136Z" fill="#121212"/>
</g>
<defs>
<clipPath id="clip0_2628_2948">
<rect width="80" height="80" fill="white"/>
</clipPath>
</defs>
</svg>
