<svg width="100" height="100" viewBox="0 0 100 100" fill="none" xmlns="http://www.w3.org/2000/svg">
<path d="M42.7691 23.2979C40.3436 20.7742 37.5267 19.2079 34.3185 18.5991C32.4552 18.2504 30.6361 18.2504 28.8556 18.5991C26.9482 18.9035 25.2559 19.5123 23.784 20.4255C22.1799 21.4272 20.8789 22.6891 19.8812 24.211C18.7952 25.8216 18.1668 27.5428 17.9959 29.3691C17.7809 31.3726 18.0621 33.3263 18.8393 35.2412C19.578 37.1561 20.7025 38.7888 22.2185 40.1392C23.6462 41.4453 25.3606 42.4692 27.3562 43.2052C27.9625 43.4211 29.4123 43.7919 31.711 44.3177C28.7177 45.015 26.5072 45.4688 25.0795 45.6902C23.6517 45.9503 22.0697 46.6255 20.3332 47.7158C18.5141 48.8448 17.1029 49.9573 16.1051 51.042C15.0192 52.1323 14.2199 53.7594 13.7017 55.94C13.1394 58.1593 13.1615 60.1406 13.7678 61.8785C14.3742 63.5775 15.5429 65.1438 17.2793 66.5772C18.9275 67.9719 20.9396 68.8851 23.3265 69.3167C25.4488 69.7927 27.6593 69.837 29.9581 69.4496C32.6482 69.0124 35.1177 68.077 37.3723 66.6436C39.4506 65.2932 41.165 63.6827 42.51 61.812C41.2091 63.8985 40.4318 66.5772 40.1672 69.8425C39.9522 72.7149 40.2333 75.4545 41.0106 78.0667C41.8319 80.8063 43.1329 83.1141 44.9135 84.9848C46.9531 86.944 49.3786 88.1394 52.1955 88.5766C55.1447 88.9696 57.6804 88.405 59.8027 86.8775C61.6219 85.6157 62.9228 83.7893 63.7056 81.3929C64.5269 79.2179 64.7916 76.9321 64.4884 74.5413C64.3175 72.5378 63.7497 70.3406 62.796 67.9497C62.2337 66.472 61.3683 64.5571 60.1941 62.205C61.0596 62.9466 61.9691 63.5997 62.9228 64.1642C65.3042 65.6862 67.7573 66.6436 70.271 67.0366C72.9997 67.4738 75.6677 67.2524 78.2696 66.3835C80.9156 65.4703 83.082 63.9926 84.7688 61.9449C86.5052 59.8141 87.4148 57.3125 87.4975 54.4402C87.5857 51.5678 86.7809 49.1105 85.0941 47.0628C82.6245 44.1461 78.5287 42.4304 72.8067 41.9047C71.0703 41.6888 69.5984 41.6445 68.3857 41.7718C68.0384 41.7718 67.6911 41.8161 67.3438 41.9047C68.2534 41.2516 69.1409 40.5321 70.0119 39.7518C72.3933 37.621 74.1077 34.8981 75.1495 31.594C76.1473 28.2844 76.3844 25.3511 75.8662 22.7832C75.348 20.2152 74.3502 18.1066 72.8729 16.4518C71.4451 14.7084 69.5157 13.2971 67.0847 12.2068C65.0451 11.3822 62.8346 11.1166 60.4532 11.4209C58.1545 11.7253 56.0542 12.5112 54.1469 13.7731C50.9827 15.8596 48.7722 18.8426 47.5154 22.7167C46.6499 25.412 46.4294 28.0243 46.8648 30.548C46.1758 27.8914 44.8087 25.4784 42.7691 23.2979Z" fill="#FF92CA"/>
<path d="M53.9459 90C53.323 90 52.678 89.9557 52.022 89.8672C48.9185 89.3912 46.2339 88.0629 44.0123 85.9267C42.0609 83.8734 40.6442 81.3663 39.7677 78.4441C38.9463 75.6879 38.6431 72.7602 38.8691 69.7439C38.9463 68.7588 39.0731 67.8235 39.244 66.9324C38.8692 67.2147 38.4778 67.4804 38.0754 67.7405C35.6719 69.2735 33.0149 70.2808 30.1649 70.7401C27.7229 71.1552 25.3249 71.1054 23.0428 70.5962C20.496 70.1313 18.2579 69.113 16.4443 67.58C14.548 66.0082 13.2305 64.2372 12.547 62.3222C11.8524 60.3354 11.8193 58.0829 12.4478 55.62C13.0211 53.2347 13.9416 51.3807 15.193 50.1243C16.2293 48.9953 17.7398 47.7943 19.6526 46.61C21.5158 45.4422 23.2633 44.7006 24.8509 44.4128C25.2478 44.3519 25.7108 44.2744 26.229 44.1748C24.3603 43.4 22.7286 42.3761 21.3449 41.1143C19.6912 39.6421 18.4343 37.8268 17.624 35.7237C16.7751 33.6372 16.4608 31.4511 16.6979 29.2373C16.8908 27.2173 17.5964 25.2747 18.7982 23.4926C19.8841 21.8323 21.3339 20.4265 23.0924 19.3307C24.7076 18.329 26.5763 17.6538 28.6435 17.3217C30.5288 16.9509 32.5298 16.9509 34.5473 17.3272C38.0147 17.9858 41.0907 19.6904 43.6981 22.4023C44.4257 23.1771 45.0707 23.9852 45.6385 24.8153C45.7928 23.9907 46.0023 23.155 46.2724 22.3193C46.2724 22.3193 46.2724 22.3193 46.2724 22.3138C47.6175 18.1685 50.0265 14.9308 53.4277 12.6838C55.4893 11.3168 57.7936 10.459 60.2797 10.1324C62.8816 9.80038 65.3347 10.0937 67.5672 11.0014C70.2077 12.1857 72.319 13.7354 73.8681 15.6226C75.4557 17.4047 76.5636 19.7402 77.1314 22.5241C77.6937 25.2913 77.4401 28.4736 76.3872 31.9714C75.3233 35.3584 73.5759 38.2031 71.1835 40.4391C71.7513 40.4723 72.3411 40.5331 72.964 40.6106C78.9671 41.1585 83.3936 43.0458 86.0837 46.217C87.9855 48.5193 88.8951 51.2921 88.7959 54.4799C88.7022 57.629 87.6824 60.4239 85.775 62.7705C83.9339 65.0009 81.547 66.628 78.6915 67.6187C75.8911 68.5596 72.9916 68.792 70.0644 68.3271C67.7988 67.9729 65.5552 67.1815 63.3888 65.9639C63.6258 66.5118 63.8298 67.021 64.0062 67.4859C64.9984 69.9708 65.5938 72.3119 65.7757 74.4316C66.1009 76.9774 65.8142 79.4956 64.9157 81.8588C64.0668 84.46 62.5895 86.5299 60.5388 87.9523C58.6425 89.3137 56.432 90 53.9459 90ZM42.5074 60.5069C42.7555 60.5069 43.009 60.5789 43.2295 60.7283C43.8139 61.1213 43.9793 61.9072 43.6099 62.5049C42.4247 64.4032 41.7026 66.9048 41.46 69.9432C41.2561 72.6384 41.5262 75.2452 42.2538 77.6914C43.0145 80.2206 44.2218 82.3735 45.848 84.0837C47.6616 85.827 49.817 86.8896 52.3858 87.2826C54.9877 87.6257 57.1762 87.1498 59.0394 85.8104C60.6491 84.6925 61.7626 83.1207 62.4627 80.9844C63.2234 78.9643 63.466 76.8668 63.1903 74.7028C63.025 72.7879 62.4847 70.6959 61.5807 68.4323C61.0294 66.9767 60.1695 65.0839 59.0229 62.7871C58.7472 62.2337 58.8961 61.5585 59.3812 61.1766C59.8663 60.7947 60.5553 60.8058 61.0239 61.2098C61.8287 61.8961 62.6887 62.5159 63.5762 63.0417C65.8308 64.4807 68.135 65.3883 70.4613 65.7481C72.975 66.1465 75.4612 65.9473 77.8481 65.1448C80.2405 64.3202 82.2305 62.9587 83.7575 61.1102C85.312 59.1953 86.1113 56.9981 86.1885 54.3969C86.2657 51.8289 85.5766 49.7037 84.0827 47.894C81.8611 45.2762 78.019 43.6933 72.6773 43.2063C71.0071 42.996 69.6234 42.9572 68.5099 43.0735C68.2287 43.1067 67.9366 43.1011 67.6444 43.1731C67.0436 43.328 66.4096 43.0236 66.1506 42.4536C65.886 41.8835 66.0678 41.2083 66.575 40.8431C67.4404 40.2232 68.3004 39.5259 69.1273 38.7787C71.3267 36.8085 72.9309 34.2626 73.8956 31.1965C74.8217 28.1305 75.0532 25.3798 74.5791 23.0388C74.1106 20.7143 73.2065 18.7883 71.8945 17.3162C70.566 15.7001 68.78 14.394 66.5474 13.3922C64.7724 12.6728 62.7603 12.4348 60.6105 12.7115C58.5267 12.9882 56.5863 13.7077 54.8554 14.8533C51.9558 16.7682 49.8997 19.5465 48.742 23.1107C47.9482 25.5901 47.7443 28.0142 48.1357 30.3166C48.2514 31.0084 47.8105 31.667 47.1324 31.8164C46.4544 31.9658 45.7763 31.5507 45.5999 30.87C44.966 28.4404 43.6926 26.1934 41.8129 24.1899C39.5968 21.8876 36.9894 20.432 34.0678 19.8786C32.3754 19.5631 30.7051 19.5631 29.0955 19.8786C27.3205 20.1609 25.777 20.7198 24.4595 21.5334C23.0262 22.4244 21.8521 23.5701 20.9646 24.926C19.9999 26.3594 19.4376 27.8925 19.2888 29.4919C19.0958 31.2851 19.3494 33.045 20.044 34.7497C20.711 36.4819 21.7308 37.9596 23.0814 39.1606C24.3933 40.356 25.9809 41.3024 27.8056 41.9832C28.1749 42.116 29.2113 42.4093 32.0006 43.0458C32.5904 43.1786 33.0093 43.7044 33.0149 44.3132C33.0149 44.922 32.6014 45.4533 32.0061 45.5861C28.9963 46.289 26.7307 46.7539 25.2754 46.9752C24.0516 47.1966 22.6073 47.822 21.0252 48.8127C19.3108 49.8808 17.9823 50.9213 17.0672 51.9175C16.1246 52.8639 15.43 54.3028 14.967 56.2344C14.4653 58.2102 14.4764 59.9535 14.9945 61.4367C15.5127 62.8923 16.5601 64.2814 18.1036 65.5599C19.5754 66.8051 21.4055 67.6298 23.5554 68.0227C25.5565 68.471 27.6181 68.5098 29.7349 68.15C32.2431 67.746 34.5749 66.8605 36.6696 65.5267C38.5935 64.2759 40.2032 62.765 41.449 61.0327C41.7081 60.6951 42.105 60.5069 42.5074 60.5069Z" fill="#121212"/>
<path d="M59.1871 37.7094C56.6091 35.1211 53.4979 33.8281 49.8512 33.8281C46.2046 33.8281 43.0911 35.1211 40.5153 37.7094C37.9396 40.2977 36.6494 43.4213 36.6494 47.0825C36.6494 50.7436 37.9373 53.8695 40.5153 56.4555C43.0911 59.0438 46.2046 60.3368 49.8512 60.3368C53.4979 60.3368 56.6114 59.0438 59.1871 56.4555C61.7651 53.8672 63.053 50.7436 63.053 47.0825C63.053 43.4213 61.7628 40.2954 59.1871 37.7094Z" fill="white"/>
<path d="M49.8259 61.6322C45.8404 61.6322 42.3896 60.1988 39.5727 57.3707C36.7559 54.5426 35.3281 51.0781 35.3281 47.0711C35.3281 43.0642 36.7559 39.5997 39.5727 36.7771C42.3896 33.949 45.8404 32.5156 49.8259 32.5156C53.8114 32.5156 57.2622 33.949 60.0846 36.7771C62.9015 39.6052 64.3292 43.0698 64.3292 47.0711C64.3292 51.0725 62.9015 54.5371 60.0846 57.3707C57.2622 60.1988 53.8114 61.6322 49.8259 61.6322ZM49.8259 35.1223C46.5074 35.1223 43.7512 36.268 41.4084 38.6201C39.0656 40.9722 37.9245 43.7394 37.9245 47.0711C37.9245 50.4029 39.0656 53.1701 41.4084 55.5222C43.7512 57.8743 46.5074 59.0199 49.8259 59.0199C53.1444 59.0199 55.9007 57.8743 58.2435 55.5222C60.5863 53.1701 61.7273 50.4029 61.7273 47.0711C61.7273 43.7394 60.5863 40.9722 58.2435 38.6201C55.8952 36.268 53.1444 35.1223 49.8259 35.1223Z" fill="#121212"/>
</svg>
