<svg width="400" height="400" viewBox="0 0 400 400" fill="none" xmlns="http://www.w3.org/2000/svg">
<path d="M134.953 342.927C133.158 332.151 132.518 319.553 133.027 305.128C133.543 290.756 134.901 277.571 137.107 265.561C150.194 255.293 163.281 256.762 176.368 269.947C174.416 284.163 172.902 297.89 171.825 311.133C170.696 324.325 171.335 336.694 173.75 348.24C175.186 349.115 176.551 350.087 177.83 351.164C186.296 357.633 190.12 365.537 189.298 374.877C188.685 384.166 183.73 390.353 174.442 393.428C165.154 396.456 154.247 397.84 141.728 397.585C129.157 397.383 118.687 395.431 110.32 391.737C101.952 388.043 98.0028 381.986 98.4662 373.572C98.9296 365.159 103.884 357.685 113.322 351.171C118.557 347.418 125.763 344.67 134.953 342.927Z" fill="#FF9FC3"/>
<path d="M144.581 399.152C156.036 399.152 166.232 397.723 174.919 394.89C184.827 391.607 190.18 384.904 190.839 374.976C191.701 365.152 187.641 356.719 178.77 349.938C177.654 348.998 176.42 348.097 175.128 347.281C172.87 336.113 172.276 323.999 173.366 311.264C174.436 298.106 175.964 284.281 177.902 270.156C178.02 269.314 177.426 268.538 176.584 268.42C175.755 268.303 174.965 268.89 174.847 269.739C172.902 283.916 171.368 297.799 170.298 311.01C169.162 324.279 169.822 336.916 172.25 348.554C172.334 348.972 172.596 349.331 172.955 349.553C174.319 350.382 175.624 351.315 176.845 352.34C184.997 358.567 188.548 365.877 187.771 374.734C187.19 383.448 182.68 389.074 173.966 391.959C164.894 394.916 154.058 396.3 141.768 396.039C129.451 395.837 119.086 393.911 110.947 390.321C103.16 386.881 99.5828 381.425 100.007 373.644C100.438 365.766 105.216 358.625 114.204 352.425C119.243 348.822 126.292 346.139 135.182 344.448L141.892 343.763C142.74 343.678 143.354 342.921 143.269 342.072C143.184 341.224 142.427 340.591 141.579 340.695L136.252 341.243C134.653 330.918 134.092 318.797 134.575 305.181C135.084 290.952 136.448 277.715 138.628 265.835C138.785 265 138.23 264.197 137.395 264.04C136.553 263.89 135.756 264.439 135.6 265.274C133.387 277.297 132.01 290.691 131.494 305.063C131.005 318.868 131.579 331.179 133.204 341.694C124.523 343.489 117.539 346.243 112.428 349.898C102.638 356.654 97.4158 364.591 96.9328 373.468C96.4367 382.554 100.732 389.166 109.7 393.128C118.218 396.887 128.981 398.898 141.703 399.107C142.669 399.146 143.635 399.152 144.581 399.152Z" fill="#121212"/>
<path d="M246.809 311.982C245.68 325.174 246.32 337.543 248.735 349.089C250.171 349.964 251.535 350.936 252.814 352.013C261.28 358.482 265.105 366.386 264.282 375.726C263.669 385.015 258.715 391.202 249.427 394.277C240.139 397.305 229.232 398.689 216.713 398.434C204.141 398.232 193.672 396.28 185.304 392.586C176.936 388.892 172.987 382.834 173.451 374.421C173.914 366.007 178.868 358.534 188.306 352.02C193.541 348.273 200.754 345.525 209.937 343.783C208.142 333.006 207.503 320.409 208.012 305.984C208.528 291.611 209.885 278.426 212.091 266.416C225.178 256.149 238.265 257.618 251.352 270.802C249.401 285.012 247.886 298.739 246.809 311.982Z" fill="#FF9FC3"/>
<path d="M219.576 400.001C231.024 400.001 241.213 398.571 249.901 395.738C259.809 392.455 265.161 385.752 265.82 375.824C266.682 366.001 262.622 357.567 253.745 350.786C252.629 349.846 251.395 348.945 250.103 348.123C247.845 336.955 247.251 324.84 248.341 312.106C249.411 298.947 250.938 285.123 252.877 270.998C252.995 270.156 252.401 269.379 251.559 269.262C250.723 269.138 249.94 269.732 249.822 270.58C247.877 284.757 246.343 298.64 245.273 311.851C244.137 325.121 244.796 337.758 247.225 349.395C247.309 349.813 247.57 350.179 247.936 350.394C249.294 351.217 250.606 352.157 251.826 353.181C259.979 359.408 263.529 366.719 262.753 375.576C262.172 384.29 257.661 389.916 248.948 392.801C239.875 395.758 229.04 397.129 216.749 396.881C204.433 396.678 194.067 394.753 185.928 391.163C178.141 387.723 174.564 382.266 174.989 374.486C175.419 366.608 180.197 359.467 189.185 353.266C194.231 349.657 201.306 346.974 210.229 345.277C210.229 345.277 210.229 345.277 210.235 345.277L216.88 344.605C217.728 344.52 218.342 343.763 218.257 342.914C218.172 342.066 217.415 341.445 216.567 341.537L211.24 342.085C209.641 331.766 209.08 319.645 209.563 306.023C210.072 291.793 211.436 278.556 213.616 266.677C213.773 265.841 213.218 265.039 212.383 264.882C211.547 264.725 210.744 265.28 210.588 266.116C208.375 278.139 206.998 291.526 206.482 305.905C205.993 319.717 206.567 332.033 208.192 342.542C199.452 344.35 192.507 347.104 187.416 350.74C177.626 357.496 172.404 365.433 171.921 374.31C171.425 383.389 175.72 390.007 184.688 393.969C193.206 397.729 203.969 399.739 216.697 399.948C217.65 399.987 218.616 400.001 219.576 400.001Z" fill="#121212"/>
<path d="M55.0455 67.3312C55.4567 66.92 55.8679 66.5088 56.2791 66.0976C75.9846 48.4417 99.0581 40.3088 125.486 41.6926C150.688 42.9784 171.908 56.7834 189.152 83.1074C189.152 83.1596 189.178 83.2118 189.231 83.264L189.387 83.1074C189.799 82.3894 190.21 81.7236 190.621 81.1035C207.611 56.1111 228.367 42.9719 252.897 41.6861C279.377 40.3023 302.444 48.4351 322.104 66.0911C322.567 66.5023 322.979 66.9135 323.338 67.3247C342.273 84.7718 352.462 106.533 353.898 132.603C354.204 138.915 354.002 145.076 353.284 151.081C351.9 162.882 348.232 173.894 342.273 184.109C331.803 201.862 319.284 218.239 304.709 233.225C290.186 248.212 274.867 262.271 258.751 275.41C235.965 294.861 212.768 311.31 189.159 324.756C171.248 314.541 153.592 302.609 136.198 288.961C108.999 268.844 83.8498 246.338 60.7567 221.45C32.938 191.425 21.6526 156.172 26.8873 115.678C31.0255 96.9972 40.4181 80.8816 55.0455 67.3312Z" fill="#FF9FC3"/>
<path d="M189.144 326.295C189.406 326.295 189.673 326.23 189.908 326.093C213.491 312.66 236.982 296.003 259.736 276.578C275.799 263.485 291.301 249.249 305.798 234.295C320.386 219.296 333.101 202.671 343.583 184.891C349.621 174.533 353.394 163.228 354.797 151.263C355.522 145.206 355.73 138.901 355.424 132.53C353.968 106.187 343.544 83.8901 324.426 66.2472C324.035 65.8099 323.597 65.3726 323.114 64.9418C303.246 47.0965 279.585 38.7548 252.804 40.1517C227.883 41.4571 206.526 54.9422 189.334 80.2349C189.334 80.2349 189.334 80.2414 189.327 80.2414L189.197 80.4177C171.958 54.9683 150.556 41.4244 125.55 40.1517C98.8217 38.7483 75.1673 47.09 55.2399 64.9483L53.9476 66.2407C39.1962 79.902 29.5621 96.4353 25.3586 115.338C20.0651 156.25 31.5921 192.254 59.6066 222.494C82.6605 247.337 108.11 270.116 135.263 290.2C152.605 303.809 170.49 315.891 188.381 326.093C188.616 326.23 188.877 326.295 189.144 326.295ZM258.515 43.0889C282.176 43.0889 303.193 51.2021 321.058 67.2459C321.476 67.6179 321.841 67.9834 322.161 68.349C322.2 68.3881 322.233 68.4273 322.279 68.4664C340.822 85.5545 350.94 107.166 352.343 132.7C352.643 138.888 352.441 145.017 351.736 150.911C350.378 162.451 346.743 173.364 340.927 183.344C330.575 200.909 318.01 217.331 303.585 232.161C289.167 247.036 273.749 261.187 257.758 274.228C235.37 293.333 212.296 309.73 189.138 322.993C171.632 312.961 154.139 301.107 137.123 287.759C110.094 267.766 84.7818 245.117 61.8585 220.412C34.4967 190.883 23.2373 155.715 28.3872 115.886C32.4341 97.7407 41.7614 81.7427 56.0819 68.473L57.3548 67.2002C76.5968 49.9685 99.5136 41.8944 125.394 43.2455C149.903 44.4922 170.875 58.134 187.735 83.7987C187.826 84.0076 187.957 84.2034 188.126 84.3666C188.727 84.9671 189.699 84.9671 190.3 84.3666L190.456 84.2165C190.554 84.1186 190.639 84.0076 190.704 83.8901C191.096 83.2048 191.488 82.5651 191.879 81.9777C191.886 81.9646 191.892 81.9581 191.899 81.945C208.543 57.5008 229.071 44.4922 252.954 43.2455C254.834 43.1346 256.681 43.0889 258.515 43.0889Z" fill="#121212"/>
<path d="M195.299 121.891C198.57 126.009 200.203 130.975 200.203 136.788C200.203 142.601 198.57 147.547 195.299 151.629C191.987 155.748 187.991 157.807 183.308 157.807C178.784 157.807 174.871 155.748 171.558 151.629C168.246 147.552 166.593 142.606 166.593 136.788C166.593 130.975 168.246 126.009 171.558 121.891C174.871 117.772 178.784 115.713 183.308 115.713C187.991 115.713 191.987 117.772 195.299 121.891Z" fill="white"/>
<path d="M185.732 122.563C188.397 126.157 189.727 130.496 189.727 135.585C189.727 140.673 188.397 144.991 185.732 148.544C183.026 152.18 179.878 153.992 176.284 153.992C175.478 153.992 174.687 153.91 173.922 153.751C172.752 152.821 171.643 151.712 170.59 150.418C167.278 146.342 165.625 141.397 165.625 135.579C165.625 129.767 167.278 124.802 170.59 120.684C171.637 119.39 172.752 118.301 173.922 117.413C174.687 117.254 175.478 117.172 176.284 117.172C179.878 117.172 183.026 118.969 185.732 122.563Z" fill="#121212"/>
<path d="M183.657 159.216C188.807 159.216 193.246 156.945 196.849 152.467C200.367 148.133 202.155 142.813 202.155 136.665C202.155 130.516 200.373 125.183 196.849 120.804C193.246 116.326 188.807 114.055 183.657 114.055C178.71 114.055 174.369 116.326 170.773 120.804C167.255 125.183 165.466 130.523 165.466 136.665C165.466 142.813 167.255 148.133 170.773 152.473C174.376 156.945 178.71 159.216 183.657 159.216ZM183.657 117.129C187.887 117.129 191.418 118.963 194.447 122.729C197.514 126.548 199.074 131.234 199.074 136.665C199.074 142.089 197.521 146.756 194.453 150.528C191.418 154.301 187.887 156.135 183.657 156.135C179.63 156.135 176.203 154.301 173.168 150.535C170.1 146.749 168.54 142.089 168.54 136.665C168.54 131.241 170.094 126.554 173.168 122.729C176.203 118.963 179.63 117.129 183.657 117.129Z" fill="#121212"/>
<path d="M150.359 115.713C155.042 115.713 159.037 117.772 162.35 121.891C165.662 126.009 167.315 130.975 167.315 136.788C167.315 142.601 165.662 147.547 162.35 151.629C159.037 155.748 155.042 157.807 150.359 157.807C145.876 157.807 141.978 155.748 138.671 151.629C135.359 147.552 133.705 142.606 133.705 136.788C133.705 130.975 135.359 126.009 138.671 121.891C141.978 117.772 145.876 115.713 150.359 115.713Z" fill="white"/>
<path d="M152.726 122.502C155.391 126.097 156.721 130.435 156.721 135.524C156.721 140.612 155.391 144.951 152.726 148.545C150.061 152.139 146.934 153.936 143.34 153.936C142.534 153.936 141.743 153.854 140.978 153.695C139.807 152.766 138.698 151.657 137.646 150.363C134.334 146.286 132.681 141.341 132.681 135.524C132.681 129.711 134.334 124.746 137.646 120.628C138.693 119.334 139.807 118.266 140.978 117.419C141.743 117.26 142.534 117.178 143.34 117.178C146.934 117.173 150.061 118.949 152.726 122.502Z" fill="#121212"/>
<path d="M150.84 159.157C155.99 159.157 160.409 156.905 163.973 152.467C167.491 148.133 169.279 142.794 169.279 136.606C169.279 130.457 167.491 125.138 163.966 120.797C160.415 116.326 155.997 114.055 150.84 114.055C145.893 114.055 141.552 116.326 137.956 120.804C134.437 125.138 132.649 130.457 132.649 136.606C132.649 142.794 134.437 148.133 137.962 152.473C141.559 156.905 145.893 159.157 150.84 159.157ZM150.84 117.129C155.07 117.129 158.575 118.957 161.564 122.723C164.645 126.515 166.198 131.182 166.198 136.599C166.198 142.063 164.645 146.749 161.577 150.528C158.581 154.262 155.07 156.076 150.84 156.076C146.813 156.076 143.38 154.262 140.351 150.528C137.283 146.749 135.73 142.063 135.73 136.599C135.73 131.175 137.283 126.508 140.351 122.736C143.38 118.963 146.813 117.129 150.84 117.129Z" fill="#121212"/>
<path d="M165.974 194.349C168.943 194.349 171.515 192.893 173.61 190.021C175.542 187.345 176.521 184.069 176.521 180.263C176.521 176.465 175.549 173.162 173.623 170.446C171.509 167.607 168.943 166.178 165.98 166.178C163.004 166.178 160.465 167.607 158.422 170.433C156.444 173.149 155.432 176.458 155.432 180.263C155.432 184.075 156.444 187.365 158.428 190.034C160.445 192.887 162.991 194.349 165.974 194.349ZM165.974 169.259C167.938 169.259 169.629 170.238 171.13 172.255C172.657 174.415 173.441 177.117 173.441 180.263C173.441 183.403 172.657 186.079 171.117 188.213C169.616 190.269 167.932 191.275 165.974 191.275C164.022 191.275 162.371 190.276 160.915 188.226C159.309 186.066 158.507 183.396 158.507 180.263C158.507 177.124 159.316 174.422 160.909 172.241C162.358 170.231 164.015 169.259 165.974 169.259Z" fill="#121212"/>
<path d="M62.05 216.138C59.178 213.318 57.7421 209.878 57.7421 205.825C57.7421 201.771 59.178 198.305 62.05 195.433C64.8697 192.614 68.3095 191.197 72.3629 191.197C76.4162 191.197 79.8822 192.607 82.7541 195.433C85.5738 198.305 86.9902 201.771 86.9902 205.825C86.9902 209.878 85.5804 213.318 82.7541 216.138C79.8822 219.009 76.4162 220.445 72.3629 220.445C68.3095 220.452 64.8697 219.009 62.05 216.138Z" fill="#FF9FC3"/>
<path d="M72.3635 221.985C76.8215 221.985 80.6856 220.386 83.8448 217.22C86.9517 214.113 88.5312 210.276 88.5312 205.817C88.5312 201.366 86.9582 197.502 83.8578 194.349C80.6791 191.229 76.8215 189.656 72.37 189.656C67.912 189.656 64.074 191.236 60.9671 194.343C57.808 197.502 56.2022 201.366 56.2022 205.824C56.2022 210.289 57.8079 214.127 60.9736 217.24C64.0609 220.386 67.8989 221.985 72.3635 221.985ZM72.3635 192.737C76.0317 192.737 79.0799 193.977 81.6777 196.529C84.2103 199.108 85.4504 202.156 85.4504 205.824C85.4504 209.486 84.2103 212.508 81.6647 215.053C79.0669 217.651 76.0252 218.911 72.3635 218.911C68.7083 218.911 65.6927 217.651 63.1471 215.06C60.5363 212.495 59.2766 209.479 59.2766 205.824C59.2766 202.162 60.5363 199.121 63.1341 196.523C65.6862 193.971 68.7017 192.737 72.3635 192.737Z" fill="#121212"/>
<path d="M81.7538 183.318L94.9219 187.094L77.2692 248.655L64.1011 244.879L81.7538 183.318Z" fill="#CCCCCC"/>
<path d="M77.3213 250.175C77.9936 250.175 78.6071 249.738 78.8029 249.059L96.4527 187.502C96.5637 187.111 96.518 186.686 96.3157 186.334C96.1199 185.975 95.787 185.714 95.3953 185.603L82.2237 181.824C81.4078 181.589 80.5528 182.065 80.3178 182.881L62.668 244.431C62.557 244.823 62.6027 245.247 62.805 245.6C63.0009 245.959 63.3337 246.22 63.7254 246.331L76.897 250.11C77.0341 250.156 77.1777 250.175 77.3213 250.175ZM93.0652 188.129L76.2639 246.729L66.0556 243.805L82.8568 185.205L93.0652 188.129Z" fill="#121212"/>
<path d="M60.7168 132.81C64.1257 120.922 71.2234 111.986 82.0144 106.009C92.8072 100.027 104.141 98.7415 116.029 102.15C127.917 105.559 136.853 112.657 142.83 123.448C148.812 134.241 150.097 145.574 146.689 157.462C143.28 169.351 136.182 178.287 125.391 184.263C114.598 190.246 103.265 191.531 91.3765 188.122C79.4882 184.713 70.552 177.616 64.5757 166.825C58.5977 156.04 57.3078 144.698 60.7168 132.81ZM72.3352 136.142C69.8455 144.824 70.7798 153.097 75.1425 160.967C79.5052 168.838 86.0256 174.014 94.7081 176.504C103.391 178.993 111.663 178.059 119.534 173.696C127.404 169.334 132.58 162.813 135.07 154.131C137.56 145.448 136.625 137.176 132.263 129.305C127.9 121.435 121.38 116.259 112.697 113.769C104.015 111.279 95.7422 112.213 87.8716 116.576C80.001 120.939 74.8249 127.459 72.3352 136.142Z" fill="#FF6161"/>
<path d="M75.1424 160.968C70.7797 153.097 69.8454 144.824 72.3351 136.142C74.8248 127.459 80.0009 120.939 87.8715 116.576C95.742 112.214 104.015 111.279 112.697 113.769C121.38 116.259 127.9 121.435 132.263 129.305C136.625 137.176 137.56 145.449 135.07 154.131C132.58 162.814 127.404 169.334 119.534 173.697C111.663 178.059 103.39 178.994 94.7079 176.504C86.0299 174.022 79.5051 168.838 75.1424 160.968Z" fill="white"/>
<path d="M104.163 191.47C111.761 191.47 119.143 189.499 126.225 185.576C137.334 179.421 144.749 170.094 148.254 157.849C151.766 145.611 150.422 133.771 144.26 122.662C138.105 111.553 128.778 104.138 116.533 100.633C104.295 97.1209 92.4547 98.4654 81.3455 104.627C70.2363 110.782 62.8215 120.109 59.3163 132.354C55.8046 144.592 57.1491 156.432 63.3106 167.541C69.4656 178.651 78.7927 186.065 91.0375 189.571C95.4694 190.837 99.8491 191.47 104.163 191.47ZM103.44 101.814C107.467 101.814 111.553 102.408 115.691 103.596C127.113 106.873 135.827 113.791 141.571 124.163C147.321 134.535 148.574 145.585 145.298 157.007C142.021 168.43 135.102 177.137 124.73 182.887C114.365 188.637 103.315 189.891 91.8861 186.614C80.4637 183.337 71.7566 176.418 66.0063 166.047C60.256 155.675 59.0029 144.625 62.2796 133.202C65.5563 121.78 72.4751 113.066 82.8467 107.323C89.4587 103.648 96.3513 101.814 103.44 101.814ZM104.079 179.362C109.686 179.362 115.142 177.907 120.37 175.009C128.575 170.46 134.051 163.567 136.643 154.52C139.234 145.474 138.248 136.728 133.699 128.523C129.15 120.318 122.257 114.842 113.211 112.251C104.164 109.659 95.4179 110.645 87.2133 115.194C79.0087 119.744 73.5324 126.636 70.941 135.683C68.3497 144.729 69.3352 153.476 73.8845 161.68C78.4338 169.885 85.3264 175.361 94.373 177.952C97.6496 178.892 100.887 179.362 104.079 179.362ZM103.524 113.922C106.429 113.922 109.373 114.352 112.362 115.208C120.599 117.57 126.872 122.551 131.003 130.011C135.142 137.472 136.042 145.435 133.679 153.665C131.316 161.903 126.336 168.175 118.876 172.307C111.415 176.445 103.452 177.345 95.2215 174.983C86.9843 172.62 80.7118 167.639 76.5802 160.179C72.4421 152.718 71.5415 144.755 73.9043 136.525C76.2672 128.294 81.2474 122.022 88.708 117.883C93.4597 115.247 98.4203 113.922 103.524 113.922Z" fill="#121212"/>
<path d="M48.8861 207.366C54.6822 200.799 61.7446 197.51 70.0536 197.51C78.317 197.51 85.3728 200.793 91.2212 207.366C97.0173 213.984 99.9219 221.967 99.9219 231.307C99.9219 240.648 97.0238 248.604 91.2212 255.171C85.3728 261.789 78.317 265.098 70.0536 265.098C61.738 265.098 54.6822 261.789 48.8861 255.171C43.0377 248.604 40.1071 240.648 40.1071 231.307C40.1136 221.967 43.0377 213.984 48.8861 207.366Z" fill="#FF9FC3"/>
<path d="M70.0513 266.638C78.7389 266.638 86.2452 263.119 92.3742 256.188C98.3987 249.36 101.46 240.986 101.46 231.306C101.46 221.626 98.4053 213.226 92.3807 206.353C86.2452 199.46 78.7324 195.975 70.0513 195.975C61.318 195.975 53.8052 199.467 47.7284 206.346C41.6517 213.226 38.5643 221.62 38.5643 231.306C38.5643 240.992 41.6451 249.367 47.7284 256.194C53.8052 263.119 61.318 266.638 70.0513 266.638ZM70.0513 199.049C77.9231 199.049 84.4763 202.104 90.0701 208.389C95.579 214.681 98.3791 222.397 98.3791 231.306C98.3791 240.216 95.579 247.905 90.0636 254.151C84.4698 260.482 77.923 263.563 70.0448 263.563C62.1208 263.563 55.5741 260.489 50.0325 254.158C44.4583 247.898 41.6386 240.216 41.6386 231.306C41.6386 222.397 44.4584 214.681 50.026 208.383C55.5806 202.104 62.1273 199.049 70.0513 199.049Z" fill="#121212"/>
<path d="M318.166 216.752C316.338 215.655 313.545 215.088 309.772 215.061L330.789 173.34C335.469 174.58 340.189 176.12 344.953 177.961C352.14 180.735 358.171 184.867 363.047 190.356C367.975 195.95 371.336 202.471 373.131 209.911C374.926 217.352 374.9 224.643 373.053 231.777C371.362 238.246 368.281 244.225 363.817 249.714C359.607 255.001 354.476 259.413 348.419 262.958C339.797 267.892 329.921 270.842 318.779 271.808C319.178 269.889 319.249 267.964 319.008 266.032C319.249 267.964 319.171 269.889 318.779 271.808C318.603 272.768 318.349 273.714 318.009 274.654C316.985 277.526 315.418 280.039 313.316 282.2C311.208 284.412 308.773 286.286 306.006 287.82C303.193 289.406 299.394 290.104 294.609 289.895C289.773 289.739 285.282 288.381 281.137 285.816C276.993 283.257 273.807 280 271.595 276.038C269.336 272.128 267.998 266.815 267.594 260.105C267.13 253.441 269.617 247.769 275.061 243.096C280.504 238.416 285.556 235.648 290.223 234.78C294.831 233.912 299.146 233.246 303.153 232.776C307.115 232.313 309.909 231.777 311.547 231.157C313.395 230.492 315.111 229.643 316.704 228.618C317.833 227.9 318.734 227.026 319.4 226.001C321.501 222.398 321.09 219.324 318.166 216.752Z" fill="#FF9FC3"/>
<path d="M295.989 291.494C300.388 291.494 303.991 290.724 306.72 289.19C309.631 287.564 312.229 285.58 314.428 283.296C316.674 280.965 318.371 278.224 319.467 275.163C319.696 274.53 319.885 273.896 320.048 273.263C330.909 272.154 340.707 269.138 349.192 264.282C355.399 260.653 360.719 256.077 365.027 250.666C369.602 245.04 372.807 238.813 374.55 232.162C376.456 224.812 376.482 217.202 374.635 209.545C372.788 201.895 369.282 195.094 364.211 189.337C359.191 183.685 352.906 179.37 345.517 176.524C340.72 174.671 335.896 173.117 331.183 171.89C330.361 171.675 329.519 172.171 329.304 172.993C329.088 173.816 329.584 174.658 330.407 174.873C335.002 176.068 339.714 177.588 344.407 179.396C351.326 182.066 357.214 186.1 361.9 191.374C366.632 196.746 369.909 203.103 371.639 210.263C373.368 217.424 373.342 224.525 371.567 231.379C369.942 237.599 366.933 243.434 362.625 248.728C358.545 253.852 353.506 258.186 347.645 261.612C339.773 266.116 330.681 268.969 320.596 270.104C320.733 268.675 320.714 267.245 320.538 265.829C320.433 264.987 319.663 264.38 318.821 264.491C317.979 264.595 317.379 265.366 317.483 266.208C317.705 267.963 317.633 269.752 317.274 271.521C317.274 271.527 317.274 271.54 317.268 271.547C317.104 272.395 316.869 273.263 316.563 274.125C315.616 276.775 314.154 279.144 312.209 281.155C310.218 283.224 307.862 285.019 305.212 286.5C302.686 287.917 299.122 288.55 294.625 288.387C290.108 288.217 285.839 286.905 281.943 284.497C278.039 282.088 274.991 278.994 272.889 275.306C270.781 271.592 269.502 266.456 269.084 260.033C268.673 253.799 270.957 248.636 276.055 244.25C281.264 239.773 286.107 237.09 290.461 236.281C295.043 235.419 299.364 234.753 303.293 234.296C307.438 233.813 310.316 233.258 312.085 232.593C314.017 231.894 315.858 230.987 317.535 229.903C318.841 229.075 319.898 228.037 320.688 226.829C323.214 222.528 322.679 218.664 319.18 215.596C319.115 215.537 319.036 215.478 318.958 215.433C316.869 214.18 313.873 213.553 309.787 213.52C309.781 213.52 309.781 213.52 309.774 213.52C308.932 213.52 308.241 214.199 308.234 215.048C308.227 215.896 308.913 216.595 309.761 216.601C313.149 216.627 315.668 217.104 317.255 218.005C319.532 220.061 319.781 222.293 318.07 225.21C317.568 225.987 316.817 226.712 315.877 227.306C314.383 228.272 312.757 229.075 311.021 229.695C309.494 230.269 306.778 230.785 302.94 231.229C298.939 231.698 294.553 232.377 289.899 233.245C285.01 234.153 279.678 237.07 274.051 241.907C268.249 246.894 265.54 253.062 266.01 260.229C266.46 267.115 267.87 272.702 270.213 276.821C272.576 280.965 275.977 284.425 280.33 287.107C284.684 289.797 289.455 291.259 294.514 291.455C295.01 291.481 295.506 291.494 295.989 291.494Z" fill="#121212"/>
</svg>
