<svg width="480" height="480" viewBox="0 0 480 480" fill="none" xmlns="http://www.w3.org/2000/svg">
<g clip-path="url(#clip0_2628_2467)">
<path d="M325.456 406.835C320.497 401.3 318.914 393.541 320.707 383.563C321.636 377.966 324.416 371.759 329.057 364.944C321.221 359.347 312.983 351.876 304.345 342.536C295.677 333.292 288.301 324.253 282.222 315.424C283.98 300.868 293.034 293.607 309.382 293.64C317.028 303.716 324.642 313.218 332.223 322.141C339.772 331.098 347.899 338.424 356.6 344.119C358.04 343.766 359.493 343.495 360.968 343.302C370.277 342.118 377.603 344.68 382.945 350.979C388.32 357.185 389.089 364.125 385.247 371.804C381.345 379.483 375.394 387.157 367.397 394.839C359.4 402.515 351.658 407.827 344.172 410.77C336.651 413.618 330.412 412.308 325.456 406.835Z" fill="#FF7D6F"/>
<path d="M336.891 413.58C339.331 413.58 341.92 413.063 344.658 412.025C352.291 409.022 360.254 403.567 368.34 395.803C376.412 388.053 382.508 380.183 386.461 372.405C390.555 364.216 389.716 356.707 383.974 350.076C378.353 343.442 370.55 340.701 360.803 341.94C359.481 342.114 358.16 342.351 356.864 342.645C348.491 337.091 340.557 329.898 333.267 321.248C325.733 312.379 318.065 302.809 310.471 292.799C310.018 292.204 309.168 292.083 308.569 292.537C307.974 292.99 307.854 293.84 308.307 294.439C315.933 304.487 323.633 314.097 331.195 322.998C338.789 332.009 347.092 339.489 355.861 345.231C356.177 345.436 356.563 345.5 356.928 345.415C358.313 345.079 359.733 344.813 361.15 344.625C370.047 343.492 376.844 345.854 381.913 351.833C386.946 357.649 387.64 363.971 384.038 371.172C380.23 378.667 374.315 386.293 366.463 393.834C358.631 401.353 350.966 406.617 343.681 409.482C336.692 412.128 331.057 410.959 326.47 405.898C321.834 400.723 320.343 393.278 322.05 383.778C322.946 378.384 325.68 372.302 330.182 365.686V365.682L333.944 361.184C334.422 360.607 334.344 359.749 333.77 359.271C333.189 358.793 332.336 358.871 331.858 359.445L328.829 363.079C321.402 357.642 313.507 350.416 305.346 341.593C296.757 332.434 289.357 323.366 283.343 314.632C282.918 314.015 282.075 313.856 281.455 314.285C280.839 314.71 280.683 315.553 281.108 316.172C287.197 325.017 294.681 334.191 303.359 343.442C311.626 352.382 319.645 359.718 327.21 365.261C322.886 371.842 320.275 377.881 319.372 383.321C317.513 393.667 319.22 401.885 324.451 407.718C327.986 411.629 332.152 413.58 336.891 413.58Z" fill="black"/>
<path d="M215.88 424.128C211.929 417.835 211.681 409.92 215.136 400.389C216.998 395.029 220.787 389.382 226.514 383.451C219.737 376.608 212.882 367.852 205.947 357.187C198.968 346.61 193.227 336.454 188.729 326.725C192.923 312.676 203.074 307.051 219.18 309.847C225.012 321.071 230.91 331.724 236.872 341.801C242.798 351.904 249.569 360.499 257.181 367.583C258.66 367.479 260.137 367.458 261.624 367.517C270.999 367.924 277.786 371.688 281.986 378.8C286.234 385.825 285.818 392.795 280.733 399.714C275.588 406.622 268.426 413.179 259.245 419.397C250.065 425.611 241.537 429.537 233.661 431.171C225.769 432.709 219.845 430.361 215.88 424.128Z" fill="#FF7D6F"/>
<path d="M229.212 432.927C230.71 432.927 232.283 432.767 233.937 432.445C241.967 430.78 250.737 426.75 260.02 420.463C269.283 414.193 276.622 407.467 281.836 400.468C287.255 393.09 287.698 385.549 283.16 378.04C278.74 370.552 271.514 366.532 261.696 366.103C260.36 366.05 259.018 366.061 257.693 366.132C250.383 359.246 243.777 350.813 238.057 341.054C232.131 331.037 226.191 320.309 220.4 309.158C220.053 308.493 219.238 308.234 218.569 308.578C217.903 308.925 217.644 309.743 217.988 310.409C223.8 321.598 229.765 332.373 235.715 342.429C241.68 352.598 248.594 361.375 256.266 368.512C256.542 368.771 256.932 368.902 257.282 368.87C258.699 368.771 260.144 368.749 261.575 368.806C270.537 369.196 276.834 372.67 280.823 379.425C284.8 386.006 284.414 392.353 279.647 398.846C274.62 405.59 267.505 412.107 258.494 418.206C249.504 424.291 241.06 428.184 233.395 429.774C226.049 431.205 220.701 429.094 217.038 423.332C213.344 417.448 213.135 409.858 216.422 400.783C218.214 395.619 221.937 390.09 227.498 384.331L227.501 384.327L231.968 380.526C232.538 380.041 232.605 379.184 232.12 378.614C231.635 378.043 230.778 377.976 230.207 378.461L226.609 381.529C220.201 374.905 213.642 366.45 207.099 356.38C200.182 345.896 194.423 335.709 189.978 326.089C189.662 325.413 188.862 325.112 188.175 325.427C187.495 325.742 187.197 326.55 187.512 327.23C192.018 336.974 197.844 347.281 204.829 357.868C211.46 368.073 218.126 376.658 224.646 383.402C219.273 389.158 215.675 394.67 213.868 399.876C210.287 409.766 210.581 418.15 214.747 424.784C218.189 430.203 223.042 432.927 229.212 432.927Z" fill="black"/>
<path d="M62.5079 149.838C64.1065 142.317 68.1239 136.465 74.5636 132.283C81.0449 128.109 88.0284 126.82 95.5045 128.409C103.026 130.008 108.878 134.025 113.06 140.465C116.569 145.929 118.034 151.766 117.455 157.979C142.438 179.706 157.846 192.718 163.686 197.011C169.658 201.333 173.636 204.492 175.616 206.485C177.687 208.496 179.17 210.872 180.07 213.605C180.961 216.383 181.452 219.609 181.551 223.283C181.687 227.429 180.89 231.076 179.157 234.22C177.416 237.182 175.305 239.944 172.814 242.515C170.211 244.967 167.692 246.698 165.258 247.708C162.823 248.719 159.785 248.975 156.144 248.476C153.548 248.062 148.293 244.935 140.378 239.089C137.749 237.097 134.805 234.852 131.541 232.355C118.703 222.041 107.783 212.482 98.7874 203.679C89.7982 194.831 83.0897 187.347 78.6559 181.223C73.6515 179.095 69.5626 175.59 66.3927 170.709C62.2133 164.273 60.9189 157.314 62.5079 149.838Z" fill="#FF7D6F"/>
<path d="M140.418 240.408C140.829 240.408 141.236 240.224 141.502 239.87C141.955 239.271 141.838 238.421 141.24 237.968C138.612 235.977 135.668 233.732 132.409 231.238C119.683 221.012 108.696 211.392 99.7803 202.668C90.8934 193.919 84.1706 186.42 79.7998 180.385C79.6545 180.186 79.4597 180.027 79.233 179.931C74.5044 177.92 70.5834 174.555 67.5762 169.925C63.6198 163.829 62.373 157.149 63.8784 150.072C65.3908 142.949 69.2481 137.331 75.3475 133.371C81.4859 129.422 88.1909 128.182 95.2679 129.688C102.391 131.2 108.009 135.057 111.969 141.157C115.291 146.328 116.701 151.932 116.148 157.804C116.109 158.24 116.279 158.669 116.609 158.956C141.498 180.615 157.08 193.774 162.921 198.063C163.526 198.506 164.376 198.375 164.819 197.773C165.262 197.167 165.134 196.317 164.529 195.874C158.791 191.656 143.439 178.699 118.9 157.362C119.336 151.124 117.767 145.184 114.239 139.69C109.868 132.964 103.677 128.706 95.824 127.038C88.0209 125.38 80.6322 126.744 73.867 131.097C67.1406 135.465 62.8866 141.66 61.2183 149.512C59.5606 157.319 60.9314 164.686 65.2951 171.409C68.529 176.386 72.7405 180.045 77.8162 182.283C82.2792 188.386 89.0267 195.895 97.8782 204.609C106.857 213.397 117.912 223.074 130.734 233.374C134.021 235.892 136.968 238.138 139.6 240.132C139.844 240.32 140.131 240.408 140.418 240.408Z" fill="black"/>
<path d="M147.05 134.675V134.736C145.938 144.783 148.181 154.23 153.78 163.081C143.324 162.668 133.999 165.447 125.806 171.416C110.696 181.627 103.144 198.01 103.144 220.572C103.144 243.131 110.718 259.518 125.871 269.729C134.022 275.698 143.305 278.499 153.722 278.129C148.165 286.938 145.96 296.388 147.114 306.473V306.534C148.307 324.649 158.663 339.366 178.176 350.689C197.773 361.97 215.784 363.617 232.209 355.63H232.148C241.453 351.552 248.554 344.906 253.453 335.685C258.31 344.906 265.391 351.556 274.697 355.63H274.635C291.061 363.659 309.033 362.031 328.546 350.75H328.607C348.082 339.388 358.454 324.629 359.73 306.473C360.8 296.388 358.576 286.938 353.061 278.129C363.437 278.499 372.719 275.698 380.913 269.729C396.061 259.518 403.639 243.177 403.639 220.698V220.637C403.681 198.036 396.126 181.63 380.977 171.419H381.038C372.845 165.366 363.543 162.546 353.126 162.958C358.683 154.108 360.906 144.657 359.794 134.614C358.56 116.5 348.123 101.802 328.485 90.5209C308.972 79.1979 291.041 77.5122 274.697 85.4573V85.396C265.391 89.4733 258.291 96.1421 253.392 105.405C248.534 96.1421 241.453 89.4927 232.148 85.4605C215.761 77.4735 197.773 79.1624 178.176 90.5241C158.702 101.802 148.326 116.519 147.05 134.675Z" fill="#FF7D6F"/>
<path d="M295.867 361.965C306.422 361.965 317.505 358.65 329.02 352.026C329.108 351.998 329.193 351.962 329.268 351.92C349.06 340.369 359.757 325.11 361.061 306.568C362.07 297.065 360.182 287.962 355.44 279.514C365.113 279.397 373.932 276.478 381.689 270.829C397.125 260.426 404.974 243.552 404.974 220.699C405.017 197.814 397.288 180.943 382.008 170.494C381.951 170.434 381.891 170.377 381.824 170.328C374.067 164.597 365.226 161.657 355.514 161.565C360.285 153.092 362.173 144 361.128 134.493C359.856 115.997 349.096 100.809 329.144 89.3468C309.454 77.9238 291.053 76.1493 274.452 84.0657C274.345 84.0798 274.239 84.1117 274.136 84.1542C265.324 88.015 258.353 94.2206 253.38 102.619C248.443 94.2206 241.49 88.0363 232.674 84.2144C215.991 76.0784 197.402 77.7998 177.482 89.3468C157.69 100.816 146.989 116.032 145.686 134.578C145.686 134.592 145.682 134.624 145.682 134.653C144.644 144.142 146.553 153.223 151.349 161.685C141.605 161.77 132.75 164.668 124.993 170.321C109.6 180.724 101.772 197.64 101.772 220.575C101.772 243.509 109.617 260.426 125.096 270.857C132.775 276.482 141.591 279.397 151.296 279.514C146.532 287.944 144.666 297.033 145.742 306.557C145.742 306.582 145.742 306.61 145.742 306.621C146.964 325.132 157.64 340.352 177.479 351.86C197.399 363.325 216.005 365.004 232.787 356.847C232.851 356.815 232.911 356.779 232.968 356.74C241.642 352.873 248.514 346.731 253.43 338.457C258.311 346.731 265.168 352.873 273.846 356.744C273.899 356.783 273.959 356.818 274.02 356.847C281.001 360.258 288.297 361.961 295.867 361.965ZM328.078 349.469C327.993 349.497 327.911 349.532 327.84 349.571C308.944 360.495 291.333 362.167 275.486 354.544C275.404 354.481 275.312 354.427 275.217 354.385C266.245 350.453 259.317 343.947 254.631 335.049C254.397 334.603 253.936 334.327 253.433 334.323C253.433 334.323 253.433 334.323 253.43 334.323C252.927 334.323 252.466 334.599 252.233 335.046C247.504 343.947 240.555 350.453 231.583 354.385C231.484 354.427 231.392 354.484 231.31 354.544C215.463 362.131 197.806 360.431 178.835 349.511C159.832 338.485 149.607 323.998 148.452 306.444C147.336 296.594 149.49 287.352 154.852 278.852C155.122 278.427 155.132 277.888 154.881 277.452C154.629 277.017 154.144 276.719 153.655 276.772C143.592 277.127 134.514 274.392 126.655 268.636C111.93 258.712 104.485 242.553 104.485 220.575C104.485 198.597 111.909 182.438 126.548 172.542C134.489 166.757 143.61 164.041 153.712 164.437C154.222 164.487 154.689 164.197 154.941 163.757C155.192 163.322 155.182 162.78 154.913 162.355C149.507 153.811 147.311 144.57 148.385 134.886C148.388 134.837 148.392 134.787 148.392 134.738C149.624 117.18 159.871 102.686 178.839 91.6952C197.927 80.6264 215.658 78.9404 231.537 86.6761C240.562 90.59 247.486 97.0967 252.172 106.033C252.406 106.48 252.867 106.759 253.373 106.759C253.855 106.717 254.34 106.483 254.574 106.037C259.242 97.2136 266.068 90.7388 274.873 86.793C275.011 86.7788 275.146 86.7399 275.273 86.6761C291.11 78.9793 308.777 80.6653 327.784 91.6916C346.91 102.682 357.214 117.155 358.411 134.702C358.411 134.72 358.415 134.738 358.415 134.759C359.484 144.446 357.31 153.687 351.944 162.231C351.674 162.656 351.664 163.198 351.919 163.633C352.17 164.069 352.631 164.377 353.148 164.31C363.087 163.906 372.087 166.605 379.922 172.301C379.996 172.389 380.085 172.471 380.188 172.542C394.869 182.434 402.293 198.614 402.254 220.631C402.254 242.588 394.809 258.708 380.127 268.601C372.183 274.389 363.083 277.105 353.084 276.769C352.528 276.73 352.11 277.01 351.859 277.445C351.607 277.881 351.618 278.419 351.883 278.844C357.211 287.352 359.385 296.597 358.355 306.327C357.118 323.913 346.932 338.411 328.078 349.469Z" fill="black"/>
<path d="M264.922 172.81C267.805 176.439 269.245 180.815 269.245 185.938C269.245 191.06 267.805 195.419 264.922 199.013C262.005 202.642 258.482 204.455 254.354 204.455C250.368 204.455 246.917 202.642 244 199.013C241.084 195.419 239.624 191.06 239.624 185.938C239.624 180.815 241.084 176.439 244 172.81C246.917 169.181 250.368 167.367 254.354 167.367C258.485 167.367 262.005 169.181 264.922 172.81Z" fill="white"/>
<path d="M256.678 173.323C259.025 176.489 260.2 180.312 260.2 184.792C260.2 189.272 259.025 193.079 256.678 196.208C254.295 199.41 251.521 201.009 248.356 201.009C247.646 201.009 246.949 200.936 246.276 200.794C245.245 199.976 244.265 198.998 243.341 197.86C240.426 194.268 238.967 189.91 238.967 184.79C238.967 179.669 240.426 175.295 243.341 171.667C244.265 170.528 245.243 169.567 246.276 168.785C246.952 168.643 247.646 168.57 248.356 168.57C251.521 168.576 254.297 170.157 256.678 173.323Z" fill="black"/>
<path d="M254.834 205.577C259.371 205.577 263.282 203.575 266.455 199.63C269.555 195.811 271.131 191.125 271.131 185.709C271.131 180.294 269.558 175.593 266.455 171.736C263.282 167.79 259.371 165.789 254.834 165.789C250.474 165.789 246.655 167.79 243.482 171.736C240.379 175.593 238.81 180.297 238.81 185.709C238.81 191.125 240.383 195.811 243.489 199.633C246.652 203.575 250.474 205.577 254.834 205.577ZM254.834 168.502C258.56 168.502 261.67 170.117 264.337 173.44C267.04 176.801 268.414 180.931 268.414 185.713C268.414 190.491 267.043 194.6 264.341 197.926C261.667 201.252 258.56 202.867 254.83 202.867C251.285 202.867 248.26 201.252 245.593 197.933C242.887 194.6 241.52 190.491 241.52 185.713C241.52 180.935 242.89 176.805 245.593 173.44C248.267 170.117 251.288 168.502 254.834 168.502Z" fill="black"/>
<path d="M225.322 167.367C229.45 167.367 232.971 169.181 235.89 172.81C238.807 176.439 240.266 180.815 240.266 185.938C240.266 191.06 238.807 195.419 235.89 199.013C232.974 202.642 229.45 204.455 225.322 204.455C221.373 204.455 217.941 202.642 215.022 199.013C212.105 195.419 210.646 191.06 210.646 185.938C210.646 180.815 212.105 176.439 215.022 172.81C217.941 169.181 221.373 167.367 225.322 167.367Z" fill="white"/>
<path d="M227.616 173.272C229.963 176.437 231.138 180.26 231.138 184.741C231.138 189.221 229.963 193.044 227.616 196.21C225.269 199.375 222.512 200.957 219.346 200.957C218.636 200.957 217.94 200.885 217.266 200.743C216.236 199.924 215.256 198.947 214.332 197.808C211.416 194.216 209.957 189.858 209.957 184.738C209.957 179.617 211.416 175.243 214.332 171.615C215.256 170.476 216.233 169.535 217.266 168.789C217.943 168.647 218.636 168.574 219.346 168.574C222.512 168.577 225.269 170.142 227.616 173.272Z" fill="black"/>
<path d="M225.918 205.524C230.455 205.524 234.348 203.54 237.486 199.63C240.585 195.811 242.158 191.111 242.158 185.656C242.158 180.241 240.585 175.554 237.479 171.733C234.351 167.79 230.455 165.789 225.914 165.789C221.554 165.789 217.732 167.79 214.562 171.736C211.463 175.554 209.887 180.241 209.887 185.656C209.887 191.108 211.463 195.811 214.566 199.637C217.739 203.544 221.558 205.524 225.918 205.524ZM225.918 168.502C229.64 168.502 232.729 170.114 235.364 173.433C238.074 176.773 239.445 180.882 239.445 185.66C239.445 190.474 238.074 194.6 235.375 197.929C232.736 201.22 229.644 202.814 225.918 202.814C222.369 202.814 219.344 201.216 216.677 197.929C213.974 194.604 212.603 190.474 212.603 185.66C212.603 180.882 213.974 176.773 216.677 173.447C219.347 170.117 222.372 168.502 225.918 168.502Z" fill="black"/>
<path d="M124.556 81.6369C128.042 85.1223 129.825 89.3512 129.9 94.3236C129.9 99.2206 128.117 103.415 124.556 106.9L116.766 114.69H127.676C132.648 114.69 136.877 116.433 140.362 119.924C143.848 123.415 145.59 127.638 145.59 132.61C145.59 137.583 143.848 141.812 140.362 145.297C136.877 148.783 132.648 150.531 127.676 150.531H116.656L124.556 158.431C128.042 161.992 129.784 166.221 129.784 171.118C129.86 176.091 128.117 180.319 124.556 183.805C121.071 187.29 116.842 189.074 111.869 189.149C106.973 189.149 102.778 187.366 99.2931 183.805L91.2826 175.794V186.924C91.2826 191.897 89.5399 196.126 86.0545 199.611C82.5692 203.096 78.3402 204.839 73.3678 204.839C68.3953 204.839 64.1665 203.096 60.6811 199.611C57.1958 196.126 55.4531 191.897 55.4531 186.924V176.131L47.884 183.7C44.3231 187.186 40.0942 188.934 35.1972 188.934C30.2248 189.01 25.996 187.302 22.5106 183.816C19.0252 180.256 17.2418 175.986 17.1663 171.019C17.1663 166.122 18.9497 161.928 22.5106 158.443L30.4107 150.543H19.1705C14.198 150.543 9.96906 148.8 6.48369 145.309C2.99834 141.823 1.25565 137.595 1.25565 132.622C1.25565 127.65 2.99834 123.421 6.48369 119.935C9.96906 116.45 14.198 114.701 19.1705 114.701H30.0797L22.5106 107.132C19.0252 103.572 17.2826 99.3426 17.2826 94.4457C17.207 89.4732 18.9148 85.2443 22.4001 81.7589C25.961 78.2736 30.2306 76.4902 35.1972 76.4146C40.0942 76.4146 44.2883 78.198 47.7737 81.7589L55.4531 89.4384V78.4188C55.4531 73.4463 57.1958 69.2173 60.6811 65.732C64.1665 62.2466 68.3953 60.5039 73.3678 60.5039C78.3402 60.5039 82.5692 62.2466 86.0545 65.732C89.5399 69.2173 91.2826 73.4463 91.2826 78.4188V89.5487L99.1827 81.6485C102.744 78.1631 106.973 76.4205 111.869 76.4205C116.842 76.3333 121.071 78.076 124.556 81.6369Z" fill="#FFD63E"/>
<path d="M73.4786 206.164C78.7986 206.164 83.3925 204.269 87.1257 200.536C90.8625 196.799 92.7539 192.209 92.7539 186.889V179.036L98.4494 184.732C102.175 188.536 106.73 190.47 111.983 190.47C117.317 190.392 121.904 188.458 125.63 184.732C129.441 181.002 131.34 176.397 131.258 171.063C131.258 165.842 129.367 161.252 125.641 157.448L120.045 151.852H127.784C133.104 151.852 137.698 149.957 141.431 146.224C145.164 142.49 147.059 137.9 147.059 132.576C147.059 127.253 145.164 122.662 141.431 118.929C137.694 115.196 133.104 113.301 127.784 113.301H120.154L125.63 107.829C129.434 104.103 131.372 99.5476 131.372 94.2948C131.294 88.9642 129.36 84.3773 125.63 80.6477C121.901 76.8365 117.303 74.9203 111.962 75.0195C106.741 75.0195 102.151 76.9109 98.3466 80.637L92.7504 86.2333V78.3808C92.7504 73.0608 90.8554 68.4704 87.1222 64.7336C83.389 61.0004 78.7986 59.1055 73.4751 59.1055C68.1515 59.1055 63.5611 61.0004 59.8279 64.7336C56.0947 68.4669 54.1998 73.0572 54.1998 78.3808V86.1235L48.8373 80.761C45.1111 76.9569 40.5562 75.023 35.3035 75.023C29.9764 75.101 25.3577 77.0313 21.5572 80.7504C17.8063 84.5013 15.9503 89.0988 16.0282 94.4294C16.0282 99.6503 17.9196 104.241 21.6457 108.048L26.9055 113.308H19.2762C13.9561 113.308 9.36577 115.203 5.62901 118.936C1.89226 122.673 0.000854492 127.263 0.000854492 132.583C0.000854492 137.903 1.8958 142.494 5.62901 146.231C9.36223 149.964 13.9526 151.859 19.2762 151.859H27.2384L21.6528 157.444C17.8487 161.171 15.9113 165.729 15.9113 170.978C15.9892 176.305 17.9196 180.924 21.6422 184.725C25.3931 188.476 29.9976 190.314 35.3212 190.25C40.542 190.25 45.1324 188.359 48.9364 184.633L54.1998 179.369V186.889C54.1998 192.209 56.0947 196.803 59.8279 200.536C63.5647 204.269 68.1551 206.164 73.4786 206.164ZM91.3973 174.4C91.2238 174.4 91.0467 174.432 90.8767 174.503C90.3702 174.711 90.0372 175.207 90.0372 175.756V186.885C90.0372 191.525 88.4575 195.361 85.2025 198.613C81.951 201.864 78.115 203.444 73.4751 203.444C68.8351 203.444 64.9992 201.864 61.7477 198.613C58.4962 195.361 56.9165 191.525 56.9165 186.885V176.089C56.9165 175.54 56.5835 175.044 56.077 174.835C55.5705 174.63 54.9861 174.74 54.5965 175.129L47.0273 182.699C43.7085 185.947 39.869 187.53 35.2999 187.53C30.6671 187.597 26.817 186.056 23.5725 182.808C20.3175 179.483 18.6953 175.601 18.628 170.95C18.628 166.413 20.2431 162.616 23.5619 159.364L31.4747 151.451C31.8643 151.062 31.9811 150.481 31.7686 149.971C31.5596 149.464 31.0638 149.131 30.5148 149.131H19.2762C14.6362 149.131 10.8003 147.552 7.54877 144.3C4.29726 141.049 2.71399 137.213 2.71399 132.573C2.71399 127.933 4.29372 124.097 7.54877 120.845C10.8003 117.594 14.6397 116.014 19.2762 116.014H30.1818C30.7308 116.014 31.2267 115.685 31.4357 115.175C31.6446 114.668 31.5313 114.084 31.1417 113.694L23.5761 106.125C20.3246 102.806 18.7413 98.9667 18.7413 94.3976C18.674 89.747 20.2183 85.9181 23.4628 82.6701C26.7887 79.4151 30.6706 77.7964 35.3212 77.7255C39.862 77.7255 43.6554 79.3407 46.9069 82.6595L54.5965 90.3491C54.9861 90.7387 55.5705 90.8556 56.077 90.6431C56.5835 90.4341 56.9165 89.9382 56.9165 89.3892V78.3702C56.9165 73.7302 58.4962 69.8943 61.7477 66.6428C64.9992 63.3912 68.8351 61.8115 73.4751 61.8115C78.115 61.8115 81.951 63.3912 85.2025 66.6428C88.454 69.8943 90.0372 73.7302 90.0372 78.3702V89.499C90.0372 90.048 90.3702 90.5439 90.8767 90.7529C91.3832 90.9654 91.9676 90.8485 92.3572 90.4589L100.259 82.5568C103.578 79.3088 107.418 77.7255 111.987 77.7255C116.683 77.6547 120.459 79.2344 123.703 82.5462C126.973 85.8154 128.591 89.6584 128.659 94.3055C128.659 98.8463 127.044 102.64 123.725 105.891L115.925 113.694C115.536 114.084 115.419 114.665 115.631 115.175C115.84 115.681 116.336 116.014 116.885 116.014H127.791C132.431 116.014 136.267 117.594 139.518 120.845C142.77 124.097 144.349 127.933 144.349 132.573C144.349 137.213 142.77 141.049 139.518 144.3C136.267 147.552 132.431 149.131 127.791 149.131H116.775C116.226 149.131 115.731 149.461 115.522 149.971C115.309 150.477 115.426 151.062 115.816 151.451L123.718 159.354C126.969 162.672 128.552 166.512 128.552 171.081C128.62 175.728 127.044 179.553 123.728 182.798C120.463 186.067 116.62 187.682 111.969 187.753C107.428 187.753 103.635 186.138 100.383 182.819L92.3608 174.796C92.0951 174.538 91.748 174.4 91.3973 174.4Z" fill="black"/>
<path d="M241.579 231.296C247.473 231.296 252.609 229.22 256.849 225.122C261.205 220.988 263.515 215.906 263.713 210.019C263.727 209.654 263.593 209.303 263.341 209.038C263.09 208.776 262.746 208.623 262.381 208.616L220.557 207.809C220.221 207.823 219.838 207.943 219.576 208.198C219.318 208.457 219.169 208.807 219.172 209.172C219.215 215.087 221.312 220.241 225.41 224.495C229.685 228.876 234.934 231.161 241.016 231.289C241.207 231.296 241.395 231.296 241.579 231.296ZM260.911 211.301C260.462 215.916 258.51 219.805 254.979 223.156C254.975 223.16 254.975 223.163 254.968 223.167C251.079 226.928 246.538 228.685 241.08 228.579C235.657 228.462 231.169 226.51 227.362 222.611C224.043 219.164 222.261 215.208 221.939 210.55L260.911 211.301Z" fill="black"/>
<path d="M417.612 146.104C416.013 138.582 411.996 132.73 405.556 128.548C399.075 124.375 392.091 123.086 384.615 124.675C377.094 126.273 371.242 130.291 367.06 136.731C363.551 142.195 362.086 148.031 362.665 154.245C337.682 175.972 322.274 188.983 316.434 193.277C310.462 197.599 306.484 200.758 304.504 202.75C302.433 204.762 300.95 207.138 300.05 209.871C299.159 212.649 298.668 215.875 298.569 219.549C298.433 223.695 299.23 227.342 300.963 230.486C302.704 233.447 304.815 236.21 307.306 238.78C309.909 241.232 312.428 242.963 314.862 243.974C317.297 244.985 320.335 245.241 323.976 244.742C326.571 244.328 331.827 241.201 339.742 235.355C342.37 233.362 345.315 231.118 348.579 228.621C361.417 218.306 372.337 208.747 381.332 199.945C390.322 191.097 397.03 183.613 401.464 177.489C406.468 175.361 410.557 171.856 413.727 166.975C417.907 160.542 419.202 153.583 417.612 146.104Z" fill="#FF7D6F"/>
<path d="M339.684 236.702C339.967 236.702 340.257 236.613 340.502 236.425C343.134 234.431 346.081 232.186 349.343 229.688C362.183 219.374 373.237 209.697 382.22 200.906C391.075 192.189 397.823 184.68 402.282 178.58C407.361 176.338 411.573 172.683 414.803 167.706C419.167 160.983 420.538 153.616 418.88 145.809C417.212 137.956 412.954 131.761 406.235 127.398C399.469 123.041 392.081 121.681 384.278 123.331C376.425 125 370.234 129.254 365.866 135.977C362.335 141.477 360.766 147.421 361.201 153.658C336.662 174.996 321.311 187.953 315.573 192.171C314.971 192.614 314.84 193.464 315.283 194.07C315.725 194.672 316.575 194.803 317.181 194.36C323.018 190.071 338.6 176.912 363.5 155.259C363.83 154.973 364 154.544 363.961 154.108C363.412 148.236 364.818 142.628 368.144 137.454C372.104 131.358 377.721 127.5 384.841 125.988C391.918 124.483 398.623 125.722 404.765 129.675C410.854 133.632 414.714 139.249 416.227 146.372C417.732 153.449 416.485 160.13 412.529 166.225C409.522 170.855 405.601 174.22 400.872 176.232C400.646 176.327 400.451 176.483 400.305 176.685C395.938 182.717 389.212 190.216 380.321 198.968C371.403 207.696 360.415 217.312 347.667 227.553C344.434 230.028 341.487 232.271 338.862 234.261C338.263 234.715 338.146 235.565 338.6 236.163C338.869 236.517 339.273 236.702 339.684 236.702Z" fill="black"/>
<path d="M355.354 77.795C351.869 81.2804 350.085 85.5093 350.01 90.4818C350.01 95.3787 351.793 99.5728 355.354 103.058L363.144 110.848H352.235C347.262 110.848 343.033 112.591 339.548 116.076C336.063 119.561 334.32 123.79 334.32 128.763C334.32 133.735 336.063 137.964 339.548 141.45C343.033 144.935 347.262 146.678 352.235 146.678H363.254L355.354 154.578C351.869 158.139 350.126 162.368 350.126 167.265C350.05 172.237 351.793 176.466 355.354 179.951C358.839 183.437 363.068 185.22 368.041 185.296C372.938 185.296 377.132 183.512 380.617 179.951L388.633 171.941V183.071C388.633 188.043 390.376 192.272 393.861 195.757C397.347 199.243 401.576 200.986 406.548 200.986C411.521 200.986 415.75 199.243 419.235 195.757C422.72 192.272 424.463 188.043 424.463 183.071V172.278L432.032 179.847C435.593 183.332 439.822 185.075 444.719 185.075C449.691 185.15 453.92 183.443 457.405 179.957C460.891 176.396 462.674 172.127 462.75 167.16C462.75 162.263 460.966 158.069 457.405 154.584L449.505 146.683H460.746C465.718 146.683 469.947 144.941 473.432 141.455C476.918 137.97 478.66 133.741 478.66 128.769C478.66 123.796 476.918 119.567 473.432 116.082C469.947 112.596 465.718 110.854 460.746 110.854H449.836L457.405 103.285C460.891 99.7239 462.639 95.4949 462.639 90.5979C462.715 85.6255 461.007 81.3966 457.522 77.9112C453.961 74.4258 449.691 72.6425 444.725 72.567C439.828 72.567 435.634 74.3503 432.148 77.9112L424.469 85.5906V74.5711C424.469 69.5986 422.726 65.3697 419.241 61.8843C415.755 58.3989 411.526 56.6562 406.554 56.6562C401.582 56.6562 397.353 58.3989 393.867 61.8843C390.382 65.3697 388.639 69.5986 388.639 74.5711V85.701L380.739 77.8009C377.178 74.3155 372.949 72.567 368.052 72.567C363.074 72.4915 358.839 74.2342 355.354 77.795Z" fill="#FFD63E"/>
<path d="M406.527 202.261C411.847 202.261 416.438 200.366 420.174 196.633C423.911 192.896 425.803 188.306 425.803 182.986V175.466L431.052 180.719C434.948 184.534 439.662 186.365 445.025 186.351C450.196 186.351 454.684 184.495 458.346 180.833C462.079 177.021 464.006 172.403 464.084 167.093C464.084 161.819 462.15 157.264 458.335 153.528L452.76 147.953H460.726C466.046 147.953 470.64 146.058 474.373 142.324C478.107 138.591 480.001 134.001 480.001 128.677C480.001 123.354 478.107 118.763 474.373 115.03C470.637 111.293 466.046 109.402 460.726 109.402H453.097L458.35 104.149C462.086 100.334 463.978 95.744 463.978 90.5019C464.056 85.1925 462.203 80.5951 458.463 76.8548C454.652 73.1215 450.033 71.1947 444.724 71.1168C439.45 71.1168 434.891 73.0507 431.158 76.8654L425.806 82.2173V74.4746C425.806 69.1545 423.911 64.5642 420.178 60.8274C416.445 57.0942 411.854 55.1992 406.531 55.1992C401.207 55.1992 396.617 57.0942 392.884 60.8274C389.15 64.5606 387.256 69.151 387.256 74.4746V82.3271L381.67 76.745C377.852 73.0082 373.265 71.1168 368.023 71.1168C367.916 71.1168 367.81 71.1132 367.704 71.1132C362.526 71.1132 358.031 73.0082 354.365 76.7556C350.646 80.4746 348.716 85.0579 348.638 90.3709C348.638 95.6449 350.572 100.203 354.386 103.937L359.848 109.402H352.219C346.899 109.402 342.308 111.297 338.571 115.03C334.835 118.763 332.943 123.357 332.943 128.677C332.943 133.997 334.838 138.588 338.571 142.324C342.305 146.058 346.895 147.953 352.219 147.953H359.961L354.376 153.538C350.639 157.356 348.747 161.943 348.747 167.185C348.67 172.498 350.564 177.099 354.386 180.843C358.105 184.562 362.689 186.493 368.001 186.57C373.275 186.57 377.83 184.637 381.567 180.822L387.252 175.137V182.99C387.252 188.31 389.147 192.904 392.88 196.637C396.617 200.37 401.207 202.261 406.527 202.261ZM424.446 170.834C424.272 170.834 424.095 170.865 423.925 170.936C423.419 171.145 423.086 171.641 423.086 172.19V182.986C423.086 187.626 421.506 191.462 418.251 194.713C415 197.965 411.164 199.548 406.524 199.548C401.884 199.548 398.048 197.969 394.796 194.713C391.545 191.462 389.965 187.626 389.965 182.986V171.857C389.965 171.308 389.632 170.812 389.126 170.603C388.616 170.398 388.035 170.508 387.645 170.897L379.633 178.909C376.371 182.239 372.578 183.854 368.016 183.854C363.39 183.787 359.547 182.168 356.288 178.909C352.962 175.654 351.386 171.829 351.457 167.203C351.457 162.613 353.04 158.773 356.299 155.444L364.19 147.552C364.58 147.163 364.697 146.582 364.484 146.072C364.275 145.565 363.779 145.232 363.23 145.232H352.211C347.572 145.232 343.736 143.653 340.484 140.401C337.233 137.15 335.649 133.314 335.649 128.674C335.649 124.034 337.229 120.198 340.484 116.946C343.739 113.695 347.579 112.115 352.219 112.115H363.124C363.673 112.115 364.169 111.782 364.378 111.276C364.591 110.769 364.474 110.185 364.084 109.795L356.292 102.006C352.962 98.7441 351.347 94.9471 351.347 90.3886C351.415 85.7628 353.033 81.9198 356.292 78.6612C359.547 75.3353 363.372 73.7485 367.998 73.8299C372.588 73.8299 376.428 75.4132 379.757 78.6718L387.652 86.5668C388.042 86.9564 388.623 87.0733 389.133 86.8608C389.639 86.6518 389.972 86.1559 389.972 85.6069V74.4781C389.972 69.8381 391.552 66.0022 394.803 62.7507C398.055 59.4992 401.891 57.9194 406.531 57.9194C411.171 57.9194 415.007 59.4992 418.258 62.7507C421.51 66.0022 423.093 69.8381 423.093 74.4781V85.4971C423.093 86.0461 423.426 86.542 423.932 86.751C424.439 86.9635 425.023 86.8466 425.413 86.457L433.092 78.778C436.354 75.4486 440.151 73.8335 444.709 73.8335C449.342 73.9008 453.224 75.523 456.557 78.7887C459.791 82.0225 461.335 85.8549 461.268 90.4842C461.268 95.0746 459.685 98.9141 456.426 102.24L448.868 109.799C448.478 110.188 448.361 110.769 448.574 111.279C448.783 111.786 449.279 112.119 449.828 112.119H460.733C465.373 112.119 469.209 113.698 472.461 116.953C475.712 120.205 477.292 124.041 477.292 128.681C477.292 133.321 475.712 137.157 472.461 140.408C469.209 143.66 465.373 145.239 460.733 145.239H449.491C448.942 145.239 448.446 145.572 448.237 146.079C448.025 146.585 448.142 147.17 448.531 147.559L456.433 155.461C459.763 158.724 461.378 162.517 461.378 167.079C461.311 171.712 459.688 175.594 456.423 178.927C453.256 182.093 449.519 183.641 445.021 183.641C444.922 183.641 444.823 183.641 444.724 183.638C440.133 183.638 436.294 182.055 432.964 178.796L425.409 171.237C425.147 170.972 424.8 170.834 424.446 170.834Z" fill="black"/>
</g>
<defs>
<clipPath id="clip0_2628_2467">
<rect width="480" height="480" fill="white"/>
</clipPath>
</defs>
</svg>
