<svg width="130" height="169" viewBox="0 0 130 169" fill="none" xmlns="http://www.w3.org/2000/svg">
<g clip-path="url(#clip0_2628_2534)">
<path d="M93.0045 62.3016C92.8312 62.3388 92.6483 62.3536 92.4603 62.345C91.6961 62.3671 90.6392 62.0505 89.8056 60.486C89.4856 59.8592 89.2346 59.2568 89.045 58.6902C88.8693 58.8308 88.7218 58.9653 88.5996 59.1042C88.3673 59.3697 88.2052 59.6886 88.1086 60.0619C88.0375 60.3711 88.0493 60.633 88.1421 60.8384C88.3912 61.3628 88.1637 61.9946 87.6334 62.2407C87.1088 62.4906 86.4776 62.2637 86.2322 61.7336C85.929 61.0934 85.8706 60.3615 86.0575 59.5622C86.2426 58.8465 86.5625 58.2341 87.014 57.711C87.4324 57.2391 87.9688 56.8153 88.6464 56.4102C88.6833 54.9084 89.2868 53.6522 90.4491 52.6728C90.8931 52.2982 91.5616 52.3554 91.9356 52.7991C92.3095 53.2429 92.2515 53.9117 91.8074 54.2862C91.4051 54.6273 91.1226 55.0015 90.9507 55.4351C91.7602 55.2808 92.4748 55.4163 93.0738 55.8362C93.5866 56.1277 94.0424 56.6567 94.3559 57.3681C94.9084 58.3269 95.0806 59.2254 94.8827 60.0418C94.8184 60.5895 94.593 61.0934 94.2184 61.5412C93.8837 61.9462 93.4681 62.202 93.0045 62.3016ZM90.9314 57.6384C91.0871 58.2074 91.3385 58.8342 91.6845 59.5142C91.8251 59.7827 92.1224 60.2576 92.4217 60.2374C92.4706 60.2367 92.5147 60.237 92.5635 60.2363C92.7607 60.0128 92.7889 59.8696 92.798 59.7746C92.8027 59.705 92.8178 59.6381 92.8329 59.5711C92.9345 59.2212 92.7131 58.7348 92.5114 58.3864C92.4883 58.3472 92.4643 58.3034 92.4449 58.2586C92.3151 57.9485 92.1527 57.7385 91.9464 57.6212C91.7057 57.4574 91.3622 57.4773 90.9314 57.6384Z" fill="black"/>
<path d="M16.72 59.8431L10.7412 62.9023C14.134 66.1917 16.1685 70.1761 16.8445 74.8555L22.8234 71.7963C22.1817 67.1022 20.1461 63.1154 16.72 59.8431Z" fill="#FFF64F"/>
<path d="M17.0389 75.8809C16.8048 75.9312 16.5536 75.9019 16.3333 75.7876C16.0308 75.6322 15.8213 75.3392 15.7737 75.0017C15.1329 70.5796 13.1861 66.7612 9.98073 63.6539C9.73441 63.4179 9.62195 63.0747 9.67301 62.7405C9.72407 62.4063 9.9306 62.1121 10.2357 61.9584L16.2139 58.9015C16.6103 58.6939 17.0959 58.7659 17.4221 59.0779C21.0091 62.5048 23.1707 66.7325 23.8395 71.6531C23.8998 72.0957 23.6744 72.531 23.2723 72.7349L17.2941 75.7918C17.2148 75.8333 17.1279 75.8618 17.0389 75.8809ZM12.4625 63.1895C15.0807 66.0702 16.8068 69.4511 17.6068 73.266L21.638 71.2052C20.9667 67.3283 19.2397 63.9427 16.4936 61.1286L12.4625 63.1895Z" fill="black"/>
<path d="M48.2876 14.4529L41.5443 14.1128C39.7704 18.5225 39.5298 22.993 40.8247 27.5158L47.568 27.8559C46.2731 23.3331 46.5137 18.8626 48.2876 14.4529Z" fill="#FF8888"/>
<path d="M47.7709 28.8692C47.6819 28.8883 47.5909 28.8981 47.4959 28.8891L40.7519 28.5453C40.3017 28.5244 39.9174 28.2152 39.7906 27.782C38.4369 23.0476 38.6882 18.3064 40.5444 13.6955C40.7099 13.2779 41.1235 13.0127 41.5783 13.0325L48.3224 13.3764C48.6635 13.3913 48.972 13.5748 49.1561 13.8634C49.3401 14.152 49.372 14.5076 49.2437 14.8242C47.5668 18.99 47.3395 23.2706 48.5604 27.5437C48.6548 27.8712 48.5834 28.2245 48.3708 28.4906C48.2222 28.689 48.005 28.8189 47.7709 28.8692ZM41.6286 26.481L46.1792 26.7133C45.3495 22.9193 45.554 19.1285 46.7888 15.4152L42.2383 15.183C40.8898 18.8914 40.6863 22.6868 41.6286 26.481Z" fill="black"/>
<path d="M68.2363 55.466L74.4679 63.4813L78.1358 52.9776L71.4546 45.998L68.2363 55.466Z" fill="#7ED3FF"/>
<path d="M74.6698 64.4957C74.6558 64.4987 74.637 64.5027 74.6183 64.5067C74.235 64.5695 73.8498 64.4171 73.6139 64.1152L67.3819 56.099C67.165 55.8175 67.1011 55.4492 67.215 55.1112L70.4302 45.6485C70.5469 45.3002 70.843 45.0357 71.2036 44.9583C71.2036 44.9583 71.2083 44.9573 71.213 44.9563C71.5689 44.8798 71.9414 44.9957 72.1937 45.2599L78.8753 52.239C79.1513 52.5226 79.2403 52.9394 79.11 53.3151L75.4452 63.8148C75.3229 64.1595 75.0257 64.4192 74.6698 64.4957ZM69.3948 55.2503L74.0882 61.2901L76.9027 53.2309L71.8663 47.9701L69.3948 55.2503Z" fill="black"/>
<path d="M50.0001 79.9292L42.8793 82.219L44.0121 87.5246L51.6715 87.7574L50.0001 79.9292Z" fill="#AAEF72"/>
<path d="M51.8731 88.7742C51.7888 88.7923 51.7072 88.8 51.6189 88.7994L43.9577 88.5644C43.4748 88.5506 43.0637 88.2079 42.9617 87.7302L41.8289 82.4243C41.7159 81.8951 42.0236 81.3637 42.5371 81.1996L49.6593 78.9104C49.9437 78.8199 50.2493 78.8522 50.5114 79.0016C50.7688 79.1521 50.9495 79.4022 51.0115 79.6925L52.6843 87.5273C52.7523 87.8457 52.6711 88.1767 52.4593 88.423C52.3113 88.6017 52.1025 88.7249 51.8731 88.7742ZM44.8548 86.4811L50.3419 86.6493L49.194 81.2732L44.0929 82.9126L44.8548 86.4811Z" fill="black"/>
<path d="M5.9668 29.4531L7.56599 36.9432L15.4405 35.2516L12.516 28.0462L5.9668 29.4531Z" fill="#FFB1D9"/>
<path d="M15.6387 36.2612L7.7621 37.9532C7.19079 38.0759 6.6329 37.7109 6.51192 37.1443L4.91211 29.6514C4.79013 29.08 5.15104 28.5225 5.72235 28.3998L12.269 26.9934C12.7701 26.8858 13.2732 27.1548 13.4672 27.6274L16.3912 34.831C16.5067 35.1196 16.4931 35.4458 16.3464 35.7222C16.2054 36.0023 15.9478 36.1948 15.6387 36.2612ZM8.35705 35.6704L13.9718 34.4642L11.853 29.2427L7.19819 30.2427L8.35705 35.6704Z" fill="black"/>
<path d="M77.127 22.8392L70.5416 19.3085L67.5125 23.8129L72.6577 29.4853L77.127 22.8392Z" fill="#AAEF72"/>
<path d="M72.8786 30.493C72.8318 30.5031 72.7839 30.5084 72.7361 30.5138C72.4133 30.5391 72.0971 30.4111 71.8788 30.169L66.7346 24.4954C66.4078 24.1346 66.3717 23.5987 66.6436 23.1975L69.6732 18.692C69.9735 18.2406 70.5689 18.0931 71.0446 18.3484L77.6318 21.8802C77.8966 22.0192 78.0867 22.2674 78.1581 22.5557C78.2295 22.8441 78.177 23.1492 78.0093 23.3958L73.5377 30.0477C73.381 30.2773 73.1455 30.4357 72.8786 30.493ZM68.8505 23.6931L72.5351 27.7603L75.6015 23.198L70.8841 20.6702L68.8505 23.6931Z" fill="black"/>
<path d="M37.8542 57.0659C37.7371 57.091 37.6181 57.1068 37.4933 57.1189C36.6933 57.2026 35.4978 56.9941 34.5096 55.5313C34.1695 55.0852 33.8701 54.3708 33.6196 53.3814C33.4991 53.5052 33.3897 53.612 33.297 53.7054C32.4048 54.8717 32.5001 55.341 32.5275 55.4233C32.714 55.9758 32.4203 56.5728 31.8733 56.7638C31.3264 56.9547 30.7243 56.658 30.534 56.1111C30.1699 55.0481 30.5448 53.8215 31.6773 52.3586C31.7077 52.3178 31.7392 52.2817 31.7763 52.2492C31.9664 52.0614 32.2455 51.786 32.6023 51.4154C32.8055 51.22 33.01 51.0536 33.2147 50.9117C33.182 50.4142 33.1917 50.0007 33.2444 49.6514C33.2461 49.6364 33.2478 49.6213 33.2504 49.6109C33.2531 49.6006 33.2548 49.5855 33.2575 49.5751C33.5296 48.3265 34.2986 47.2944 35.5376 46.514C36.0295 46.2026 36.6822 46.3464 36.9939 46.8427C37.3045 47.3344 37.1599 47.9875 36.6634 48.2998C35.9172 48.7736 35.4774 49.3285 35.3227 50.0033C35.3176 50.0485 35.3099 50.104 35.3052 50.1736C35.8457 50.1359 36.4064 50.2162 36.9819 50.411C37.8187 50.7748 38.5069 51.3372 39.104 52.115C39.7654 53.1484 39.9969 53.9118 39.8921 54.5906C39.8579 55.1416 39.6117 55.7087 39.1796 56.2081C38.8809 56.6445 38.4255 56.9431 37.8542 57.0659ZM35.5351 52.2597C35.5471 52.3159 35.56 52.3768 35.572 52.433C35.832 53.6506 36.0945 54.1231 36.2245 54.296C36.753 55.0739 37.146 55.0336 37.3139 55.0171C37.434 55.006 37.4648 54.9896 37.4695 54.9886C37.5127 54.9156 37.517 54.8902 37.5726 54.8293C37.7199 54.6703 37.7902 54.518 37.8057 54.3384C37.8131 54.2584 37.82 53.9925 37.3858 53.3119C37.0573 52.8975 36.6452 52.5502 36.2183 52.3627C35.9872 52.2899 35.7585 52.2509 35.5351 52.2597Z" fill="black"/>
<path d="M34.5309 113.184C34.456 113.201 34.3791 113.207 34.2965 113.21C33.7123 113.204 33.2478 112.726 33.2553 112.141C33.2684 111.262 33.0371 110.591 32.5583 110.092C32.5222 110.06 32.4757 110.026 32.4236 109.988C32.162 110.461 31.7881 110.889 31.3103 111.266C30.5468 111.773 29.6985 112.043 28.7256 112.12C27.5 112.114 26.7337 111.897 26.2244 111.438C25.7825 111.112 25.4378 110.598 25.2624 109.96C25.004 109.369 25.0507 108.693 25.402 108.044C25.7731 107.328 26.5927 106.442 28.3625 106.404C28.9217 106.362 29.6851 106.497 30.6473 106.829C30.6113 106.661 30.5783 106.506 30.5513 106.38C30.0611 105.001 29.6174 104.827 29.5345 104.805C28.9701 104.662 28.6285 104.094 28.7667 103.526C28.9106 102.961 29.4827 102.613 30.0471 102.756C31.1381 103.026 31.965 104.009 32.567 105.751C32.5827 105.801 32.5973 105.847 32.6073 105.894C32.6586 106.157 32.7396 106.536 32.8512 107.036C32.9055 107.314 32.9324 107.577 32.9413 107.825C33.3745 108.065 33.7184 108.3 33.9787 108.533C33.9901 108.54 33.9968 108.548 34.0035 108.557C34.0158 108.569 34.0282 108.581 34.0405 108.593C34.9351 109.503 35.3826 110.704 35.3621 112.168C35.3563 112.669 34.9992 113.084 34.5309 113.184ZM27.9508 108.559C27.4451 108.668 27.3205 108.91 27.2619 109.026C27.206 109.131 27.1999 109.171 27.1999 109.171C27.2403 109.246 27.2584 109.262 27.2754 109.341C27.3427 109.611 27.4617 109.732 27.5546 109.8C27.6201 109.855 27.838 110.004 28.6476 110.011C29.171 109.962 29.6865 109.808 30.0823 109.551C30.2747 109.397 30.4294 109.227 30.5452 109.035C30.4914 109.013 30.4329 108.991 30.3791 108.968C29.222 108.526 28.6806 108.491 28.4629 108.503C28.2592 108.513 28.0913 108.529 27.9508 108.559Z" fill="black"/>
</g>
<defs>
<clipPath id="clip0_2628_2534">
<rect width="99.7078" height="149.98" fill="white" transform="matrix(0.977695 -0.210029 0.208803 0.977958 0.855713 21.75)"/>
</clipPath>
</defs>
</svg>
