<svg width="130" height="169" viewBox="0 0 130 169" fill="none" xmlns="http://www.w3.org/2000/svg">
<g clip-path="url(#clip0_2628_2534)">
<path d="M117.017 143.414L123.28 146.952C123.862 147.293 124.474 147.426 125.116 147.354C125.759 147.282 126.332 147.021 126.828 146.573C127.326 146.123 127.641 145.581 127.778 144.95C127.915 144.318 127.854 143.681 127.597 143.052L115.123 114.593L117.017 143.414ZM94.9324 78.4277L93.6991 79.5418L97.2846 132.003L108.843 138.535L105.736 93.0071L99.8033 79.4444C99.5227 78.8308 99.1048 78.3679 98.5418 78.0468C97.9392 77.7294 97.3156 77.6022 96.6733 77.674C96.0121 77.7307 95.4311 77.9772 94.9324 78.4277ZM86.0954 86.4108L74.7562 96.6543L76.4537 120.23L88.9475 127.277L86.0954 86.4108ZM61.617 109.348C61.4803 109.98 61.5522 110.606 61.8302 111.216C62.066 111.828 62.4865 112.294 63.0917 112.614L68.1138 115.501L67.3122 103.374L62.5351 107.689C62.0392 108.143 61.735 108.696 61.617 109.348Z" fill="#FF7D6F"/>
<path d="M108.846 138.54L117.02 143.413L115.129 114.59L105.738 93.0119L108.846 138.54ZM93.6962 79.5464L86.0926 86.4154L88.9447 127.282L97.2818 132.008L93.6962 79.5464ZM74.7534 96.6589L67.3121 103.381L68.1137 115.509L76.4508 120.235L74.7534 96.6589Z" fill="white"/>
<path d="M125.628 148.353C125.493 148.382 125.355 148.402 125.211 148.418C125.211 148.418 125.211 148.418 125.207 148.419C124.341 148.517 123.509 148.333 122.732 147.883L116.477 144.349C116.472 144.35 116.471 144.345 116.467 144.346C116.461 144.342 116.455 144.338 116.45 144.335L108.29 139.471L96.7391 132.945L75.9145 121.177C75.9145 121.177 75.9145 121.177 75.9088 121.173L67.5725 116.445L67.5668 116.441L62.5424 113.553C61.7424 113.132 61.1563 112.475 60.8231 111.625C60.4731 110.858 60.3794 110.006 60.5636 109.149C60.715 108.299 61.1353 107.537 61.8082 106.928L66.5821 102.611L74.021 95.8907C74.021 95.8907 74.021 95.8907 74.0257 95.8897L85.3604 85.6487C85.3604 85.6487 85.3604 85.6487 85.3651 85.6477L92.9637 78.7803L94.1954 77.6685C94.8647 77.0644 95.6539 76.7235 96.5488 76.6488C97.3967 76.5598 98.2252 76.7247 99.0045 77.1401C99.0102 77.1438 99.0159 77.1475 99.0205 77.1465C99.0262 77.1501 99.0319 77.1538 99.0366 77.1528C99.7888 77.579 100.364 78.2096 100.734 79.0217C100.735 79.0263 100.741 79.0347 100.742 79.0394L106.67 92.6011L106.671 92.6057L116.057 114.177L128.529 142.627C128.531 142.636 128.537 142.64 128.539 142.649C128.54 142.654 128.541 142.659 128.542 142.663C128.875 143.488 128.957 144.333 128.775 145.175C128.594 146.027 128.163 146.761 127.499 147.364C126.96 147.871 126.326 148.203 125.628 148.353ZM124.979 146.323C125.4 146.277 125.771 146.109 126.103 145.807C126.437 145.51 126.637 145.164 126.729 144.747C126.729 144.747 126.729 144.747 126.728 144.743C126.819 144.321 126.78 143.909 126.605 143.476L114.135 115.035C114.135 115.035 114.135 115.035 114.134 115.03L104.746 93.455L98.8207 79.9027C98.637 79.5013 98.373 79.2054 98.0163 79.0028C97.6078 78.7869 97.1982 78.7035 96.7724 78.7508C96.7584 78.7539 96.7386 78.7532 96.7246 78.7562C96.3052 78.7875 95.9372 78.9449 95.617 79.234L94.3852 80.3459L86.7857 87.2086C86.7857 87.2086 86.7857 87.2086 86.781 87.2096L75.4416 97.4516L68.0027 104.172L63.2288 108.489C62.9039 108.779 62.713 109.123 62.6415 109.545C62.5458 109.992 62.5914 110.389 62.7761 110.795C62.946 111.223 63.1899 111.494 63.5711 111.696L68.6229 114.598L89.4474 126.366L89.4531 126.37L97.7884 131.093L109.345 137.623C109.355 137.626 109.362 137.634 109.368 137.638L117.527 142.502L123.776 146.033C123.776 146.033 123.781 146.032 123.782 146.037L123.788 146.04C124.172 146.281 124.563 146.368 124.979 146.323Z" fill="black"/>
</g>
<defs>
<clipPath id="clip0_2628_2534">
<rect width="99.7078" height="149.98" fill="white" transform="matrix(0.977695 -0.210029 0.208803 0.977958 0.855713 21.75)"/>
</clipPath>
</defs>
</svg>
