<svg xmlns="http://www.w3.org/2000/svg" width="60" height="60" viewBox="0 0 60 60" fill="none">
    <g clip-path="url(#clip0_2628_2588)">
        <path d="M21.3565 1.50823C20.6355 1.05238 19.8729 0.87733 19.0693 0.984581C18.2272 1.06228 17.5178 1.40829 16.9381 2.02407C16.3488 2.62032 16.0172 3.32905 15.9426 4.14876L14.4268 19.8247L2.24847 29.8633C1.60381 30.3917 1.2097 31.0714 1.06764 31.9016C0.886978 32.7023 0.990816 33.4722 1.37392 34.2119C1.75853 34.9509 2.34035 35.4876 3.12012 35.8199L17.5598 42.1101L23.3616 56.7827C23.6405 57.5491 24.1501 58.1322 24.8918 58.5314C25.5944 58.9497 26.367 59.0957 27.2082 58.9701C28.0217 58.8338 28.7038 58.4546 29.2545 57.8288L39.7459 46.01L55.4597 45.0477C56.2919 44.999 57.0196 44.6906 57.6475 44.1239C58.2462 43.5472 58.6054 42.8492 58.7279 42.0285C58.8309 41.2173 58.6866 40.456 58.292 39.7461L50.2732 26.1547L54.235 10.8896C54.4337 10.0801 54.36 9.29553 54.0144 8.53749C53.6689 7.77946 53.1337 7.21998 52.411 6.85985C51.6513 6.46943 50.864 6.36593 50.0492 6.54936L34.6696 9.95167L21.3565 1.50823Z" fill="#FBF471"/>
        <path d="M26.6245 60.0038C25.8238 60.0038 25.0763 59.7961 24.3846 59.3856C23.4673 58.8915 22.8009 58.1288 22.4386 57.1355L16.7931 42.8596L2.72257 36.7302C1.74196 36.3121 0.991937 35.6203 0.502901 34.6803C0.0113303 33.7351 -0.120431 32.7343 0.11015 31.708C0.282452 30.6945 0.794293 29.8127 1.62033 29.1336L13.489 19.3529L14.9662 4.07865C15.0599 3.03723 15.4882 2.1225 16.2357 1.36487C16.9654 0.592037 17.8903 0.141007 18.9697 0.039651C19.9579 -0.0895773 20.9486 0.130869 21.8634 0.711127L34.8393 8.93862L49.8271 5.6243C50.8635 5.39118 51.8796 5.52294 52.8424 6.01705C53.7546 6.47314 54.4464 7.19277 54.8847 8.15564C55.3231 9.11344 55.4168 10.1194 55.1634 11.1431L51.2993 26.0296L59.1138 39.2742C59.6205 40.1889 59.8055 41.1568 59.6763 42.1729C59.5192 43.227 59.058 44.1164 58.308 44.8436C57.4921 45.5835 56.5546 45.9788 55.5005 46.0396L40.1908 46.9772L29.9667 58.4962C29.2699 59.2867 28.3906 59.7783 27.3543 59.9481C27.1085 59.9836 26.8627 60.0038 26.6245 60.0038ZM19.5094 1.94513C19.403 1.94513 19.2966 1.95273 19.1876 1.96793C18.5465 2.02874 18.0524 2.26946 17.6344 2.71036C17.1884 3.16139 16.9553 3.6631 16.8995 4.25856L15.3818 19.9407C15.3564 20.1966 15.2323 20.4323 15.0321 20.597L2.85433 30.6362C2.39063 31.0163 2.11444 31.4927 2.01308 32.0881C1.87372 32.7115 1.9472 33.2512 2.2234 33.7858C2.50212 34.323 2.91768 34.7056 3.49033 34.9489L17.9359 41.2405C18.1716 41.3418 18.3565 41.5344 18.4503 41.7726L24.2528 56.4463C24.4581 57.0113 24.8103 57.4117 25.3399 57.698C25.8872 58.0223 26.4345 58.1212 27.0528 58.0299C27.6305 57.9337 28.1119 57.6651 28.5123 57.209L39.005 45.3884C39.1748 45.1958 39.4155 45.0793 39.6714 45.0641L55.3864 44.1012C55.9996 44.0657 56.5191 43.8453 56.9828 43.4272C57.4034 43.0192 57.6644 42.515 57.7556 41.9069C57.8316 41.3215 57.7252 40.7692 57.4313 40.2396L49.4242 26.6707C49.2925 26.4477 49.2545 26.1842 49.3204 25.9333L53.2808 10.6692C53.4252 10.0839 53.372 9.5214 53.1161 8.96394C52.8627 8.40903 52.4851 8.01374 51.9632 7.75275C51.3981 7.46389 50.8407 7.38787 50.2477 7.52217L50.2452 7.52217L34.8646 10.9226C34.6163 10.9784 34.3528 10.9328 34.1349 10.7934L20.827 2.35055C20.3988 2.07942 19.9655 1.94513 19.5094 1.94513Z" fill="black"/>
    </g>
    <defs>
        <clipPath id="clip0_2628_2588">
            <rect width="59.7213" height="60" fill="white"/>
        </clipPath>
    </defs>
</svg>