<svg xmlns="http://www.w3.org/2000/svg" width="96" height="96" viewBox="0 0 96 96" fill="none">
    <path d="M18.032 44.2387L45.1524 17.1183C45.5633 16.7074 46.0085 16.4156 46.4879 16.243C46.9673 16.0732 47.4809 15.9883 48.0288 15.9883C48.5767 15.9883 49.0903 16.0732 49.5697 16.243C50.0492 16.4156 50.4943 16.7074 50.9052 17.1183L78.0256 44.2387C78.779 44.992 79.1734 45.933 79.209 47.0617C79.2419 48.1931 78.8474 49.1697 78.0256 49.9915C77.2723 50.8133 76.3313 51.242 75.2026 51.2777C74.0712 51.3105 73.0946 50.916 72.2728 50.0942L52.138 29.9594L52.138 75.8791C52.138 77.0434 51.7449 78.02 50.9586 78.809C50.1697 79.5952 49.1931 79.9883 48.0288 79.9883C46.8646 79.9883 45.8893 79.5952 45.1031 78.809C44.3141 78.02 43.9197 77.0434 43.9197 75.8791L43.9197 29.9594L23.7848 50.0942C23.0315 50.8476 22.0727 51.242 20.9084 51.2777C19.7442 51.3105 18.7854 50.916 18.032 50.0942C17.2102 49.3409 16.7993 48.3821 16.7993 47.2178C16.7993 46.0536 17.2102 45.0605 18.032 44.2387Z" fill="white"/>
</svg>