<svg xmlns="http://www.w3.org/2000/svg" width="68" height="72" viewBox="0 0 68 72" fill="none">
    <path d="M65.2421 21.4054L37.035 1.52005C35.1324 0.180816 32.5832 0.180816 30.6805 1.52005L2.47346 21.4054C1.00491 22.4399 0.136719 24.1208 0.136719 25.9126V65.6926C0.136719 68.7405 2.60276 71.2065 5.65068 71.2065H22.0263C21.9524 70.6801 21.9062 70.1536 21.9062 69.6179V53.2053C21.9062 46.6015 27.2539 41.2538 33.8578 41.2538C40.4616 41.2538 45.8093 46.6015 45.8093 53.2053V69.6087C45.8093 70.1536 45.7631 70.6801 45.6892 71.1973H62.0649C65.1035 71.1973 67.5788 68.7313 67.5788 65.6833V25.9126C67.5788 24.1208 66.7106 22.4399 65.2421 21.4054Z" fill="white"/>
</svg>