<svg xmlns="http://www.w3.org/2000/svg" width="100" height="100" viewBox="0 0 100 100" fill="none">
    <path d="M86.0173 33.6407L54.0957 11.1367C51.9425 9.6211 49.0576 9.6211 46.9044 11.1367L14.9828 33.6407C13.3209 34.8114 12.3384 36.7137 12.3384 38.7415V83.7599C12.3384 87.2092 15.1292 90 18.5785 90H37.1105C37.0269 89.4042 36.9747 88.8084 36.9747 88.2022V69.6283C36.9747 62.1548 43.0266 56.1029 50.5001 56.1029C57.9735 56.1029 64.0255 62.1548 64.0255 69.6283V88.1917C64.0255 88.8084 63.9732 89.4042 63.8896 89.9895H82.4217C85.8605 89.9895 88.6617 87.1988 88.6617 83.7495V38.7415C88.6617 36.7137 87.6792 34.8114 86.0173 33.6407Z" fill="#121212"/>
</svg>