<svg width="378" height="400" viewBox="0 0 378 400" fill="none" xmlns="http://www.w3.org/2000/svg">
<g clip-path="url(#clip0_2993_946)">
<path d="M41.4911 104.436C43.8033 104.859 45.6452 106.064 47.0131 108.046L51.4043 114.983L35.5455 121.641L32.8564 117.887C31.4885 115.904 31.0144 113.755 31.4419 111.443C31.8654 109.13 33.0468 107.265 34.982 105.85C36.96 104.482 39.1284 104.012 41.4911 104.436Z" fill="#FFDB51"/>
<path d="M35.5453 123.06C35.8289 123.06 36.1204 122.975 36.3691 122.796C37.0064 122.341 37.1502 121.455 36.6956 120.822L34.0064 117.068C32.8639 115.412 32.4753 113.651 32.8328 111.704C33.1942 109.742 34.1696 108.203 35.8173 106.998C37.465 105.863 39.2486 105.471 41.2422 105.832C43.1813 106.186 44.6929 107.177 45.851 108.852L50.2072 115.742C50.6269 116.403 51.4973 116.601 52.1618 116.182C52.8225 115.766 53.0207 114.887 52.601 114.231L48.2098 107.289C46.5932 104.95 44.4287 103.535 41.7474 103.042C39.0155 102.548 36.4662 103.104 34.1735 104.686C31.9157 106.341 30.5362 108.521 30.0466 111.188C29.553 113.873 30.1049 116.399 31.6904 118.692L34.395 122.466C34.667 122.854 35.1023 123.06 35.5453 123.06Z" fill="black"/>
<path d="M57.0665 118.453C61.0807 122.654 63.9836 127.823 65.775 133.959C67.617 140.049 69.4784 146.019 71.367 151.872C73.3022 157.678 74.3165 161.075 74.4097 162.066L99.1869 158.455L104.142 217.012L52.8851 218.073C44.6235 218.263 37.4032 215.83 31.2206 210.778C24.9913 205.776 21.4745 199.309 20.6701 191.377L19.8929 184.933C19.8462 184.696 19.823 184.436 19.823 184.156C18.0276 167.826 16.3993 153.31 14.9382 140.613C12.8514 139.568 11.0328 138.553 9.48617 137.57C8.21156 136.439 6.98354 135.257 5.80608 134.029C2.92655 131.15 1.46544 127.539 1.41492 123.198C1.41492 123 1.41492 122.786 1.41492 122.561C1.41103 119.16 2.75948 116.043 5.4486 113.214C7.29057 111.088 9.62603 109.627 12.4589 108.822C15.2918 107.971 18.1947 107.761 21.1675 108.185C41.0755 110.874 53.0406 114.298 57.0665 118.453Z" fill="#FFDB51"/>
<path d="M52.0067 219.504C52.3098 219.504 52.613 219.5 52.92 219.496L104.173 218.435C104.565 218.428 104.934 218.257 105.195 217.965C105.455 217.674 105.587 217.289 105.552 216.9L100.597 158.344C100.562 157.955 100.372 157.594 100.065 157.353C99.758 157.108 99.3655 157.007 98.9808 157.061L75.5249 160.477C75.1674 159.078 74.394 156.49 72.7075 151.426C70.8345 145.62 68.9536 139.6 67.1272 133.552C65.2852 127.237 62.2425 121.835 58.0845 117.509C53.7904 113.052 41.7788 109.542 21.3617 106.787C18.2062 106.336 15.0741 106.565 12.0586 107.471C8.99251 108.337 6.40054 109.962 4.38758 112.29C1.4925 115.333 0.00415039 118.819 0.00804138 122.601V123.195C0.0585556 127.921 1.67513 131.901 4.81114 135.037C5.99638 136.273 7.26322 137.489 8.55338 138.636C8.61167 138.686 8.66994 138.733 8.73601 138.772C10.1466 139.67 11.7904 140.598 13.6285 141.539C15.0585 153.983 16.6713 168.343 18.4161 184.247C18.42 184.593 18.4549 184.923 18.5132 185.226L19.2749 191.557C20.1104 199.816 23.837 206.663 30.3422 211.891C36.521 216.943 43.8111 219.504 52.0067 219.504ZM102.607 215.629L52.8578 216.659C44.9847 216.861 38.0055 214.494 32.1182 209.687C26.2153 204.946 22.8422 198.743 22.0844 191.242L21.3034 184.771C21.2567 184.511 21.2412 184.344 21.2412 184.161C21.2412 184.111 21.2373 184.056 21.2334 184.006C19.4459 167.749 17.8059 153.093 16.3487 140.455C16.2943 139.981 16.0028 139.565 15.5754 139.351C13.5896 138.356 11.8293 137.377 10.3448 136.44C9.14016 135.363 7.95491 134.225 6.82796 133.051C4.1777 130.401 2.87592 127.179 2.83318 123.183V122.593C2.82929 119.522 4.0223 116.775 6.47826 114.194C8.16868 112.243 10.2982 110.914 12.8474 110.191C15.486 109.398 18.2101 109.2 20.9692 109.593C40.4653 112.224 52.2632 115.547 56.0404 119.472C59.8759 123.463 62.6933 128.473 64.4109 134.361C66.249 140.439 68.1337 146.475 70.0145 152.312C72.5016 159.774 72.9484 161.713 72.9951 162.207C73.0339 162.592 73.2243 162.945 73.5313 163.186C73.8345 163.427 74.2231 163.524 74.6078 163.474L97.9005 160.081L102.607 215.629Z" fill="black"/>
<path d="M292.889 377.67C293.643 369.081 290.13 361.809 282.339 355.863C281.157 354.872 279.91 353.974 278.585 353.174C276.366 342.552 275.775 331.177 276.817 319.047C277.808 306.867 279.199 294.24 280.994 281.167C268.959 269.037 256.924 267.689 244.889 277.132C242.861 288.178 241.609 300.311 241.135 313.525C240.665 326.789 241.252 338.378 242.903 348.289C234.455 349.894 227.822 352.42 223.011 355.863C214.326 361.856 209.771 368.727 209.348 376.469C208.924 384.211 212.557 389.78 220.252 393.18C227.946 396.577 237.572 398.373 249.136 398.563C260.655 398.8 270.681 397.525 279.226 394.739C287.771 391.902 292.326 386.216 292.889 377.67Z" fill="#FFDB51"/>
<path d="M251.776 400.003C262.303 400.003 271.676 398.685 279.665 396.081C288.774 393.062 293.698 386.898 294.304 377.765C295.097 368.729 291.362 360.972 283.202 354.738C282.172 353.871 281.037 353.043 279.856 352.293C277.777 342.022 277.229 330.879 278.231 319.166C279.219 307.063 280.617 294.347 282.401 281.359C282.506 280.585 281.966 279.87 281.189 279.765C280.423 279.645 279.7 280.201 279.595 280.974C277.808 294.013 276.397 306.784 275.41 318.932C274.365 331.14 274.967 342.76 277.206 353.463C277.287 353.848 277.52 354.182 277.858 354.384C279.11 355.142 280.311 356.005 281.434 356.949C288.93 362.674 292.198 369.401 291.483 377.547C290.95 385.561 286.796 390.734 278.783 393.392C270.436 396.112 260.469 397.372 249.168 397.142C237.844 396.956 228.308 395.188 220.827 391.88C213.665 388.717 210.374 383.699 210.766 376.544C211.163 369.3 215.554 362.732 223.82 357.027C228.452 353.712 234.937 351.248 243.114 349.689L249.285 349.06C250.062 348.978 250.629 348.283 250.548 347.505C250.47 346.728 249.766 346.168 248.997 346.238L244.097 346.74C242.628 337.245 242.111 326.099 242.558 313.569C243.024 300.484 244.279 288.308 246.288 277.383C246.428 276.613 245.923 275.875 245.154 275.735C244.38 275.591 243.646 276.104 243.506 276.87C241.474 287.931 240.203 300.247 239.733 313.468C239.282 326.169 239.811 337.494 241.303 347.159C233.317 348.807 226.897 351.345 222.199 354.707C213.195 360.921 208.392 368.22 207.945 376.385C207.487 384.737 211.439 390.823 219.689 394.469C227.519 397.927 237.424 399.777 249.121 399.968C250.011 399.995 250.897 400.003 251.776 400.003Z" fill="black"/>
<path d="M199.369 377.67C200.123 369.081 196.61 361.809 188.818 355.863C187.637 354.872 186.389 353.974 185.064 353.174C182.845 342.552 182.255 331.177 183.296 319.047C184.287 306.867 185.678 294.24 187.474 281.167C175.439 269.037 163.404 267.689 151.369 277.132C149.34 288.178 148.089 300.311 147.615 313.525C147.144 326.789 147.731 338.378 149.383 348.289C140.935 349.894 134.301 352.42 129.49 355.863C120.805 361.856 116.251 368.727 115.827 376.469C115.404 384.211 119.037 389.78 126.731 393.18C134.426 396.577 144.051 398.373 155.616 398.563C167.134 398.8 177.16 397.525 185.705 394.739C194.247 391.902 198.801 386.216 199.369 377.67Z" fill="#FFDB51"/>
<path d="M158.255 400.003C168.782 400.003 178.155 398.685 186.145 396.081C195.254 393.062 200.177 386.898 200.784 377.765C201.576 368.729 197.842 360.972 189.681 354.738C188.651 353.871 187.517 353.043 186.335 352.293C184.256 342.022 183.708 330.883 184.711 319.166C185.694 307.067 187.097 294.351 188.881 281.359C188.986 280.585 188.445 279.87 187.668 279.765C186.903 279.645 186.18 280.201 186.075 280.974C184.287 294.017 182.877 306.787 181.89 318.932C180.844 331.14 181.447 342.76 183.685 353.463C183.767 353.848 184 354.182 184.338 354.384C185.589 355.142 186.79 356.005 187.917 356.949C195.413 362.674 198.681 369.401 197.966 377.547C197.434 385.561 193.28 390.734 185.267 393.392C176.92 396.112 166.952 397.372 155.651 397.142C144.328 396.956 134.791 395.188 127.311 391.88C120.149 388.717 116.857 383.699 117.25 376.544C117.646 369.3 122.037 362.732 130.303 357.027C134.935 353.712 141.421 351.248 149.597 349.689L155.768 349.06C156.545 348.978 157.113 348.283 157.031 347.505C156.949 346.728 156.258 346.168 155.48 346.238L150.58 346.74C149.111 337.245 148.594 326.099 149.041 313.569C149.508 300.484 150.763 288.308 152.772 277.383C152.912 276.613 152.407 275.875 151.637 275.735C150.864 275.591 150.129 276.104 149.989 276.87C147.957 287.931 146.686 300.247 146.216 313.468C145.765 326.169 146.294 337.494 147.786 347.159C139.8 348.807 133.381 351.345 128.682 354.707C119.679 360.921 114.875 368.22 114.429 376.385C113.97 384.737 117.922 390.823 126.172 394.469C134.002 397.927 143.908 399.777 155.605 399.968C156.487 399.995 157.373 400.003 158.255 400.003Z" fill="black"/>
<path d="M92.7763 14.5671C93.7987 12.7 95.122 10.9255 96.7459 9.24366C101.548 4.27017 107.383 1.72621 114.249 1.60631C121.116 1.48641 127.003 3.82571 131.908 8.63242C136.913 13.402 139.809 19.4431 140.597 26.7638C141.35 34.0498 140.374 43.2641 137.662 54.4097L103.309 84.2413L105.443 84.5494C102.947 85.4524 100.27 86.1763 97.408 86.7212C91.1872 87.8551 84.9447 87.8988 78.683 86.8497C72.4562 85.77 67.1197 82.8881 62.6791 78.2092C58.0374 73.5339 55.6629 67.8943 55.5449 61.2907C55.425 54.4234 57.7495 48.4843 62.5159 43.4815C64.3013 41.699 66.2389 40.2292 68.3315 39.0695C68.4157 32.5277 70.7295 26.9042 75.2701 22.2017C80.0752 17.2364 85.9096 14.687 92.7763 14.5671Z" fill="#FFDB51"/>
<path d="M87.6844 88.9208C91.0225 88.9209 94.3528 88.6177 97.6559 88.0193C100.598 87.4597 103.372 86.7096 105.921 85.7847C106.656 85.5166 107.037 84.7043 106.772 83.9698C106.504 83.2353 105.692 82.8505 104.958 83.1225C102.552 83.9931 99.9214 84.7042 97.139 85.2366C91.1196 86.3325 84.9837 86.3752 78.9138 85.3609C73.0304 84.3387 67.9126 81.5754 63.7041 77.145C59.3324 72.7378 57.0708 67.3707 56.962 61.1759C56.8455 54.6352 58.9984 49.136 63.5411 44.3675C65.1965 42.7119 67.0502 41.3089 69.0204 40.2169C69.4634 39.9682 69.7431 39.5057 69.7509 38.9966C69.8287 32.8561 72.0281 27.5085 76.2911 23.0937C80.8649 18.3601 86.2626 16.0051 92.7988 15.8885C93.3078 15.8807 93.7703 15.6009 94.0151 15.154C94.9749 13.4052 96.234 11.7185 97.7612 10.1368C102.331 5.39933 107.733 3.04036 114.269 2.92772C120.79 2.81507 126.245 4.97981 130.912 9.54632C135.657 14.0701 138.436 19.8724 139.186 26.8173C139.92 33.9022 138.945 43.0429 136.283 53.9791C136.1 54.7369 136.562 55.5025 137.324 55.6891C138.078 55.8756 138.847 55.4093 139.034 54.6475C141.774 43.3966 142.768 33.9333 142.003 26.5181C141.179 18.8853 138.113 12.4922 132.883 7.50989C127.734 2.46924 121.501 -0.0375089 114.218 0.0945636C106.994 0.218864 100.773 2.93537 95.721 8.16636C94.2249 9.717 92.9542 11.3648 91.9361 13.0787C85.054 13.3895 79.1085 16.0905 74.251 21.1233C69.6616 25.8762 67.2018 31.5969 66.9375 38.1416C65.0023 39.2958 63.1797 40.7182 61.5126 42.3815C56.4764 47.6669 54.001 53.9978 54.1253 61.2186C54.2457 68.1674 56.7832 74.1874 61.6679 79.1076C66.2805 83.9694 71.9307 87.0164 78.4358 88.1435C81.5096 88.6643 84.599 88.9208 87.6844 88.9208Z" fill="black"/>
<path d="M97.8355 86.7997C97.8197 83.2712 98.6629 79.9137 100.365 76.7237C106.546 64.8768 115.521 55.7268 127.29 49.2773C130.599 47.4181 134.04 46.4391 137.617 46.3407C141.228 46.3738 144.298 47.6345 146.825 50.1156C149.351 52.6003 150.62 55.6282 150.633 59.196C150.686 62.8131 149.47 65.908 146.983 68.4769L119.999 95.8546C117.514 98.3808 114.465 99.6487 110.851 99.6585C107.277 99.7141 104.229 98.5015 101.703 96.0168C99.1767 93.5321 97.8888 90.4599 97.8355 86.7997Z" fill="white"/>
<path d="M110.671 101.047C110.756 101.047 110.842 101.047 110.923 101.047C114.895 101.036 118.311 99.6134 121.058 96.8192L148.043 69.4444C150.794 66.5997 152.158 63.137 152.1 59.1496C152.084 55.2205 150.662 51.8277 147.868 49.08C145.082 46.3401 141.654 44.9332 137.683 44.8982C133.839 45.003 130.148 46.0484 126.654 48.0148C114.693 54.5708 105.444 64.0027 99.1607 76.0424C97.3615 79.4157 96.4521 83.03 96.4677 86.7803C96.522 90.8221 97.9637 94.2576 100.754 97.0014C103.493 99.6869 106.828 101.047 110.671 101.047ZM137.71 47.7274C140.916 47.7586 143.609 48.8584 145.886 51.097C148.152 53.3278 149.259 55.9666 149.271 59.1729C149.317 62.4452 148.253 65.1539 146.018 67.4623L119.041 94.8293C116.811 97.0989 114.149 98.2026 110.9 98.2103C107.655 98.2646 105.013 97.1997 102.747 94.9728C100.478 92.742 99.3511 90.0487 99.3045 86.7454C99.2889 83.4847 100.086 80.3213 101.667 77.3561C107.691 65.806 116.558 56.7705 128.022 50.4865C128.026 50.4826 128.03 50.4826 128.038 50.4787C131.127 48.7455 134.384 47.8206 137.71 47.7274Z" fill="black"/>
<path d="M328.21 14.4225C327.188 12.5554 325.864 10.781 324.241 9.0992C319.438 4.12571 313.604 1.58169 306.737 1.46179C299.87 1.34189 293.983 3.68119 289.078 8.4879C284.073 13.2575 281.178 19.2986 280.389 26.6193C279.636 33.9053 280.612 43.1196 283.324 54.2652L317.677 84.0969L315.543 84.405C318.037 85.3052 320.716 86.0319 323.578 86.5768C329.799 87.7106 336.042 87.7543 342.303 86.7052C348.53 85.6255 353.867 82.7435 358.307 78.0647C362.949 73.3893 365.323 67.7498 365.439 61.1434C365.559 54.2761 363.237 48.3397 358.468 43.3342C356.682 41.5517 354.745 40.0819 352.65 38.9195C352.565 32.3776 350.254 26.7569 345.711 22.0517C340.911 17.0864 335.079 14.5398 328.21 14.4225Z" fill="#FFDB51"/>
<path d="M333.319 88.8307C336.401 88.8307 339.486 88.5742 342.556 88.0611C349.069 86.9302 354.719 83.8832 359.351 79.0019C364.213 74.1012 366.75 68.0812 366.871 61.1324C366.999 53.9115 364.52 47.5846 359.51 42.3225C357.82 40.6319 355.994 39.2057 354.062 38.0553C353.798 31.5146 351.338 25.79 346.749 21.0371C341.891 16.0043 335.942 13.2994 329.064 12.9925C328.046 11.2786 326.775 9.63078 325.279 8.08013C320.231 2.84915 314.005 0.136526 306.781 0.00833965C299.534 -0.108188 293.27 2.38302 288.105 7.43532C282.89 12.406 279.821 18.7991 279.001 26.4241C278.231 33.8432 279.23 43.3064 281.97 54.5574C282.156 55.3191 282.922 55.7894 283.68 55.5989C284.441 55.4124 284.904 54.6468 284.721 53.8889C282.059 42.9528 281.084 33.8121 281.818 26.7234C282.564 19.7862 285.343 13.98 290.076 9.47176C294.75 4.88582 300.183 2.73273 306.727 2.83761C313.263 2.95025 318.665 5.30922 323.235 10.0428C324.762 11.6245 326.025 13.315 326.981 15.06C327.226 15.5069 327.688 15.7868 328.197 15.7945C334.733 15.9072 340.135 18.2661 344.705 22.9997C348.964 27.4107 351.167 32.7621 351.245 38.9026C351.253 39.4117 351.529 39.8781 351.976 40.1229C353.942 41.211 355.795 42.6179 357.478 44.2968C361.931 48.972 364.146 54.6267 364.034 61.078C363.925 67.2728 361.663 72.6399 357.311 77.0238C353.083 81.4776 347.965 84.2408 342.07 85.263C336.008 86.2774 329.872 86.2308 323.841 85.1388C321.082 84.6141 318.451 83.903 316.03 83.0285C315.296 82.7604 314.484 83.1451 314.22 83.8797C313.955 84.6142 314.336 85.4264 315.071 85.6907C317.632 86.6156 320.406 87.3657 323.324 87.9214C326.643 88.5276 329.977 88.8308 333.319 88.8307Z" fill="black"/>
<path d="M322.701 86.4601C322.717 82.9316 321.873 79.5741 320.171 76.3841C313.99 64.5371 305.015 55.3871 293.246 48.9376C289.937 47.0783 286.496 46.0993 282.919 46.0009C279.308 46.034 276.238 47.2947 273.712 49.7758C271.185 52.2604 269.916 55.2884 269.903 58.8561C269.85 62.4732 271.066 65.5681 273.553 68.1371L300.538 95.5149C303.022 98.041 306.071 99.309 309.685 99.3188C313.259 99.3744 316.308 98.1618 318.834 95.6771C321.36 93.1925 322.651 90.1235 322.701 86.4601Z" fill="white"/>
<path d="M309.887 100.709C313.714 100.708 317.045 99.3482 319.78 96.6588C322.57 93.915 324.012 90.4833 324.066 86.4532C324.082 82.6912 323.177 79.0731 321.37 75.692C315.094 63.6639 305.845 54.232 293.884 47.6721C290.39 45.7096 286.699 44.6642 282.91 44.5555C278.884 44.5944 275.456 46.0014 272.67 48.7374C269.876 51.4851 268.454 54.8779 268.438 58.8225C268.38 62.7943 269.744 66.257 272.488 69.0901L299.48 96.4765C302.227 99.2668 305.643 100.689 309.63 100.701C309.719 100.709 309.805 100.709 309.887 100.709ZM282.886 47.3886C286.162 47.4818 289.415 48.4067 292.504 50.1438C292.508 50.1438 292.512 50.1477 292.516 50.1516C303.98 56.4356 312.844 65.4711 318.863 77.0134C320.452 79.9903 321.245 83.1538 321.234 86.4299C321.187 89.7178 320.064 92.411 317.795 94.6418C315.529 96.8687 312.875 97.9492 309.661 97.8793C306.393 97.8716 303.731 96.764 301.501 94.4983L274.516 67.1197C272.289 64.819 271.225 62.1142 271.271 58.8535C271.283 55.6318 272.39 52.989 274.656 50.7621C276.933 48.5236 279.626 47.4198 282.886 47.3886Z" fill="black"/>
<path d="M209.125 36.8398C199.186 36.8398 189.671 37.8152 180.577 39.7695C156.619 44.8288 135.438 56.562 117.026 74.9764C91.6075 100.397 78.8965 131.1 78.8965 167.081V300.647C78.8965 303.043 79.7402 305.085 81.424 306.769C83.1079 308.457 85.1496 309.297 87.5457 309.297H330.697C333.093 309.297 335.135 308.453 336.819 306.769C338.502 305.082 339.346 303.043 339.346 300.647V167.078C339.346 131.096 326.635 100.393 301.217 74.9728C275.802 49.552 245.103 36.8398 209.125 36.8398Z" fill="#FFDB51"/>
<path d="M87.533 310.674H330.682C333.457 310.674 335.851 309.682 337.805 307.732C339.76 305.781 340.747 303.383 340.747 300.608V167.041C340.747 130.84 327.776 99.5117 302.202 73.9356C276.628 48.3594 245.304 35.3867 209.106 35.3867C199.111 35.3867 189.404 36.3816 180.26 38.3442C156.148 43.4354 134.53 55.4093 116.009 73.9317C90.4319 99.5079 77.4644 130.836 77.4644 167.037V300.604C77.4644 303.379 78.4554 305.777 80.4061 307.728C82.3569 309.679 84.7584 310.674 87.533 310.674ZM209.106 38.2199C244.526 38.2199 275.175 50.9089 300.201 75.9371C325.226 100.965 337.914 131.617 337.914 167.041V300.608C337.914 302.633 337.222 304.308 335.8 305.73C334.378 307.152 332.703 307.844 330.679 307.844H87.5291C85.5045 307.844 83.8297 307.152 82.4074 305.73C80.9851 304.308 80.2934 302.633 80.2934 300.608V167.041C80.2934 131.617 92.9812 100.965 118.007 75.9371C136.135 57.8072 157.275 46.0898 180.847 41.1152C189.808 39.1915 199.313 38.2199 209.106 38.2199Z" fill="black"/>
<path d="M205.611 103.619C208.618 107.405 210.121 111.97 210.121 117.315C210.121 122.659 208.618 127.206 205.611 130.956C202.568 134.742 198.895 136.633 194.59 136.633C190.435 136.633 186.836 134.742 183.792 130.956C180.749 127.206 179.227 122.659 179.227 117.315C179.227 111.97 180.749 107.405 183.792 103.619C186.836 99.8329 190.435 97.9414 194.59 97.9414C198.892 97.9414 202.568 99.8329 205.611 103.619Z" fill="white"/>
<path d="M197.076 104.126C199.525 107.428 200.747 111.417 200.747 116.09C200.747 120.763 199.522 124.734 197.076 127.999C194.59 131.338 191.698 133.008 188.396 133.008C187.654 133.008 186.93 132.935 186.225 132.786C185.15 131.933 184.13 130.913 183.165 129.725C180.123 125.977 178.602 121.432 178.602 116.09C178.602 110.748 180.123 106.185 183.165 102.4C184.13 101.212 185.15 100.21 186.225 99.3948C186.93 99.2452 187.654 99.1719 188.396 99.1719C191.698 99.1749 194.59 100.824 197.076 104.126Z" fill="black"/>
<path d="M195.131 137.799C199.864 137.799 203.94 135.712 207.251 131.593C210.484 127.609 212.124 122.724 212.124 117.073C212.124 111.426 210.484 106.522 207.251 102.496C203.94 98.3799 199.864 96.293 195.131 96.293C190.584 96.293 186.597 98.3799 183.29 102.496C180.057 106.518 178.417 111.426 178.417 117.073C178.417 122.724 180.057 127.609 183.298 131.597C186.601 135.709 190.584 137.799 195.131 137.799ZM195.131 99.1261C199.017 99.1261 202.261 100.809 205.044 104.272C207.865 107.781 209.295 112.087 209.295 117.073C209.295 122.056 207.865 126.342 205.048 129.813C202.258 133.28 199.017 134.966 195.131 134.966C191.431 134.966 188.28 133.283 185.497 129.817C182.676 126.342 181.246 122.056 181.246 117.073C181.246 112.087 182.676 107.781 185.497 104.272C188.28 100.809 191.431 99.1261 195.131 99.1261Z" fill="black"/>
<path d="M164.304 97.9414C168.609 97.9414 172.282 99.8329 175.325 103.619C178.368 107.405 179.89 111.97 179.89 117.315C179.89 122.659 178.368 127.206 175.325 130.956C172.282 134.742 168.609 136.633 164.304 136.633C160.185 136.633 156.604 134.742 153.561 130.956C150.518 127.206 148.996 122.659 148.996 117.315C148.996 111.97 150.518 107.405 153.561 103.619C156.604 99.8329 160.185 97.9414 164.304 97.9414Z" fill="white"/>
<path d="M166.752 104.07C169.201 107.372 170.423 111.361 170.423 116.034C170.423 120.708 169.198 124.697 166.752 127.998C164.302 131.3 161.429 132.95 158.127 132.95C157.385 132.95 156.661 132.876 155.956 132.727C154.881 131.874 153.861 130.854 152.895 129.666C149.854 125.918 148.333 121.373 148.333 116.031C148.333 110.689 149.854 106.126 152.895 102.341C153.861 101.153 154.881 100.17 155.956 99.3909C156.661 99.2413 157.385 99.168 158.127 99.168C161.429 99.1741 164.302 100.805 166.752 104.07Z" fill="black"/>
<path d="M164.975 137.741C169.708 137.741 173.769 135.674 177.041 131.593C180.274 127.613 181.914 122.705 181.914 117.019C181.914 111.368 180.274 106.479 177.033 102.492C173.769 98.38 169.708 96.293 164.971 96.293C160.421 96.293 156.438 98.3799 153.131 102.496C149.898 106.479 148.254 111.364 148.254 117.019C148.254 122.709 149.898 127.613 153.135 131.601C156.445 135.674 160.428 137.741 164.975 137.741ZM164.975 99.1261C168.857 99.1261 172.079 100.809 174.826 104.268C177.651 107.75 179.081 112.037 179.081 117.019C179.081 122.04 177.651 126.342 174.834 129.817C172.083 133.248 168.857 134.912 164.971 134.912C161.268 134.912 158.116 133.245 155.33 129.817C152.513 126.346 151.083 122.04 151.083 117.019C151.083 112.037 152.513 107.746 155.33 104.279C158.124 100.809 161.276 99.1261 164.975 99.1261Z" fill="black"/>
<path d="M180.965 156.219C185.104 156.18 188.994 155.189 192.538 153.269C196.089 151.314 198.911 148.582 200.939 145.135C201.814 145.45 202.668 145.523 203.418 145.473C204.2 145.426 204.794 144.758 204.747 143.977C204.701 143.195 204.048 142.613 203.251 142.647C202.159 142.698 200.562 142.457 199.229 139.5C198.907 138.784 198.067 138.47 197.356 138.788C196.641 139.111 196.326 139.95 196.645 140.662C197.216 141.929 197.869 142.877 198.565 143.584C196.797 146.643 194.314 149.064 191.181 150.786C188.057 152.48 184.614 153.355 180.953 153.39C177.308 153.39 173.869 152.531 170.745 150.836C167.434 149.083 164.842 146.542 163.031 143.273C162.992 143.207 162.95 143.141 162.903 143.083C163.396 142.481 163.863 141.738 164.282 140.833C164.609 140.121 164.298 139.282 163.591 138.952C162.88 138.625 162.04 138.932 161.71 139.643C160.381 142.519 158.714 142.772 157.579 142.702C156.802 142.683 156.13 143.254 156.083 144.035C156.036 144.816 156.635 145.485 157.416 145.531C158.391 145.59 159.545 145.461 160.692 144.89C162.767 148.532 165.701 151.369 169.412 153.331C172.941 155.243 176.834 156.219 180.965 156.219Z" fill="black"/>
<path d="M276.253 266.012C274.081 262.141 272.783 256.949 272.359 250.435C271.935 243.875 274.388 238.329 279.723 233.798C285.008 229.22 289.893 226.503 294.377 225.656C298.955 224.805 303.156 224.167 306.979 223.744C310.897 223.273 313.66 222.753 315.264 222.185C317.06 221.524 318.735 220.697 320.289 219.706C321.373 218.998 322.248 218.147 322.908 217.156C324.983 213.616 323.992 211.397 319.935 210.499C319.322 207.856 318.945 206.628 318.805 206.818L334.026 165.895C338.557 167.025 343.158 168.491 347.833 170.286C354.82 172.976 360.696 177.014 365.46 182.392C370.275 187.822 373.555 194.168 375.299 201.44C377.044 208.707 377.021 215.811 375.23 222.753C373.578 229.08 370.582 234.909 366.237 240.241C362.13 245.387 357.128 249.681 351.229 253.129C342.828 257.944 333.198 260.847 322.345 261.838C322.722 259.949 322.792 258.061 322.559 256.176C322.796 258.064 322.726 259.953 322.345 261.838C322.154 262.736 321.898 263.634 321.568 264.527C320.577 267.361 319.042 269.836 316.967 271.962C314.938 274.088 312.552 275.926 309.816 277.485C307.081 278.997 303.373 279.657 298.702 279.467C294.031 279.276 289.663 277.932 285.606 275.433C281.538 272.926 278.425 269.786 276.253 266.012Z" fill="#FFDB51"/>
<path d="M300.187 280.908C304.395 280.908 307.858 280.174 310.496 278.72C313.356 277.092 315.871 275.149 317.989 272.933C320.188 270.683 321.847 268.005 322.904 264.99C323.126 264.387 323.324 263.769 323.491 263.144C334.096 262.051 343.66 259.094 351.937 254.349C357.968 250.824 363.152 246.378 367.349 241.119C371.79 235.663 374.907 229.596 376.605 223.106C378.447 215.97 378.474 208.571 376.683 201.105C374.891 193.643 371.472 187.028 366.525 181.451C361.628 175.925 355.512 171.724 348.346 168.961C343.64 167.153 338.938 165.661 334.376 164.518C333.622 164.332 332.849 164.787 332.658 165.548C332.468 166.306 332.93 167.076 333.688 167.266C338.141 168.381 342.731 169.839 347.328 171.603C354.066 174.199 359.81 178.144 364.403 183.329C369.039 188.556 372.245 194.762 373.928 201.766C375.61 208.773 375.587 215.714 373.862 222.395C372.268 228.489 369.338 234.194 365.145 239.343C361.158 244.337 356.239 248.558 350.518 251.9C342.809 256.319 333.898 259.121 324.016 260.24C324.156 258.826 324.14 257.399 323.965 255.993C323.868 255.215 323.161 254.667 322.384 254.764C321.606 254.862 321.059 255.569 321.156 256.346C321.369 258.072 321.307 259.821 320.961 261.55C320.786 262.378 320.546 263.214 320.242 264.037C319.318 266.68 317.876 269.008 315.956 270.971C314.017 272.999 311.72 274.772 309.117 276.252C306.638 277.62 303.152 278.227 298.757 278.052C294.354 277.873 290.176 276.587 286.345 274.224C282.509 271.861 279.525 268.86 277.485 265.308C275.437 261.655 274.185 256.614 273.777 250.346C273.381 244.201 275.627 239.141 280.644 234.878C285.723 230.474 290.433 227.843 294.645 227.047C299.165 226.207 303.369 225.57 307.139 225.15C311.204 224.66 314.013 224.128 315.735 223.522C317.635 222.822 319.419 221.944 321.051 220.902C322.306 220.086 323.32 219.091 324.086 217.945C325.399 215.71 325.702 213.833 325.03 212.294C324.35 210.739 322.741 209.671 320.239 209.119C319.477 208.952 318.719 209.433 318.552 210.195C318.385 210.961 318.867 211.715 319.628 211.882C320.705 212.119 322.065 212.578 322.434 213.421C322.796 214.245 322.228 215.516 321.688 216.437C321.179 217.195 320.433 217.917 319.516 218.516C318.066 219.441 316.465 220.23 314.775 220.852C313.29 221.376 310.605 221.874 306.812 222.332C302.985 222.76 298.71 223.405 294.121 224.26C289.403 225.154 284.25 228.003 278.798 232.725C273.14 237.532 270.498 243.521 270.948 250.524C271.384 257.221 272.755 262.662 275.021 266.703C277.31 270.679 280.617 274.018 284.86 276.633C289.108 279.253 293.748 280.683 298.644 280.877C299.165 280.901 299.682 280.908 300.187 280.908Z" fill="black"/>
</g>
<defs>
<clipPath id="clip0_2993_946">
<rect width="378" height="400" fill="white" transform="matrix(-1 0 0 1 378 0)"/>
</clipPath>
</defs>
</svg>
