<svg width="146" height="200" viewBox="0 0 146 200" fill="none" xmlns="http://www.w3.org/2000/svg">
<g clip-path="url(#clip0_2993_1094)">
<path d="M10.873 11.3359V188.72H135.07V11.3359H10.873Z" fill="#E5E5E5"/>
<path d="M144.766 1.20703L128.222 17.7945V182.159L144.766 198.794V1.20703ZM17.6729 17.797L1.17676 1.20954V198.797L17.6729 182.162V17.797Z" fill="#B37C38"/>
<path d="M17.6729 182.159L1.17676 198.794H144.766L128.222 182.159H17.6729ZM1.17926 1.20703L17.6754 17.7945H128.224L144.768 1.20703H1.17926Z" fill="#D6933F"/>
<path d="M1.20326 199.992C1.17195 199.992 1.14064 199.992 1.10933 199.989C0.871382 199.97 0.652215 199.883 0.47062 199.745C0.408001 199.695 0.348513 199.642 0.295286 199.579C0.113691 199.369 0.00410752 199.1 0.000976562 198.803C0.000976562 198.8 0.000976562 198.8 0.000976562 198.797C0.000976562 198.797 0.000976562 198.797 0.000976562 198.794V198.79V1.21062C0.000976562 1.18245 0.000976562 1.15428 0.00410752 1.1261C0.0197623 0.881947 0.107429 0.656571 0.248322 0.475018C0.301548 0.409283 0.357905 0.346679 0.420525 0.293465C0.627168 0.108782 0.89643 -0.000776026 1.19074 -0.00390625C1.19387 -0.00390625 1.19387 -0.00390625 1.197 -0.00390625C1.197 -0.00390625 1.197 -0.00390625 1.20013 -0.00390625H1.20326H144.792H144.795C144.795 -0.00390625 144.795 -0.00390625 144.798 -0.00390625C145.093 -0.000776026 145.362 0.105652 145.572 0.284074C145.637 0.340418 145.697 0.403023 145.747 0.471888C145.885 0.653441 145.972 0.872556 145.988 1.11358C145.991 1.14489 145.991 1.17619 145.991 1.20749V198.787V198.79C145.991 198.79 145.991 198.79 145.991 198.794C145.988 199.094 145.875 199.369 145.691 199.579C145.64 199.636 145.584 199.689 145.525 199.736C145.343 199.877 145.121 199.967 144.877 199.986C144.842 199.989 144.811 199.989 144.779 199.989H1.21266C1.20953 199.992 1.20953 199.992 1.20326 199.992ZM4.0994 197.582H141.893L127.747 183.358H18.2043L4.0994 197.582ZM129.453 181.656L143.587 195.867V4.1186L129.453 18.2891V181.656ZM2.41181 4.12173V195.857L16.4948 181.652V18.286L2.41181 4.12173ZM18.9057 180.945H127.043V18.9934H18.9057V180.945ZM18.2012 16.5832H127.747L141.886 2.40637H4.10253L18.2012 16.5832Z" fill="black"/>
<path d="M26.4043 25.8477V174.201H119.493V25.8477H26.4043Z" fill="white"/>
<path d="M119.519 175.401H26.429C25.7622 175.401 25.2236 174.862 25.2236 174.196V25.8419C25.2236 25.1751 25.7622 24.6367 26.429 24.6367H119.515C120.182 24.6367 120.721 25.1751 120.721 25.8419V174.196C120.724 174.862 120.185 175.401 119.519 175.401ZM27.6345 172.991H118.31V27.047H27.6345V172.991Z" fill="black"/>
<path d="M74.5519 93.6433C75.7667 90.3128 75.7135 86.8351 74.3953 83.2134C73.0772 79.5917 70.8824 76.884 67.8046 75.0936C64.7332 73.3187 61.6899 72.9807 58.6747 74.0794C55.6565 75.1749 53.5431 77.388 52.3283 80.7217C51.1197 84.0711 51.1761 87.555 52.4942 91.1798C53.8124 94.8046 56.004 97.4998 59.0755 99.2746C62.1532 101.065 65.1997 101.413 68.2148 100.317C71.233 99.2151 73.3433 96.9927 74.5519 93.6433Z" fill="#527A1E"/>
<path d="M100.99 78.8761C101.046 74.9069 99.9064 71.5638 97.5707 68.8468C95.2162 66.1673 92.0508 64.6116 88.0807 64.1733C84.0919 63.7351 80.4819 64.5521 77.2507 66.6243C74.0008 68.7341 71.7402 71.5826 70.469 75.173C67.5823 83.5495 66.4113 91.7194 66.9624 99.6765L95.6639 102.81C99.0829 94.9842 100.858 87.0053 100.99 78.8761Z" fill="#6AA02F"/>
<path d="M57.065 140.209C57.3499 142.04 58.3925 142.954 60.1928 142.954H89.6333C91.4336 142.954 92.4543 142.053 92.6953 140.253L97.5483 103.379H51.4668L57.065 140.209Z" fill="#A8664C"/>
<path d="M101.055 101.003C101.055 99.0649 100.088 98.0977 98.1498 98.0977H51.4358C49.4977 98.0977 48.5303 99.0649 48.5303 101.003V103.957C48.5303 105.895 49.4977 106.862 51.4358 106.862H98.1498C100.088 106.862 101.055 105.895 101.055 103.957V101.003Z" fill="#D18C6C"/>
<path d="M59.307 72.952C60.2306 70.4228 60.1899 67.7809 59.1912 65.0294C58.1893 62.2779 56.5205 60.2214 54.1848 58.8597C51.8522 57.5106 49.5415 57.2539 47.2497 58.0865C44.9578 58.9192 43.3516 60.6001 42.428 63.1293C41.5106 65.6742 41.5513 68.3224 42.5532 71.0739C43.5551 73.8253 45.2208 75.8757 47.5534 77.2248C49.8891 78.5864 52.206 78.8494 54.4979 78.0167C56.7897 77.1841 58.3896 75.4938 59.307 72.952Z" fill="#527A1E"/>
<path d="M62.6862 97.037C62.4577 97.037 62.2322 96.9275 62.0945 96.7209L60.8703 94.896C60.6511 94.5704 60.7388 94.1259 61.0644 93.9068C61.39 93.6877 61.8346 93.7753 62.0538 94.1009L63.278 95.9258C63.4971 96.2514 63.4095 96.6958 63.0839 96.915C62.9618 96.9963 62.824 97.037 62.6862 97.037ZM85.6017 94.6988C85.2072 94.6988 84.8878 94.3795 84.8878 93.9851V91.5623C84.8878 91.1679 85.2072 90.8486 85.6017 90.8486C85.9962 90.8486 86.3156 91.1679 86.3156 91.5623V93.9851C86.3156 94.3795 85.9962 94.6988 85.6017 94.6988ZM74.4586 94.5297C74.2676 94.5297 74.0798 94.4546 73.9389 94.3044C73.6696 94.0164 73.6853 93.5656 73.9733 93.2964L76.1963 91.2148C76.4844 90.9488 76.9352 90.9613 77.2045 91.2493C77.4737 91.5372 77.4581 91.988 77.17 92.2572L74.9471 94.3388C74.8062 94.464 74.6308 94.5297 74.4586 94.5297ZM56.274 92.276C56.2051 92.276 56.1331 92.2666 56.0643 92.2447L53.5845 91.4746C53.2088 91.3588 52.999 90.9581 53.1149 90.5825C53.2307 90.2069 53.6284 89.9972 54.0072 90.113L56.4869 90.883C56.8626 90.9988 57.0724 91.3995 56.9566 91.7751C56.8595 92.0819 56.5777 92.276 56.274 92.276ZM97.5995 91.3651C97.4774 91.3651 97.3522 91.3338 97.2395 91.2649L95.0165 89.9533C94.6783 89.753 94.5656 89.3179 94.766 88.9767C94.9664 88.6386 95.4016 88.526 95.7429 88.7263L97.9658 90.0379C98.304 90.2382 98.4167 90.6733 98.2163 91.0145C98.0817 91.2399 97.8437 91.3651 97.5995 91.3651ZM72.0634 89.8845C71.8599 89.8845 71.6564 89.7968 71.5155 89.6278L69.806 87.5775C69.5555 87.2739 69.5962 86.8262 69.8968 86.5727C70.2005 86.3223 70.6483 86.363 70.9019 86.6635L72.6114 88.7138C72.8618 89.0174 72.8211 89.465 72.5206 89.7186C72.3859 89.8313 72.2263 89.8845 72.0634 89.8845ZM87.5116 86.9765C87.3081 86.9765 87.1046 86.8888 86.9637 86.7198C86.7132 86.4193 86.7539 85.9686 87.0545 85.715L89.1052 84.0059C89.4058 83.7555 89.8567 83.7931 90.1103 84.0967C90.3608 84.3972 90.32 84.8479 90.0195 85.1015L87.9687 86.8106C87.8341 86.9233 87.6713 86.9765 87.5116 86.9765ZM78.3629 86.2941C77.9684 86.2941 77.6491 85.9748 77.6491 85.5804V82.6443C77.6491 82.2499 77.9684 81.9306 78.3629 81.9306C78.7574 81.9306 79.0768 82.2499 79.0768 82.6443V85.5804C79.0737 85.9748 78.7574 86.2941 78.3629 86.2941ZM59.6085 85.0107C59.214 85.0107 58.8946 84.6914 58.8946 84.297V82.1872C58.8946 81.7928 59.214 81.4736 59.6085 81.4736C60.003 81.4736 60.3224 81.7928 60.3224 82.1872V84.297C60.3224 84.6914 60.003 85.0107 59.6085 85.0107ZM53.1118 84.3847C53.0366 84.3847 52.9552 84.3721 52.8801 84.3471L50.1436 83.408C49.771 83.2797 49.5738 82.8759 49.7021 82.5034C49.8274 82.1309 50.2344 81.9337 50.607 82.062L53.3435 83.0011C53.716 83.1294 53.9133 83.5332 53.7849 83.9057C53.6847 84.2 53.4061 84.3847 53.1118 84.3847ZM97.6277 81.6488H95.2043C94.8098 81.6488 94.4905 81.3296 94.4905 80.9352C94.4905 80.5407 94.8098 80.2215 95.2043 80.2215H97.6277C98.0222 80.2215 98.3416 80.5407 98.3416 80.9352C98.3416 81.3296 98.0222 81.6488 97.6277 81.6488ZM83.3787 78.913C82.9842 78.913 82.6649 78.5937 82.6649 78.1993V75.4635C82.6649 75.0691 82.9842 74.7498 83.3787 74.7498C83.7732 74.7498 84.0926 75.0691 84.0926 75.4635V78.1993C84.0926 78.5969 83.7732 78.913 83.3787 78.913ZM54.6772 77.1194C54.2827 77.1194 53.9634 76.8001 53.9634 76.4057V74.8093C53.9634 74.4149 54.2827 74.0956 54.6772 74.0956C55.0717 74.0956 55.3911 74.4149 55.3911 74.8093V76.4057C55.3911 76.8001 55.0717 77.1194 54.6772 77.1194ZM63.8259 76.5779C63.7194 76.5779 63.6099 76.5528 63.5065 76.5028C63.1559 76.3275 63.0118 75.8986 63.1872 75.548L64.1546 73.6104C64.33 73.2598 64.7589 73.1159 65.1096 73.2911C65.4603 73.4664 65.6043 73.8953 65.4289 74.2459L64.4615 76.1835C64.3394 76.4339 64.0889 76.5779 63.8259 76.5779ZM75.3134 76.5215C75.1662 76.5215 75.0159 76.4746 74.8876 76.3807L72.3233 74.4712C72.0071 74.2365 71.9413 73.7888 72.1762 73.4758C72.411 73.1628 72.8587 73.0939 73.1718 73.3287L75.7361 75.2381C76.0523 75.4729 76.118 75.9205 75.8832 76.2336C75.7454 76.4214 75.5294 76.5215 75.3134 76.5215ZM96.917 73.9266C96.6415 73.9266 96.3816 73.7669 96.2657 73.5009C96.1061 73.1409 96.272 72.7214 96.6289 72.5618L99.0241 71.5069C99.3873 71.3473 99.8037 71.5132 99.9634 71.87C100.123 72.23 99.9571 72.6494 99.6002 72.8091L97.205 73.8671C97.1111 73.9078 97.0109 73.9266 96.917 73.9266ZM48.9789 73.2442C48.8349 73.2442 48.6877 73.2004 48.5593 73.1096C48.24 72.878 48.1711 72.4335 48.4028 72.1142L49.6865 70.3487C49.9182 70.0294 50.3628 69.9575 50.6821 70.1922C51.0015 70.4239 51.0704 70.8683 50.8387 71.1876L49.555 72.9531C49.4141 73.1409 49.1981 73.2442 48.9789 73.2442ZM57.755 72.1048C57.5577 72.1048 57.3605 72.0234 57.2196 71.8606L55.9954 70.4646C55.7355 70.1703 55.7668 69.7196 56.0611 69.4597C56.3554 69.2031 56.8063 69.2281 57.0662 69.5255L58.2904 70.9216C58.5502 71.2158 58.5189 71.6666 58.2246 71.9264C58.09 72.0453 57.924 72.1048 57.755 72.1048ZM89.0489 71.7041C88.9143 71.7041 88.7765 71.6666 88.6544 71.5852C88.3256 71.3661 88.238 70.9247 88.4571 70.596L90.5079 67.519C90.7271 67.1903 91.1654 67.1027 91.4973 67.3218C91.826 67.5409 91.9137 67.9823 91.6945 68.311L89.6438 71.388C89.506 71.5946 89.2806 71.7041 89.0489 71.7041ZM45.2718 71.0499H42.8203C42.4258 71.0499 42.1064 70.7306 42.1064 70.3362C42.1064 69.9418 42.4258 69.6225 42.8203 69.6225H45.2718C45.6663 69.6225 45.9857 69.9418 45.9857 70.3362C45.9857 70.7306 45.6663 71.0499 45.2718 71.0499ZM77.5364 69.3126C77.2577 69.3126 76.9916 69.1467 76.8789 68.8744L75.2257 64.9147C75.0754 64.5515 75.2445 64.1352 75.6077 63.9818C75.9709 63.8316 76.3873 64.0006 76.5407 64.3637L78.1939 68.3235C78.3441 68.6866 78.1751 69.1029 77.8119 69.2563C77.7211 69.2938 77.6272 69.3126 77.5364 69.3126ZM55.1344 67.0902C54.9653 67.0902 54.7931 67.0307 54.6585 66.9086C54.3673 66.6457 54.3422 66.1949 54.6052 65.9007L56.1738 64.1634C56.4368 63.8692 56.8877 63.8473 57.182 64.1102C57.4732 64.3731 57.4982 64.8239 57.2352 65.1181L55.6666 66.8554C55.5226 67.0088 55.3285 67.0902 55.1344 67.0902ZM48.3809 66.918C48.2901 66.918 48.1962 66.8992 48.1054 66.8617L46.0546 66.0071C45.6914 65.8569 45.5192 65.4374 45.6726 65.0743C45.8229 64.7112 46.2424 64.539 46.6056 64.6924L48.6564 65.547C49.0196 65.6972 49.1918 66.1167 49.0384 66.4798C48.9225 66.7521 48.6595 66.918 48.3809 66.918ZM84.7469 65.3498C84.3524 65.3498 84.0331 65.0305 84.0331 64.6361V61.0457C84.0331 60.6513 84.3524 60.332 84.7469 60.332C85.1414 60.332 85.4608 60.6513 85.4608 61.0457V64.6361C85.4608 65.0336 85.1414 65.3498 84.7469 65.3498ZM53.1118 61.7594C52.7173 61.7594 52.3979 61.4401 52.3979 61.0457V59.0236C52.3979 58.6292 52.7173 58.3099 53.1118 58.3099C53.5063 58.3099 53.8256 58.6292 53.8256 59.0236V61.0457C53.8225 61.4432 53.5063 61.7594 53.1118 61.7594ZM47.213 61.1333C46.972 61.1333 46.734 61.0081 46.5994 60.7859L45.0308 58.1628C44.8304 57.8247 44.94 57.3865 45.275 57.1861C45.6131 56.9858 46.0514 57.0954 46.2518 57.4303L47.8204 60.0534C48.0208 60.3915 47.9112 60.8297 47.5762 61.03C47.4635 61.102 47.3383 61.1333 47.213 61.1333Z" fill="#316640"/>
</g>
<defs>
<clipPath id="clip0_2993_1094">
<rect width="146" height="200" fill="white"/>
</clipPath>
</defs>
</svg>
