<svg width="179" height="180" viewBox="0 0 179 180" fill="none" xmlns="http://www.w3.org/2000/svg">
<g clip-path="url(#clip0_2993_909)">
<path d="M13.3301 13.9023V166.167H165.599V13.9023H13.3301Z" fill="#E5E5E5"/>
<path d="M177.486 1.48438L157.203 21.8252V158.125L177.486 178.524V1.48438ZM21.6671 21.8283L1.44238 1.48745V178.53L21.6671 158.131V21.8283Z" fill="#B37C38"/>
<path d="M21.6671 158.128L1.44238 178.527H177.486L157.203 158.128H21.6671ZM1.44546 1.48438L21.6702 21.8252H157.206L177.489 1.48438H1.44546Z" fill="#D6933F"/>
<path d="M1.47501 179.999C1.43663 179.999 1.39824 179.999 1.35985 179.996C1.06812 179.973 0.799413 179.865 0.576772 179.696C0.499999 179.635 0.427065 179.57 0.361808 179.493C0.139167 179.236 0.0048152 178.905 0.000976562 178.541C0.000976562 178.537 0.000976562 178.537 0.000976562 178.533C0.000976562 178.533 0.000976562 178.533 0.000976562 178.529V178.525V1.48934C0.000976562 1.4548 0.000976562 1.42025 0.0048152 1.3857C0.0240084 1.0863 0.13149 0.809926 0.304229 0.587293C0.365647 0.499007 0.438581 0.422237 0.515354 0.356982C0.768704 0.138187 1.09883 0.00383851 1.45966 0C1.4635 0 1.4635 0 1.46734 0C1.46734 0 1.46734 0 1.47117 0H1.47501H177.519H177.523C177.523 0 177.523 0 177.526 0C177.887 0.00383851 178.217 0.134348 178.475 0.353143C178.555 0.422237 178.628 0.499007 178.689 0.583454C178.858 0.806088 178.966 1.07478 178.985 1.37035C178.989 1.40873 178.989 1.44712 178.989 1.4855V178.518V178.522C178.989 178.522 178.989 178.522 178.989 178.525C178.985 178.894 178.847 179.232 178.62 179.489C178.559 179.558 178.49 179.623 178.417 179.681C178.194 179.854 177.922 179.965 177.622 179.988C177.58 179.992 177.542 179.992 177.503 179.992H1.48653C1.48269 179.999 1.48269 179.999 1.47501 179.999ZM5.02191 177.044H173.96L156.617 159.602H22.315L5.02191 177.044ZM158.713 157.51L176.041 174.936V5.05532L158.713 22.4323V157.51ZM2.95673 5.063V174.929L20.2229 157.51V22.4284L2.95673 5.063ZM23.1787 156.642H155.757V23.2998H23.1787V156.642ZM22.315 20.3441H156.621L173.956 2.95949H5.02959L22.315 20.3441Z" fill="black"/>
<path d="M32.3721 31.7031V148.371H146.501V31.7031H32.3721Z" fill="white"/>
<path d="M146.533 149.842H32.4027C31.585 149.842 30.9248 149.182 30.9248 148.364V31.6966C30.9248 30.879 31.585 30.2188 32.4027 30.2188H146.529C147.347 30.2188 148.007 30.879 148.007 31.6966V148.364C148.011 149.182 147.351 149.842 146.533 149.842ZM33.8806 146.887H145.051V33.1744H33.8806V146.887Z" fill="black"/>
<path d="M69.5396 117.18C70.8001 119.383 72.7716 121.257 75.4516 122.805C78.1328 124.352 80.7333 125.127 83.2554 125.127C85.7925 125.094 87.5166 124.296 88.4253 122.733C89.319 121.169 89.135 119.293 87.8746 117.108C86.6465 114.891 84.6912 113.007 82.0099 111.459C79.3286 109.911 76.712 109.145 74.1588 109.16C71.6379 109.177 69.93 109.966 69.0362 111.53C68.1275 113.094 68.2953 114.978 69.5396 117.18Z" fill="#2FBD2E"/>
<path d="M108.078 117.18C106.817 119.383 104.846 121.257 102.166 122.805C99.4844 124.352 96.8839 125.127 94.3618 125.127C91.8247 125.094 90.1006 124.296 89.1919 122.733C88.2982 121.169 88.4821 119.293 89.7426 117.108C90.972 114.891 92.926 113.007 95.6073 111.459C98.2885 109.911 100.905 109.145 103.458 109.16C105.979 109.177 107.687 109.966 108.581 111.53C109.49 113.094 109.322 114.978 108.078 117.18Z" fill="#2FBD2E"/>
<path d="M88.7294 86.4727H88.5727C88.0511 86.4727 87.6025 86.6456 87.2188 86.9942C86.8729 87.3752 86.6973 87.8265 86.6973 88.348V130.027C86.6973 130.549 86.8702 130.998 87.2188 131.381C87.5998 131.762 88.0511 131.954 88.5727 131.954H88.7294C89.251 131.954 89.6996 131.762 90.0833 131.381C90.4643 131 90.6562 130.549 90.6562 130.027V88.348C90.6562 87.8265 90.4643 87.3779 90.0833 86.9942C89.7023 86.6483 89.251 86.4727 88.7294 86.4727Z" fill="#2FBD2E"/>
<path d="M72.9663 55.7C71.6574 55.9076 70.3336 56.5378 68.9923 57.5907C68.147 58.2445 66.7424 59.9039 64.7796 62.5689C63.232 64.8349 61.9952 67.2998 61.0691 69.9648C59.6483 74.0021 59.1063 78.0556 59.442 82.1239C59.5862 84.0394 59.9367 85.8741 60.4948 87.6292C61.8833 92.017 64.2613 95.5845 67.6274 98.329C72.7339 102.222 78.4942 104.401 84.9095 104.864C91.1496 105.391 97.1486 104.504 102.91 102.207C105.176 101.297 107.195 100.005 108.966 98.329C110.322 97.0525 111.552 95.5758 112.653 93.9014C114.84 90.518 116.068 86.8722 116.34 82.963C116.611 79.0537 116.364 75.3272 115.598 71.7846C114.832 68.2259 113.723 65.1941 112.27 62.6895C110.802 60.1836 109.573 58.5242 108.583 57.7112C107.594 56.8971 106.485 56.339 105.256 56.0357C104.028 55.7324 102.887 55.7647 101.832 56.1314C100.78 56.4819 99.7577 57.0413 98.7683 57.8069C97.7627 58.5565 96.8527 59.3383 96.0398 60.1525C95.3859 59.035 94.9546 58.334 94.747 58.0456C93.0552 55.7796 91.1969 54.5105 89.1695 54.2395C87.7971 54.0481 86.5603 54.288 85.459 54.958C84.3415 55.628 83.4005 56.4098 82.6348 57.3035C81.869 58.1649 81.1182 59.1867 80.3848 60.3675C79.5868 58.7243 78.8049 57.623 78.0392 57.0649C76.3971 55.9312 74.7066 55.4763 72.9663 55.7Z" fill="#FF7C7C"/>
</g>
<defs>
<clipPath id="clip0_2993_909">
<rect width="179" height="180" fill="white"/>
</clipPath>
</defs>
</svg>
