<svg width="175" height="200" viewBox="0 0 175 200" fill="none" xmlns="http://www.w3.org/2000/svg">
<g clip-path="url(#clip0_2628_2051)">
<path d="M111.242 88.1133L103.764 2.35553L117.833 1.12883L125.311 86.8866L111.242 88.1133Z" fill="#DD9C62"/>
<path d="M111.196 89.2968C110.601 89.2968 110.098 88.8444 110.047 88.2395L102.569 2.48654C102.514 1.85115 102.986 1.28691 103.622 1.231L117.692 0.00590331C117.997 -0.0195135 118.302 0.0770678 118.536 0.270227C118.769 0.46847 118.917 0.74804 118.942 1.05303L126.42 86.806C126.476 87.4414 126.003 88.0057 125.368 88.0616C124.722 88.1175 124.168 87.6448 124.112 87.0094L116.736 2.41024L104.969 3.43708L112.345 88.0362C112.401 88.6716 111.928 89.2358 111.292 89.2917C111.267 89.2968 111.231 89.2968 111.196 89.2968Z" fill="black"/>
<path d="M63.3081 88.1758L70.7858 2.41802L56.7175 1.19132L49.2398 86.9491L63.3081 88.1758Z" fill="#DD9C62"/>
<path d="M63.3049 89.3813C63.2694 89.3813 63.2389 89.3813 63.2033 89.3762C62.5679 89.3203 62.0951 88.7611 62.1511 88.1206L69.527 3.5215L57.7595 2.49467L50.3886 87.0989C50.3327 87.7343 49.7837 88.2121 49.1331 88.1511C48.4977 88.0952 48.0249 87.536 48.0809 86.8955L55.5585 1.14253C55.5839 0.837545 55.7313 0.552883 55.9651 0.359724C56.199 0.161481 56.4989 0.0649075 56.8089 0.0954075L70.8792 1.32049C71.5145 1.37641 71.9873 1.93556 71.9314 2.57604L64.4588 88.324C64.4029 88.9289 63.8997 89.3813 63.3049 89.3813Z" fill="black"/>
<path d="M56.4994 114.142L42.667 111.277L25.1211 195.996L38.948 198.86L56.4994 114.142Z" fill="#DD9C62"/>
<path d="M38.9155 199.961C38.8393 199.961 38.758 199.951 38.6817 199.936L24.8503 197.074C24.3064 196.962 23.9302 196.479 23.9302 195.945C23.9302 195.869 23.9353 195.788 23.9556 195.706L41.5029 110.99C41.6299 110.364 42.245 109.963 42.8702 110.09C43.4955 110.217 43.897 110.832 43.77 111.457L26.4515 195.046L38.0158 197.44L55.3241 113.851C55.4512 113.226 56.0663 112.82 56.6915 112.952C57.3167 113.079 57.7183 113.694 57.5912 114.319L40.044 199.036C39.9322 199.585 39.4493 199.961 38.9155 199.961Z" fill="black"/>
<path d="M117.658 114.143L131.485 111.279L149.031 195.998L135.204 198.862L117.658 114.143Z" fill="#DD9C62"/>
<path d="M135.207 199.998C134.668 199.998 134.19 199.622 134.073 199.078L116.531 114.356C116.399 113.731 116.806 113.121 117.431 112.989C118.051 112.856 118.666 113.258 118.798 113.888L136.112 197.477L147.676 195.083L130.358 111.494C130.225 110.869 130.632 110.259 131.257 110.127C131.878 109.995 132.493 110.396 132.625 111.026L150.172 195.743C150.187 195.825 150.197 195.901 150.197 195.982C150.197 196.521 149.821 196.999 149.277 197.111L135.451 199.973C135.365 199.993 135.288 199.998 135.207 199.998Z" fill="black"/>
<path d="M81.728 112.719V198.805H95.8502V112.719H81.728Z" fill="#DD9C62"/>
<path d="M95.841 199.902H81.72C81.0795 199.902 80.561 199.383 80.561 198.743V112.665C80.561 112.024 81.0795 111.506 81.72 111.506C82.3605 111.506 82.879 112.024 82.879 112.665V197.589H94.6871V112.665C94.6871 112.024 95.2056 111.506 95.8461 111.506C96.4866 111.506 97.0051 112.024 97.0051 112.665V198.748C97 199.389 96.4815 199.902 95.841 199.902Z" fill="black"/>
<path d="M7.82861 17.5352V131.424H167.271V17.5352H7.82861Z" fill="white"/>
<path d="M167.237 132.528H7.79372C7.15325 132.528 6.63477 132.01 6.63477 131.369V17.4812C6.63477 16.8407 7.15325 16.3223 7.79372 16.3223H167.232C167.873 16.3223 168.391 16.8407 168.391 17.4812V131.369C168.391 132.01 167.878 132.528 167.237 132.528ZM8.95268 130.21H166.078V18.6402H8.95268V130.21Z" fill="black"/>
<path d="M1.2041 126.08V140.202H173.818V126.08H1.2041Z" fill="#DD9C62"/>
<path d="M173.769 141.314H1.15505C0.514575 141.314 -0.00390625 140.795 -0.00390625 140.155V126.034C-0.00390625 125.393 0.514575 124.875 1.15505 124.875H173.764C174.404 124.875 174.923 125.393 174.923 126.034V140.16C174.923 140.795 174.404 141.314 173.769 141.314ZM2.31401 139.001H172.61V127.188H2.31401V139.001Z" fill="black"/>
</g>
<defs>
<clipPath id="clip0_2628_2051">
<rect width="174.924" height="200" fill="white"/>
</clipPath>
</defs>
</svg>
