<svg width="440" height="440" viewBox="0 0 440 440" fill="none" xmlns="http://www.w3.org/2000/svg">
<g clip-path="url(#clip0_2628_1970)">
<path d="M95.9545 81.059C90.8377 79.0425 85.1506 78.9338 78.8829 80.7222C72.589 82.2938 68.324 86.6051 66.0734 93.6571C63.8087 100.593 64.4039 107.302 67.8527 113.779C71.4308 120.198 80.8705 129.834 96.168 142.681C111.635 155.38 127.593 167.187 144.057 178.099C148.121 180.712 151.844 183.032 155.239 185.065C165.289 191.213 171.904 194.405 175.082 194.646C179.297 194.925 182.796 194.384 185.569 193.028C188.349 191.674 191.056 189.466 193.697 186.4C196.321 183.224 198.491 179.869 200.198 176.338C201.765 172.587 202.188 168.358 201.454 163.645C200.843 159.352 199.818 155.646 198.382 152.528C196.979 149.471 194.954 146.891 192.304 144.78C189.694 142.582 184.576 139.23 176.954 134.734C169.316 130.128 152.192 118.398 125.57 99.5412C126.333 96.7532 126.515 93.7632 126.103 90.5603C125.831 88.4784 125.131 86.7166 124.014 85.2654C122.531 83.4563 120.914 82.4473 119.17 82.2347C117.822 82.1299 116.586 82.4134 115.447 83.0862C114.375 83.8882 113.488 84.8457 112.794 85.9551C112.29 86.7124 111.856 87.7181 111.505 88.9625C111.396 88.8161 111.254 88.6778 111.079 88.5537C106.311 85.4912 101.266 82.9941 95.9545 81.059Z" fill="#00D373"/>
<path d="M154.375 186.667C154.108 186.663 153.847 186.587 153.597 186.441C150.288 184.435 146.59 182.1 142.602 179.507C126.5 168.684 110.689 156.815 95.602 144.22C80.3459 131.187 71.1861 121.631 67.5808 114.992C64.0377 108.159 63.4633 100.992 65.8473 93.6653C68.2477 86.1316 72.8567 81.4215 79.5397 79.6886C85.9599 77.7763 91.9413 77.8734 97.2626 79.9825C102.104 81.7532 106.803 84.0468 111.223 86.8026C111.462 86.2489 111.722 85.7604 112.015 85.3243C112.771 84.0982 113.77 82.9927 114.973 82.0786C115.012 82.0468 115.057 82.0216 115.102 81.99C116.489 81.1566 118.019 80.7924 119.647 80.9096C121.844 81.1657 123.794 82.3708 125.498 84.4991C126.779 86.1991 127.557 88.2281 127.846 90.5733C128.202 93.5679 128.082 96.4317 127.477 99.1125C152.883 117.367 169.47 128.885 176.798 133.367C177.52 133.807 177.762 134.738 177.343 135.444C176.924 136.151 175.997 136.362 175.274 135.923C167.795 131.354 150.847 119.577 124.895 100.925C124.368 100.547 124.124 99.8816 124.298 99.2684C125.014 96.6737 125.193 93.8368 124.837 90.8487C124.615 89.0556 124.039 87.5227 123.117 86.3018C121.957 84.8566 120.748 84.0655 119.444 83.9147C118.532 83.848 117.631 84.0538 116.786 84.5458C115.898 85.2316 115.155 86.056 114.577 86.9932C114.131 87.6667 113.761 88.5489 113.445 89.646C113.29 90.1946 112.828 90.602 112.256 90.6835C111.685 90.765 111.109 90.5158 110.77 90.0435C106.217 87.091 101.333 84.6518 96.25 82.7929C91.5439 80.9271 86.2333 80.8669 80.4286 82.5946C74.6466 84.0958 70.8332 88.0407 68.7187 94.6714C66.5588 101.308 67.0539 107.514 70.2354 113.654C73.5932 119.835 82.7721 129.365 97.5075 141.949C112.496 154.465 128.215 166.267 144.212 177.017C148.147 179.583 151.812 181.899 155.095 183.884C155.818 184.324 156.065 185.249 155.647 185.962C155.387 186.424 154.889 186.676 154.375 186.667Z" fill="black"/>
<path d="M318.562 286.708C313.972 286.086 308.975 286.93 303.584 289.242C298.168 291.654 294.698 296.919 293.173 305.038C291.634 313.212 292.088 320.571 294.532 327.12C296.846 333.74 298.86 338.246 300.571 340.651C302.148 343.172 304.704 347.028 308.242 352.233C309.069 353.451 309.949 354.657 310.884 355.859C317.497 364.47 326.979 373.478 339.339 382.878C326.987 373.474 317.505 364.466 310.884 355.859C316.921 363.993 323.823 371.133 331.608 377.271C326.779 381.817 323.126 386.977 320.628 392.752C316.087 402.977 316.332 412.118 321.361 420.181C326.41 428.143 334.767 432.655 346.432 433.723C358.115 434.696 369.728 431.934 381.255 425.445C392.697 418.879 400.711 410.493 405.298 400.281C409.812 389.942 409.541 380.793 404.493 372.832C399.457 364.82 391.119 360.313 379.5 359.311C377.652 359.15 375.784 359.064 373.899 359.047C360.461 353.071 349.856 343.9 342.089 331.541C335.516 321.073 330.989 308.392 328.507 293.483C326.962 289.571 323.651 287.316 318.562 286.708Z" fill="#00D373"/>
<path d="M348.949 435.364C347.883 435.349 346.811 435.301 345.745 435.22C333.955 434.226 325.407 429.492 320.334 421.151C315.279 412.7 315.106 402.989 319.799 392.275C322.185 386.683 325.635 381.57 330.061 377.058C322.109 370.149 315.679 363.405 310.895 356.933C309.984 355.72 309.111 354.481 308.31 353.244C304.946 348.103 302.481 344.22 300.975 341.708C299.248 339.166 297.315 334.633 295.08 327.859C294.817 327.06 295.242 326.212 296.031 325.969C296.821 325.72 297.677 326.176 297.941 326.975C300.06 333.402 301.921 337.81 303.462 340.069C303.476 340.082 303.482 340.102 303.495 340.115C303.509 340.135 303.522 340.154 303.529 340.174C305.008 342.647 307.459 346.503 310.81 351.631C310.81 351.631 310.81 351.638 310.817 351.638C311.585 352.816 312.411 353.995 313.283 355.155C313.283 355.162 313.29 355.162 313.296 355.168C319.513 363.572 328.614 372.486 340.349 381.655C341.012 382.173 341.147 383.127 340.649 383.784C340.144 384.436 339.203 384.546 338.534 384.027C336.409 382.36 334.361 380.707 332.399 379.055C328.152 383.341 324.848 388.215 322.569 393.547C318.217 403.465 318.329 412.001 322.9 419.637C327.482 427.169 335.01 431.282 345.895 432.204C356.871 433.035 367.969 430.192 378.906 423.767C389.751 417.276 397.494 408.933 401.911 398.983C406.223 388.98 406.097 380.444 401.502 372.906C396.925 365.315 389.424 361.209 378.578 360.347C376.836 360.21 375.048 360.139 373.262 360.145C373.022 360.135 372.833 360.1 372.63 360.005C359.409 354.043 348.879 344.67 341.331 332.14C334.977 321.596 330.6 308.617 328.328 293.57C328.201 292.74 328.769 291.985 329.593 291.88C330.417 291.768 331.19 292.366 331.311 293.196C333.527 307.839 337.762 320.431 343.904 330.626C351.061 342.498 361.019 351.413 373.51 357.111C375.271 357.117 377.019 357.188 378.735 357.324C390.485 358.258 399.008 362.986 404.068 371.378C409.141 379.713 409.346 389.436 404.674 400.262C400.005 410.782 391.871 419.569 380.491 426.385C370.083 432.505 359.487 435.518 348.949 435.364Z" fill="black"/>
<path d="M246.027 351.846C247.103 338.669 248.607 325.009 250.548 310.855C237.513 297.783 224.484 296.352 211.449 306.562C209.251 318.46 207.925 331.565 207.463 345.864C206.902 360.216 207.515 372.754 209.304 383.479C200.156 385.213 192.975 387.95 187.761 391.677C178.356 398.213 173.426 405.672 172.964 414.049C172.555 422.372 176.488 428.401 184.771 432.127C193.101 435.755 203.529 437.694 216.049 437.951C228.57 438.208 239.46 436.83 248.706 433.816C257.907 430.749 262.837 424.595 263.504 415.355C264.269 406.062 260.461 398.167 252.079 391.683C250.752 390.661 249.373 389.718 247.941 388.847C245.545 377.364 244.905 365.024 246.027 351.846Z" fill="#00D373"/>
<path d="M218.913 439.528C217.956 439.528 216.999 439.521 216.022 439.502C203.356 439.244 192.638 437.239 184.163 433.553C175.273 429.549 170.996 422.967 171.438 413.99C171.927 405.152 177.121 397.231 186.889 390.438C191.965 386.81 198.914 384.066 207.56 382.279C205.943 371.812 205.396 359.557 205.937 345.819C206.399 331.513 207.745 318.217 209.95 306.299C210.101 305.468 210.907 304.914 211.738 305.072C212.57 305.224 213.124 306.022 212.966 306.859C210.795 318.626 209.461 331.771 209.006 345.931C208.471 359.498 209.012 371.568 210.603 381.844L215.923 381.362C216.794 381.296 217.513 381.91 217.593 382.747C217.672 383.591 217.045 384.337 216.207 384.409L209.534 385.016C200.683 386.705 193.667 389.369 188.671 392.937C179.702 399.177 174.943 406.306 174.514 414.148C174.138 421.839 177.702 427.274 185.417 430.749C193.509 434.271 203.838 436.184 216.101 436.435C228.397 436.692 239.208 435.32 248.256 432.372C256.876 429.503 261.377 423.897 261.998 415.257C262.724 406.419 259.18 399.111 251.167 392.904C249.887 391.922 248.54 390.998 247.167 390.167C246.804 389.95 246.547 389.587 246.461 389.171C244.039 377.583 243.386 364.986 244.521 351.722C245.59 338.584 247.115 324.766 249.055 310.658C249.167 309.821 249.939 309.234 250.784 309.346C251.622 309.458 252.21 310.236 252.098 311.074C250.171 325.129 248.652 338.894 247.583 351.979C246.494 364.702 247.088 376.785 249.339 387.905C250.606 388.703 251.854 389.567 253.048 390.484C261.833 397.284 265.872 405.693 265.067 415.494C264.354 425.354 259.028 432.022 249.227 435.287C240.534 438.103 230.364 439.528 218.913 439.528Z" fill="black"/>
<path d="M241.422 72.4417L271.017 39.5762C273.01 37.3272 275.466 35.8234 278.376 35.0583C281.287 34.2932 284.178 34.3922 287.042 35.3617C289.953 36.2785 292.335 37.9142 294.17 40.2622L321.692 74.6644L365.009 65.6219C367.919 64.9558 370.757 65.1602 373.516 66.2353C376.328 67.3104 378.605 69.0714 380.341 71.5249C382.129 73.9784 383.099 76.709 383.251 79.7231L385.396 123.775L425.643 141.701C428.455 142.928 430.626 144.794 432.158 147.294C433.847 149.794 434.686 152.557 434.686 155.572C434.686 158.638 433.841 161.422 432.158 163.921L408.008 200.771L430.085 239.077C431.57 241.63 432.23 244.413 432.078 247.427C431.927 250.441 430.957 253.146 429.168 255.546C427.379 257.947 425.076 259.708 422.271 260.836L380.948 276.467L376.348 320.288C376.044 323.302 374.942 325.96 373.054 328.255C371.114 330.603 368.711 332.239 365.847 333.156C363.035 334.073 360.151 334.152 357.181 333.387L314.63 321.739L285.115 354.453C283.069 356.748 280.62 358.258 277.756 358.971C274.792 359.736 271.875 359.663 269.017 358.74C266.206 357.823 263.856 356.214 261.962 353.912L234.288 319.358L191.123 328.552C188.16 329.218 185.269 329.014 182.457 327.939C179.699 326.817 177.422 325.03 175.633 322.577C173.897 320.077 172.947 317.34 172.795 314.378L170.723 270.399L130.317 252.394C127.657 251.167 125.486 249.3 123.803 246.801C122.219 244.248 121.4 241.491 121.347 238.523C121.4 235.509 122.245 232.752 123.875 230.246L148.104 193.318L126.027 155.09C124.542 152.538 123.882 149.754 124.034 146.74C124.185 143.726 125.156 140.995 126.944 138.542C128.68 136.141 130.957 134.38 133.769 133.252L175.013 117.621L179.765 73.8004C180.068 70.7862 181.17 68.1546 183.058 65.9121C184.952 63.5114 187.328 61.8493 190.186 60.9325C193.097 60.0619 195.988 60.0157 198.852 60.7808L241.422 72.4417Z" fill="#00D373"/>
<path d="M273.762 361.028C272.007 361.028 270.271 360.751 268.555 360.203C265.466 359.194 262.859 357.407 260.787 354.887C260.78 354.881 260.78 354.874 260.773 354.874L233.687 321.059L191.446 330.055C188.219 330.781 185.005 330.55 181.916 329.376C178.867 328.136 176.352 326.157 174.398 323.486C172.484 320.729 171.435 317.702 171.27 314.464L169.244 271.421L129.703 253.798C126.786 252.453 124.377 250.388 122.542 247.664C120.786 244.835 119.882 241.788 119.829 238.562C119.882 235.218 120.819 232.158 122.608 229.421L146.315 193.278L124.706 155.861C123.083 153.065 122.344 149.971 122.509 146.667C122.674 143.369 123.756 140.329 125.716 137.644C127.611 135.019 130.138 133.067 133.207 131.84L173.6 116.532L178.253 73.6416C178.589 70.3438 179.817 67.4088 181.903 64.9289C183.949 62.3369 186.595 60.4835 189.737 59.4744C192.945 58.5181 196.139 58.4653 199.267 59.3029L240.914 70.7L269.875 38.5337C272.06 36.0735 274.785 34.3983 277.986 33.5541C281.181 32.7164 284.395 32.8286 287.53 33.8904C290.698 34.893 293.351 36.7133 295.378 39.2987L322.306 72.9491L364.698 64.0979C367.873 63.3724 371.041 63.6032 374.077 64.7838C377.152 65.9578 379.687 67.9233 381.594 70.6142C383.541 73.2854 384.617 76.3194 384.789 79.6171L386.887 122.732L426.277 140.276C429.359 141.622 431.781 143.706 433.477 146.469C435.292 149.16 436.23 152.234 436.23 155.545C436.23 158.902 435.292 162.002 433.438 164.752L409.816 200.796L431.425 238.285C433.048 241.082 433.788 244.175 433.623 247.48C433.451 250.79 432.369 253.805 430.408 256.436C428.455 259.055 425.914 261.007 422.845 262.227L382.38 277.535L377.878 320.419C377.542 323.717 376.321 326.678 374.242 329.198C372.117 331.77 369.45 333.577 366.322 334.586C363.246 335.589 360.045 335.681 356.804 334.844L315.145 323.44L286.263 355.455C284.025 357.968 281.293 359.649 278.138 360.434C276.68 360.837 275.214 361.028 273.762 361.028ZM263.163 352.948C264.859 355.006 266.991 356.464 269.505 357.288C272.099 358.119 274.686 358.185 277.386 357.493C279.98 356.846 282.131 355.521 283.986 353.436L313.508 320.716C313.897 320.287 314.498 320.109 315.052 320.261L357.603 331.909C360.289 332.601 362.837 332.535 365.384 331.698C367.958 330.873 370.143 329.383 371.886 327.272C373.595 325.194 374.559 322.86 374.836 320.122L379.436 276.295C379.495 275.722 379.878 275.227 380.419 275.022L421.742 259.391C424.244 258.388 426.343 256.779 427.953 254.622C429.57 252.453 430.428 250.072 430.567 247.341C430.705 244.643 430.105 242.117 428.778 239.835L406.694 201.522C406.404 201.021 406.424 200.401 406.74 199.919L430.89 163.07C432.428 160.788 433.167 158.335 433.167 155.558C433.167 152.834 432.428 150.407 430.903 148.138C429.491 145.829 427.583 144.2 425.042 143.092L384.782 125.159C384.254 124.922 383.904 124.414 383.878 123.833L381.733 79.782C381.594 77.0515 380.736 74.6375 379.113 72.4148C377.529 70.1789 375.529 68.629 372.981 67.6595C370.48 66.6899 367.992 66.5118 365.358 67.112L322.015 76.1611C321.454 76.2798 320.867 76.0687 320.504 75.6202L292.982 41.218C291.312 39.0877 289.226 37.6499 286.586 36.8188C283.999 35.9416 281.379 35.8493 278.778 36.5352C276.138 37.2277 273.98 38.5535 272.172 40.5915L242.57 73.4701C242.181 73.8988 241.58 74.0769 241.026 73.9252L198.475 62.2775C195.915 61.5916 193.281 61.6378 190.654 62.4226C188.094 63.2471 186.001 64.7047 184.292 66.8812C182.556 68.9456 181.592 71.254 181.315 73.978L176.563 117.812C176.504 118.386 176.121 118.874 175.58 119.078L134.329 134.709C131.828 135.712 129.762 137.308 128.205 139.458C126.574 141.687 125.716 144.101 125.578 146.839C125.439 149.576 126.027 152.029 127.366 154.344L149.45 192.578C149.741 193.08 149.721 193.7 149.404 194.188L125.175 231.116C123.71 233.359 122.938 235.871 122.898 238.576C122.944 241.194 123.69 243.713 125.122 246.015C126.614 248.225 128.594 249.926 130.977 251.021L171.362 269.02C171.89 269.258 172.24 269.772 172.267 270.346L174.339 314.325C174.478 316.976 175.342 319.47 176.906 321.719C178.497 323.895 180.569 325.524 183.044 326.533C185.559 327.496 188.107 327.674 190.793 327.068L233.971 317.873C234.538 317.755 235.126 317.959 235.489 318.414L263.163 352.948Z" fill="black"/>
<path d="M299.496 144.682C302.344 149.145 303.461 154.206 302.839 159.877C302.218 165.542 300.043 170.14 296.32 173.665C292.55 177.225 288.307 178.683 283.598 178.041C279.051 177.422 275.327 174.877 272.437 170.409C269.542 165.982 268.403 160.932 269.024 155.267C269.645 149.602 271.843 144.987 275.613 141.427C279.383 137.867 283.541 136.396 288.094 137.017C292.808 137.66 296.605 140.214 299.496 144.682Z" fill="white"/>
<path d="M290 144.084C292.303 147.957 293.183 152.382 292.638 157.347C292.093 162.317 290.283 166.35 287.214 169.457C284.095 172.635 280.724 173.974 277.1 173.482C276.284 173.371 275.498 173.186 274.743 172.923C273.659 171.856 272.657 170.619 271.739 169.212C268.836 164.776 267.694 159.716 268.317 154.039C268.941 148.361 271.146 143.736 274.928 140.168C276.123 139.049 277.361 138.137 278.639 137.432C279.43 137.379 280.232 137.411 281.047 137.522C284.671 138.015 287.655 140.204 290 144.084Z" fill="black"/>
<path d="M285.715 179.736C285.054 179.73 284.386 179.686 283.711 179.595C278.856 178.96 274.857 176.183 271.833 171.33C268.869 166.634 267.72 161.193 268.42 155.164C269.12 149.141 271.47 144.134 275.418 140.294C279.457 136.362 283.977 134.688 288.825 135.323C293.877 135.979 297.974 138.777 301.004 143.623C303.962 148.365 305.111 153.826 304.411 159.848C303.712 165.877 301.362 170.858 297.413 174.666C293.92 178.065 289.991 179.77 285.715 179.736ZM271.441 155.555C270.828 160.871 271.822 165.642 274.402 169.738C276.95 173.828 280.113 176.061 284.064 176.571C288.212 177.115 291.882 175.768 295.284 172.46C298.725 169.146 300.778 164.773 301.397 159.457C302.01 154.135 301.016 149.344 298.436 145.208C295.888 141.125 292.633 138.878 288.485 138.341C284.534 137.824 280.962 139.185 277.56 142.493C274.113 145.84 272.06 150.233 271.441 155.555Z" fill="black"/>
<path d="M255.533 133.038C260.243 133.68 264.045 136.235 266.936 140.703C269.826 145.171 270.964 150.236 270.342 155.906C269.721 161.571 267.53 166.167 263.76 169.685C259.99 173.245 255.747 174.704 251.038 174.062C246.528 173.447 242.83 170.906 239.94 166.438C237.045 162.011 235.906 156.962 236.527 151.296C237.148 145.631 239.346 141.016 243.116 137.456C246.886 133.896 251.023 132.423 255.533 133.038Z" fill="white"/>
<path d="M257.389 140.039C259.692 143.913 260.572 148.338 260.027 153.303C259.482 158.273 257.67 162.326 254.597 165.469C251.524 168.612 248.175 169.939 244.551 169.446C243.736 169.335 242.95 169.151 242.194 168.888C241.11 167.821 240.109 166.584 239.19 165.177C236.288 160.741 235.151 155.682 235.774 150.004C236.397 144.326 238.598 139.7 242.379 136.132C243.575 135.013 244.81 134.121 246.085 133.452C246.875 133.4 247.678 133.431 248.493 133.542C252.117 134.035 255.082 136.201 257.389 140.039Z" fill="black"/>
<path d="M253.301 175.712C252.639 175.707 251.965 175.662 251.283 175.572C246.428 174.943 242.43 172.185 239.399 167.371C236.435 162.669 235.286 157.209 235.986 151.14C236.679 145.111 239.035 140.13 242.984 136.322C247.023 132.397 251.529 130.723 256.391 131.358C261.449 132.014 265.527 134.812 268.511 139.658C271.469 144.347 272.618 149.788 271.925 155.817C271.225 161.886 268.869 166.886 264.92 170.694C261.466 174.061 257.563 175.746 253.301 175.712ZM254.538 134.272C251.18 134.245 248.086 135.649 245.12 138.528C241.678 141.842 239.626 146.222 239.013 151.531C238.394 156.886 239.388 161.677 241.968 165.773C244.522 169.817 247.679 172.037 251.636 172.547C255.79 173.085 259.435 171.758 262.791 168.489C266.232 165.174 268.291 160.775 268.91 155.42C269.523 150.104 268.529 145.333 265.949 141.236C263.434 137.147 260.198 134.907 256.051 134.369C255.533 134.313 255.036 134.276 254.538 134.272Z" fill="black"/>
<path d="M263.915 210.158C263.619 210.157 263.317 210.142 263.022 210.114C259.812 209.813 257.154 208.097 255.125 205C253.221 202.068 252.411 198.65 252.727 194.831C253.043 191.019 254.392 187.784 256.748 185.212C259.274 182.568 262.168 181.391 265.371 181.692C268.587 181.993 271.219 183.689 273.202 186.739C275.152 189.711 275.982 193.156 275.666 196.974C275.35 200.799 273.968 204.021 271.553 206.547C269.341 208.956 266.768 210.175 263.915 210.158ZM264.48 184.693C262.466 184.681 260.659 185.537 258.975 187.306C257.076 189.376 256.019 191.943 255.759 195.111C255.499 198.28 256.122 200.975 257.662 203.348C259.169 205.641 261.005 206.859 263.263 207.076C265.521 207.28 267.492 206.425 269.306 204.446C271.277 202.377 272.354 199.85 272.614 196.687C272.874 193.518 272.231 190.804 270.645 188.385C269.178 186.132 267.368 184.933 265.11 184.723C264.9 184.702 264.69 184.694 264.48 184.693Z" fill="black"/>
<path d="M201.826 160.767L105.822 133.713V256.715L201.826 229.661V160.767Z" fill="#72EFE2"/>
<path d="M105.716 258.151C105.05 258.151 104.436 257.709 104.244 257.036C104.013 256.218 104.489 255.374 105.307 255.143L200.195 228.399V161.838L105.307 135.093C104.495 134.862 104.02 134.018 104.244 133.2C104.475 132.382 105.327 131.908 106.139 132.138L202.142 159.193C202.802 159.378 203.258 159.984 203.258 160.67V229.566C203.258 230.252 202.802 230.852 202.142 231.044L106.139 258.098C105.993 258.131 105.855 258.151 105.716 258.151Z" fill="black"/>
<path d="M108.432 129.869C106.86 128.298 105 127.508 102.84 127.508C100.691 127.508 98.82 128.298 97.2482 129.869C95.6765 131.44 94.8853 133.299 94.8853 135.457V254.976C94.8853 257.124 95.6765 258.994 97.2482 260.564C98.82 262.135 100.68 262.926 102.84 262.926C104.989 262.926 106.86 262.135 108.432 260.564C110.004 258.994 110.795 257.135 110.795 254.976V135.457C110.795 133.299 110.004 131.44 108.432 129.869Z" fill="white"/>
<path d="M102.734 264.359C100.173 264.359 97.9228 263.416 96.0616 261.549C94.2004 259.683 93.25 257.44 93.25 254.881V135.359C93.25 132.799 94.1938 130.55 96.0616 128.691C97.9228 126.831 100.173 125.881 102.734 125.881C105.295 125.881 107.546 126.824 109.407 128.691C111.268 130.55 112.218 132.793 112.218 135.359V254.881C112.218 257.447 111.275 259.689 109.407 261.549C107.539 263.416 105.295 264.359 102.734 264.359ZM102.734 128.954C100.985 128.954 99.5134 129.581 98.2264 130.86C96.9394 132.147 96.3124 133.617 96.3124 135.365V254.881C96.3124 256.622 96.9394 258.1 98.2264 259.386C99.5134 260.672 100.985 261.292 102.734 261.292C104.477 261.292 105.955 260.665 107.235 259.386C108.522 258.1 109.143 256.629 109.143 254.881V135.359C109.143 133.611 108.516 132.14 107.235 130.854C105.948 129.574 104.477 128.954 102.734 128.954Z" fill="black"/>
<path d="M220.35 206.326H220.222C217.079 206.326 214.342 207.448 212.021 209.681C209.787 212 208.664 214.767 208.664 217.994V279.431C208.664 282.658 209.787 285.425 212.021 287.744C214.342 289.977 217.068 291.099 220.222 291.099H220.35C223.579 291.099 226.349 289.977 228.669 287.744C230.904 285.425 232.026 282.658 232.026 279.431V217.994C232.026 214.767 230.904 212 228.669 209.681C226.349 207.437 223.579 206.326 220.35 206.326Z" fill="#C3C3C3"/>
<path d="M220.244 292.533C216.581 292.533 213.466 291.26 210.859 288.753C208.311 286.115 207.037 282.956 207.037 279.335V217.899C207.037 214.278 208.311 211.119 210.819 208.52C213.465 205.974 216.581 204.701 220.118 204.701H220.244C223.867 204.701 227.028 205.974 229.629 208.48C232.176 211.119 233.45 214.278 233.45 217.899V279.335C233.45 282.956 232.177 286.115 229.669 288.714C227.029 291.26 223.867 292.533 220.244 292.533ZM220.125 207.761C217.366 207.761 215.03 208.718 212.99 210.683C211.063 212.682 210.106 215.056 210.106 217.892V279.329C210.106 282.171 211.063 284.546 213.03 286.584C215.03 288.509 217.366 289.466 220.125 289.466C223.088 289.466 225.464 288.509 227.504 286.544C229.431 284.546 230.388 282.171 230.388 279.329V217.899C230.388 215.056 229.431 212.688 227.464 210.65C225.464 208.724 223.088 207.768 220.244 207.768H220.125V207.761Z" fill="black"/>
<path d="M214.134 154.033C205.851 154.033 201.712 158.169 201.712 166.446V223.827C201.712 232.104 205.851 236.24 214.134 236.24H227.169C235.452 236.24 239.59 232.104 239.59 223.827V166.446C239.59 158.169 235.452 154.033 227.169 154.033H214.134Z" fill="white"/>
<path d="M227.167 237.771H214.132C205.004 237.771 200.18 232.949 200.18 223.828V166.447C200.18 157.325 205.004 152.504 214.132 152.504H227.167C236.295 152.504 241.12 157.325 241.12 166.447V223.828C241.12 232.949 236.295 237.771 227.167 237.771ZM214.132 155.564C206.707 155.564 203.249 159.02 203.249 166.447V223.828C203.249 231.248 206.707 234.71 214.132 234.71H227.167C234.592 234.71 238.051 231.254 238.051 223.828V166.447C238.051 159.027 234.592 155.564 227.167 155.564H214.132Z" fill="black"/>
<path d="M280.917 247.578C285.108 246.661 289.424 245.665 293.873 244.59C295.133 244.28 296.387 244.003 297.628 243.746C304.288 242.308 310.32 241.57 315.719 241.523L330.82 297.684C328.431 298.232 325.751 298.766 322.768 299.294C319.039 299.854 314.795 300.467 310.043 301.134C308.756 301.312 307.475 301.49 306.208 301.668C305.865 301.701 305.528 301.727 305.212 301.747C287.603 303.983 269.743 305.309 251.619 305.731C249.217 305.784 246.893 305.81 244.643 305.81C237.997 309.945 230.69 311.429 222.717 310.255C213.827 308.877 206.692 304.583 201.327 297.381C196.014 290.126 193.994 282.033 195.268 273.096C196.647 264.212 200.944 257.082 208.144 251.72C215.404 246.411 223.476 244.392 232.373 245.665C238.254 246.582 243.336 248.732 247.633 252.103C258.377 251.278 269.466 249.774 280.917 247.578Z" fill="#00D373"/>
<path d="M227.883 312.168C226.115 312.168 224.319 312.036 222.498 311.766C213.225 310.328 205.694 305.797 200.104 298.291C194.56 290.726 192.428 282.178 193.755 272.872C195.193 263.599 199.728 256.073 207.238 250.487C214.809 244.947 223.323 242.816 232.603 244.149C238.516 245.072 243.724 247.216 248.106 250.526C258.554 249.709 269.49 248.211 280.625 246.074C284.743 245.171 289.092 244.168 293.515 243.1C294.788 242.79 296.042 242.506 297.277 242.249C298.102 242.071 298.92 242.605 299.092 243.436C299.263 244.267 298.735 245.079 297.904 245.25C296.702 245.501 295.481 245.778 294.234 246.081C289.785 247.156 285.416 248.159 281.245 249.075C269.754 251.278 258.501 252.809 247.756 253.626C247.373 253.653 246.997 253.541 246.694 253.303C242.628 250.111 237.737 248.053 232.147 247.176C223.712 245.962 215.951 247.908 209.06 252.954C202.229 258.039 198.097 264.891 196.791 273.327C195.576 281.796 197.523 289.585 202.572 296.471C207.654 303.297 214.518 307.426 222.96 308.732C230.51 309.847 237.546 308.422 243.842 304.504C244.087 304.352 244.364 304.273 244.654 304.273C246.892 304.273 249.208 304.247 251.598 304.194C269.576 303.779 287.555 302.453 305.032 300.263C305.355 300.224 305.685 300.177 306.022 300.145C306.847 300.065 307.619 300.666 307.705 301.51C307.797 302.354 307.183 303.106 306.338 303.192C306.035 303.225 305.725 303.258 305.421 303.304C287.832 305.513 269.748 306.839 251.664 307.261C249.4 307.307 247.208 307.334 245.083 307.34C239.777 310.552 234.015 312.168 227.883 312.168Z" fill="black"/>
<path d="M12.9623 251.793C12.4673 251.793 11.9855 251.556 11.6885 251.121C11.2133 250.421 11.3981 249.465 12.0977 248.99L42.458 228.458C43.1642 227.983 44.1146 228.168 44.5898 228.867C45.065 229.566 44.8802 230.523 44.1806 230.998L13.8203 251.529C13.5563 251.708 13.2593 251.793 12.9623 251.793ZM44.009 199.616H4.83102C3.98621 199.616 3.2998 198.93 3.2998 198.086C3.2998 197.242 3.98621 196.556 4.83102 196.556H44.009C44.8538 196.556 45.5402 197.242 45.5402 198.086C45.5402 198.93 44.8538 199.616 44.009 199.616ZM44.0816 165.682C43.8704 165.682 43.6526 165.636 43.4414 165.544L9.71507 150.064C8.94286 149.708 8.60626 148.804 8.96266 148.033C9.31906 147.261 10.2299 146.925 10.9955 147.281L44.7284 162.754C45.5006 163.11 45.8372 164.014 45.4808 164.785C45.2234 165.346 44.6624 165.682 44.0816 165.682Z" fill="black"/>
</g>
<defs>
<clipPath id="clip0_2628_1970">
<rect width="440" height="440" fill="white"/>
</clipPath>
</defs>
</svg>
