<svg width="106" height="65" viewBox="0 0 106 65" fill="none" xmlns="http://www.w3.org/2000/svg">
<path d="M104.466 8.14119C103.605 6.08075 101.613 4.51845 98.4882 3.44974C95.3274 2.34933 92.5107 3.63993 90.0382 7.31701C87.5295 10.9941 85.5551 11.7322 84.1105 9.53141C82.4259 6.81889 80.1436 4.63619 77.2545 2.98784C74.3699 1.33949 71.3268 0.429282 68.1342 0.257202C64.9372 0.0851218 61.8307 0.687403 58.8057 2.05952C55.7807 3.43163 53.4802 5.18413 51.8998 7.31701C50.2832 9.41367 49.4454 12.7104 49.373 17.2116C49.305 21.7129 48.0144 22.6729 45.5057 20.0962C41.0407 15.9029 37.4315 12.9504 34.6828 11.2341C30.1498 8.41742 25.7482 7.07701 21.4915 7.21286C17.1623 7.34871 13.1592 8.96536 9.4821 12.0583C6.01333 14.9791 3.50458 18.6018 1.95586 22.931C-0.657043 30.2489 -0.552886 38.9933 2.26379 49.1642C3.43213 53.1854 4.75442 56.2421 6.23069 58.3387C8.4315 61.4996 11.0942 63.3698 14.2188 63.954C15.7992 64.2619 17.4159 64.1759 19.0642 63.6959C20.6447 63.2159 22.0349 62.4053 23.2394 61.2732C24.4078 60.1411 25.2818 58.7825 25.8659 57.2021C26.4139 55.6217 26.6041 54.0232 26.432 52.411C26.2961 51.1385 25.884 49.6623 25.1957 47.9777C24.3716 46.0894 23.7693 44.6629 23.3934 43.6984C21.7088 39.093 21.4009 34.3698 22.4651 29.5244C23.3255 26.7756 25.6259 27.4277 29.3709 31.4807C33.1159 35.5336 36.2949 38.5088 38.9033 40.3971C41.5162 42.2855 44.3645 43.3678 47.4574 43.644C50.9262 43.9882 54.001 43.4221 56.6818 41.9413C59.5664 40.3971 61.5952 36.5661 62.7635 30.4482C63.8956 24.3348 65.4942 22.048 67.5546 23.5922C71.8838 28.0934 76.7971 30.8422 82.2946 31.8384C85.1792 32.3547 88.0321 32.3184 90.8488 31.7343C93.7696 31.1139 96.3463 29.9636 98.5788 28.2836C100.915 26.5311 102.686 24.3167 103.886 21.6359C105.159 18.8871 105.793 16.4644 105.793 14.3678C105.774 12.2847 105.326 10.2061 104.466 8.14119Z" fill="#82C03E"/>
</svg>
