<svg width="240" height="240" viewBox="0 0 240 240" fill="none" xmlns="http://www.w3.org/2000/svg">
<path d="M56.6644 10H10V56.6643H56.6644V10ZM49.991 49.991H16.6733V16.6733H50.0155V49.991H49.991Z" fill="black"/>
<path d="M70.0112 10H63.3379V16.6733H70.0112V10Z" fill="black"/>
<path d="M90.0063 23.3222V16.6733H103.329V10H83.333V23.3222H90.0063Z" fill="black"/>
<path d="M116.675 29.9955V23.3222H129.997V10H123.324V16.6733H116.675V10H110.002V29.9955H116.675Z" fill="black"/>
<path d="M149.994 16.6733V29.9955H143.345V16.6733H136.671V29.9955H116.676V36.6688H129.998V43.3422H136.671V36.6688H143.345V43.3422H136.671V49.991H143.345V56.6643H149.994V49.991H156.667V29.9955H169.989V43.3422H176.662V23.3222H163.34V10H143.345V16.6733H149.994Z" fill="black"/>
<path d="M183.335 10V56.6643H229.999V10H183.335ZM223.326 49.991H190.008V16.6733H223.35V49.991H223.326Z" fill="black"/>
<path d="M43.3178 23.3223H23.3223V43.3178H43.3178V23.3223Z" fill="black"/>
<path d="M96.6556 49.9911H103.329V36.6689H96.6556V29.9956H90.0067V36.6689H83.3334V29.9956H76.6601V23.3223H63.3379V29.9956H70.0112V36.6689H76.6601V43.3422H90.0067V56.6644H96.6556V49.9911Z" fill="black"/>
<path d="M216.653 23.3223H196.657V43.3178H216.653V23.3223Z" fill="black"/>
<path d="M110.002 29.9961H103.329V36.6694H110.002V29.9961Z" fill="black"/>
<path d="M70.0112 36.668H63.3379V43.3413H70.0112V36.668Z" fill="black"/>
<path d="M116.675 36.668H110.002V43.3413H116.675V36.668Z" fill="black"/>
<path d="M116.676 56.664H123.325V49.9907H129.998V43.3418H116.676V56.664Z" fill="black"/>
<path d="M70.0112 49.9902H63.3379V63.3369H70.0112V49.9902Z" fill="black"/>
<path d="M90.0067 76.6591V56.6636H83.3334V49.9902H76.6601V63.3369H83.3334V70.0102H76.6601V63.3369H70.0112V70.0102H63.3379V76.6591H49.9912V83.3324H76.6601V76.6591H90.0067Z" fill="black"/>
<path d="M110.002 49.9902H103.329V56.6636H110.002V49.9902Z" fill="black"/>
<path d="M136.671 49.9902H129.998V56.6636H136.671V49.9902Z" fill="black"/>
<path d="M163.339 49.9902H156.666V56.6636H163.339V49.9902Z" fill="black"/>
<path d="M169.989 63.3369V70.0102H176.662V49.9902H169.989V56.6636H163.34V63.3369H169.989Z" fill="black"/>
<path d="M136.671 76.6596V83.3329H129.998V76.6596H136.671V63.3374H129.998V70.0107H123.325V63.3374H116.676V56.6641H110.002V70.0107H116.676V76.6596H103.329V83.3329H110.002V90.0062H136.671V96.6551H143.345V76.6596H136.671Z" fill="black"/>
<path d="M143.344 56.6641H136.671V63.3374H143.344V56.6641Z" fill="black"/>
<path d="M56.6645 70.0132V63.3398H43.3423V70.0132H36.6689V76.662H49.9911V70.0132H56.6645Z" fill="black"/>
<path d="M150.018 63.3398H143.345V70.0132H150.018V63.3398Z" fill="black"/>
<path d="M163.34 63.3398H156.666V70.0132H149.993V76.662H156.666V83.3354H163.34V76.662H169.989V70.0132H163.34V63.3398Z" fill="black"/>
<path d="M190.008 63.3398H183.335V70.0132H190.008V63.3398Z" fill="black"/>
<path d="M203.331 63.3398H196.658V70.0132H190.009V76.662H203.331V63.3398Z" fill="black"/>
<path d="M223.326 83.3354H216.677V76.662H223.326V70.0132H216.677V63.3398H210.004V90.0087H216.677V96.6576H223.326V83.3354Z" fill="black"/>
<path d="M230 63.3398H223.327V70.0132H230V63.3398Z" fill="black"/>
<path d="M16.6733 110.001H23.3222V76.6586H16.6733V70.0098H10V83.332H16.6733V90.0053H10V96.6542H16.6733V110.001Z" fill="black"/>
<path d="M29.9956 70.0098H23.3223V76.6831H29.9956V70.0098Z" fill="black"/>
<path d="M103.329 70.0098H96.6553V76.6831H103.329V70.0098Z" fill="black"/>
<path d="M176.662 76.6602H169.988V83.3335H176.662V76.6602Z" fill="black"/>
<path d="M190.008 76.6602H183.335V83.3335H190.008V76.6602Z" fill="black"/>
<path d="M43.3418 96.6542H56.664V90.0053H49.9907V83.332H43.3418V96.6542Z" fill="black"/>
<path d="M96.6556 90.0053V83.332H76.6601V90.0053H63.3379V96.6542H76.6601V103.328H83.3334V96.6542H90.0067V90.0053H96.6556Z" fill="black"/>
<path d="M149.994 96.6542H143.345V103.328H156.667V83.332H149.994V96.6542Z" fill="black"/>
<path d="M163.34 90.0053V103.328H169.989V96.6542H176.662V103.328H196.658V90.0053H183.335V83.332H176.662V90.0053H163.34Z" fill="black"/>
<path d="M203.331 83.332H196.657V90.0053H203.331V83.332Z" fill="black"/>
<path d="M36.6684 96.6543H29.9951V103.328H36.6684V96.6543Z" fill="black"/>
<path d="M103.328 103.328H116.675V96.6543H90.0059V103.328H96.6547V110.001H90.0059V116.674H103.328V103.328Z" fill="black"/>
<path d="M129.998 103.328H123.324V110.001H136.671V96.6543H129.998V103.328Z" fill="black"/>
<path d="M216.677 96.6543H210.004V103.328H216.677V96.6543Z" fill="black"/>
<path d="M230 96.6543H223.327V103.328H230V96.6543Z" fill="black"/>
<path d="M223.326 210.004H210.004V216.678H203.33V203.356H210.004V196.682H203.33V169.989H176.661V156.667H183.335V149.993H163.339V143.32H156.666V156.667H149.993V136.671H143.319V149.993H136.646V129.998H143.319V123.325H136.646V116.651H129.973V123.325H123.299V110.002H109.977V116.676H116.65V123.349H109.977V130.022H103.304V136.696H96.6305V123.373H89.9572V116.7H83.3327V110.027H63.3372V103.354H43.3417V110.027H56.6639V116.7H43.3417V110.027H29.9951V116.7H36.6684V123.373H23.3217V130.047H16.6729V136.72H29.9951V130.047H43.3172V123.373H69.9861V116.7H76.6594V130.047H49.9906V136.72H63.3372V143.393H49.9906V150.067H56.6639V156.667H70.0105V163.34H76.6839V150.018H70.0105V136.696H83.3327V143.369H116.675V130.047H130.022V136.72H123.348V143.393H130.022V156.667H143.344V163.34H163.339V156.667H170.013V163.34H163.339V170.013H156.666V183.336H163.339V176.662H170.013V183.336H163.339V196.658H170.013V203.331H190.008V216.653H196.681V223.327H203.355V230H210.028V223.327H216.701V216.653H229.999V203.331H223.326V210.004ZM196.657 196.658H176.661V176.662H196.657V196.658Z" fill="black"/>
<path d="M223.351 103.328H216.678V110.001H223.351V103.328Z" fill="black"/>
<path d="M23.3222 116.677H16.6733V110.004H10V123.326H23.3222V116.677Z" fill="black"/>
<path d="M143.344 110.004H136.671V116.677H143.344V110.004Z" fill="black"/>
<path d="M190.008 123.326H169.988V116.677H176.662V110.004H163.339V116.677H156.666V123.326H163.339V143.346H190.008V123.326Z" fill="black"/>
<path d="M203.331 116.677V110.004H190.009V116.677H196.658V123.326H210.004V116.677H203.331Z" fill="black"/>
<path d="M216.677 110.004H210.004V116.677H216.677V110.004Z" fill="black"/>
<path d="M230 110.004H223.327V116.677H230V110.004Z" fill="black"/>
<path d="M210.004 136.671H203.331V143.344H216.678V136.671H230V123.324H210.004V136.671Z" fill="black"/>
<path d="M156.666 129.996H149.993V136.669H156.666V129.996Z" fill="black"/>
<path d="M203.331 129.996H196.657V136.669H203.331V129.996Z" fill="black"/>
<path d="M49.9911 136.672H36.6689V143.345H49.9911V136.672Z" fill="black"/>
<path d="M29.9951 143.346H16.6729V150.019H29.9951V143.346Z" fill="black"/>
<path d="M83.3335 143.346H76.6602V150.019H83.3335V143.346Z" fill="black"/>
<path d="M203.33 163.341V143.346H196.657V149.995H190.008V156.668H183.335V163.341H203.33Z" fill="black"/>
<path d="M23.3222 169.99H16.6733V149.994H10V176.663H23.3222V169.99Z" fill="black"/>
<path d="M50.0151 149.994H43.3418V156.667H50.0151V149.994Z" fill="black"/>
<path d="M103.329 156.667H96.6552V149.994H90.0063V156.667H83.333V163.341H103.329V156.667Z" fill="black"/>
<path d="M110.002 149.994H103.329V156.667H110.002V149.994Z" fill="black"/>
<path d="M123.349 149.994H116.676V156.667H123.349V149.994Z" fill="black"/>
<path d="M223.351 149.994H216.678V156.667H223.351V149.994Z" fill="black"/>
<path d="M29.9956 156.666H23.3223V163.339H29.9956V156.666Z" fill="black"/>
<path d="M56.6645 156.666H49.9912V163.339H56.6645V156.666Z" fill="black"/>
<path d="M216.677 156.666H210.004V169.988H216.677V156.666Z" fill="black"/>
<path d="M36.6684 163.338H29.9951V170.011H36.6684V163.338Z" fill="black"/>
<path d="M70.0112 163.338H63.3379V170.011H70.0112V163.338Z" fill="black"/>
<path d="M83.3335 163.338H76.6602V170.011H83.3335V163.338Z" fill="black"/>
<path d="M116.675 163.338H110.002V170.011H116.675V163.338Z" fill="black"/>
<path d="M143.344 163.338H136.671V170.011H143.344V163.338Z" fill="black"/>
<path d="M223.327 176.66H216.678V183.333H230V163.338H223.327V176.66Z" fill="black"/>
<path d="M56.664 169.988H43.3418V176.662H56.664V169.988Z" fill="black"/>
<path d="M76.685 169.988H70.0117V176.662H76.685V169.988Z" fill="black"/>
<path d="M143.344 190.008H136.67V183.335H143.344V176.662H136.67V169.988H123.324V176.662H110.001V169.988H96.6547V176.662H90.0059V190.008H96.6547V183.335H129.997V196.657H123.324V203.33H136.67V210.004H143.344V203.33H149.992V210.004H163.339V216.677H176.661V210.004H169.988V203.33H156.666V196.657H149.992V190.008H156.666V183.335H143.344V190.008Z" fill="black"/>
<path d="M150.018 169.988H143.345V176.662H150.018V169.988Z" fill="black"/>
<path d="M70.0112 176.66H63.3379V183.333H70.0112V176.66Z" fill="black"/>
<path d="M83.3335 176.66H76.6602V183.333H83.3335V176.66Z" fill="black"/>
<path d="M10 183.336V230H56.6644V183.336H10ZM49.991 223.327H16.6733V190.009H50.0155V223.327H49.991Z" fill="black"/>
<path d="M190.008 183.336H183.335V190.009H190.008V183.336Z" fill="black"/>
<path d="M216.677 183.336H210.004V196.658H216.677V183.336Z" fill="black"/>
<path d="M70.0112 190.01H63.3379V196.683H70.0112V190.01Z" fill="black"/>
<path d="M83.3339 223.327V216.679H90.0072V210.005H96.6561V203.332H103.329V196.659H90.0072V190.01H83.3339V210.005H76.6606V216.679H70.0117V223.327H76.6606V230.001H90.0072V223.327H83.3339Z" fill="black"/>
<path d="M110.002 203.332H116.676V196.659H123.325V190.01H103.329V196.659H110.002V203.332Z" fill="black"/>
<path d="M230 190.01H223.327V196.683H230V190.01Z" fill="black"/>
<path d="M43.3178 196.658H23.3223V216.654H43.3178V196.658Z" fill="black"/>
<path d="M223.351 196.658H216.678V203.332H223.351V196.658Z" fill="black"/>
<path d="M110.002 203.33H103.329V210.003H110.002V203.33Z" fill="black"/>
<path d="M123.349 203.33H116.676V210.003H123.349V203.33Z" fill="black"/>
<path d="M116.675 210.004H110.002V216.677H116.675V210.004Z" fill="black"/>
<path d="M136.671 210.004H129.998V216.677H136.671V210.004Z" fill="black"/>
<path d="M103.329 216.678V223.327H96.6553V230H110.002V216.678H103.329Z" fill="black"/>
<path d="M130.022 216.678H116.676V223.351H130.022V216.678Z" fill="black"/>
<path d="M143.344 216.678H136.671V223.351H143.344V216.678Z" fill="black"/>
<path d="M163.315 216.678H149.993V223.351H163.315V216.678Z" fill="black"/>
<path d="M136.671 223.326H129.998V229.999H136.671V223.326Z" fill="black"/>
<path d="M150.018 223.326H143.345V229.999H150.018V223.326Z" fill="black"/>
<path d="M190.009 223.326H163.34V229.999H190.009V223.326Z" fill="black"/>
<path d="M223.351 223.326H216.678V229.999H223.351V223.326Z" fill="black"/>
</svg>
