<svg width="171" height="100" viewBox="0 0 171 100" fill="none" xmlns="http://www.w3.org/2000/svg">
<g clip-path="url(#clip0_3217_1377)">
<path d="M130.777 10.0301C124.98 4.23495 118 1.33594 109.839 1.33594C101.677 1.33594 94.6809 4.23495 88.846 10.0301C87.406 11.5069 86.1495 13.0381 85.0795 14.6267C84.1185 13.3707 83.0657 12.1721 81.9211 11.028C76.1236 5.23283 69.1441 2.33381 60.9828 2.33381C52.8215 2.33381 45.8249 5.23283 39.9901 11.028C34.488 16.5278 31.6251 23.1172 31.4042 30.7963C23.6847 31.6451 16.9835 34.8939 11.2978 40.5429C4.65118 47.2241 1.32642 55.253 1.32642 64.6296C1.32642 74.0435 4.65118 82.0724 11.2978 88.7164C17.9818 95.3976 26.0312 98.7382 35.449 98.7382C44.8295 98.7382 52.8416 95.3976 59.4883 88.7164C59.821 88.3837 60.1337 88.0712 60.4292 87.7758C60.7247 88.0712 61.0373 88.3837 61.3701 88.7164C68.0541 95.3976 76.1035 98.7382 85.5213 98.7382C94.9017 98.7382 102.914 95.3976 109.561 88.7164C109.893 88.3837 110.226 88.0511 110.559 87.7185C110.854 88.0511 111.167 88.3837 111.5 88.7164C118.184 95.3976 126.233 98.7382 135.651 98.7382C145.031 98.7382 153.044 95.3976 159.69 88.7164C166.374 82.0724 169.716 74.0435 169.716 64.6296C169.716 55.253 166.374 47.2241 159.69 40.5429C153.967 34.8223 147.226 31.5734 139.472 30.7963C139.438 22.7101 136.537 15.788 130.777 10.0301Z" fill="white"/>
<path d="M135.628 99.999C125.898 99.999 117.461 96.4972 110.556 89.5949C110.539 89.578 110.525 89.5645 110.508 89.5476L110.461 89.5949C103.593 96.4972 95.1963 99.999 85.5 99.999C75.77 99.999 67.3326 96.4972 60.4274 89.5949L60.4072 89.5746L60.3903 89.5915C53.5222 96.4972 45.122 99.999 35.4257 99.999C25.6957 99.999 17.2583 96.4972 10.3531 89.5949C3.47832 82.7296 -0.00463867 74.3159 -0.00463867 64.5899C-0.00463867 54.901 3.47832 46.4873 10.3464 39.585C15.9522 34.0186 22.6008 30.6619 30.1236 29.6026C30.5928 22.0863 33.5897 15.5179 39.0403 10.0696C45.1051 4.04776 52.476 0.994672 60.9539 0.994672C69.4352 0.994672 76.7892 4.04776 82.8135 10.0696C83.5729 10.8253 84.3019 11.6181 84.9904 12.4345C85.8577 11.2874 86.8264 10.1674 87.8827 9.08113C93.9576 3.04918 101.329 -0.00390625 109.81 -0.00390625C118.291 -0.00390625 125.645 3.04918 131.669 9.07101C137.377 14.7791 140.421 21.6781 140.724 29.5925C148.278 30.5944 154.953 33.9477 160.586 39.5782C167.491 46.4806 170.995 54.8943 170.995 64.5865C170.995 74.3159 167.491 82.7296 160.583 89.5949C153.721 96.4972 145.321 99.999 135.628 99.999ZM110.535 86.3731C110.549 86.3731 110.562 86.3731 110.573 86.3731C110.93 86.3832 111.271 86.5418 111.507 86.8117C111.788 87.1254 112.085 87.4391 112.398 87.7529C118.797 94.1492 126.614 97.3946 135.628 97.3946C144.606 97.3946 152.382 94.1526 158.743 87.7563C165.146 81.3903 168.389 73.6007 168.389 64.5899C168.389 55.6162 165.146 47.8233 158.743 41.4236C153.262 35.9483 146.729 32.794 139.317 32.0552C138.652 31.9877 138.146 31.4311 138.143 30.7665C138.105 23.0781 135.311 16.3984 129.827 10.9164C124.309 5.40056 117.576 2.60387 109.81 2.60387C102.044 2.60387 95.2874 5.40056 89.7356 10.9164C88.3687 12.3198 87.1503 13.8041 86.1311 15.3189C85.8982 15.6663 85.5101 15.8789 85.0882 15.8924C84.6698 15.8957 84.2681 15.7136 84.015 15.383C83.0869 14.1719 82.0643 13.0046 80.9708 11.9149C75.4527 6.39914 68.7197 3.60244 60.9539 3.60244C53.1881 3.60244 46.4348 6.39914 40.8796 11.9183C35.6484 17.1473 32.8877 23.4998 32.6785 30.8002C32.6582 31.4479 32.1655 31.9843 31.5175 32.0585C24.1365 32.8716 17.6329 36.0259 12.1857 41.4303C5.82729 47.8233 2.60083 55.6162 2.60083 64.5933C2.60083 73.6041 5.82729 81.3971 12.1891 87.7563C18.588 94.1526 26.4044 97.3979 35.4189 97.3979C44.3963 97.3979 52.1723 94.1559 58.5341 87.7596C58.5341 87.7596 58.5341 87.7596 58.5374 87.7563L59.479 86.815C59.9887 86.3056 60.8122 86.3056 61.3218 86.815L62.2634 87.7563C68.6623 94.1526 76.4787 97.3979 85.4932 97.3979C94.4706 97.3979 102.247 94.1559 108.608 87.7596L109.607 86.7611C109.857 86.5114 110.188 86.3731 110.535 86.3731Z" fill="black"/>
</g>
<defs>
<clipPath id="clip0_3217_1377">
<rect width="171" height="100" fill="white"/>
</clipPath>
</defs>
</svg>
