<svg width="120" height="70" viewBox="0 0 120 70" fill="none" xmlns="http://www.w3.org/2000/svg">
<g clip-path="url(#clip0_3217_1370)">
<path d="M91.7735 7.02342C87.705 2.96681 82.8072 0.9375 77.0799 0.9375C71.3527 0.9375 66.4428 2.96681 62.3482 7.02342C61.3376 8.05714 60.4559 9.129 59.705 10.241C59.0306 9.36184 58.2918 8.52282 57.4886 7.72193C53.4201 3.66532 48.5223 1.63601 42.7951 1.63601C37.0678 1.63601 32.1579 3.66532 28.0633 7.72193C24.2022 11.5718 22.1931 16.1844 22.0381 21.5598C16.6209 22.1539 11.9183 24.4281 7.9284 28.3823C3.26408 33.0592 0.930908 38.6794 0.930908 45.2431C0.930908 51.8328 3.26408 57.453 7.9284 62.1038C12.6189 66.7806 18.2676 69.1191 24.8766 69.1191C31.4594 69.1191 37.0819 66.7806 41.7462 62.1038C41.9798 61.871 42.1992 61.6522 42.4065 61.4454C42.6139 61.6522 42.8333 61.871 43.0668 62.1038C47.7573 66.7806 53.406 69.1191 60.015 69.1191C66.5978 69.1191 72.2204 66.7806 76.8847 62.1038C77.1182 61.871 77.3517 61.6381 77.5852 61.4053C77.7926 61.6381 78.012 61.871 78.2455 62.1038C82.936 66.7806 88.5847 69.1191 95.1937 69.1191C101.776 69.1191 107.399 66.7806 112.063 62.1038C116.754 57.453 119.099 51.8328 119.099 45.2431C119.099 38.6794 116.754 33.0592 112.063 28.3823C108.047 24.3779 103.317 22.1037 97.8751 21.5598C97.851 15.8994 95.8157 11.0539 91.7735 7.02342Z" fill="white"/>
<path d="M95.1778 70.002C88.3497 70.002 82.4288 67.5508 77.583 62.7191C77.5712 62.7073 77.5617 62.6979 77.5499 62.6861L77.5167 62.7191C72.697 67.5508 66.8045 70.002 60.0001 70.002C53.172 70.002 47.251 67.5508 42.4053 62.7191L42.3911 62.705L42.3792 62.7168C37.5595 67.5508 31.6646 70.002 24.8602 70.002C18.0321 70.002 12.1112 67.5508 7.26543 62.7191C2.44101 57.9135 -0.00317383 52.0239 -0.00317383 45.2157C-0.00317383 38.4334 2.44101 32.5439 7.26069 27.7122C11.1946 23.8157 15.8603 21.4661 21.1395 20.7245C21.4687 15.4631 23.5718 10.8653 27.3968 7.05144C31.6528 2.83616 36.8253 0.699005 42.7747 0.699005C48.7265 0.699005 53.8873 2.83616 58.1148 7.05144C58.6477 7.58042 59.1593 8.13537 59.6424 8.70686C60.2511 7.90395 60.9309 7.11993 61.6722 6.35952C65.9353 2.13716 71.1078 0 77.0596 0C83.0114 0 88.1721 2.13716 92.3997 6.35244C96.4047 10.3481 98.5409 15.1774 98.7541 20.7175C104.055 21.4188 108.739 23.7662 112.692 27.7075C117.538 32.5391 119.996 38.4287 119.996 45.2133C119.996 52.0239 117.538 57.9135 112.69 62.7191C107.875 67.5508 101.98 70.002 95.1778 70.002ZM77.5688 60.4639C77.5783 60.4639 77.5878 60.4639 77.5949 60.4639C77.8459 60.471 78.0851 60.582 78.2509 60.7709C78.4475 60.9905 78.6559 61.2101 78.8762 61.4297C83.3666 65.9072 88.8518 68.1789 95.1778 68.1789C101.478 68.1789 106.935 65.9095 111.399 61.4321C115.892 56.976 118.168 51.5232 118.168 45.2157C118.168 38.9341 115.892 33.479 111.399 28.9992C107.553 25.1665 102.967 22.9585 97.7665 22.4414C97.2999 22.3941 96.9446 22.0045 96.9423 21.5393C96.9162 16.1574 94.9552 11.4816 91.1066 7.64418C87.2342 3.78313 82.5093 1.82544 77.0596 1.82544C71.6099 1.82544 66.8684 3.78313 62.9724 7.64418C62.0132 8.62657 61.1582 9.66563 60.443 10.7259C60.2795 10.9692 60.0072 11.118 59.7111 11.1274C59.4175 11.1298 59.1356 11.0022 58.958 10.7708C58.3067 9.92303 57.5891 9.10595 56.8217 8.34319C52.9494 4.48213 48.2244 2.52445 42.7747 2.52445C37.3251 2.52445 32.5859 4.48213 28.6875 8.34555C25.0165 12.0059 23.0792 16.4526 22.9323 21.5629C22.9181 22.0163 22.5724 22.3918 22.1176 22.4437C16.9379 23.0128 12.3741 25.2208 8.55146 29.004C4.08941 33.479 1.82523 38.9341 1.82523 45.218C1.82523 51.5256 4.08941 56.9807 8.55383 61.4321C13.0443 65.9095 18.5295 68.1813 24.8555 68.1813C31.1554 68.1813 36.6122 65.9119 41.0766 61.4345C41.0766 61.4345 41.0766 61.4345 41.079 61.4321L41.7398 60.7733C42.0974 60.4167 42.6753 60.4167 43.0329 60.7733L43.6937 61.4321C48.1842 65.9095 53.6694 68.1813 59.9953 68.1813C66.2953 68.1813 71.752 65.9119 76.2165 61.4345L76.9175 60.7355C77.0928 60.5607 77.3249 60.4639 77.5688 60.4639Z" fill="black"/>
</g>
<defs>
<clipPath id="clip0_3217_1370">
<rect width="120" height="70" fill="white"/>
</clipPath>
</defs>
</svg>
