<svg width="354" height="480" viewBox="0 0 354 480" fill="none" xmlns="http://www.w3.org/2000/svg">
<g clip-path="url(#clip0_3217_1302)">
<path d="M9.96022 225.194L16.2995 206.551L74.8131 226.379L68.4738 245.023C65.7275 253.099 60.5473 259.015 52.9398 262.767C45.2463 266.56 37.353 267.091 29.2779 264.355C21.1979 261.617 15.2923 256.415 11.5679 248.747C7.74762 241.118 7.21559 233.266 9.96022 225.194Z" fill="#A7A7A7"/>
<path d="M39.3824 267.535C44.2122 267.534 48.9804 266.383 53.6446 264.085C61.5858 260.173 67.0625 253.92 69.9278 245.501L76.2617 226.866C76.5247 226.09 76.1115 225.248 75.3349 224.986C74.5584 224.724 73.716 225.137 73.453 225.913L67.1152 244.548C64.5167 252.195 59.5424 257.874 52.3316 261.43C45.0397 265.021 37.4588 265.532 29.8015 262.937C22.148 260.341 16.4773 255.348 12.9478 248.089C9.32935 240.854 8.81365 233.316 11.4161 225.673L17.75 207.042C18.0129 206.266 17.5997 205.425 16.8232 205.162C16.0466 204.904 15.2042 205.313 14.9413 206.089L8.60345 224.721C5.73811 233.143 6.30386 241.445 10.2853 249.398C14.1701 257.379 20.4163 262.881 28.8464 265.739C32.3775 266.939 35.8973 267.536 39.3824 267.535Z" fill="black"/>
<path d="M83.1725 79.2613C83.4606 80.695 83.3793 82.1795 82.9239 83.7132C81.3577 88.109 79.0238 90.8316 75.9188 91.8908C75.6878 91.9555 75.4239 92.0036 75.1288 92.0465C74.6274 91.0298 74.2125 89.872 73.8875 88.5632C73.0232 85.1033 73.4189 81.9658 75.0796 79.1526C75.6744 78.018 76.4619 77.1577 77.4356 76.5749C78.6622 75.8634 79.7998 75.721 80.8532 76.1495C82.0501 76.5606 82.8216 77.5918 83.1725 79.2613ZM87.416 88.507C87.6582 86.5491 88.4189 84.943 89.6882 83.6851C91.1071 82.1975 92.6916 81.6787 94.4418 82.1288C96.5668 82.706 97.7692 84.1361 98.0507 86.4144C98.2956 88.1854 97.8829 90.014 96.8158 91.9067C95.1769 94.6559 92.7297 96.4658 89.4792 97.3383C89.4369 97.2525 89.3946 97.1667 89.3555 97.0874C87.6256 94.3129 86.9802 91.4549 87.416 88.507ZM109.797 105.593C110.808 105.935 111.903 106.13 113.08 106.177C115.736 106.23 118.144 105.358 120.306 103.562L81.287 151.553L62.4642 206.911L42.2073 200.046L61.5146 143.264L61.7745 83.1939C62.7749 84.7976 63.9583 86.3972 65.3212 87.9862C66.5982 89.6176 68.2007 90.793 70.1387 91.5157C71.9468 92.1999 73.6146 92.3746 75.1288 92.0465C76.192 93.8859 77.6399 95.3222 79.4689 96.3654C82.3046 97.9586 85.4884 98.3337 89.0106 97.4874C89.1824 97.4026 89.3375 97.3508 89.4875 97.3301C91.1394 99.9298 93.3597 101.666 96.1633 102.545C97.2167 102.973 98.3306 103.208 99.5132 103.257C101.114 103.304 102.773 102.987 104.486 102.303C104.636 102.282 104.751 102.25 104.835 102.212C104.878 102.298 104.92 102.384 104.959 102.463C106.412 103.95 108.031 104.994 109.797 105.593ZM101.455 94.4244C101.682 91.6862 102.483 89.6373 103.865 88.2747C104.16 88.0226 104.489 87.7823 104.848 87.552C104.934 87.5096 104.985 87.4556 105.005 87.3964C105.679 87.064 106.358 86.832 107.032 86.7087C108.108 86.4409 109.15 86.5795 110.16 87.1362C111.209 87.7721 111.951 88.6945 112.389 89.8985C112.575 90.3851 112.712 90.9208 112.791 91.5139C112.95 93.3273 112.561 94.988 111.623 96.5012C110.069 99.2129 107.804 101.118 104.822 102.219C103.272 100.566 102.237 98.7417 101.724 96.7372C101.561 95.9725 101.47 95.2049 101.455 94.4244ZM172.439 94.3134C171.698 98.7743 170.563 103.245 169.039 107.726C163.462 124.13 154.015 137.11 140.699 146.668C123.077 160.607 107.557 179.447 94.1389 203.184C89.6486 210.388 83.8544 213.241 76.758 211.755L62.4642 206.911L81.2887 151.548L120.308 103.557C118.149 105.36 115.74 106.232 113.082 106.172C111.899 106.123 110.805 105.929 109.799 105.588C108.033 104.989 106.413 103.945 104.948 102.465C104.905 102.379 104.863 102.293 104.824 102.214C107.801 101.111 110.07 99.208 111.625 96.4962C112.563 94.9831 112.952 93.3223 112.793 91.509C112.712 90.9208 112.577 90.3802 112.39 89.8936C111.953 88.6895 111.209 87.7721 110.161 87.1313C109.15 86.5795 108.109 86.436 107.034 86.7038C106.359 86.8271 105.683 87.0541 105.007 87.3915C104.985 87.4556 104.934 87.5096 104.849 87.5471C104.49 87.7774 104.161 88.0177 103.867 88.2697C102.49 89.6341 101.688 91.6829 101.456 94.4195C101.472 95.1999 101.563 95.9676 101.728 96.7273C102.245 98.7335 103.275 100.556 104.826 102.209C104.74 102.251 104.624 102.283 104.476 102.299C102.763 102.984 101.109 103.303 99.5033 103.253C98.3208 103.205 97.2069 102.97 96.1535 102.542C93.3548 101.665 91.1295 99.9265 89.4777 97.3268C92.7265 96.4593 95.1736 94.6493 96.8142 91.8952C97.8796 90.0074 98.2891 88.1722 98.0491 86.4029C97.7677 84.1246 96.5636 82.6994 94.4403 82.1173C92.695 81.6689 91.1105 82.1876 89.6866 83.6735C88.4124 84.9298 87.6566 86.5376 87.4145 88.4955C86.9737 91.4417 87.6241 94.3013 89.3557 97.071C89.398 97.1568 89.4403 97.2426 89.4794 97.3219C89.3294 97.3425 89.1742 97.3944 89.0024 97.4791C85.4753 98.3238 82.2964 97.9504 79.4607 96.3571C77.6317 95.314 76.1855 93.8727 75.1206 92.0382C75.4157 91.9953 75.6796 91.9472 75.9106 91.8826C79.0156 90.8233 81.3512 88.0958 82.9157 83.7049C83.3662 82.1696 83.4475 80.685 83.1643 79.253C82.8183 77.5852 82.0419 76.5523 80.8433 76.1461C79.7899 75.7177 78.6523 75.8601 77.4258 76.5716C76.452 77.1544 75.6694 78.0163 75.0697 79.1492C73.409 81.9625 73.0133 85.0999 73.8776 88.5599C74.2076 89.8704 74.6224 91.0282 75.1189 92.0432C73.5981 92.3746 71.937 92.1965 70.1289 91.5124C68.1925 90.7847 66.59 89.6093 65.3113 87.9829C63.9484 86.3939 62.7683 84.8008 61.7647 83.1906L61.5048 143.261L42.1991 200.038L25.7252 194.456C19.3522 192.087 16.7017 187.038 17.7834 179.311C22.0143 151.548 21.3297 126.545 15.7262 104.313C10.99 88.6381 11.4107 72.5989 16.9882 56.1957C18.512 51.714 20.3358 47.4824 22.4697 43.4879C30.1865 28.8653 41.8663 17.6971 57.5091 9.98326C77.3815 0.183676 97.8268 -1.15765 118.843 5.96418C139.86 13.086 155.262 26.5751 165.053 46.4265C172.778 62.0643 175.234 78.0228 172.439 94.3134Z" fill="#FFE14F"/>
<path d="M80.3742 213.552C86.3856 213.55 91.4398 210.318 95.4401 203.902C108.733 180.4 124.269 161.541 141.65 147.795C155.105 138.146 164.817 124.804 170.466 108.182C172.005 103.65 173.169 99.0603 173.92 94.5402C176.752 78.0231 174.226 61.6154 166.411 45.7802C156.487 25.6611 140.651 11.8003 119.347 4.57987C98.0458 -2.63674 77.0287 -1.26906 56.8861 8.65962C41.0287 16.4759 29.022 27.9581 21.1946 42.7858C19.0377 46.8276 17.1628 51.1743 15.624 55.7023C9.97507 72.3205 9.54564 88.81 14.3513 104.708C19.8623 126.572 20.547 151.596 16.371 179.025C15.1865 187.513 18.1791 193.14 25.26 195.779L76.3332 213.086C76.3911 213.105 76.4452 213.12 76.5032 213.132C77.8321 213.413 79.1263 213.552 80.3742 213.552ZM92.6665 2.99228C101.17 2.99019 109.758 4.45099 118.399 7.38237C138.931 14.3406 154.192 27.6997 163.76 47.0894C171.294 62.3533 173.731 78.1512 171.003 94.0469C170.275 98.4164 169.154 102.848 167.661 107.229C162.214 123.253 152.865 136.105 139.869 145.429C122.129 159.457 106.342 178.609 92.8907 202.393C88.7821 208.987 83.6393 211.575 77.1993 210.256L64.3972 205.917L82.647 152.233L121.487 104.473C121.966 103.878 121.92 103.022 121.379 102.485C120.839 101.949 119.973 101.918 119.39 102.401C117.496 103.98 115.456 104.721 113.15 104.672C112.149 104.633 111.183 104.46 110.306 104.163C109.306 103.824 108.352 103.314 107.448 102.639C109.755 101.376 111.598 99.5579 112.939 97.2185C114.018 95.4774 114.486 93.4933 114.297 91.3666C114.193 90.5985 114.031 89.9423 113.803 89.3518C113.262 87.8543 112.301 86.6696 110.96 85.8555C109.558 85.0877 108.144 84.8989 106.703 85.2583C105.988 85.3858 105.173 85.66 104.381 86.0501C104.215 86.1312 104.068 86.2432 103.948 86.3744C103.581 86.6177 103.245 86.8648 102.936 87.1274C101.22 88.8184 100.261 91.2002 100.005 94.2881C100.002 94.3383 100.002 94.3885 100.001 94.4387C100.021 95.3072 100.121 96.1795 100.306 97.0286C100.711 98.611 101.391 100.081 102.337 101.444C101.39 101.679 100.479 101.788 99.5823 101.761C98.5933 101.719 97.6352 101.514 96.7467 101.156C94.7843 100.539 93.2044 99.5199 91.9145 98.0574C94.5612 96.9412 96.644 95.1266 98.1244 92.6443C99.3651 90.4439 99.8409 88.2822 99.5517 86.1941C99.2009 83.334 97.5749 81.4238 94.863 80.6833C93.2599 80.2746 90.9032 80.2829 88.6463 82.6457C87.1701 84.1051 86.2617 86.0198 85.9752 88.3088C85.5688 91.0224 86.0046 93.7087 87.2711 96.3023C84.6748 96.6657 82.3608 96.2571 80.2246 95.0534C79.1701 94.4515 78.274 93.7145 77.517 92.8192C80.5502 91.3594 82.8265 88.4717 84.3498 84.1907C84.8951 82.3494 84.9882 80.6124 84.6526 78.9489C84.0738 76.1892 82.5403 75.132 81.3544 74.7309C80.4118 74.3451 78.7583 74.0946 76.7182 75.2762C75.4933 76.0099 74.5156 77.0755 73.7927 78.4459C71.9723 81.5304 71.5154 85.07 72.4764 88.9026C72.6307 89.5202 72.8044 90.1068 72.9974 90.6703C72.2673 90.601 71.4985 90.4121 70.6911 90.1074C68.9992 89.4709 67.6356 88.4715 66.5156 87.0475C65.1716 85.4807 64.0246 83.9293 63.0592 82.3856C62.7116 81.8299 62.0356 81.5714 61.3981 81.7453C60.7606 81.9269 60.3239 82.5059 60.3198 83.166L60.0718 142.971L41.3272 198.098L26.2575 192.992C20.6175 190.893 18.3277 186.459 19.3071 179.457C23.5411 151.653 22.8372 126.236 17.2104 103.92C12.5708 88.5545 12.9845 72.6787 18.4363 56.655C19.9248 52.2776 21.7341 48.0776 23.8214 44.1747C31.355 29.9029 42.9211 18.8493 58.2028 11.3149C69.4429 5.77321 80.972 2.99514 92.6665 2.99228ZM115.208 107.489L80.1787 150.566C80.0705 150.705 79.9816 150.86 79.9236 151.026L61.5888 204.956L44.1395 199.043L62.9614 143.688C63.0117 143.538 63.0388 143.379 63.0388 143.217L63.2702 87.7662C63.5792 88.1522 63.8997 88.5342 64.2242 88.9162C65.6261 90.703 67.4608 92.0497 69.6473 92.8713C71.32 93.5 72.9155 93.7583 74.4222 93.6228C75.5537 95.2784 77.0099 96.6213 78.7636 97.6206C81.792 99.3259 85.1955 99.7882 88.8891 99.0115C90.6541 101.404 92.9562 103.06 95.7415 103.931C96.8308 104.379 98.125 104.652 99.4694 104.71C101.08 104.764 102.707 104.493 104.365 103.91C105.875 105.326 107.547 106.348 109.348 106.962C110.495 107.347 111.739 107.571 113.052 107.625C113.79 107.652 114.509 107.597 115.208 107.489ZM108.112 88.0447C108.588 88.0446 109.024 88.168 109.476 88.4149C110.175 88.8432 110.704 89.4954 111.021 90.3792C111.175 90.7845 111.283 91.2168 111.349 91.6877C111.472 93.1119 111.159 94.4475 110.39 95.6944C109.145 97.8601 107.472 99.4006 105.273 100.409C104.265 99.1544 103.567 97.7843 103.192 96.3331C103.065 95.7464 102.988 95.0941 102.969 94.4418C103.17 92.1181 103.831 90.3887 104.933 89.3038C105.087 89.1764 105.346 88.9911 105.632 88.8057C105.748 88.7401 105.852 88.6667 105.945 88.5818C106.409 88.3732 106.872 88.2303 107.324 88.1453C107.603 88.0757 107.861 88.0448 108.112 88.0447ZM93.2938 83.4281C93.5951 83.428 93.8655 83.4781 94.1012 83.536C95.6233 83.9525 96.4034 84.8902 96.6116 86.5692C96.8121 88.0436 96.4678 89.5336 95.5556 91.1511C94.311 93.2358 92.5567 94.6837 90.2152 95.5296C88.9873 93.2911 88.5629 91.0487 88.9113 88.694C89.1203 87.0265 89.7234 85.7333 90.759 84.7102C91.7368 83.6909 92.6022 83.4283 93.2938 83.4281ZM79.6538 77.3637C79.932 77.3636 80.1521 77.4292 80.3221 77.4986C80.832 77.6722 81.4346 78.0426 81.751 79.5402C81.9864 80.7135 81.9126 81.9757 81.5337 83.2727C80.2578 86.8511 78.395 89.2216 76.011 90.2566C75.7639 89.6198 75.5477 88.9212 75.3587 88.1763C74.5829 85.0847 74.9236 82.3711 76.3885 79.885C76.8988 78.9238 77.49 78.2713 78.2319 77.8272C78.827 77.472 79.2906 77.3638 79.6538 77.3637ZM103.631 86.8917L103.631 86.8956C103.631 86.8917 103.631 86.8917 103.631 86.8917Z" fill="black"/>
<path d="M156.239 71.7121C157.379 71.6751 158.355 72.0059 159.172 72.706C159.99 73.4061 160.448 74.3364 160.545 75.4903C160.742 77.8046 160.834 80.1217 160.82 82.4416C160.793 83.5586 160.397 84.5126 159.636 85.31C158.871 86.1057 157.932 86.4909 156.819 86.4655C155.701 86.4384 154.747 86.0436 153.95 85.2843C153.218 84.5419 152.833 83.6037 152.796 82.4699C152.766 80.2782 152.684 78.1405 152.552 76.0568C152.516 74.918 152.847 73.9424 153.549 73.1249C154.25 72.3075 155.144 71.8299 156.239 71.7121ZM156.333 56.2366C156.771 57.2309 156.742 58.2377 156.253 59.2701C155.781 60.2368 155.02 60.924 153.965 61.3415C152.97 61.779 151.963 61.7509 150.93 61.2636C149.963 60.793 149.264 60.0671 148.827 59.0728C145.176 49.5376 139.138 40.8097 130.714 32.8939C129.939 32.0706 129.524 31.1224 129.466 30.0477C129.473 28.9947 129.824 28.0587 130.525 27.2412C131.312 26.3814 132.261 25.9667 133.374 25.9921C134.45 25.9334 135.384 26.2886 136.182 27.0479C145.61 35.9411 152.329 45.6696 156.333 56.2366Z" fill="white"/>
<path d="M12.3543 181.652C14.5556 180.566 16.8224 180.422 19.1561 181.213L91.1271 205.608C93.4608 206.399 95.1758 207.894 96.2555 210.092C97.3402 212.291 97.4835 214.556 96.6905 216.889L96.3367 217.93C95.5437 220.263 94.0473 221.978 91.8476 223.059C89.6463 224.144 87.3796 224.289 85.0459 223.498L13.0749 199.102C10.7412 198.311 9.02617 196.817 7.94643 194.619C6.86176 192.42 6.71842 190.154 7.51147 187.821L7.86524 186.781C8.6583 184.448 10.1579 182.739 12.3543 181.652Z" fill="#A7A7A7"/>
<path d="M88.0002 225.423C89.542 225.423 91.0569 225.06 92.5332 224.33C95.0878 223.071 96.8504 221.061 97.7708 218.355L98.1228 217.313C99.0432 214.608 98.8739 211.942 97.6148 209.392C96.3558 206.841 94.343 205.082 91.6306 204.164L19.6705 179.787C16.9619 178.869 14.2917 179.044 11.7371 180.298C9.18257 181.561 7.41994 183.568 6.49953 186.277L6.14762 187.319C5.22721 190.024 5.39651 192.69 6.65554 195.241C7.91459 197.791 9.92735 199.55 12.6359 200.468L84.596 224.845C85.7397 225.231 86.8758 225.423 88.0002 225.423ZM90.6754 206.97C92.6421 207.637 94.0406 208.856 94.952 210.704C95.8635 212.552 95.9789 214.401 95.3137 216.365L94.958 217.407C94.2928 219.371 93.0674 220.768 91.2201 221.679C89.3728 222.591 87.5179 222.711 85.5513 222.044L13.5873 197.666C11.6244 197.003 10.2221 195.78 9.3106 193.932C8.39915 192.088 8.28373 190.235 8.95277 188.271L9.30468 187.229C9.96985 185.265 11.1952 183.872 13.0425 182.957C14.8937 182.046 16.7486 181.929 18.7114 182.593L90.6754 206.97Z" fill="black"/>
<path d="M6.71932 198.471C8.92064 197.385 11.1872 197.24 13.521 198.031L85.497 222.429C87.8307 223.22 89.5457 224.714 90.6254 226.912C91.7101 229.111 91.8534 231.377 91.0604 233.71L90.7066 234.75C89.9135 237.083 88.4172 238.799 86.2175 239.879C84.0162 240.965 81.7495 241.11 79.4158 240.319L7.44474 215.923C5.111 215.132 3.39611 213.637 2.31637 211.439C1.2317 209.24 1.08835 206.975 1.88141 204.642L2.23517 203.601C3.0233 201.266 4.51801 199.556 6.71932 198.471Z" fill="#A7A7A7"/>
<path d="M82.4454 242.224C83.9872 242.224 85.5021 241.861 86.9784 241.131C89.533 239.872 91.2956 237.861 92.216 235.156L92.5679 234.114C93.4883 231.409 93.3191 228.743 92.06 226.192C90.801 223.642 88.7882 221.883 86.0797 220.965L14.1157 196.588C11.4071 195.67 8.73689 195.844 6.18232 197.099C3.62775 198.358 1.86514 200.368 0.944728 203.078L0.592814 204.12C-0.327603 206.825 -0.158293 209.491 1.10074 212.041C2.35978 214.592 4.37255 216.351 7.08496 217.269L79.0451 241.646C80.1888 242.032 81.3248 242.224 82.4454 242.224ZM85.1244 223.771C87.0911 224.438 88.4858 225.657 89.4011 227.505C90.3125 229.353 90.428 231.201 89.7628 233.166L89.407 234.208C88.7418 236.172 87.5165 237.569 85.6692 238.48C83.8218 239.391 81.9631 239.511 80.0003 238.844L8.04016 214.467C6.07347 213.8 4.67496 212.581 3.76351 210.733C2.85206 208.888 2.73664 207.036 3.40567 205.072L3.75761 204.03C4.42279 202.066 5.64811 200.669 7.49544 199.757C9.34277 198.85 11.1976 198.726 13.1643 199.393L85.1244 223.771Z" fill="black"/>
<path d="M193.314 395.2C186.773 382.996 181.544 371.379 177.62 360.346C183.592 345.493 195.202 340.394 212.452 345.054C217.676 357.842 223.028 370.018 228.514 381.577C233.951 393.16 240.461 403.187 248.04 411.653C249.66 411.691 251.273 411.813 252.879 412.028C263.04 413.414 270.054 418.185 273.913 426.343C277.834 434.408 276.683 441.948 270.461 448.959C264.171 455.952 255.717 462.366 245.103 468.2C234.49 474.035 224.817 477.445 216.08 478.43C207.339 479.307 201.124 476.158 197.433 468.986C193.761 461.745 194.283 453.115 198.993 443.096C201.554 437.455 206.246 431.695 213.071 425.82C206.38 417.703 199.797 407.495 193.314 395.2Z" fill="#D66CFF"/>
<path d="M213.29 479.986C214.237 479.987 215.21 479.937 216.219 479.836C225.12 478.831 235.068 475.332 245.807 469.429C256.515 463.541 265.172 456.966 271.545 449.881C278.181 442.406 279.419 434.25 275.229 425.634C271.167 417.044 263.709 411.951 253.064 410.501C251.612 410.308 250.151 410.184 248.706 410.134C241.441 401.91 235.095 392.078 229.846 380.898C224.403 369.421 219.011 357.161 213.823 344.453C213.514 343.696 212.648 343.333 211.891 343.642C211.134 343.95 210.767 344.815 211.08 345.572C216.291 358.33 221.703 370.64 227.169 382.16C232.642 393.814 239.29 404.052 246.926 412.58C247.2 412.885 247.587 413.067 248 413.075C249.545 413.11 251.118 413.23 252.679 413.435C262.392 414.757 268.899 419.167 272.56 426.911C276.232 434.465 275.175 441.328 269.335 447.908C263.193 454.735 254.792 461.105 244.377 466.831C233.982 472.545 224.405 475.928 215.905 476.887C207.784 477.715 202.162 474.873 198.749 468.241C195.317 461.474 195.848 453.202 200.335 443.665C202.799 438.243 207.387 432.62 213.981 426.932L219.277 423.2C219.945 422.73 220.108 421.803 219.636 421.135C219.165 420.468 218.237 420.309 217.569 420.776L213.347 423.751C207.044 415.918 200.752 406.066 194.629 394.45C188.151 382.363 182.902 370.709 179.024 359.8C178.75 359.028 177.907 358.626 177.131 358.9C176.362 359.174 175.956 360.023 176.231 360.791C180.159 371.839 185.47 383.628 192.01 395.839C198.21 407.602 204.598 417.604 211.018 425.584C204.64 431.253 200.144 436.91 197.646 442.418C192.761 452.804 192.242 461.952 196.111 469.584C199.659 476.498 205.432 479.985 213.29 479.986Z" fill="black"/>
<path d="M113.021 386.84C113.466 373.007 114.753 360.336 116.878 348.824C129.489 338.945 142.1 340.327 154.71 352.974C152.832 366.656 151.371 379.871 150.335 392.619C149.245 405.363 149.864 417.296 152.19 428.411C153.574 429.253 154.911 430.164 156.194 431.152C164.306 437.426 167.99 445.058 167.248 454.049C166.606 462.991 161.833 468.944 152.932 471.909C143.982 474.823 133.446 476.155 121.33 475.908C109.214 475.661 99.1274 473.785 91.0655 470.276C83.0539 466.67 79.247 460.84 79.6413 452.787C80.0857 444.684 84.8587 437.472 93.9563 431.148C98.9998 427.542 105.949 424.898 114.803 423.218C113.071 412.849 112.476 400.719 113.021 386.84Z" fill="#D66CFF"/>
<path d="M124.105 477.418C135.186 477.418 145.025 476.04 153.392 473.318C162.884 470.156 168.04 463.713 168.728 454.154C169.508 444.692 165.597 436.553 157.102 429.979C155.955 429.099 154.753 428.261 153.512 427.485C151.332 416.737 150.76 405.055 151.812 392.747C152.844 380.092 154.312 366.78 156.179 353.179C156.291 352.369 155.723 351.62 154.911 351.508C154.092 351.403 153.35 351.963 153.238 352.774C151.363 366.429 149.887 379.794 148.855 392.5C147.761 405.325 148.391 417.513 150.737 428.713C150.822 429.114 151.066 429.465 151.417 429.678C152.759 430.492 154.061 431.384 155.286 432.326C163.043 438.325 166.471 445.39 165.767 453.926C165.164 462.304 160.813 467.72 152.461 470.504C143.719 473.349 133.257 474.669 121.357 474.426C109.493 474.187 99.5022 472.334 91.6568 468.917C84.2055 465.566 80.7543 460.312 81.1215 452.861C81.5389 445.286 86.1417 438.387 94.8027 432.369C99.6491 428.906 106.439 426.323 115.004 424.69L121.458 424.107C122.273 424.033 122.876 423.312 122.803 422.497C122.729 421.682 122.014 421.088 121.191 421.153L116.043 421.621C114.505 411.687 113.987 400.013 114.501 386.894C114.942 373.197 116.233 360.484 118.335 349.091C118.486 348.288 117.953 347.512 117.145 347.365C116.322 347.215 115.564 347.751 115.417 348.554C113.288 360.094 111.982 372.957 111.537 386.79C111.015 400.074 111.545 411.93 113.11 422.045C104.743 423.771 98.0143 426.427 93.0945 429.944C83.6567 436.499 78.6286 444.163 78.161 452.706C77.732 461.4 81.8712 467.763 90.4548 471.627C98.6751 475.202 109.044 477.14 121.299 477.387C122.242 477.407 123.178 477.418 124.105 477.418Z" fill="black"/>
<path d="M213.076 131.105C207.436 131.878 202.544 134.214 198.392 138.115L20.1256 308.139C15.2075 312.839 12.4975 318.544 11.9969 325.247C11.4997 331.951 13.3124 337.999 17.4313 343.39C21.5616 348.738 26.9583 352.011 33.6283 353.213L321.305 405.029C327.975 406.23 334.179 405.046 339.923 401.477C345.675 397.864 349.497 392.81 351.386 386.311C353.235 379.805 352.679 373.494 349.716 367.372L240.303 145.531C237.741 140.42 233.969 136.545 228.993 133.906C224.034 131.224 218.724 130.289 213.076 131.105Z" fill="#D66CFF"/>
<path d="M326.269 406.843C331.362 406.842 336.212 405.429 340.734 402.622C346.782 398.827 350.852 393.445 352.835 386.625C354.78 379.785 354.186 373.061 351.073 366.635L241.618 144.885C238.922 139.512 234.904 135.387 229.672 132.613C224.448 129.792 218.784 128.797 212.836 129.651C206.924 130.459 201.711 132.945 197.351 137.041L19.1037 306.947C13.9325 311.885 11.0448 317.961 10.5257 325.009C10.0028 332.049 11.9337 338.491 16.2644 344.153C20.6106 349.78 26.3715 353.268 33.3809 354.529L321.076 406.373C322.83 406.689 324.565 406.843 326.269 406.843ZM216.893 132.321C220.877 132.321 224.691 133.293 228.273 135.226C232.96 137.711 236.556 141.404 238.963 146.205L348.414 367.94C351.195 373.683 351.727 379.696 349.991 385.811C348.217 391.906 344.576 396.719 339.165 400.113C333.778 403.457 327.869 404.585 321.602 403.455L33.907 351.611C27.6433 350.485 22.4968 347.363 18.618 342.346C14.7471 337.286 13.017 331.524 13.4857 325.225C13.9505 318.933 16.5328 313.505 21.1552 309.089L199.391 139.195C203.283 135.539 207.947 133.311 213.249 132.588C214.478 132.411 215.692 132.322 216.893 132.321Z" fill="black"/>
<path d="M195.92 203.252C197.267 208.129 196.849 213.145 194.658 218.298C192.468 223.451 189.157 227.218 184.719 229.604C180.234 232.009 175.914 232.332 171.763 230.573C167.754 228.874 165.059 225.577 163.673 220.684C162.274 215.828 162.669 210.821 164.859 205.668C167.05 200.516 170.389 196.737 174.874 194.332C179.359 191.927 183.607 191.573 187.618 193.273C191.768 195.035 194.537 198.36 195.92 203.252Z" fill="white"/>
<path d="M187.519 200.255C188.529 204.439 188.075 208.781 186.159 213.289C184.245 217.794 181.439 221.119 177.738 223.267C173.973 225.471 170.5 225.895 167.316 224.546C166.6 224.242 165.935 223.875 165.313 223.443C164.625 222.182 164.059 220.781 163.615 219.241C162.217 214.387 162.612 209.384 164.801 204.234C166.99 199.083 170.328 195.307 174.811 192.903C176.227 192.155 177.622 191.605 178.993 191.259C179.733 191.405 180.463 191.628 181.179 191.932C184.36 193.28 186.474 196.055 187.519 200.255Z" fill="black"/>
<path d="M177.789 233.135C180.509 233.135 183.283 232.381 186.089 230.879C190.838 228.365 194.424 224.327 196.74 218.88C199.052 213.437 199.478 208.041 198.008 202.843C196.502 197.524 193.424 193.847 188.862 191.91C184.481 190.055 179.779 190.431 174.899 193.049C170.13 195.605 166.54 199.659 164.228 205.102C161.912 210.548 161.494 215.929 162.984 221.093C164.489 226.404 167.474 230.046 171.859 231.906C173.802 232.727 175.78 233.136 177.789 233.135ZM183.232 193.714C184.762 193.714 186.245 194.022 187.706 194.643C191.453 196.233 193.894 199.181 195.16 203.654C196.441 208.185 196.058 212.921 194.016 217.727C191.975 222.529 188.841 226.077 184.702 228.267C180.595 230.468 176.778 230.77 173.026 229.177C169.457 227.664 167.109 224.755 165.843 220.278C164.546 215.778 164.926 211.061 166.967 206.259C169.008 201.453 172.154 197.89 176.308 195.662C178.727 194.36 181.022 193.715 183.232 193.714Z" fill="black"/>
<path d="M147.622 257.908C150.733 257.908 153.956 256.842 157.26 254.715C161.874 251.668 165.442 247.105 167.873 241.141C168.024 240.775 168.02 240.362 167.862 239.995C167.704 239.632 167.406 239.343 167.039 239.2L137.043 227.523C136.672 227.38 136.262 227.388 135.903 227.55C135.544 227.709 135.261 228.006 135.118 228.376C132.829 234.368 132.395 240.158 133.835 245.592C135.178 251.344 138.199 255.184 142.816 257.017C144.381 257.615 145.984 257.908 147.622 257.908ZM164.523 241.408C162.355 246.129 159.371 249.77 155.634 252.237C151.383 254.974 147.534 255.638 143.879 254.261C140.186 252.798 137.837 249.734 136.714 244.905C136.71 244.89 136.706 244.874 136.702 244.859C135.529 240.451 135.758 235.741 137.382 230.843L164.523 241.408Z" fill="black"/>
<path d="M153.17 279.003C152.006 276.009 150.261 273.501 147.934 271.472C145.676 269.354 141.142 266.115 134.339 261.761C127.739 257.386 110.232 244.012 81.8212 221.634C82.1774 214.833 80.2701 208.542 76.1034 202.76C71.199 195.956 64.6234 191.89 56.378 190.554C48.1287 189.217 40.5773 190.999 33.7205 195.894C26.9089 200.8 22.832 207.397 21.4816 215.689C20.1467 223.885 21.9321 231.381 26.8326 238.185C30.5411 243.391 35.1871 247.023 40.7634 249.077C45.9262 255.52 53.6459 263.329 63.9219 272.506C74.2141 281.584 86.6397 291.407 101.198 301.978C104.881 304.578 108.214 306.871 111.199 308.857C120.14 314.86 126.034 318.018 128.891 318.332C132.89 318.679 136.199 318.213 138.811 316.935C141.406 315.755 144.065 313.732 146.786 310.867C149.366 307.932 151.532 304.8 153.275 301.479C154.992 298.001 155.674 293.984 155.314 289.418C155 285.458 154.284 281.989 153.17 279.003Z" fill="#D66CFF"/>
<path d="M111.201 310.277C111.68 310.277 112.152 310.046 112.438 309.617C112.894 308.934 112.709 308.015 112.029 307.564C109.061 305.588 105.708 303.284 102.06 300.71C87.6258 290.232 75.1193 280.352 64.9079 271.345C54.743 262.275 47.0044 254.456 41.9203 248.107C41.7542 247.899 41.5301 247.737 41.279 247.644C36.0125 245.703 31.5578 242.218 28.0422 237.282C23.3948 230.837 21.6803 223.642 22.9412 215.891C24.2176 208.043 28.1368 201.712 34.579 197.071C41.0715 192.438 48.3208 190.731 56.1338 191.999C63.939 193.264 70.2523 197.17 74.8959 203.607C78.8441 209.08 80.6748 215.109 80.3375 221.532C80.3143 222.011 80.5229 222.474 80.9015 222.771C109.222 245.066 126.929 258.589 133.528 262.958C134.212 263.409 135.131 263.224 135.584 262.54C136.036 261.857 135.85 260.938 135.167 260.487C128.672 256.199 111.235 242.885 83.3246 220.918C83.515 214.094 81.4913 207.694 77.2958 201.882C72.1732 194.784 65.2108 190.477 56.6018 189.081C47.989 187.685 39.9977 189.566 32.8444 194.67C25.7337 199.79 21.4164 206.773 20.0046 215.424C18.6121 223.978 20.5043 231.918 25.623 239.016C29.4013 244.315 34.1921 248.108 39.8566 250.285C45.045 256.699 52.8067 264.53 62.933 273.568C73.2255 282.642 85.8015 292.583 100.329 303.123C104.015 305.724 107.392 308.043 110.378 310.031C110.633 310.196 110.915 310.277 111.201 310.277Z" fill="black"/>
</g>
<defs>
<clipPath id="clip0_3217_1302">
<rect width="354" height="480" fill="white" transform="matrix(-1 0 0 1 354 0)"/>
</clipPath>
</defs>
</svg>
