<svg width="60" height="121" viewBox="0 0 60 121" fill="none" xmlns="http://www.w3.org/2000/svg">
<g clip-path="url(#clip0_2660_1926)">
<path d="M41.2961 108.989V101.867H18.9492V108.989C18.9492 112.073 20.0345 114.701 22.2021 116.871C24.3972 119.066 27.0338 120.161 30.1211 120.161C33.2053 120.161 35.8328 119.063 38.0034 116.871C40.2016 114.704 41.2961 112.076 41.2961 108.989Z" fill="#A7A7A7"/>
<path d="M30.1027 121.002C26.798 121.002 23.9299 119.811 21.5812 117.462C19.2542 115.139 18.0781 112.285 18.0781 108.977V101.855C18.0781 101.386 18.4605 101.004 18.9295 101.004C19.3986 101.004 19.781 101.383 19.781 101.855V108.977C19.781 111.856 20.7659 114.237 22.7862 116.257C24.8318 118.303 27.2237 119.299 30.1027 119.299C32.9781 119.299 35.3592 118.303 37.3795 116.261C39.4323 114.233 40.4244 111.852 40.4244 108.977V101.855C40.4244 101.386 40.8033 101.004 41.2759 101.004C41.7485 101.004 42.1273 101.383 42.1273 101.855V108.977C42.1273 112.285 40.9331 115.139 38.5845 117.466C36.2683 119.807 33.411 121.002 30.1027 121.002Z" fill="#121212"/>
<path d="M36.4899 50.2283C36.4163 49.7715 36.2477 49.3852 35.984 49.0725C35.6468 48.6862 35.2728 48.5053 34.8619 48.5299C34.4051 48.5299 34.0188 48.7935 33.7061 49.3239C33.4425 49.7807 33.2953 50.2989 33.2708 50.8783C33.2953 52.5645 33.7766 53.7724 34.7178 54.4929C34.7914 54.542 34.8742 54.588 34.9723 54.637C35.2605 54.3488 35.5395 53.9993 35.8031 53.5885C36.5022 52.5063 36.7321 51.3842 36.4899 50.2283ZM31.1768 52.0004C31.3209 51.3014 31.2504 50.6637 30.9591 50.0843C30.6464 49.4098 30.1651 49.048 29.5121 48.9989C28.718 48.9499 28.1386 49.2994 27.7768 50.0475C27.4886 50.6269 27.415 51.3014 27.5591 52.0709C27.8013 53.2053 28.4268 54.1066 29.4385 54.7842C29.463 54.7596 29.4875 54.7351 29.5121 54.7106C30.4287 53.9625 30.9837 53.0612 31.1768 52.0004ZM21.5225 55.2532C21.1362 55.2532 20.7377 55.1919 20.3299 55.0724C19.4132 54.7842 18.6897 54.2047 18.1593 53.3371L25.9342 74.3104V95.7529H33.6724V73.7678L40.5797 53.1562C40.0493 53.5916 39.4576 53.9993 38.8077 54.3856C38.1822 54.7964 37.4924 55.011 36.7474 55.0356C36.0484 55.0601 35.4567 54.9283 34.9754 54.637C34.3959 55.1429 33.7337 55.4678 32.9856 55.6119C31.8298 55.8296 30.6955 55.5874 29.5856 54.8884C29.5366 54.8394 29.4906 54.8026 29.4415 54.7811C28.5739 55.4801 27.6082 55.8174 26.5474 55.7928C26.1366 55.8174 25.7288 55.7683 25.318 55.6487C24.7631 55.4801 24.2327 55.1797 23.7268 54.7443C23.6778 54.7198 23.641 54.6953 23.6195 54.6707C23.595 54.6953 23.5705 54.7198 23.546 54.7443C22.8715 55.0846 22.197 55.2532 21.5225 55.2532ZM25.6798 52.3959C25.922 51.4301 25.8852 50.6361 25.5725 50.0107C25.4989 49.8911 25.4161 49.7685 25.318 49.6489C25.2935 49.6244 25.2812 49.5998 25.2812 49.5753C25.0881 49.3822 24.8827 49.2258 24.668 49.1063C24.3308 48.8886 23.9568 48.8181 23.546 48.8886C23.1106 48.9836 22.7519 49.2136 22.4607 49.5753C22.3411 49.7194 22.2307 49.888 22.1357 50.0812C21.872 50.6852 21.8107 51.2983 21.9548 51.9237C22.1725 53.0336 22.7274 53.9472 23.6195 54.6707C24.3431 54.2844 24.9103 53.7786 25.318 53.1531C25.4621 52.914 25.5817 52.6626 25.6798 52.3959ZM1.38 44.1151C1.11634 45.7308 0.981445 47.3925 0.981445 49.1063C0.981445 55.3728 2.70444 60.9189 6.1535 65.7384C10.5652 72.5599 13.6862 80.9142 15.5196 90.7954C16.2186 93.7846 17.8711 95.4371 20.474 95.7498H25.9342V74.3074L18.1593 53.334C18.6897 54.2017 19.4132 54.7811 20.3299 55.0693C20.7407 55.1889 21.1362 55.2502 21.5225 55.2502C22.197 55.2502 22.8715 55.0816 23.546 54.7443C23.5705 54.7198 23.595 54.6953 23.6195 54.6707C22.7274 53.9472 22.1725 53.0305 21.9548 51.9237C21.8107 51.2983 21.872 50.6821 22.1357 50.0812C22.2307 49.888 22.3411 49.7194 22.4607 49.5753C22.7488 49.2136 23.1106 48.9836 23.546 48.8886C23.9568 48.815 24.3308 48.8886 24.668 49.1063C24.8857 49.2258 25.0911 49.3822 25.2812 49.5753C25.2812 49.5998 25.2935 49.6244 25.318 49.6489C25.413 49.7685 25.4989 49.8911 25.5725 50.0107C25.8852 50.6361 25.922 51.4332 25.6798 52.3959C25.5847 52.6595 25.4621 52.914 25.318 53.1562C24.9072 53.7816 24.3431 54.2906 23.6195 54.6738C23.6441 54.6983 23.6809 54.7229 23.7268 54.7474C24.2327 55.1827 24.7631 55.4832 25.318 55.6518C25.7288 55.7714 26.1366 55.8204 26.5474 55.7959C27.6082 55.8204 28.5709 55.4832 29.4415 54.7842C28.4298 54.1097 27.8013 53.2053 27.5622 52.0709C27.4181 51.2983 27.4886 50.6238 27.7799 50.0475C28.1416 49.2994 28.7211 48.9499 29.5151 48.9989C30.1651 49.048 30.6495 49.4098 30.9622 50.0843C31.2504 50.6637 31.324 51.3014 31.1799 52.0004C30.9867 53.0612 30.4318 53.9656 29.5151 54.7137C29.4906 54.7382 29.4661 54.7627 29.4415 54.7872C29.4906 54.8118 29.5366 54.8485 29.5856 54.8945C30.6955 55.5935 31.8268 55.8357 32.9856 55.6181C33.7337 55.474 34.3959 55.149 34.9754 54.6431C34.8803 54.5941 34.7945 54.5481 34.7209 54.499C33.7797 53.7755 33.2984 52.5706 33.2738 50.8844C33.2984 50.305 33.4425 49.7869 33.7092 49.3301C34.0219 48.7997 34.4082 48.536 34.865 48.536C35.2758 48.5115 35.6498 48.6924 35.9871 49.0787C36.2508 49.3914 36.4224 49.7777 36.493 50.2345C36.7352 51.3903 36.5052 52.5124 35.8062 53.5977C35.5425 54.0085 35.2636 54.358 34.9754 54.6462C35.4567 54.9344 36.0484 55.0693 36.7474 55.0448C37.4955 55.0202 38.1822 54.8026 38.8077 54.3948C39.4576 54.0085 40.0493 53.6008 40.5797 53.1654L33.6724 73.777V95.7621H39.9635C42.4223 95.6885 43.9153 94.269 44.4457 91.4944C46.23 81.2975 49.3756 72.7162 53.8823 65.7506C57.3283 60.9281 59.0544 55.3851 59.0544 49.1185C59.0544 47.4078 58.9226 45.743 58.6558 44.1273C57.7146 38.2225 55.0167 33.0382 50.5559 28.5805C44.8903 22.9149 38.0443 20.082 30.0179 20.082C21.9916 20.082 15.1456 22.9149 9.47993 28.5805C5.01914 33.029 2.32121 38.2103 1.38 44.1151Z" fill="#FFE14F"/>
<path d="M33.6499 96.5897H20.4527C20.4203 96.5897 20.3842 96.5897 20.3517 96.5825C17.3681 96.2217 15.456 94.3385 14.6695 90.9761C12.8584 81.2099 9.74861 72.8833 5.41932 66.1873C1.90538 61.2736 0.112305 55.512 0.112305 49.0939C0.112305 47.3477 0.249404 45.6196 0.523592 43.9672C1.48686 37.9135 4.29368 32.5235 8.86107 27.9561C14.6659 22.1512 21.7768 19.2109 29.9989 19.2109C38.2245 19.2109 45.3354 22.1548 51.1402 27.9561C55.7076 32.5235 58.5144 37.9135 59.4777 43.9709C59.7483 45.6196 59.8854 47.3441 59.8854 49.0939C59.8854 55.512 58.0923 61.2772 54.5567 66.2234C50.1553 73.0276 47.0202 81.5852 45.2668 91.6183C44.502 95.6229 41.9621 96.532 39.9706 96.5897H33.6499ZM34.5013 94.8869H39.9418C41.9657 94.8255 43.1346 93.6927 43.5892 91.3116C45.3822 81.062 48.6003 72.2952 53.1497 65.2637C56.4977 60.5809 58.1825 55.1512 58.1825 49.0939C58.1825 47.4343 58.0526 45.8036 57.7965 44.2414C56.8873 38.5412 54.2428 33.4651 49.9352 29.1575C44.4622 23.6845 37.7555 20.9102 29.9989 20.9102C22.2422 20.9102 15.5354 23.6845 10.0625 29.1575C5.75484 33.4687 3.10674 38.5412 2.2012 44.2378C1.94505 45.8036 1.81515 47.4379 1.81515 49.0939C1.81515 55.1512 3.49997 60.5809 6.8263 65.2313C11.2999 72.1509 14.4927 80.6832 16.3363 90.6298C16.9388 93.1985 18.3025 94.6055 20.5069 94.8869H25.0634V74.449L17.3429 53.6216C17.1913 53.2103 17.3754 52.7521 17.7686 52.5609C18.1619 52.3697 18.638 52.5104 18.8653 52.882C19.291 53.5747 19.8467 54.022 20.5646 54.2493C21.0877 54.4008 21.5928 54.4297 22.0979 54.3323C21.6 53.6757 21.2645 52.9216 21.0985 52.0774C20.9182 51.2982 20.9939 50.4972 21.3367 49.7288C21.4774 49.4402 21.6253 49.2165 21.7876 49.0217C22.1881 48.5202 22.7148 48.1883 23.3425 48.0476C23.9956 47.9322 24.5944 48.0476 25.1103 48.3795C25.3485 48.5094 25.619 48.715 25.868 48.964C25.9329 49.0289 25.987 49.1011 26.0267 49.184C26.1241 49.3103 26.2107 49.4366 26.2865 49.5629C26.4885 49.9597 26.6076 50.3854 26.6509 50.8436C26.7014 50.4215 26.8168 50.0246 27.0008 49.6567C27.5059 48.614 28.4295 48.0656 29.5479 48.1378C30.2334 48.1883 31.1533 48.5022 31.7161 49.7144C32.0805 50.4431 32.1779 51.2729 31.9939 52.1604C31.8316 53.0551 31.4419 53.8669 30.8394 54.5776C31.4924 54.8301 32.1454 54.8951 32.8129 54.7688C33.0726 54.7183 33.318 54.6425 33.5525 54.5379C32.8057 53.6396 32.4304 52.4202 32.4088 50.8797C32.4413 50.1184 32.6217 49.4618 32.9572 48.8846C33.5525 47.8744 34.3173 47.6652 34.8512 47.6652C35.2806 47.6399 35.9697 47.7626 36.6118 48.4986C36.987 48.9387 37.2215 49.4691 37.3189 50.0824C37.6003 51.4208 37.3298 52.7629 36.5072 54.0401C36.4783 54.0833 36.4495 54.1302 36.417 54.1735C36.5072 54.1771 36.6046 54.1771 36.702 54.1735C37.2973 54.1519 37.8276 53.9859 38.3255 53.6612C38.9713 53.2788 39.5305 52.8892 40.0247 52.4851C40.317 52.247 40.7355 52.229 41.0458 52.4418C41.356 52.6583 41.4895 53.0551 41.3704 53.4123L34.5085 73.8898V94.8869H34.5013ZM26.7627 94.8869H32.7984V73.7527C32.7984 73.6589 32.8129 73.5688 32.8417 73.4822L38.9424 55.2703C38.2822 55.6419 37.539 55.8511 36.7489 55.8728C36.132 55.9016 35.562 55.8078 35.0569 55.6202C34.476 56.0279 33.8266 56.3021 33.1231 56.4392C31.8676 56.6737 30.6338 56.4608 29.4469 55.8006C28.5521 56.3779 27.5672 56.6593 26.5065 56.634C26.0664 56.6593 25.5577 56.6015 25.0562 56.4536C24.5187 56.2913 24.0064 56.0279 23.5193 55.6708C22.3937 56.1398 21.2609 56.2263 20.0667 55.8728C20.0379 55.862 20.009 55.8547 19.9802 55.8439L26.7086 73.9981C26.7446 74.0919 26.7627 74.1929 26.7627 74.2939V94.8869ZM25.1031 54.6498C25.251 54.7219 25.3953 54.7797 25.5433 54.8229C25.8535 54.9131 26.1602 54.9492 26.4741 54.9312C27.0333 54.9312 27.5131 54.8518 27.9677 54.6606C27.3255 53.9859 26.9034 53.1706 26.7014 52.2326C26.6689 52.063 26.6472 51.897 26.6328 51.7383C26.6039 52.0125 26.5535 52.2939 26.4813 52.5861C26.4741 52.615 26.4669 52.6439 26.456 52.6691C26.3406 52.9866 26.1963 53.2896 26.0231 53.5747C25.767 53.9823 25.4603 54.3395 25.1031 54.6498ZM29.335 49.8298C29.0175 49.8298 28.7469 49.9453 28.5233 50.4035C28.3104 50.8256 28.2671 51.3126 28.3754 51.9007C28.5233 52.5897 28.8516 53.1706 29.3711 53.654C29.8798 53.1237 30.19 52.5248 30.3163 51.8321C30.4245 51.3018 30.3777 50.8544 30.1756 50.4468C29.9375 49.9308 29.6633 49.8479 29.4252 49.8298C29.3963 49.8334 29.3639 49.8298 29.335 49.8298ZM23.8188 49.6999C23.7719 49.6999 23.725 49.7036 23.6745 49.7144C23.4688 49.7613 23.274 49.8839 23.108 50.0968C23.0178 50.205 22.9457 50.3205 22.8771 50.4503C22.704 50.8472 22.6607 51.2765 22.7653 51.7239C22.9096 52.4635 23.2163 53.0804 23.7033 53.5999C24.0641 53.3402 24.3563 53.0371 24.5872 52.6799C24.681 52.5248 24.7712 52.3336 24.847 52.1352C25.0274 51.3992 25.0057 50.8075 24.7929 50.3818C24.7712 50.3493 24.7063 50.2591 24.6341 50.1726C24.6161 50.1473 24.5945 50.122 24.58 50.0932C24.4682 49.9922 24.3527 49.9092 24.2373 49.8442C24.0821 49.7432 23.9559 49.6999 23.8188 49.6999ZM34.9198 49.3644C34.909 49.3644 34.9018 49.3644 34.8945 49.3644C34.7105 49.3644 34.5663 49.4943 34.4183 49.7432C34.2235 50.0752 34.1189 50.4576 34.1009 50.9013C34.1189 52.0197 34.3606 52.8639 34.8404 53.4448C34.9162 53.3402 34.9919 53.2319 35.0677 53.1165C35.6449 52.2181 35.8325 51.327 35.6377 50.389C35.5836 50.0427 35.479 49.801 35.313 49.6098C35.1218 49.3861 34.9883 49.3644 34.9198 49.3644Z" fill="#121212"/>
<path d="M23.4275 28.1781C23.7892 27.9849 24.0436 27.709 24.1877 27.3473C24.3073 26.9856 24.295 26.6239 24.1509 26.2622C23.9823 25.8759 23.7064 25.6245 23.3202 25.5019C22.9585 25.3579 22.5967 25.3701 22.235 25.5387C17.9679 27.4914 14.5346 30.0449 11.9321 33.2023C11.6684 33.4905 11.5581 33.8399 11.6071 34.2507C11.6562 34.637 11.837 34.9619 12.1497 35.2255C12.4379 35.4891 12.7873 35.5995 13.1981 35.5505C13.5843 35.5014 13.9093 35.3328 14.1729 35.0447C16.5364 32.203 19.6202 29.9131 23.4275 28.1781ZM10.1602 38.5178C9.77399 38.3737 9.40001 38.3737 9.03828 38.5178C8.67656 38.6619 8.41293 38.9286 8.24433 39.3118C7.90714 40.0842 7.60672 40.8659 7.34002 41.663C7.22047 42.0492 7.245 42.4232 7.4136 42.7849C7.5822 43.1466 7.85809 43.3888 8.24433 43.5084C8.63058 43.6279 9.00456 43.6034 9.36628 43.4348C9.70348 43.2662 9.94565 42.9903 10.0897 42.604C10.3534 41.8561 10.6323 41.1326 10.9205 40.4337C11.0645 40.0475 11.0645 39.6735 10.9205 39.3118C10.7764 38.9531 10.522 38.6864 10.1602 38.5178Z" fill="white"/>
<path d="M46.9778 95.4222C46.9778 94.5301 46.6651 93.7698 46.0366 93.1443C45.4112 92.5189 44.6509 92.2031 43.7587 92.2031H16.2797C15.3875 92.2031 14.6272 92.5158 14.0018 93.1443C13.3763 93.7698 13.0605 94.5301 13.0605 95.4222V95.8208C13.0605 96.713 13.3733 97.4733 14.0018 98.0987C14.6272 98.7241 15.3875 99.0399 16.2797 99.0399H43.7587C44.6509 99.0399 45.4112 98.7272 46.0366 98.0987C46.662 97.4733 46.9778 96.713 46.9778 95.8208V95.4222Z" fill="#A7A7A7"/>
<path d="M43.7411 99.8719H16.2609C15.1389 99.8719 14.1685 99.4714 13.382 98.6813C12.5919 97.8912 12.1914 96.9243 12.1914 95.8023V95.4055C12.1914 94.2835 12.5919 93.313 13.382 92.5265C14.1721 91.7364 15.1389 91.3359 16.2609 91.3359H43.7411C44.8631 91.3359 45.8336 91.7364 46.6201 92.5265C47.4102 93.3166 47.8107 94.2835 47.8107 95.4055V95.8023C47.8107 96.9243 47.4102 97.8948 46.6201 98.6813C45.83 99.4714 44.8631 99.8719 43.7411 99.8719ZM16.2573 93.0388C15.5935 93.0388 15.0451 93.2661 14.5797 93.7279C14.1143 94.1933 13.8907 94.7416 13.8907 95.4055V95.8023C13.8907 96.4661 14.1179 97.0145 14.5797 97.4799C15.0451 97.9453 15.5935 98.169 16.2573 98.169H43.7375C44.4013 98.169 44.9497 97.9417 45.4151 97.4799C45.8805 97.0145 46.1042 96.4661 46.1042 95.8023V95.4055C46.1042 94.7416 45.8769 94.1933 45.4151 93.7279C44.9497 93.2625 44.4013 93.0388 43.7375 93.0388H16.2573Z" fill="#121212"/>
<path d="M46.9778 102.403C46.9778 101.511 46.6651 100.75 46.0366 100.125C45.4112 99.4994 44.6509 99.1836 43.7587 99.1836H16.2797C15.3875 99.1836 14.6272 99.4963 14.0018 100.125C13.3763 100.75 13.0605 101.511 13.0605 102.403V102.801C13.0605 103.693 13.3733 104.454 14.0018 105.079C14.6272 105.705 15.3875 106.02 16.2797 106.02H43.7587C44.6509 106.02 45.4112 105.708 46.0366 105.079C46.662 104.454 46.9778 103.693 46.9778 102.801V102.403Z" fill="#A7A7A7"/>
<path d="M43.7404 106.848H16.2603C15.1383 106.848 14.1678 106.448 13.3813 105.658C12.5912 104.868 12.1943 103.901 12.1943 102.779V102.382C12.1943 101.26 12.5948 100.29 13.3849 99.5031C14.175 98.713 15.1419 98.3125 16.2639 98.3125H43.744C44.8661 98.3125 45.8365 98.713 46.623 99.5031C47.4131 100.293 47.81 101.26 47.81 102.382V102.779C47.81 103.901 47.4095 104.871 46.6194 105.658C45.8293 106.448 44.8624 106.848 43.7404 106.848ZM16.2567 100.015C15.5928 100.015 15.0444 100.243 14.5827 100.708C14.1173 101.173 13.89 101.722 13.89 102.386V102.782C13.89 103.446 14.1173 103.995 14.579 104.46C15.0444 104.925 15.5928 105.153 16.2567 105.153H43.7368C44.4006 105.153 44.949 104.925 45.4108 104.46C45.8762 103.995 46.1035 103.446 46.1035 102.782V102.386C46.1035 101.722 45.8762 101.173 45.4144 100.708C44.949 100.243 44.4006 100.015 43.7368 100.015H16.2567Z" fill="#121212"/>
<path d="M29.6512 10.9242C29.1822 10.9242 28.7998 10.5454 28.7998 10.0728V0.85142C28.7998 0.382415 29.1822 0 29.6512 0C30.1202 0 30.5026 0.378807 30.5026 0.85142V10.0728C30.5026 10.5418 30.1202 10.9242 29.6512 10.9242Z" fill="#121212"/>
<path d="M17.5816 13.7541C17.3471 13.7541 17.1126 13.6567 16.9467 13.4691L10.6909 6.41957C10.3806 6.06962 10.4094 5.52848 10.763 5.21821C11.113 4.90795 11.6505 4.93679 11.9644 5.29035L18.2202 12.3399C18.5305 12.6898 18.5016 13.231 18.148 13.5412C17.9857 13.6819 17.7837 13.7541 17.5816 13.7541Z" fill="#121212"/>
<path d="M42.9678 13.7541C42.7658 13.7541 42.5638 13.6819 42.4014 13.5412C42.0515 13.231 42.019 12.6898 42.3293 12.3399L48.5851 5.29035C48.8953 4.93679 49.4365 4.90795 49.7864 5.21821C50.1364 5.52848 50.1689 6.06962 49.8586 6.41957L43.6028 13.4691C43.4368 13.6567 43.2023 13.7541 42.9678 13.7541Z" fill="#121212"/>
</g>
<defs>
<clipPath id="clip0_2660_1926">
<rect width="59.773" height="121" fill="white" transform="translate(0.113281)"/>
</clipPath>
</defs>
</svg>
