<svg width="400" height="399" viewBox="0 0 400 399" fill="none" xmlns="http://www.w3.org/2000/svg">
<g clip-path="url(#clip0_2660_1965)">
<path d="M273.847 261.983C278.239 258.335 282.605 256.192 286.947 255.553C291.734 254.763 295.285 256.023 297.6 259.319C303.322 272.819 310.399 283.661 318.838 291.84C328.801 301.498 340.615 307.364 354.28 309.432C356.005 308.937 357.731 308.523 359.462 308.172C370.317 306.004 378.975 308.047 385.437 314.308C391.899 320.519 394.265 329.143 392.539 340.179C390.713 351.122 385.337 361.244 376.409 370.557C367.38 379.82 357.417 385.561 346.513 387.779C335.609 389.898 326.932 387.855 320.469 381.644C314.007 375.339 311.667 366.715 313.442 355.772C314.377 349.612 316.523 343.727 319.88 338.105C311.347 334.357 303.379 329.431 295.982 323.32C304.025 329.726 314.779 335.736 328.243 341.358C314.772 335.742 304.019 329.726 295.982 323.32C294.846 322.431 293.761 321.522 292.725 320.588C288.283 316.596 285.052 313.612 283.032 311.645C280.911 309.821 278.025 306.079 274.374 300.407C270.622 294.842 268.501 287.967 268.012 279.782C267.51 271.666 269.455 265.724 273.847 261.983Z" fill="#51C4FF"/>
<path d="M338.657 390.071C341.23 390.071 343.946 389.795 346.801 389.244C357.962 386.975 368.277 381.04 377.475 371.602C386.578 362.107 392.137 351.622 394.007 340.434C395.807 328.928 393.273 319.79 386.472 313.253C379.671 306.673 370.492 304.473 359.18 306.735C357.523 307.068 355.848 307.469 354.198 307.932C341.041 305.877 329.497 300.111 319.879 290.791C311.629 282.788 304.595 272.008 298.974 258.753C298.654 258.001 297.782 257.65 297.035 257.97C296.282 258.289 295.931 259.154 296.251 259.906C302.023 273.531 309.282 284.637 317.821 292.916C327.954 302.743 340.15 308.791 354.06 310.903C354.273 310.934 354.487 310.922 354.687 310.866C356.363 310.389 358.063 309.976 359.751 309.637C370.197 307.55 378.253 309.43 384.401 315.384C390.556 321.294 392.733 329.335 391.071 339.964C389.308 350.537 384.012 360.496 375.329 369.552C366.564 378.546 356.764 384.205 346.211 386.348C335.727 388.385 327.634 386.505 321.485 380.595C315.343 374.597 313.178 366.556 314.891 356.027C315.757 350.362 317.696 344.872 320.676 339.676C322.922 340.71 325.25 341.732 327.659 342.741C328.412 343.054 329.278 342.703 329.597 341.945C329.911 341.193 329.554 340.328 328.801 340.008C315.525 334.468 304.784 328.47 296.891 322.184L296.885 322.178C295.78 321.319 294.714 320.417 293.71 319.514C289.299 315.547 286.049 312.551 284.054 310.609C281.984 308.822 279.16 305.15 275.609 299.635C275.17 298.945 274.248 298.751 273.564 299.19C272.874 299.628 272.679 300.543 273.119 301.233C276.877 307.074 279.8 310.853 282.053 312.79C284.004 314.695 287.279 317.722 291.721 321.714C292.775 322.667 293.892 323.607 295.053 324.509C301.132 329.354 308.824 334.017 317.991 338.423C314.897 343.869 312.877 349.635 311.967 355.576C310.123 366.951 312.626 376.095 319.427 382.726C324.528 387.614 330.972 390.071 338.657 390.071Z" fill="#121212"/>
<path d="M182.981 345.275C174.197 346.898 167.27 349.537 162.188 353.184C153.11 359.445 148.354 366.615 147.909 374.693C147.513 382.728 151.334 388.538 159.378 392.135C167.421 395.632 177.459 397.506 189.493 397.751C201.577 397.995 212.086 396.666 221.014 393.758C229.892 390.8 234.654 384.865 235.294 375.947C236.084 366.978 232.407 359.389 224.27 353.178C222.99 352.144 221.679 351.204 220.349 350.37C217.983 339.283 217.337 327.382 218.423 314.666C219.508 301.949 220.964 288.769 222.789 275.119C210.21 262.503 197.656 261.124 185.126 270.983C182.955 282.464 181.65 295.105 181.205 308.9C180.709 322.75 181.305 334.877 182.981 345.275Z" fill="#51C4FF"/>
<path d="M192.259 399.263C203.308 399.263 213.127 397.89 221.477 395.17C230.945 392.018 236.09 385.588 236.78 376.055C237.608 366.617 233.706 358.513 225.179 352.008C224.062 351.105 222.877 350.247 221.685 349.463C219.457 338.734 218.867 327.076 219.915 314.799C220.994 302.17 222.462 288.884 224.276 275.321C224.382 274.513 223.818 273.767 223.008 273.661C222.193 273.554 221.452 274.118 221.346 274.933C219.526 288.539 218.052 301.869 216.973 314.548C215.881 327.346 216.534 339.504 218.924 350.685C219.006 351.074 219.244 351.418 219.583 351.625C220.863 352.434 222.136 353.343 223.36 354.333C231.171 360.293 234.59 367.312 233.844 375.817C233.241 384.184 228.9 389.586 220.568 392.356C211.847 395.195 201.413 396.518 189.543 396.273C177.754 396.035 167.816 394.18 159.986 390.777C152.507 387.43 149.037 382.191 149.401 374.758C149.815 367.206 154.408 360.349 163.047 354.389C167.941 350.88 174.717 348.31 183.212 346.731L189.662 346.073C190.477 345.991 191.067 345.264 190.986 344.449C190.904 343.635 190.164 343.045 189.361 343.127L184.247 343.647C182.754 333.688 182.233 322.025 182.704 308.945C183.143 295.289 184.454 282.61 186.6 271.248C186.751 270.445 186.224 269.675 185.421 269.518C184.617 269.367 183.846 269.894 183.689 270.696C181.512 282.203 180.188 295.038 179.743 308.839C179.266 322.088 179.799 333.933 181.317 344.073C173.017 345.753 166.297 348.404 161.341 351.964C151.93 358.45 146.91 366.071 146.446 374.595C146.02 383.269 150.173 389.617 158.787 393.472C166.981 397.038 177.308 398.968 189.48 399.219C190.402 399.25 191.337 399.263 192.259 399.263Z" fill="#121212"/>
<path d="M141.615 266.855C114.091 239.361 100.325 206.169 100.325 167.287C100.325 128.405 114.091 95.2199 141.615 67.7191C169.139 40.2183 202.366 26.4805 241.291 26.4805C280.215 26.4805 313.436 40.2309 340.966 67.7254C368.491 95.2199 382.256 128.411 382.256 167.293C382.256 206.176 368.491 239.361 340.96 266.855C313.436 294.35 280.209 308.1 241.284 308.1C202.366 308.1 169.145 294.35 141.615 266.855Z" fill="#51C4FF"/>
<path d="M241.29 309.578C280.434 309.578 314.326 295.558 342.007 267.9C369.694 240.243 383.729 206.394 383.729 167.292C383.729 128.191 369.694 94.3348 342.007 66.6773C314.32 39.0199 280.434 25 241.29 25C202.146 25 168.254 39.0199 140.573 66.6773C112.885 94.3348 98.8503 128.184 98.8503 167.286C98.8503 206.387 112.885 240.243 140.573 267.894C168.254 295.558 202.14 309.578 241.29 309.578ZM241.29 27.9582C279.624 27.9582 312.808 41.6897 339.918 68.7706C367.028 95.8515 380.774 128.999 380.774 167.292C380.774 205.585 367.028 238.733 339.918 265.813C312.808 292.894 279.624 306.626 241.29 306.626C202.955 306.626 169.772 292.894 142.662 265.813C115.552 238.733 101.805 205.585 101.805 167.292C101.805 128.999 115.552 95.8515 142.662 68.7706C169.772 41.6897 202.955 27.9582 241.29 27.9582Z" fill="#121212"/>
<path d="M207.028 75.8488C203.232 74.7144 199.48 75.5292 195.778 78.2868C195.076 78.8069 194.404 79.3522 193.783 79.91C195.308 77.1775 197.353 74.915 199.926 73.11C202.253 71.3489 204.6 70.2897 206.953 69.9325C208.552 69.7382 210.159 69.8636 211.765 70.3023C216.106 71.4868 219.287 74.3697 221.308 78.9511C223.428 83.6327 223.748 88.6591 222.268 94.0301C220.837 99.4513 218.076 103.613 213.979 106.521C212.035 107.975 210.058 108.934 208.057 109.404C207.931 109.454 207.806 109.479 207.687 109.479C211.075 106.784 213.496 103.061 214.939 98.317C216.47 93.2906 216.495 88.5588 215.015 84.1279C213.44 79.7909 210.78 77.0333 207.028 75.8488ZM193.783 79.9163C193.463 80.2547 193.168 80.5806 192.892 80.8752C194.442 77.7478 196.613 75.1657 199.405 73.1163C201.915 71.2737 204.43 70.2145 206.953 69.9388C204.594 70.3023 202.253 71.3614 199.926 73.1163C197.36 74.915 195.308 77.1837 193.783 79.9163Z" fill="white"/>
<path d="M191.563 85.6065C192.108 83.5446 192.849 81.6519 193.784 79.9159C194.411 79.3518 195.076 78.8128 195.779 78.2926C199.48 75.535 203.226 74.7203 207.028 75.8547C210.78 77.0392 213.44 79.7968 215.021 84.1337C216.502 88.571 216.477 93.2965 214.946 98.3228C213.503 103.067 211.087 106.79 207.693 109.485C205.742 109.83 203.766 109.736 201.771 109.19C197.63 108.056 194.543 105.223 192.523 100.692C190.402 96.0541 190.082 91.0277 191.563 85.6065Z" fill="#121212"/>
<path d="M205.516 111.181C206.326 111.181 207.135 111.119 207.938 110.981L208.34 110.899C210.705 110.423 213.039 109.351 215.298 107.722C219.608 104.569 222.582 100.07 224.144 94.3475C225.656 88.6067 225.336 83.2357 223.184 78.3597C220.926 73.3208 217.368 70.1057 212.6 68.8084C210.642 68.2757 208.666 68.1629 206.715 68.4825C204.136 68.8773 201.545 70.0431 199.029 71.942C196.325 73.8348 194.11 76.3041 192.485 79.2434V79.2497C191.494 81.0547 190.703 83.0727 190.133 85.2349C188.57 90.9569 188.922 96.3719 191.18 101.304C193.376 106.23 196.814 109.364 201.388 110.617C202.762 110.993 204.149 111.181 205.516 111.181ZM208.892 71.2652C209.864 71.2652 210.843 71.3968 211.816 71.6663C215.743 72.738 218.573 75.3201 220.474 79.563C222.343 83.806 222.62 88.5252 221.283 93.5892C219.903 98.6406 217.299 102.595 213.554 105.34C211.646 106.719 209.701 107.615 207.769 108.004L207.38 108.079C205.717 108.349 203.942 108.248 202.16 107.766C198.433 106.744 195.723 104.237 193.872 100.088C191.902 95.789 191.607 91.0509 192.987 85.9995C193.502 84.0504 194.204 82.2642 195.076 80.6661C196.482 78.1216 198.402 75.9907 200.773 74.3236C202.932 72.6941 205.077 71.7164 207.173 71.3968C207.75 71.309 208.321 71.2652 208.892 71.2652Z" fill="#121212"/>
<path d="M237.815 84.7941C234.019 83.6597 230.267 84.4745 226.566 87.2321C225.863 87.7523 225.192 88.2975 224.57 88.8553C226.095 86.1228 228.14 83.8603 230.713 82.0553C233.04 80.2942 235.387 79.235 237.74 78.8778C239.34 78.6835 240.946 78.8089 242.552 79.2476C246.893 80.4321 250.074 83.315 252.095 87.8964C254.215 92.5781 254.535 97.6044 253.055 102.975C251.624 108.397 248.864 112.558 244.767 115.466C242.822 116.92 240.845 117.879 238.844 118.349C238.718 118.399 238.593 118.424 238.474 118.424C241.862 115.729 244.283 112.007 245.727 107.262C247.257 102.236 247.282 97.5041 245.802 93.0732C244.227 88.7362 241.561 85.9786 237.815 84.7941ZM224.564 88.8616C224.244 89.2 223.949 89.5259 223.673 89.8205C225.223 86.6931 227.394 84.111 230.186 82.0616C232.695 80.219 235.211 79.1598 237.733 78.8841C235.374 79.2476 233.034 80.3067 230.706 82.0616C228.14 83.8666 226.095 86.129 224.564 88.8616Z" fill="white"/>
<path d="M222.349 94.548C222.895 92.486 223.635 90.5933 224.57 88.8573C225.197 88.2932 225.862 87.7542 226.565 87.2341C230.267 84.4765 234.012 83.6617 237.814 84.7961C241.566 85.9806 244.226 88.7382 245.807 93.0751C247.288 97.5124 247.263 102.238 245.732 107.264C244.289 112.009 241.874 115.731 238.479 118.426C236.528 118.771 234.552 118.677 232.557 118.132C228.416 116.997 225.329 114.164 223.309 109.633C221.188 104.995 220.868 99.9691 222.349 94.548Z" fill="#121212"/>
<path d="M236.297 120.119C237.106 120.119 237.915 120.05 238.719 119.918L239.12 119.837C241.492 119.354 243.826 118.289 246.078 116.659C250.388 113.507 253.362 109.013 254.924 103.285C256.436 97.5442 256.116 92.1732 253.964 87.2972C251.706 82.2583 248.148 79.0432 243.38 77.7459C241.423 77.2132 239.446 77.1004 237.501 77.42C234.923 77.8148 232.332 78.9806 229.816 80.8795C227.118 82.7723 224.903 85.2353 223.272 88.1809V88.1872C222.281 89.9922 221.49 92.0102 220.919 94.1724C219.357 99.9007 219.708 105.309 221.967 110.242C224.163 115.168 227.595 118.301 232.175 119.555C233.542 119.931 234.929 120.119 236.297 120.119ZM239.678 80.2027C240.651 80.2027 241.63 80.3343 242.602 80.6038C246.53 81.6755 249.359 84.2576 251.26 88.5005C253.13 92.7435 253.406 97.4627 252.07 102.527C250.689 107.578 248.086 111.539 244.34 114.278C242.433 115.657 240.488 116.553 238.555 116.941L238.16 117.023C236.504 117.292 234.722 117.192 232.946 116.71C229.22 115.688 226.509 113.181 224.658 109.032C222.688 104.733 222.393 99.9947 223.774 94.9433C224.288 93.0004 224.985 91.208 225.863 89.6161C227.275 87.0716 229.188 84.9345 231.56 83.2736C233.718 81.6442 235.864 80.6665 237.966 80.3468C238.53 80.2465 239.108 80.2027 239.678 80.2027Z" fill="#121212"/>
<path d="M213.85 145.352C217.658 145.352 221.372 144.4 224.955 142.488C230.765 139.467 234.711 134.842 236.687 128.732C236.813 128.356 236.775 127.948 236.593 127.597C236.411 127.246 236.097 126.983 235.715 126.864L192.117 113.465C191.734 113.346 191.32 113.389 190.975 113.577C190.623 113.765 190.366 114.091 190.259 114.48C188.521 120.678 189.174 126.707 192.192 132.398C195.36 138.27 200.179 142.238 206.509 144.199C208.987 144.97 211.434 145.352 213.85 145.352ZM233.362 129.246C231.505 133.94 228.286 137.431 223.581 139.875C223.574 139.875 223.575 139.881 223.568 139.881C218.367 142.651 213.072 143.14 207.387 141.379C201.741 139.63 197.625 136.24 194.802 131.013C192.361 126.407 191.684 121.731 192.744 116.761L233.362 129.246Z" fill="#121212"/>
<path d="M26.9937 353.161C36.0015 350.622 43.7399 352.693 50.2211 359.378L31.4642 381.602L26.9937 353.161Z" fill="#434343"/>
<path d="M38.2313 313.857C32.6507 313.33 26.8427 313.384 20.8029 314.013L69.8713 131.101C75.7509 130.683 81.513 130.824 87.1471 131.514L38.2313 313.857ZM109.036 137.295C109.641 137.509 110.216 137.741 110.767 137.985C115.707 140.125 120.514 142.761 125.186 145.9L76.1176 328.812C71.5832 325.353 66.8348 322.499 61.8706 320.256C61.3399 319.958 60.7644 319.707 60.1593 319.493L109.036 137.295ZM88.9855 131.779C95.9234 132.767 102.6 134.606 109.028 137.3L60.1516 319.497C53.7963 316.726 47.1003 314.933 40.0697 314.122C39.4871 314.018 38.8677 313.93 38.2252 313.855L87.1411 131.513C87.7427 131.57 88.3561 131.656 88.9855 131.779Z" fill="#FF6161"/>
<path d="M60.1586 319.5C60.7637 319.714 61.3316 319.97 61.8699 320.263C66.8324 322.512 71.5825 325.36 76.1168 328.819L50.2257 359.384C43.7447 352.699 36.0064 350.627 26.9989 353.167L20.804 314.014C26.8439 313.386 32.6579 313.333 38.2324 313.858C38.8765 313.927 39.4959 314.015 40.0768 314.125C47.109 314.93 53.805 316.722 60.1586 319.5ZM109.037 137.296C102.607 134.609 95.9242 132.768 88.994 131.776C88.363 131.659 87.7496 131.573 87.1496 131.509C81.5155 130.819 75.7534 130.678 69.8739 131.096L73.1493 118.886C93.2746 117.538 111.714 122.474 128.468 133.693L125.193 145.903C120.521 142.764 115.714 140.128 110.774 137.988C110.216 137.742 109.642 137.51 109.037 137.296Z" fill="white"/>
<path d="M132.175 119.846L128.46 133.696C111.705 122.477 93.265 117.541 73.1391 118.889L76.8547 105.038C78.8977 97.4231 83.3615 91.63 90.2539 87.6548C97.0833 83.7212 104.308 82.7678 111.932 84.8082C119.555 86.8487 125.36 91.2833 129.352 98.1199C133.277 104.99 134.218 112.23 132.175 119.846Z" fill="#FFF64F"/>
<path d="M31.4947 383.061C31.9211 383.061 32.3413 382.873 32.6235 382.535L51.3578 360.321C51.364 360.315 51.3766 360.303 51.3828 360.296L77.2483 329.753C77.2608 329.74 77.2734 329.728 77.2859 329.709C77.2922 329.703 77.3048 329.69 77.311 329.678C77.311 329.678 77.311 329.671 77.3173 329.671C77.4427 329.508 77.5243 329.327 77.5682 329.139L126.632 146.297C126.638 146.278 126.645 146.253 126.651 146.234L129.908 134.089C129.914 134.07 129.921 134.045 129.927 134.026L133.636 120.207C135.776 112.242 134.781 104.553 130.669 97.3721C126.495 90.2103 120.339 85.5054 112.364 83.3765C104.389 81.2414 96.7199 82.2521 89.5772 86.371C82.3717 90.5274 77.6363 96.6824 75.4963 104.654L71.7873 118.473C71.781 118.492 71.7747 118.517 71.7685 118.536L68.5114 130.681C68.5051 130.7 68.4988 130.725 68.4925 130.75L19.4287 313.592C19.3785 313.767 19.3597 313.955 19.3784 314.15L19.3784 314.156C19.3784 314.156 19.3784 314.156 19.3784 314.162L19.3784 314.168L19.3784 314.175C19.3784 314.2 19.3847 314.225 19.391 314.256L25.5702 353.371C25.5702 353.384 25.5765 353.396 25.5765 353.409L30.0404 381.827C30.1343 382.397 30.548 382.867 31.106 383.024C31.2314 383.049 31.363 383.061 31.4947 383.061ZM48.2292 359.451L32.4552 378.154L28.6988 354.242C36.2297 352.466 42.6374 354.182 48.2292 359.451ZM73.9817 329.039L50.1358 357.195C43.9109 351.399 36.5565 349.433 28.2293 351.321L22.5446 315.327C27.9119 314.856 33.135 314.854 38.1134 315.317C38.7216 315.386 39.2922 315.467 39.8439 315.567C46.7848 316.368 53.3868 318.134 59.5686 320.833C59.5874 320.839 59.6125 320.852 59.6313 320.858C59.6501 320.864 59.6689 320.877 59.694 320.883C60.2143 321.065 60.7096 321.29 61.161 321.541C65.65 323.564 69.9256 326.076 73.9817 329.039ZM123.503 146.53L75.2615 326.313C71.1803 323.375 66.8984 320.888 62.4972 318.896C62.3279 318.802 62.1399 318.702 61.9455 318.608L110.068 139.27C110.106 139.288 110.143 139.307 110.187 139.32C114.726 141.286 119.196 143.711 123.503 146.53ZM107.303 138.161L59.1932 317.455C53.1995 315.013 46.8482 313.391 40.2835 312.641C40.2334 312.634 40.1832 312.622 40.133 312.616L88.2869 133.146C88.4436 133.171 88.6066 133.202 88.7696 133.227C95.1713 134.141 101.385 135.794 107.303 138.161ZM30.5147 312.01C27.9879 312.011 25.4233 312.118 22.8274 312.331L71.0817 132.498C75.8973 132.215 80.6751 132.308 85.3212 132.783L37.161 312.259C34.9853 312.097 32.7657 312.01 30.5147 312.01ZM126.779 134.328L124.313 143.534C120.119 140.846 115.78 138.523 111.385 136.625C110.834 136.374 110.219 136.124 109.573 135.898C109.567 135.898 109.561 135.892 109.555 135.892C103.128 133.199 96.2692 131.314 89.2469 130.313C88.6387 130.2 87.9929 130.106 87.3596 130.044C87.3471 130.044 87.3408 130.044 87.3283 130.038C82.3311 129.425 77.1332 129.244 71.8913 129.502L74.3576 120.302C93.2812 119.239 110.918 123.954 126.779 134.328ZM104.35 85.2521C106.726 85.2516 109.14 85.5769 111.585 86.2343C118.777 88.1566 124.331 92.4041 128.098 98.8579C131.796 105.331 132.697 112.261 130.771 119.45L127.582 131.326C111.665 121.14 94.0657 116.425 75.161 117.294L78.349 105.418C80.2757 98.2297 84.547 92.6827 91.0501 88.9337C95.2955 86.4825 99.7539 85.2532 104.35 85.2521Z" fill="#121212"/>
<path d="M103.974 147.578C105.638 150.238 106.721 152.99 107.228 155.841C137.821 160.825 157.34 163.654 165.79 164.342C174.154 164.959 179.893 165.645 183.006 166.415C186.178 167.146 189.013 168.559 191.517 170.654C194.009 172.798 196.419 175.631 198.743 179.145C201.33 183.08 202.708 187.064 202.889 191.1C202.946 195.005 202.517 198.952 201.595 202.939C200.587 206.855 199.199 210.021 197.421 212.448C195.633 214.917 192.862 216.96 189.097 218.568C186.295 219.743 179.316 219.825 168.157 218.821C164.429 218.514 160.277 218.091 155.697 217.542C137.107 215.178 118.579 211.761 100.118 207.304C81.6912 202.701 69.6131 198.321 63.8885 194.17C58.2355 189.934 54.9282 184.212 53.9592 177.009C53.0015 169.758 54.8567 164.044 59.5201 159.858C64.1182 155.509 69.034 153.072 74.2708 152.563C79.5843 151.916 84.9349 151.89 90.3193 152.469C90.5088 152.513 90.6743 152.576 90.8097 152.659C90.6424 151.405 90.6181 150.312 90.7306 149.38C90.829 148.09 91.1855 146.854 91.8097 145.686C92.4728 144.572 93.3913 143.774 94.5665 143.286C96.1706 142.697 97.9816 142.858 99.9965 143.779C101.579 144.594 102.902 145.864 103.974 147.578Z" fill="#51C4FF"/>
<path d="M168.253 220.242C169.018 220.242 169.664 219.659 169.727 218.882C169.796 218.067 169.188 217.353 168.372 217.29C164.689 216.989 160.517 216.563 155.968 216.012C137.529 213.668 118.883 210.233 100.563 205.802C82.4186 201.271 70.3976 196.928 64.8577 192.911C59.506 188.9 56.4443 183.604 55.5221 176.754C54.6249 169.96 56.2875 164.771 60.604 160.898C64.9644 156.774 69.6322 154.449 74.5071 153.973C79.6643 153.346 84.8968 153.308 90.0979 153.86C90.581 154.142 91.2084 154.136 91.6789 153.828C92.1558 153.515 92.4381 152.964 92.3628 152.4C92.2122 151.278 92.1871 150.3 92.2875 149.492C92.3754 148.338 92.6828 147.292 93.2098 146.314C93.6741 145.537 94.3454 144.948 95.23 144.584C96.4095 144.152 97.8149 144.302 99.4775 145.061C100.764 145.731 101.88 146.803 102.822 148.301C104.377 150.789 105.4 153.39 105.877 156.034C105.99 156.655 106.473 157.131 107.094 157.238C137.579 162.201 157.323 165.066 165.774 165.749C166.578 165.83 167.305 165.21 167.368 164.395C167.431 163.58 166.829 162.866 166.013 162.803C157.738 162.132 138.414 159.331 108.581 154.48C107.979 151.823 106.887 149.216 105.331 146.734C104.12 144.797 102.589 143.343 100.776 142.403C98.3356 141.288 96.1334 141.106 94.1509 141.833C92.6263 142.466 91.4594 143.475 90.6375 144.866C89.8846 146.27 89.4642 147.712 89.3513 149.21C89.2948 149.692 89.2698 150.231 89.276 150.814C84.238 150.356 79.1624 150.432 74.1871 151.04C68.6786 151.579 63.421 154.167 58.6026 158.729C53.6022 163.21 51.5757 169.415 52.5921 177.149C53.6085 184.726 57.147 190.83 63.101 195.298C69.055 199.617 81.0697 203.991 99.8602 208.685C118.293 213.141 137.046 216.594 155.611 218.957C160.209 219.509 164.419 219.941 168.14 220.242C168.171 220.242 168.209 220.242 168.253 220.242Z" fill="#121212"/>
</g>
<defs>
<clipPath id="clip0_2660_1965">
<rect width="399.568" height="399" fill="white" transform="matrix(-1 0 0 1 399.568 0)"/>
</clipPath>
</defs>
</svg>
