<svg width="100" height="52" viewBox="0 0 100 52" fill="none" xmlns="http://www.w3.org/2000/svg">
<g id="Frame" clip-path="url(#clip0_1174_1004)">
<g id="Group">
<path id="Vector" d="M29.7121 4.55609C29.7121 5.3492 29.4112 6.12865 28.8096 6.73032L9.7748 25.7651L28.8096 44.7998C30.0129 46.0032 30.0129 47.9449 28.8096 49.1483C27.6062 50.3516 25.6644 50.3516 24.4611 49.1483L3.25212 27.9393C2.04877 26.736 2.04877 24.7942 3.25212 23.5908L24.4611 2.38186C25.6644 1.17852 27.6062 1.17852 28.8096 2.38186C29.4112 2.98353 29.7121 3.76298 29.7121 4.55609Z" fill="#121212"/>
<path id="Vector_2" d="M96.4427 25.7631C96.4427 27.4587 95.0616 28.8398 93.3659 28.8398L7.60018 28.8398C5.90455 28.8398 4.52344 27.4587 4.52344 25.7631C4.52344 24.0675 5.90455 22.6864 7.60017 22.6864L93.3659 22.6864C95.0752 22.6864 96.4427 24.0675 96.4427 25.7631Z" fill="#121212"/>
</g>
</g>
<defs>
<clipPath id="clip0_1174_1004">
<rect width="51.4286" height="100" fill="white" transform="translate(0 51.7148) rotate(-90)"/>
</clipPath>
</defs>
</svg>
