<svg width="100" height="52" viewBox="0 0 100 52" fill="none" xmlns="http://www.w3.org/2000/svg">
<g id="Frame" clip-path="url(#clip0_1174_1009)">
<g id="Group">
<path id="Vector" d="M70.2879 4.55609C70.2879 5.3492 70.5888 6.12865 71.1904 6.73032L90.2252 25.7651L71.1904 44.7998C69.9871 46.0032 69.9871 47.9449 71.1904 49.1483C72.3938 50.3516 74.3356 50.3516 75.5389 49.1483L96.7479 27.9393C97.9512 26.736 97.9512 24.7942 96.7479 23.5908L75.5389 2.38186C74.3356 1.17852 72.3938 1.17852 71.1904 2.38186C70.5888 2.98353 70.2879 3.76298 70.2879 4.55609Z" fill="#121212"/>
<path id="Vector_2" d="M3.55732 25.7631C3.55732 27.4587 4.93843 28.8398 6.63406 28.8398L92.3998 28.8398C94.0954 28.8398 95.4766 27.4587 95.4766 25.7631C95.4766 24.0675 94.0954 22.6864 92.3998 22.6864L6.63406 22.6864C4.92476 22.6864 3.55732 24.0675 3.55732 25.7631Z" fill="#121212"/>
</g>
</g>
<defs>
<clipPath id="clip0_1174_1009">
<rect width="51.4286" height="100" fill="white" transform="matrix(4.37114e-08 -1 -1 -4.37114e-08 100 51.7148)"/>
</clipPath>
</defs>
</svg>
