<svg xmlns="http://www.w3.org/2000/svg" width="25" height="25" viewBox="0 0 25 25" fill="none">
    <path fill-rule="evenodd" clip-rule="evenodd" d="M12.5 21.8821C17.1797 21.8821 20.9734 18.0183 20.9734 13.2521C20.9734 8.48594 17.1797 4.62216 12.5 4.62216C7.82025 4.62216 4.02656 8.48594 4.02656 13.2521C4.02656 18.0183 7.82025 21.8821 12.5 21.8821ZM13.5592 8.93715C13.5592 8.34138 13.085 7.85841 12.5 7.85841C11.915 7.85841 11.4408 8.34138 11.4408 8.93715V12.8053C11.4408 13.3775 11.664 13.9263 12.0613 14.3309L13.8694 16.1724C14.283 16.5937 14.9537 16.5937 15.3673 16.1724C15.7809 15.7512 15.7809 15.0681 15.3673 14.6468L13.5592 12.8053V8.93715Z" fill="white"/>
    <path d="M7.69773 3.63504C7.43302 3.10493 6.79333 2.88968 6.29896 3.20621C4.82386 4.15069 3.57527 5.42041 2.6457 6.92134C2.33416 7.42436 2.54454 8.07619 3.06463 8.3466C3.58473 8.617 4.21685 8.40267 4.53826 7.90613C5.25202 6.80349 6.17931 5.86051 7.26302 5.13523C7.75104 4.80863 7.96244 4.16516 7.69773 3.63504Z" fill="white"/>
    <path d="M17.3023 3.63504C17.567 3.10493 18.2067 2.88968 18.701 3.20621C20.1761 4.15069 21.4247 5.42041 22.3543 6.92134C22.6658 7.42436 22.4555 8.07619 21.9354 8.3466C21.4153 8.617 20.7832 8.40267 20.4617 7.90613C19.748 6.80349 18.8207 5.86051 17.737 5.13523C17.249 4.80863 17.0376 4.16516 17.3023 3.63504Z" fill="white"/>
</svg>