<?xml version="1.0" encoding="utf-8"?>
<!-- Generator: Adobe Illustrator 24.0.1, SVG Export Plug-In . SVG Version: 6.00 Build 0)  -->
<svg version="1.1" id="_x3C_Layer_x3E_" xmlns="http://www.w3.org/2000/svg" xmlns:xlink="http://www.w3.org/1999/xlink" x="0px"
	 y="0px" viewBox="0 0 897.5 881.3" style="enable-background:new 0 0 897.5 881.3;" xml:space="preserve">
<style type="text/css">
	.st0{fill:#FC9123;}
	.st1{fill:#FEDFCA;}
	.st2{fill:#440B02;}
	.st3{fill:#5F1401;}
	.st4{fill:#D43C55;}
	.st5{fill:#F27F92;}
</style>
<g>
	<g>
		<path class="st0" d="M303.4,223.3c18.4,32.1,13.6,70.2,0.7,103.6c-17.6,45.4-67.5,78.6-117.1,69.5c-42.9-7.8-68.2-45.7-80.1-85
			c-15.1-49.6-9.1-102.9-1.8-154.2c36.7-1.4,74-2.7,109.7,5.8C250.5,171.6,285.2,191.4,303.4,223.3z"/>
	</g>
	<g>
		<path class="st1" d="M269.3,239.3c11.9,20.7,8.8,45.3,0.4,66.9c-11.3,29.3-43.6,50.7-75.6,44.9c-27.7-5.1-44-29.5-51.7-54.9
			c-9.7-32-5.9-66.4-1.2-99.6c23.7-0.9,47.8-1.7,70.8,3.8C235.2,205.9,257.5,218.7,269.3,239.3z"/>
	</g>
	<g>
		<path class="st0" d="M546.7,223.3c-18.4,32.1-13.6,70.2-0.7,103.6c17.6,45.4,67.5,78.6,117.1,69.5c42.9-7.8,68.2-45.7,80.1-85
			c15.1-49.6,9.1-102.9,1.8-154.2c-36.7-1.4-74-2.7-109.7,5.8C599.6,171.6,564.9,191.4,546.7,223.3z"/>
	</g>
	<g>
		<path class="st1" d="M580.8,239.3c-11.9,20.7-8.8,45.3-0.4,66.9c11.3,29.3,43.6,50.7,75.6,44.9c27.7-5.1,44-29.5,51.7-54.9
			c9.7-32,5.9-66.4,1.2-99.6c-23.7-0.9-47.8-1.7-70.8,3.8C614.9,205.9,592.6,218.7,580.8,239.3z"/>
	</g>
	<g>
		<path class="st0" d="M719.8,604.8c0,48.9-70.6,155.4-294.7,155.4S130.3,658.4,130.3,604.8c0-156.4,70.6-400.6,294.7-400.6
			S719.8,448.4,719.8,604.8z"/>
	</g>
	<g>
		<g>
			<ellipse class="st2" cx="299.8" cy="513.8" rx="22.6" ry="31.6"/>
		</g>
		<g>
			<path class="st2" d="M572.9,513.8c0,17.5-10.1,31.6-22.6,31.6c-12.5,0-22.6-14.2-22.6-31.6c0-17.5,10.1-31.6,22.6-31.6
				C562.8,482.2,572.9,496.3,572.9,513.8z"/>
		</g>
	</g>
	<g>
		<path class="st3" d="M334.9,421.1c2,11.1-6.8,22-28.5,26c-21.7,3.9-52.6,0.2-54.6-10.9c-2-11.1,25.6-25.4,47.3-29.4
			C320.8,402.9,332.9,410,334.9,421.1z"/>
	</g>
	<g>
		<path class="st3" d="M515.2,421.1c-2,11.1,6.8,22,28.5,26c21.7,3.9,52.6,0.2,54.6-10.9c2-11.1-25.6-25.4-47.3-29.4
			C529.3,402.9,517.2,410,515.2,421.1z"/>
	</g>
	<g>
		<path class="st1" d="M719.5,610.3c-75.5-10-185.2-23.9-229.2-93.1c-50.1-78.9-6.6-211.4,43.8-290.1c-31.4-14.6-67.6-22.9-109-22.9
			c-41.3,0-77.3,8.3-108.7,22.8c50.4,78.7,94,211.2,43.8,290.2c-44.1,69.4-154.1,83.1-229.6,93.2c4.7,54.8,77.9,149.8,294.5,149.8
			C641,760.2,714.5,661.3,719.5,610.3z"/>
	</g>
	<g>
		<ellipse class="st3" cx="425.1" cy="562.9" rx="61" ry="35.8"/>
	</g>
	<g>
		<path class="st4" d="M463.4,722.9c22,0.7,46-8.2,61.4-24.1c15-15.3,25.1-48.6,1.9-62.1c-12.2-7.1-27.9-2.3-40.1,4.8
			c-25.4,14.7-38.5,19.4-68,17.8c-24.2-1.3-48.8,18.3-23.1,38.7C414,712.8,439,722.2,463.4,722.9z"/>
	</g>
	<g>
		<path class="st5" d="M463.4,722.9c22,0.7,46-8.2,61.4-24.1c3.9-4,7.5-9.2,10.2-15c-0.9-0.6-1.8-1.1-2.7-1.6
			c-8.5-4.4-18.5-4.6-28-3.7c-13,1.3-25.8,4.8-37.8,10.2c-8.8,3.9-33.5,15.6-36.3,28C440.9,720.4,452.2,722.6,463.4,722.9z"/>
	</g>
</g>
</svg>
